<svg width="24" height="24" viewBox="0 0 24 24" fill="none" xmlns="http://www.w3.org/2000/svg">
<path d="M13 8.00006C13 5.79006 11.21 4.00006 9 4.00006C6.79 4.00006 5 5.79006 5 8.00006C5 10.2101 6.79 12.0001 9 12.0001C11.21 12.0001 13 10.2101 13 8.00006ZM11 8.00006C11 9.10006 10.1 10.0001 9 10.0001C7.9 10.0001 7 9.10006 7 8.00006C7 6.90006 7.9 6.00006 9 6.00006C10.1 6.00006 11 6.90006 11 8.00006ZM1 18.0001V20.0001H17V18.0001C17 15.3401 11.67 14.0001 9 14.0001C6.33 14.0001 1 15.3401 1 18.0001ZM3 18.0001C3.2 17.2901 6.3 16.0001 9 16.0001C11.69 16.0001 14.78 17.2801 15 18.0001H3ZM20 15.0001V12.0001H23V10.0001H20V7.00006H18V10.0001H15V12.0001H18V15.0001H20Z" fill="#7B81FF"/>
</svg>
