<svg width="136" height="136" viewBox="0 0 136 136" fill="none" xmlns="http://www.w3.org/2000/svg">
<path d="M10.625 74.375H14.875V78.625H10.625V74.375Z" fill="#7B81FF"/>
<path d="M19.125 74.375H23.375V78.625H19.125V74.375Z" fill="#7B81FF"/>
<path d="M27.625 74.375H31.875V78.625H27.625V74.375Z" fill="#7B81FF"/>
<path d="M133.875 27.625H82.756C82.8197 26.9195 82.875 26.2097 82.875 25.5C82.875 12.6119 72.3881 2.125 59.5 2.125C51.5546 2.125 44.2914 6.14337 39.9904 12.699C37.5573 11.3794 34.7948 10.625 31.875 10.625C22.5016 10.625 14.875 18.2516 14.875 27.625V27.7759C7.6755 28.8108 2.125 35.0179 2.125 42.5C2.125 50.7004 8.79962 57.375 17 57.375H48.875V65.875H2.125V133.875H87.125V95.625H133.875V27.625ZM129.625 44.625H53.125V31.875H129.625V44.625ZM17 53.125C11.1414 53.125 6.375 48.3586 6.375 42.5C6.375 36.6414 11.1414 31.875 16.9278 31.8729L19.6201 31.8835L19.2738 29.4589C19.1717 28.7449 19.125 28.1626 19.125 27.625C19.125 20.5934 24.8434 14.875 31.875 14.875C37.4552 14.875 42.3406 18.4471 44.03 23.7596L48.0802 22.474C47.1665 19.601 45.5281 17.1381 43.4371 15.1916C46.9391 9.73038 52.9338 6.375 59.5 6.375C70.0464 6.375 78.625 14.9536 78.625 25.5C78.625 26.2097 78.5846 26.9216 78.506 27.625H48.875V53.125H17ZM82.875 70.125V82.875H6.375V70.125H82.875ZM6.375 129.625V87.125H82.875V129.625H6.375ZM87.125 91.375V65.875H53.125V48.875H129.625V91.375H87.125Z" fill="#7B81FF"/>
<path d="M57.375 36.125H61.625V40.375H57.375V36.125Z" fill="#7B81FF"/>
<path d="M65.875 36.125H70.125V40.375H65.875V36.125Z" fill="#7B81FF"/>
<path d="M74.375 36.125H78.625V40.375H74.375V36.125Z" fill="#7B81FF"/>
<path d="M35.2049 109.425C37.0834 107.508 38.25 104.89 38.25 102C38.25 96.1414 33.4836 91.375 27.625 91.375C21.7664 91.375 17 96.1414 17 102C17 104.89 18.1666 107.508 20.0451 109.425C14.5371 111.607 10.625 116.975 10.625 123.25V125.375H44.625V123.25C44.625 116.975 40.7129 111.607 35.2049 109.425ZM27.625 95.625C31.1397 95.625 34 98.4852 34 102C34 105.515 31.1397 108.375 27.625 108.375C24.1102 108.375 21.25 105.515 21.25 102C21.25 98.4852 24.1102 95.625 27.625 95.625ZM15.0896 121.125C16.0777 116.282 20.3681 112.625 25.5 112.625H29.75C34.8819 112.625 39.1744 116.282 40.1604 121.125H15.0896Z" fill="#7B81FF"/>
<path d="M115.955 71.1747C117.833 69.258 119 66.64 119 63.75C119 57.8914 114.234 53.125 108.375 53.125C102.516 53.125 97.75 57.8914 97.75 63.75C97.75 66.64 98.9166 69.258 100.795 71.1747C95.2871 73.3571 91.375 78.7249 91.375 85V87.125H125.375V85C125.375 78.7249 121.463 73.3571 115.955 71.1747ZM108.375 57.375C111.89 57.375 114.75 60.2352 114.75 63.75C114.75 67.2648 111.89 70.125 108.375 70.125C104.86 70.125 102 67.2648 102 63.75C102 60.2352 104.86 57.375 108.375 57.375ZM95.8396 82.875C96.8278 78.0321 101.118 74.375 106.25 74.375H110.5C115.632 74.375 119.924 78.0321 120.91 82.875H95.8396Z" fill="#7B81FF"/>
<path d="M57.375 53.125H91.375V57.375H57.375V53.125Z" fill="#7B81FF"/>
<path d="M48.875 91.375H78.625V95.625H48.875V91.375Z" fill="#7B81FF"/>
<path d="M48.875 99.875H78.625V104.125H48.875V99.875Z" fill="#7B81FF"/>
<path d="M48.875 108.375H78.625V112.625H48.875V108.375Z" fill="#7B81FF"/>
<path d="M74.375 116.875H78.625V121.125H74.375V116.875Z" fill="#7B81FF"/>
<path d="M65.875 116.875H70.125V121.125H65.875V116.875Z" fill="#7B81FF"/>
<path d="M57.375 116.875H61.625V121.125H57.375V116.875Z" fill="#7B81FF"/>
</svg>
