<svg width="70" height="70" viewBox="0 0 70 70" fill="none" xmlns="http://www.w3.org/2000/svg">
<path d="M31.5 56H38.5V49H31.5V56ZM35 0C15.68 0 0 15.68 0 35C0 54.32 15.68 70 35 70C54.32 70 70 54.32 70 35C70 15.68 54.32 0 35 0ZM35 63C19.565 63 7 50.435 7 35C7 19.565 19.565 7 35 7C50.435 7 63 19.565 63 35C63 50.435 50.435 63 35 63ZM35 14C27.265 14 21 20.265 21 28H28C28 24.15 31.15 21 35 21C38.85 21 42 24.15 42 28C42 35 31.5 34.125 31.5 45.5H38.5C38.5 37.625 49 36.75 49 28C49 20.265 42.735 14 35 14Z" fill="black"/>
</svg>
