<svg width="501" height="306" viewBox="0 0 501 306" fill="none" xmlns="http://www.w3.org/2000/svg">
<g clip-path="url(#clip0)">
<path d="M60.5424 305.679L59.6826 305.485C69.269 262.815 93.3603 224.068 127.519 196.379C153.344 175.478 184.058 161.5 216.771 155.76C249.483 150.02 283.117 152.707 314.506 163.568C345.894 174.43 374.004 193.108 396.189 217.845C418.375 242.581 433.905 272.562 441.318 304.964L440.459 305.16C420.166 215.981 342.077 153.697 250.559 153.697C160.241 153.697 80.3274 217.614 60.5424 305.679Z" fill="#3F3D56"/>
<path d="M183.803 54.5628C197.021 54.5628 207.736 43.8381 207.736 30.6085C207.736 17.379 197.021 6.6543 183.803 6.6543C170.585 6.6543 159.87 17.379 159.87 30.6085C159.87 43.8381 170.585 54.5628 183.803 54.5628Z" fill="#FF6584"/>
<path d="M80.6932 300.237C81.4396 302.998 83.9962 304.709 83.9962 304.709C83.9962 304.709 85.3427 301.942 84.5963 299.18C83.8498 296.418 81.2932 294.708 81.2932 294.708C81.2932 294.708 79.9468 297.475 80.6932 300.237Z" fill="#3F3D56"/>
<path d="M81.7901 299.643C83.8382 301.639 84.0884 304.707 84.0884 304.707C84.0884 304.707 81.0179 304.539 78.9697 302.543C76.9216 300.548 76.6714 297.48 76.6714 297.48C76.6714 297.48 79.7419 297.648 81.7901 299.643Z" fill="#7B81FF"/>
<path d="M137.535 300.237C138.281 302.998 140.838 304.709 140.838 304.709C140.838 304.709 142.184 301.942 141.438 299.18C140.692 296.418 138.135 294.708 138.135 294.708C138.135 294.708 136.789 297.475 137.535 300.237Z" fill="#3F3D56"/>
<path d="M138.632 299.643C140.68 301.639 140.93 304.707 140.93 304.707C140.93 304.707 137.86 304.539 135.812 302.543C133.763 300.548 133.513 297.48 133.513 297.48C133.513 297.48 136.584 297.648 138.632 299.643Z" fill="#7B81FF"/>
<path d="M148.806 80.2607L139.807 73.0544L190.204 28.0176H317.996V67.6501L235.201 123.496L148.806 80.2607Z" fill="#3F3D56"/>
<path d="M341.295 53.2807V28.9173H324.328V34.8839L317.996 28.0176L276.598 73.0544L260.399 83.8635L235.282 267.533L273.162 305.446H361.193V74.856L341.295 53.2807Z" fill="#CCCCCC"/>
<path d="M276.598 73.0547H139.807V305.446H276.598V73.0547Z" fill="#F2F2F2"/>
<path d="M218.102 248.699H192.903V305.446H218.102V248.699Z" fill="#CCCCCC"/>
<path d="M165.905 264.912V255.905H155.106V264.912H165.005H165.905Z" fill="#3F3D56"/>
<path d="M165.005 272.118H155.106V281.126H165.905V272.118H165.005Z" fill="#3F3D56"/>
<path d="M183.904 255.905H173.105V264.913H183.904V255.905Z" fill="#3F3D56"/>
<path d="M183.904 272.119H173.105V281.126H183.904V272.119Z" fill="#3F3D56"/>
<path d="M239.7 264.912V255.905H228.901V264.912H238.801H239.7Z" fill="#3F3D56"/>
<path d="M238.801 272.118H228.901V281.126H239.7V272.118H238.801Z" fill="#3F3D56"/>
<path d="M257.7 255.905H246.9V264.913H257.7V255.905Z" fill="#3F3D56"/>
<path d="M257.7 272.119H246.9V281.126H257.7V272.119Z" fill="#3F3D56"/>
<path d="M315.296 84.7644V75.7573H304.497V84.7644H314.396H315.296Z" fill="#3F3D56"/>
<path d="M314.396 91.9707H304.497V100.978H315.296V91.9707H314.396Z" fill="#3F3D56"/>
<path d="M333.295 75.7568H322.496V84.7643H333.295V75.7568Z" fill="#3F3D56"/>
<path d="M333.295 91.9702H322.496V100.978H333.295V91.9702Z" fill="#3F3D56"/>
<path d="M315.296 135.206V126.198H304.497V135.206H314.396H315.296Z" fill="#3F3D56"/>
<path d="M314.396 142.412H304.497V151.419H315.296V142.412H314.396Z" fill="#3F3D56"/>
<path d="M333.295 126.199H322.496V135.206H333.295V126.199Z" fill="#3F3D56"/>
<path d="M333.295 142.412H322.496V151.419H333.295V142.412Z" fill="#3F3D56"/>
<path d="M315.296 185.648V176.64H304.497V185.648H314.396H315.296Z" fill="#3F3D56"/>
<path d="M314.396 192.853H304.497V201.86H315.296V192.853H314.396Z" fill="#3F3D56"/>
<path d="M333.295 176.64H322.496V185.648H333.295V176.64Z" fill="#3F3D56"/>
<path d="M333.295 192.854H322.496V201.861H333.295V192.854Z" fill="#3F3D56"/>
<path d="M315.296 236.089V227.082H304.497V236.089H314.396H315.296Z" fill="#3F3D56"/>
<path d="M314.396 243.295H304.497V252.302H315.296V243.295H314.396Z" fill="#3F3D56"/>
<path d="M333.295 227.082H322.496V236.089H333.295V227.082Z" fill="#3F3D56"/>
<path d="M333.295 243.295H322.496V252.302H333.295V243.295Z" fill="#3F3D56"/>
<path d="M259.499 84.7646H155.106V106.382H259.499V84.7646Z" fill="#3F3D56"/>
<path d="M259.499 128H155.106V149.618H259.499V128Z" fill="#3F3D56"/>
<path d="M259.499 171.235H155.106V192.853H259.499V171.235Z" fill="#3F3D56"/>
<path d="M259.499 214.471H155.106V236.089H259.499V214.471Z" fill="#3F3D56"/>
<path d="M501 304.539H0V305.421H501V304.539Z" fill="#3F3D56"/>
<path d="M86.4875 202.701H83.8989V305.042H86.4875V202.701Z" fill="#3F3D56"/>
<path d="M110.377 215.743C110.542 251.529 85.3867 280.656 85.3867 280.656C85.3867 280.656 59.9644 251.762 59.7996 215.976C59.6349 180.19 84.79 151.063 84.79 151.063C84.79 151.063 110.212 179.957 110.377 215.743Z" fill="#7B81FF"/>
<path opacity="0.1" d="M110.377 215.743C110.542 251.529 85.3867 280.656 85.3867 280.656C85.3867 280.656 59.9644 251.762 59.7996 215.976C59.6349 180.19 84.79 151.063 84.79 151.063C84.79 151.063 110.212 179.957 110.377 215.743Z" fill="black"/>
<path d="M52.8352 202.701H50.2466V305.042H52.8352V202.701Z" fill="#3F3D56"/>
<path d="M76.7252 215.743C76.89 251.529 51.7349 280.656 51.7349 280.656C51.7349 280.656 26.3125 251.762 26.1478 215.976C25.983 180.19 51.1381 151.063 51.1381 151.063C51.1381 151.063 76.5605 179.957 76.7252 215.743Z" fill="#7B81FF"/>
<path d="M416.643 72.9102C396.252 73.0043 379.654 73.3058 379.654 73.3058C379.654 73.3058 399.383 47.1499 416.569 56.8405C433.755 66.5311 453.497 72.9652 453.497 72.9652C453.497 72.9652 437.034 72.8162 416.643 72.9102Z" fill="#F2F2F2"/>
<path d="M76.9144 123.187C56.5233 123.281 39.9258 123.582 39.9258 123.582C39.9258 123.582 59.6545 97.4263 76.8404 107.117C94.0262 116.807 113.768 123.242 113.768 123.242C113.768 123.242 97.3054 123.093 76.9144 123.187Z" fill="#F2F2F2"/>
<path d="M150.941 18.2232C130.55 18.3173 113.952 18.6188 113.952 18.6188C113.952 18.6188 133.681 -7.53707 150.867 2.1535C168.053 11.8441 187.795 18.2782 187.795 18.2782C187.795 18.2782 171.332 18.1292 150.941 18.2232Z" fill="#F2F2F2"/>
<path d="M458.658 202.701H456.07V305.042H458.658V202.701Z" fill="#3F3D56"/>
<path d="M482.548 215.743C482.713 251.529 457.558 280.656 457.558 280.656C457.558 280.656 432.136 251.762 431.971 215.976C431.806 180.19 456.961 151.063 456.961 151.063C456.961 151.063 482.384 179.957 482.548 215.743Z" fill="#7B81FF"/>
<path d="M363.376 241.517H389.5V235.206H403.914V241.517H430.939V269.468H403.914V304.632H389.5V269.468H363.376L349.863 254.14L363.376 241.517Z" fill="#3F3D56"/>
</g>
<defs>
<clipPath id="clip0">
<rect width="501" height="305.678" fill="white"/>
</clipPath>
</defs>
</svg>
