<svg width="109" height="108" viewBox="0 0 109 108" fill="none" xmlns="http://www.w3.org/2000/svg">
<path d="M82.2086 13.7143C80.9554 6.06514 63.0531 0 41.1429 0C19.2326 0 1.33029 6.06514 0.0771428 13.7143H0V14.5714V34.2857V35.1429V36V54.8571V55.7143V56.5714V77.1429H0.0771428C1.33029 84.7903 19.2343 90.8571 41.1429 90.8571C63.0514 90.8571 80.9554 84.7903 82.2086 77.1429H82.2857V56.5714V55.7143V54.8571V36V35.1429V34.2857V14.5714V13.7143H82.2086Z" fill="#545E73"/>
<path d="M41.1429 70.2857C18.42 70.2857 0 63.7611 0 55.7143V77.1429H0.0771428C1.33029 84.7903 19.2343 90.8571 41.1429 90.8571C63.0514 90.8571 80.9554 84.7903 82.2086 77.1429H82.2857V55.7143C82.2857 63.7611 63.8657 70.2857 41.1429 70.2857Z" fill="#262867"/>
<path d="M0 54.8571V55.7143C0 55.4263 0.030857 55.1417 0.0771427 54.8571H0Z" fill="#38454F"/>
<path d="M82.2086 54.8571C82.2549 55.1417 82.2857 55.4263 82.2857 55.7143V54.8571H82.2086Z" fill="#38454F"/>
<path d="M41.1429 49.7143C18.42 49.7143 0 43.1897 0 35.1429V56.5714H0.0771428C1.33029 64.2189 19.2343 70.2857 41.1429 70.2857C63.0514 70.2857 80.9554 64.2189 82.2086 56.5714H82.2857V35.1429C82.2857 43.1897 63.8657 49.7143 41.1429 49.7143Z" fill="#5358C6"/>
<path d="M0 34.2857V35.1429C0 34.8549 0.030857 34.5703 0.0771427 34.2857H0Z" fill="#556080"/>
<path d="M82.2086 34.2857C82.2549 34.5703 82.2857 34.8549 82.2857 35.1429V34.2857H82.2086Z" fill="#556080"/>
<path d="M41.1429 29.1429C63.8654 29.1429 82.2857 22.619 82.2857 14.5714C82.2857 6.52385 63.8654 0 41.1429 0C18.4203 0 0 6.52385 0 14.5714C0 22.619 18.4203 29.1429 41.1429 29.1429Z" fill="#DBDCFF"/>
<path d="M41.1429 29.1429C18.42 29.1429 0 22.6183 0 14.5714V36H0.0771428C1.33029 43.6474 19.2343 49.7143 41.1429 49.7143C63.0514 49.7143 80.9554 43.6474 82.2086 36H82.2857V14.5714C82.2857 22.6183 63.8657 29.1429 41.1429 29.1429Z" fill="#A5A8FF"/>
<path d="M0 13.7143V14.5714C0 14.2834 0.030857 13.9989 0.0771427 13.7143H0Z" fill="#8697CB"/>
<path d="M82.2086 13.7143C82.2549 13.9989 82.2857 14.2834 82.2857 14.5714V13.7143H82.2086Z" fill="#8697CB"/>
<path d="M96.6018 82.4559C96.4822 73.2226 89.1818 65.7744 80.1831 65.7744C74.1589 65.7744 68.9089 69.1196 66.0493 74.0929C65.0617 73.7621 64.0084 73.5768 62.9128 73.5768C58.0733 73.5768 54.0337 77.0768 53.0414 81.7498C48.9245 83.779 46.0602 88.0977 46.0602 93.0827C46.0602 99.9983 51.5565 105.654 58.2774 105.654H83.5541C83.6972 105.654 83.8333 105.638 83.9764 105.633C84.1171 105.638 84.2555 105.654 84.3986 105.654H94.5093C100.766 105.654 105.884 100.388 105.884 93.9506C105.88 88.2502 101.864 83.4763 96.6018 82.4559Z" fill="#7B81FF"/>
<path d="M94.5046 108H84.3939C84.2461 108 84.0983 107.991 83.9529 107.981C83.8426 107.991 83.6995 108 83.5518 108H58.2774C50.2475 108 43.7143 101.307 43.7143 93.085C43.7143 87.7786 46.5504 82.8289 51.024 80.1757C52.6333 74.9327 57.4657 71.2309 62.9082 71.2309C63.6025 71.2309 64.2969 71.2896 64.9819 71.4092C68.4913 66.4454 74.1636 63.4286 80.1831 63.4286C89.8058 63.4286 97.8334 70.994 98.8421 80.6285C104.374 82.5192 108.226 87.8514 108.226 93.9506C108.226 101.697 102.07 108 94.5046 108ZM83.8614 103.287L84.2977 103.301L94.5046 103.308C99.4825 103.308 103.534 99.1092 103.534 93.9506C103.534 89.4536 100.43 85.59 96.1537 84.7572L94.2794 84.3936L94.2536 82.4864C94.1527 74.5644 87.8424 68.1203 80.1831 68.1203C75.1747 68.1203 70.6519 70.7922 68.0831 75.2635L67.1237 76.9314L65.3009 76.3191C64.5221 76.0564 63.7175 75.9226 62.9105 75.9226C59.2979 75.9226 56.1122 78.5805 55.3357 82.2377L55.0964 83.352L54.076 83.854C50.6299 85.5548 48.406 89.1768 48.406 93.085C48.406 98.7221 52.835 103.308 58.2774 103.308L83.8614 103.287Z" fill="white"/>
</svg>
