<svg width="343" height="260" viewBox="0 0 343 260" fill="none" xmlns="http://www.w3.org/2000/svg">
<g clip-path="url(#clip0)">
<path d="M276.276 0.15625H0.11792V176.729H276.276V0.15625Z" fill="#E6E6E6"/>
<path d="M268.379 22.303H8.01453V166.283H268.379V22.303Z" fill="white"/>
<path d="M276.158 0H0V11.7129H276.158V0Z" fill="#7B81FF"/>
<path d="M8.71842 8.15918C9.91935 8.15918 10.8929 7.18724 10.8929 5.98828C10.8929 4.78933 9.91935 3.81738 8.71842 3.81738C7.51749 3.81738 6.54395 4.78933 6.54395 5.98828C6.54395 7.18724 7.51749 8.15918 8.71842 8.15918Z" fill="white"/>
<path d="M16.9722 8.15918C18.1731 8.15918 19.1467 7.18724 19.1467 5.98828C19.1467 4.78933 18.1731 3.81738 16.9722 3.81738C15.7713 3.81738 14.7977 4.78933 14.7977 5.98828C14.7977 7.18724 15.7713 8.15918 16.9722 8.15918Z" fill="white"/>
<path d="M25.226 8.15918C26.4269 8.15918 27.4005 7.18724 27.4005 5.98828C27.4005 4.78933 26.4269 3.81738 25.226 3.81738C24.0251 3.81738 23.0515 4.78933 23.0515 5.98828C23.0515 7.18724 24.0251 8.15918 25.226 8.15918Z" fill="white"/>
<path d="M98.5739 37.2421H31.6724V151.344H98.5739V37.2421Z" fill="#E6E6E6"/>
<path d="M165.874 37.2421H110.122V68.6499H165.874V37.2421Z" fill="#7B81FF"/>
<path d="M165.874 77.3965H110.122V111.19H165.874V77.3965Z" fill="#E6E6E6"/>
<path d="M165.874 119.936H110.122V151.344H165.874V119.936Z" fill="#E6E6E6"/>
<path d="M244.722 37.2421H177.82V86.9671H244.722V37.2421Z" fill="#E6E6E6"/>
<path d="M244.722 101.619H177.82V151.344H244.722V101.619Z" fill="#7B81FF"/>
<path d="M315.951 88.5007C311.538 80.9919 302.807 80.642 302.807 80.642C302.807 80.642 294.3 79.5464 288.842 90.9824C283.755 101.642 276.734 111.933 287.712 114.429L289.695 108.214L290.922 114.891C292.485 115.005 294.053 115.032 295.619 114.972C307.375 114.59 318.571 115.084 318.21 110.836C317.731 105.189 320.197 95.7257 315.951 88.5007Z" fill="#2F2E41"/>
<path d="M274.102 128.592L270.242 138.441L250.941 156.425C250.941 156.425 239.361 164.989 244.508 167.559C249.654 170.128 254.372 158.138 254.372 158.138L274.96 145.72L279.249 131.589L274.102 128.592Z" fill="#FFB8B8"/>
<path d="M280.536 237.784L284.396 247.633H289.972L285.254 236.071L280.536 237.784Z" fill="#FFB8B8"/>
<path d="M297.263 242.066L301.123 251.915H306.699L301.981 240.353L297.263 242.066Z" fill="#FFB8B8"/>
<path d="M296.834 243.779L304.126 242.066L294.69 203.956L297.823 174.632L297.907 174.624C297.907 174.624 303.268 153.856 298.979 148.289C294.69 142.723 273.244 144.864 273.244 144.864C273.244 144.864 265.095 153 265.524 171.412C265.953 189.825 265.524 205.669 268.526 212.948C271.529 220.228 280.107 239.497 280.107 239.497L286.969 238.64L279.678 206.953L278.512 179.408C279.44 190.446 281.307 211.377 282.251 212.948C283.538 215.089 296.834 243.779 296.834 243.779Z" fill="#2F2E41"/>
<path d="M318.709 137.584L321.711 148.289L335.007 172.269C335.007 172.269 346.588 182.546 341.87 183.83C337.152 185.115 329.861 174.41 329.861 174.41L314.849 153.428L310.989 138.013L318.709 137.584Z" fill="#FFB8B8"/>
<path d="M303.268 107.182C309.19 107.182 313.991 102.389 313.991 96.4767C313.991 90.5644 309.19 85.7716 303.268 85.7716C297.346 85.7716 292.545 90.5644 292.545 96.4767C292.545 102.389 297.346 107.182 303.268 107.182Z" fill="#FFB8B8"/>
<path d="M297.692 102.043L295.119 110.179L290.83 119.6L306.699 113.177C306.699 113.177 305.842 106.325 306.699 104.613L297.692 102.043Z" fill="#FFB8B8"/>
<path d="M316.135 119.172L306.27 111.036L295.119 115.746L295.556 108.798L283.657 112.592L281.823 113.177L279.249 126.451C279.249 126.451 277.534 127.736 275.818 135.015C274.827 139.293 273.39 143.455 271.529 147.433C271.529 147.433 289.972 140.153 298.979 150.002C298.979 150.002 300.266 149.146 299.837 147.861C299.408 146.577 303.697 140.153 303.697 140.153C303.697 140.153 303.697 141.438 305.413 138.869C307.128 136.3 308.415 135.871 308.415 135.871L316.135 119.172Z" fill="#7B81FF"/>
<path d="M284.396 114.461L282.523 112.953C282.523 112.953 280.965 112.32 279.678 114.461C278.391 116.602 271.958 129.877 271.958 129.877L279.678 133.73L284.396 114.461Z" fill="#7B81FF"/>
<path d="M310.131 118.743L316.135 119.171C316.135 119.171 319.567 120.884 319.567 123.454C319.567 126.023 320.424 139.725 320.424 139.725L310.988 142.723L307.128 130.733L310.131 118.743Z" fill="#7B81FF"/>
<path d="M283.157 246.134L275.865 249.131C275.865 249.131 267.287 249.56 268.574 253.842C269.86 258.124 282.728 255.126 282.728 255.126C282.728 255.126 294.308 255.554 294.308 252.557C294.308 249.56 292.593 246.134 290.877 246.134H283.157Z" fill="#2F2E41"/>
<path d="M299.455 249.988L292.164 252.985C292.164 252.985 283.586 253.413 284.872 257.695C286.159 261.978 299.026 258.98 299.026 258.98C299.026 258.98 310.607 259.408 310.607 256.411C310.607 253.413 308.891 249.988 307.176 249.988H299.455Z" fill="#2F2E41"/>
<path d="M314 87.777L305.374 83.2269L293.463 85.0883L290.999 96.049L297.133 95.8118L298.847 91.7846V95.7454L301.678 95.6358L303.321 89.2248L304.348 96.049L314.411 95.8422L314 87.777Z" fill="#2F2E41"/>
<path d="M256.307 35.7749C247.728 28.547 237.228 23.9646 226.087 22.5853C214.946 21.206 203.644 23.0893 193.556 28.006C183.467 32.9228 175.028 40.661 169.264 50.2789C163.501 59.8969 160.661 70.9801 161.092 82.1797C161.523 93.3792 165.205 104.212 171.69 113.361C178.175 122.51 187.184 129.579 197.62 133.709C208.057 137.839 219.47 138.852 230.472 136.624C241.475 134.396 251.591 129.023 259.591 121.16L330.626 181C331.161 181.452 331.781 181.793 332.449 182.006C333.117 182.218 333.82 182.297 334.518 182.238C335.216 182.179 335.896 181.983 336.519 181.662C337.141 181.34 337.695 180.9 338.147 180.365C338.598 179.83 338.941 179.212 339.153 178.545C339.366 177.878 339.445 177.176 339.385 176.479C339.326 175.782 339.13 175.103 338.808 174.481C338.486 173.86 338.045 173.308 337.509 172.857L266.474 113.016C274.726 101.192 278.258 86.7178 276.377 72.4296C274.496 58.1413 267.339 45.0692 256.307 35.7749ZM251.728 107.254C246.194 113.802 238.84 118.564 230.595 120.939C222.35 123.313 213.585 123.194 205.408 120.595C197.231 117.997 190.009 113.035 184.656 106.339C179.304 99.6433 176.06 91.513 175.336 82.9764C174.611 74.4399 176.439 65.8806 180.587 58.3809C184.735 50.8813 191.017 44.7781 198.64 40.8431C206.262 36.9082 214.883 35.3182 223.41 36.2743C231.938 37.2304 239.99 40.6896 246.548 46.2144C255.343 53.623 260.829 64.2161 261.801 75.6632C262.772 87.1103 259.149 98.4739 251.728 107.254Z" fill="#3F3D56"/>
<path opacity="0.3" d="M190.588 112.425C182.265 105.413 176.887 95.5318 175.523 84.7443C174.159 73.9567 176.909 63.0516 183.226 54.1942C182.396 55.0283 181.594 55.9018 180.82 56.8148C177.145 61.1622 174.364 66.1897 172.635 71.6102C170.906 77.0307 170.264 82.738 170.745 88.4064C171.226 94.0747 172.82 99.5929 175.437 104.646C178.054 109.699 181.643 114.188 185.997 117.857C190.352 121.525 195.388 124.301 200.818 126.027C206.247 127.752 211.964 128.393 217.642 127.913C223.319 127.432 228.847 125.84 233.908 123.227C238.969 120.614 243.465 117.031 247.14 112.683C247.912 111.769 248.64 110.833 249.322 109.874C241.639 117.581 231.335 122.122 220.454 122.594C209.573 123.067 198.912 119.437 190.588 112.425Z" fill="black"/>
</g>
<defs>
<clipPath id="clip0">
<rect width="343" height="260" fill="white"/>
</clipPath>
</defs>
</svg>
