<svg width="392" height="278" viewBox="0 0 392 278" fill="none" xmlns="http://www.w3.org/2000/svg">
<path d="M15.3732 204.533H58.9686V262.031H15.3732V204.533Z" fill="#F5F5F5"/>
<path d="M15.3731 204.533H35.8134V262.031H15.3731V204.533Z" fill="#EBEBEB"/>
<path d="M45.9103 212.317H49.8311V221.84H45.9103V212.317Z" fill="#EBEBEB"/>
<path d="M45.9103 249.588H49.8311V259.111H45.9103V249.588Z" fill="#EBEBEB"/>
<path d="M35.8134 225.572C35.8134 225.654 40.9973 225.719 47.3869 225.719C53.7765 225.719 58.9686 225.654 58.9686 225.572C58.9686 225.49 53.7847 225.424 47.3869 225.424C40.9891 225.424 35.8134 225.49 35.8134 225.572Z" fill="#EBEBEB"/>
<path d="M45.9103 231.092H49.8311V240.615H45.9103V231.092Z" fill="#EBEBEB"/>
<path d="M35.8134 244.355C35.8134 244.437 40.9973 244.503 47.3869 244.503C53.7765 244.503 58.9686 244.437 58.9686 244.355C58.9686 244.273 53.7847 244.199 47.3869 244.199C40.9891 244.199 35.8134 244.273 35.8134 244.355Z" fill="#EBEBEB"/>
<path d="M27.5535 212.317H31.4742V221.84H27.5535V212.317Z" fill="#E0E0E0"/>
<path d="M19.0478 212.317H22.9685V221.84H19.0478V212.317Z" fill="#E0E0E0"/>
<path d="M27.5535 230.386H31.4742V239.909H27.5535V230.386Z" fill="#E0E0E0"/>
<path d="M19.0478 230.386H22.9685V239.909H19.0478V230.386Z" fill="#E0E0E0"/>
<path d="M27.5535 248.456H31.4742V257.979H27.5535V248.456Z" fill="#E0E0E0"/>
<path d="M19.0478 248.456H22.9685V257.979H19.0478V248.456Z" fill="#E0E0E0"/>
<path d="M12.1004 202.523H62.2495V204.598H12.1004V202.523Z" fill="#E0E0E0"/>
<path d="M15.0696 204.795C15.0696 204.877 24.8139 204.943 36.8304 204.943C48.8468 204.943 58.5912 204.877 58.5912 204.795C58.5912 204.713 48.8468 204.647 36.8304 204.647C24.8139 204.647 15.0696 204.713 15.0696 204.795Z" fill="#F5F5F5"/>
<path d="M107.354 59.2773H185.08V262.712H107.354V59.2773Z" fill="#EBEBEB"/>
<path d="M107.362 59.2773H146.225V262.712H107.362V59.2773Z" fill="#E0E0E0"/>
<path d="M148.76 35.0969H176.205V59.2774H148.76V35.0969Z" fill="#EBEBEB"/>
<path d="M148.768 35.0969H155.305V59.2774H148.768V35.0969Z" fill="#E0E0E0"/>
<path d="M105.09 57.8667H191.559V59.2775H105.09V57.8667Z" fill="#E0E0E0"/>
<path d="M163.163 69.8257H169.741V83.6958H163.163V69.8257Z" fill="white"/>
<path d="M146.225 89.142C146.225 89.2897 154.92 89.4045 165.648 89.4045C176.377 89.4045 185.08 89.2897 185.08 89.142C185.08 88.9944 176.385 88.8713 165.648 88.8713C154.911 88.8713 146.225 88.9862 146.225 89.142Z" fill="#E0E0E0"/>
<path d="M123.964 69.8257H130.542V83.6958H123.964V69.8257Z" fill="#F5F5F5"/>
<path d="M107.026 89.142C107.026 89.2897 115.721 89.4045 126.449 89.4045C137.178 89.4045 145.881 89.2897 145.881 89.142C145.881 88.9944 137.186 88.8713 126.449 88.8713C115.712 88.8713 107.026 88.9862 107.026 89.142Z" fill="#EBEBEB"/>
<path d="M123.964 97.3608H130.542V111.231H123.964V97.3608Z" fill="#F5F5F5"/>
<path d="M107.026 116.677C107.026 116.825 115.721 116.948 126.449 116.948C137.178 116.948 145.881 116.825 145.881 116.677C145.881 116.53 137.186 116.415 126.449 116.415C115.712 116.415 107.026 116.538 107.026 116.677Z" fill="#EBEBEB"/>
<path d="M123.964 125.733H130.542V139.603H123.964V125.733Z" fill="#F5F5F5"/>
<path d="M107.026 145.049C107.026 145.197 115.721 145.32 126.449 145.32C137.178 145.32 145.881 145.197 145.881 145.049C145.881 144.902 137.186 144.787 126.449 144.787C115.712 144.787 107.026 144.91 107.026 145.049Z" fill="#EBEBEB"/>
<path d="M123.964 154.113H130.542V167.983H123.964V154.113Z" fill="#F5F5F5"/>
<path d="M107.026 173.421C107.026 173.569 115.721 173.692 126.449 173.692C137.178 173.692 145.881 173.569 145.881 173.421C145.881 173.274 137.186 173.159 126.449 173.159C115.712 173.159 107.026 173.282 107.026 173.421Z" fill="#EBEBEB"/>
<path d="M123.964 181.673H130.542V195.543H123.964V181.673Z" fill="#F5F5F5"/>
<path d="M107.026 200.989C107.026 201.129 115.721 201.252 126.449 201.252C137.178 201.252 145.881 201.129 145.881 200.989C145.881 200.85 137.186 200.719 126.449 200.719C115.712 200.719 107.026 200.842 107.026 200.989Z" fill="#EBEBEB"/>
<path d="M123.964 209.339H130.542V223.21H123.964V209.339Z" fill="#F5F5F5"/>
<path d="M123.964 237.375H130.542V251.245H123.964V237.375Z" fill="#F5F5F5"/>
<path d="M107.026 228.656C107.026 228.803 115.721 228.926 126.449 228.926C137.178 228.926 145.881 228.803 145.881 228.656C145.881 228.508 137.186 228.393 126.449 228.393C115.712 228.393 107.026 228.508 107.026 228.656Z" fill="#EBEBEB"/>
<path d="M163.163 97.7874H169.741V111.658H163.163V97.7874Z" fill="white"/>
<path d="M146.225 117.104C146.225 117.243 154.92 117.366 165.648 117.366C176.377 117.366 185.08 117.243 185.08 117.104C185.08 116.964 176.385 116.833 165.648 116.833C154.911 116.833 146.225 116.956 146.225 117.104Z" fill="#E0E0E0"/>
<path d="M163.163 125.749H169.741V139.619H163.163V125.749Z" fill="white"/>
<path d="M146.225 145.066C146.225 145.205 154.92 145.328 165.648 145.328C176.377 145.328 185.08 145.205 185.08 145.066C185.08 144.926 176.385 144.795 165.648 144.795C154.911 144.795 146.225 144.918 146.225 145.066Z" fill="#E0E0E0"/>
<path d="M163.163 153.711H169.741V167.581H163.163V153.711Z" fill="white"/>
<path d="M146.225 173.028C146.225 173.167 154.92 173.29 165.648 173.29C176.377 173.29 185.08 173.167 185.08 173.028C185.08 172.888 176.385 172.757 165.648 172.757C154.911 172.757 146.225 172.88 146.225 173.028Z" fill="#E0E0E0"/>
<path d="M163.163 181.673H169.741V195.543H163.163V181.673Z" fill="white"/>
<path d="M146.225 200.989C146.225 201.129 154.92 201.252 165.648 201.252C176.377 201.252 185.08 201.129 185.08 200.989C185.08 200.85 176.385 200.719 165.648 200.719C154.911 200.719 146.225 200.842 146.225 200.989Z" fill="#E0E0E0"/>
<path d="M163.163 209.635H169.741V223.505H163.163V209.635Z" fill="white"/>
<path d="M146.225 228.951C146.225 229.091 154.92 229.214 165.648 229.214C176.377 229.214 185.08 229.091 185.08 228.951C185.08 228.812 176.385 228.68 165.648 228.68C154.911 228.68 146.225 228.803 146.225 228.951Z" fill="#E0E0E0"/>
<path d="M163.163 237.596H169.741V251.466H163.163V237.596Z" fill="white"/>
<path d="M215.666 183.748H275.264V262.359H215.666V183.748Z" fill="#EBEBEB"/>
<path d="M215.666 183.748H243.611V262.359H215.666V183.748Z" fill="#E0E0E0"/>
<path d="M257.416 194.386H262.772V207.404H257.416V194.386Z" fill="#F5F5F5"/>
<path d="M257.416 245.348H262.772V258.365H257.416V245.348Z" fill="#F5F5F5"/>
<path d="M243.611 212.522C243.611 212.661 250.698 212.784 259.442 212.784C268.186 212.784 275.264 212.661 275.264 212.522C275.264 212.382 268.177 212.251 259.442 212.251C250.706 212.251 243.611 212.374 243.611 212.522Z" fill="#F5F5F5"/>
<path d="M257.416 220.06H262.772V233.077H257.416V220.06Z" fill="#F5F5F5"/>
<path d="M243.611 238.187C243.611 238.334 250.698 238.457 259.442 238.457C268.186 238.457 275.264 238.334 275.264 238.187C275.264 238.039 268.177 237.924 259.442 237.924C250.706 237.924 243.611 238.047 243.611 238.187Z" fill="#F5F5F5"/>
<path d="M232.325 194.386H237.681V207.404H232.325V194.386Z" fill="#F5F5F5"/>
<path d="M220.694 194.386H226.05V207.404H220.694V194.386Z" fill="#F5F5F5"/>
<path d="M232.325 219.092H237.681V232.109H232.325V219.092Z" fill="#F5F5F5"/>
<path d="M220.694 219.092H226.05V232.109H220.694V219.092Z" fill="#F5F5F5"/>
<path d="M232.325 243.797H237.681V256.814H232.325V243.797Z" fill="#F5F5F5"/>
<path d="M220.694 243.797H226.05V256.814H220.694V243.797Z" fill="#F5F5F5"/>
<path d="M211.179 181.008H279.743V183.846H211.179V181.008Z" fill="#E0E0E0"/>
<path d="M215.248 184.133C215.248 184.281 228.568 184.404 244.998 184.404C261.427 184.404 274.756 184.281 274.756 184.133C274.756 183.986 261.435 183.871 244.998 183.871C228.56 183.871 215.248 183.969 215.248 184.133Z" fill="#EBEBEB"/>
<path d="M6.86725 262.056C6.86725 262.179 93.0903 262.269 199.425 262.269C305.761 262.269 392 262.179 392 262.056C392 261.933 305.802 261.843 199.425 261.843C93.0493 261.843 6.86725 261.941 6.86725 262.056Z" fill="#263238"/>
<path d="M46.3041 142.999H91.7533V261.957H46.3041V142.999Z" fill="#455A64"/>
<path d="M46.3122 142.999H69.0327V261.957H46.3122V142.999Z" fill="#263238"/>
<path d="M70.5092 128.858H86.5612V142.999H70.5092V128.858Z" fill="#455A64"/>
<path d="M70.5174 128.858H74.3397V142.999H70.5174V128.858Z" fill="#263238"/>
<path d="M44.9754 142.17H95.5428V142.999H44.9754V142.17Z" fill="#455A64"/>
<path d="M78.9331 149.167H82.78V157.279H78.9331V149.167Z" fill="#263238"/>
<path d="M69.0328 160.462C69.0328 160.544 74.1183 160.617 80.393 160.617C86.6678 160.617 91.7533 160.544 91.7533 160.462C91.7533 160.379 86.6678 160.306 80.393 160.306C74.1183 160.306 69.0328 160.347 69.0328 160.462Z" fill="#263238"/>
<path d="M56.0156 149.167H59.8625V157.279H56.0156V149.167Z" fill="#455A64"/>
<path d="M46.1073 160.462C46.1073 160.544 51.1927 160.617 57.4675 160.617C63.7423 160.617 68.8278 160.544 68.8278 160.462C68.8278 160.379 63.7423 160.306 57.4675 160.306C51.1927 160.306 46.1073 160.347 46.1073 160.462Z" fill="#455A64"/>
<path d="M56.0156 165.268H59.8625V173.38H56.0156V165.268Z" fill="#455A64"/>
<path d="M46.1073 176.563C46.1073 176.653 51.1927 176.719 57.4675 176.719C63.7423 176.719 68.8278 176.653 68.8278 176.563C68.8278 176.473 63.7423 176.407 57.4675 176.407C51.1927 176.407 46.1073 176.481 46.1073 176.563Z" fill="#455A64"/>
<path d="M56.0156 181.862H59.8625V189.974H56.0156V181.862Z" fill="#455A64"/>
<path d="M46.1073 193.156C46.1073 193.238 51.1927 193.312 57.4675 193.312C63.7423 193.312 68.8278 193.238 68.8278 193.156C68.8278 193.074 63.7423 193 57.4675 193C51.1927 193 46.1073 193.066 46.1073 193.156Z" fill="#455A64"/>
<path d="M56.0156 198.447H59.8625V206.559H56.0156V198.447Z" fill="#455A64"/>
<path d="M46.1073 209.741C46.1073 209.832 51.1927 209.897 57.4675 209.897C63.7423 209.897 68.8278 209.832 68.8278 209.741C68.8278 209.651 63.7423 209.594 57.4675 209.594C51.1927 209.594 46.1073 209.659 46.1073 209.741Z" fill="#455A64"/>
<path d="M56.0156 214.564H59.8625V222.676H56.0156V214.564Z" fill="#455A64"/>
<path d="M46.1073 225.859C46.1073 225.949 51.1927 226.015 57.4675 226.015C63.7423 226.015 68.8278 225.949 68.8278 225.859C68.8278 225.769 63.7423 225.703 57.4675 225.703C51.1927 225.703 46.1073 225.777 46.1073 225.859Z" fill="#455A64"/>
<path d="M56.0156 230.748H59.8625V238.86H56.0156V230.748Z" fill="#455A64"/>
<path d="M56.0156 247.144H59.8625V255.256H56.0156V247.144Z" fill="#455A64"/>
<path d="M46.1073 242.042C46.1073 242.132 51.1927 242.198 57.4675 242.198C63.7423 242.198 68.8278 242.132 68.8278 242.042C68.8278 241.952 63.7423 241.886 57.4675 241.886C51.1927 241.886 46.1073 241.96 46.1073 242.042Z" fill="#455A64"/>
<path d="M78.9331 165.514H82.78V173.626H78.9331V165.514Z" fill="#263238"/>
<path d="M69.0328 176.809C69.0328 176.891 74.1183 176.965 80.393 176.965C86.6678 176.965 91.7533 176.891 91.7533 176.809C91.7533 176.727 86.6678 176.653 80.393 176.653C74.1183 176.653 69.0328 176.752 69.0328 176.809Z" fill="#263238"/>
<path d="M78.9331 181.862H82.78V189.974H78.9331V181.862Z" fill="#263238"/>
<path d="M69.0328 193.156C69.0328 193.246 74.1183 193.312 80.393 193.312C86.6678 193.312 91.7533 193.246 91.7533 193.156C91.7533 193.066 86.6678 193.009 80.393 193.009C74.1183 193.009 69.0328 193.074 69.0328 193.156Z" fill="#263238"/>
<path d="M78.9331 198.217H82.78V206.329H78.9331V198.217Z" fill="#263238"/>
<path d="M69.0328 209.512C69.0328 209.594 74.1183 209.667 80.393 209.667C86.6678 209.667 91.7533 209.594 91.7533 209.512C91.7533 209.43 86.6678 209.356 80.393 209.356C74.1183 209.356 69.0328 209.421 69.0328 209.512Z" fill="#263238"/>
<path d="M78.9331 214.564H82.78V222.676H78.9331V214.564Z" fill="#263238"/>
<path d="M69.0328 225.859C69.0328 225.949 74.1183 226.015 80.393 226.015C86.6678 226.015 91.7533 225.949 91.7533 225.859C91.7533 225.769 86.6678 225.703 80.393 225.703C74.1183 225.703 69.0328 225.777 69.0328 225.859Z" fill="#263238"/>
<path d="M78.9331 230.92H82.78V239.032H78.9331V230.92Z" fill="#263238"/>
<path d="M69.0328 242.214C69.0328 242.296 74.1183 242.37 80.393 242.37C86.6678 242.37 91.7533 242.296 91.7533 242.214C91.7533 242.132 86.6678 242.059 80.393 242.059C74.1183 242.059 69.0328 242.124 69.0328 242.214Z" fill="#263238"/>
<path d="M78.9331 247.267H82.78V255.379H78.9331V247.267Z" fill="#263238"/>
<path d="M160.112 100.486H220.916V262.007H160.112V100.486Z" fill="#455A64"/>
<path d="M160.103 100.486H183.439V262.007H160.103V100.486Z" fill="#263238"/>
<path d="M169.462 113.233H174.08V122.977H169.462V113.233Z" fill="#455A64"/>
<path d="M169.462 130.326H174.08V140.071H169.462V130.326Z" fill="#455A64"/>
<path d="M169.462 149.47H174.08V159.215H169.462V149.47Z" fill="#455A64"/>
<path d="M169.462 167.762H174.08V177.506H169.462V167.762Z" fill="#455A64"/>
<path d="M169.462 186.061H174.08V195.805H169.462V186.061Z" fill="#455A64"/>
<path d="M169.462 204.352H174.08V214.097H169.462V204.352Z" fill="#455A64"/>
<path d="M169.462 222.652H174.08V232.396H169.462V222.652Z" fill="#455A64"/>
<path d="M169.462 242.764H174.08V252.508H169.462V242.764Z" fill="#455A64"/>
<path d="M157.077 99.469H226.206V101.356H157.077V99.469Z" fill="#263238"/>
<path d="M171.767 88.1006H196.382V100.412H171.767V88.1006Z" fill="#263238"/>
<path d="M183.439 88.1006H196.382V99.469H183.439V88.1006Z" fill="#455A64"/>
<path d="M207.644 112.831H212.262V122.575H207.644V112.831Z" fill="#263238"/>
<path d="M195.341 112.831H199.958V122.575H195.341V112.831Z" fill="#263238"/>
<path d="M207.644 131.393H212.262V141.137H207.644V131.393Z" fill="#263238"/>
<path d="M195.341 131.393H199.958V141.137H195.341V131.393Z" fill="#263238"/>
<path d="M207.644 149.954H212.262V159.699H207.644V149.954Z" fill="#263238"/>
<path d="M195.341 149.954H199.958V159.699H195.341V149.954Z" fill="#263238"/>
<path d="M207.644 168.516H212.262V178.261H207.644V168.516Z" fill="#263238"/>
<path d="M195.341 168.516H199.958V178.261H195.341V168.516Z" fill="#263238"/>
<path d="M207.644 187.078H212.262V196.823H207.644V187.078Z" fill="#263238"/>
<path d="M195.341 187.078H199.958V196.823H195.341V187.078Z" fill="#263238"/>
<path d="M207.644 205.64H212.262V215.385H207.644V205.64Z" fill="#263238"/>
<path d="M195.341 205.64H199.958V215.385H195.341V205.64Z" fill="#263238"/>
<path d="M207.644 224.202H212.262V233.946H207.644V224.202Z" fill="#263238"/>
<path d="M195.341 224.202H199.958V233.946H195.341V224.202Z" fill="#263238"/>
<path d="M207.644 242.764H212.262V252.508H207.644V242.764Z" fill="#263238"/>
<path d="M195.341 242.764H199.958V252.508H195.341V242.764Z" fill="#263238"/>
<path d="M183.439 126.397C183.439 126.561 191.83 126.692 202.173 126.692C212.516 126.692 220.916 126.561 220.916 126.397C220.916 126.233 212.525 126.11 202.173 126.11C191.822 126.11 183.439 126.241 183.439 126.397Z" fill="#263238"/>
<path d="M183.439 145.025C183.439 145.189 191.83 145.32 202.173 145.32C212.516 145.32 220.916 145.189 220.916 145.025C220.916 144.861 212.525 144.738 202.173 144.738C191.822 144.738 183.439 144.869 183.439 145.025Z" fill="#263238"/>
<path d="M183.439 163.882C183.439 164.038 191.83 164.169 202.173 164.169C212.516 164.169 220.916 164.038 220.916 163.882C220.916 163.726 212.525 163.587 202.173 163.587C191.822 163.587 183.439 163.718 183.439 163.882Z" fill="#263238"/>
<path d="M183.439 182.6C183.439 182.756 191.83 182.887 202.173 182.887C212.516 182.887 220.916 182.756 220.916 182.6C220.916 182.444 212.525 182.304 202.173 182.304C191.822 182.304 183.439 182.436 183.439 182.6Z" fill="#263238"/>
<path d="M183.439 201.047C183.439 201.203 191.83 201.334 202.173 201.334C212.516 201.334 220.916 201.203 220.916 201.047C220.916 200.891 212.525 200.751 202.173 200.751C191.822 200.751 183.439 200.883 183.439 201.047Z" fill="#263238"/>
<path d="M183.439 218.994C183.439 219.149 191.83 219.281 202.173 219.281C212.516 219.281 220.916 219.149 220.916 218.994C220.916 218.838 212.525 218.698 202.173 218.698C191.822 218.698 183.439 218.829 183.439 218.994Z" fill="#263238"/>
<path d="M183.439 238.884C183.439 239.04 191.83 239.171 202.173 239.171C212.516 239.171 220.916 239.04 220.916 238.884C220.916 238.728 212.525 238.589 202.173 238.589C191.822 238.589 183.439 238.72 183.439 238.884Z" fill="#263238"/>
<path d="M160.374 126.397C160.374 126.561 165.369 126.692 171.529 126.692C177.689 126.692 182.684 126.561 182.684 126.397C182.684 126.233 177.697 126.11 171.529 126.11C165.361 126.11 160.374 126.241 160.374 126.397Z" fill="#455A64"/>
<path d="M160.374 145.025C160.374 145.189 165.369 145.32 171.529 145.32C177.689 145.32 182.684 145.189 182.684 145.025C182.684 144.861 177.697 144.738 171.529 144.738C165.361 144.738 160.374 144.869 160.374 145.025Z" fill="#455A64"/>
<path d="M160.374 163.628C160.374 163.792 165.369 163.923 171.529 163.923C177.689 163.923 182.684 163.816 182.684 163.628C182.684 163.439 177.697 163.341 171.529 163.341C165.361 163.341 160.374 163.496 160.374 163.628Z" fill="#455A64"/>
<path d="M160.62 182.6C160.62 182.756 165.615 182.887 171.775 182.887C177.935 182.887 182.931 182.756 182.931 182.6C182.931 182.444 177.935 182.304 171.775 182.304C165.615 182.304 160.62 182.436 160.62 182.6Z" fill="#455A64"/>
<path d="M160.62 201.047C160.62 201.203 165.615 201.334 171.775 201.334C177.935 201.334 182.931 201.203 182.931 201.047C182.931 200.891 177.935 200.751 171.775 200.751C165.615 200.751 160.62 200.883 160.62 201.047Z" fill="#455A64"/>
<path d="M160.62 219.494C160.62 219.65 165.615 219.781 171.775 219.781C177.935 219.781 182.931 219.65 182.931 219.494C182.931 219.338 177.935 219.198 171.775 219.198C165.615 219.198 160.62 219.33 160.62 219.494Z" fill="#455A64"/>
<path d="M160.62 238.884C160.62 239.04 165.615 239.171 171.775 239.171C177.935 239.171 182.931 239.04 182.931 238.884C182.931 238.728 177.935 238.589 171.775 238.589C165.615 238.589 160.62 238.72 160.62 238.884Z" fill="#455A64"/>
<path d="M148.891 205.796H173.408V262.056H148.891V205.796Z" fill="#445FEB"/>
<path opacity="0.2" d="M148.891 205.796H173.408V262.056H148.891V205.796Z" fill="black"/>
<path d="M179.141 205.566H118.649L107.346 189.522L95.5018 206.025L81.5743 205.804L96.5845 185.585L164.032 185.872L179.141 205.566Z" fill="#445FEB"/>
<path opacity="0.2" d="M179.141 205.566H118.649L107.346 189.522L95.5018 206.025L81.5743 205.804L96.5845 185.585L164.032 185.872L179.141 205.566Z" fill="white"/>
<path d="M148.891 205.804V262.056H88.4805V205.804H95.4115L107.346 189.522L118.69 205.55L148.891 205.804Z" fill="#445FEB"/>
<g opacity="0.2">
<path opacity="0.2" d="M140.352 262.056V237.67H126.228V262.056" fill="black"/>
</g>
<path opacity="0.7" d="M95.4936 236.981H117.755V250.769H95.4936V236.981Z" fill="white"/>
<path opacity="0.7" d="M95.4936 209.388H117.755V223.177H95.4936V209.388Z" fill="white"/>
<path opacity="0.7" d="M127.704 209.511H141.738V222.799H127.704V209.511Z" fill="white"/>
<path d="M111.226 236.981H111.431V250.901H111.226V236.981Z" fill="#445FEB"/>
<path d="M101.973 236.981H102.178V250.901H101.973V236.981Z" fill="#445FEB"/>
<path d="M102.08 244.257H111.332V244.462H102.08V244.257Z" fill="#445FEB"/>
<path d="M111.226 209.388H111.431V223.308H111.226V209.388Z" fill="#445FEB"/>
<path d="M101.973 209.388H102.178V223.308H101.973V209.388Z" fill="#445FEB"/>
<path d="M102.08 216.664H111.332V216.869H102.08V216.664Z" fill="#445FEB"/>
<path d="M134.619 209.511H134.824V222.799H134.619V209.511Z" fill="#445FEB"/>
<path d="M127.704 216.377H141.738V216.582H127.704V216.377Z" fill="#445FEB"/>
<path opacity="0.7" d="M104.401 200.259C104.401 200.848 104.576 201.424 104.903 201.914C105.23 202.403 105.695 202.785 106.239 203.01C106.783 203.236 107.382 203.295 107.96 203.18C108.537 203.065 109.068 202.781 109.484 202.365C109.901 201.948 110.184 201.418 110.299 200.84C110.414 200.263 110.355 199.664 110.13 199.12C109.904 198.576 109.523 198.111 109.033 197.784C108.543 197.457 107.968 197.282 107.379 197.282C106.59 197.284 105.834 197.599 105.276 198.156C104.718 198.714 104.403 199.47 104.401 200.259Z" fill="white"/>
<path d="M128.615 196.609L124.858 191.975V180.828H132.724V196.691L128.615 196.609Z" fill="#445FEB"/>
<path opacity="0.2" d="M128.615 196.609V180.828H124.858V191.975L128.615 196.609Z" fill="black"/>
<path d="M124.325 179.188H133.602V180.828H124.325V179.188Z" fill="#445FEB"/>
<path d="M148.194 230.411H194.512V262.064H148.194V230.411Z" fill="#445FEB"/>
<path opacity="0.2" d="M165.952 230.411H194.512V262.064H165.952V230.411Z" fill="black"/>
<path d="M171.964 262.007C171.995 261.872 172.009 261.734 172.005 261.597C172.005 261.277 172.005 260.883 172.005 260.407C172.005 259.308 172.005 257.815 172.071 255.953C172.071 252.098 172.12 246.775 172.153 240.615L171.923 240.845H188.877L188.656 240.615C188.656 246.775 188.713 252.098 188.738 255.953C188.738 257.815 188.787 259.308 188.803 260.407C188.803 260.883 188.803 261.277 188.844 261.597C188.83 261.733 188.83 261.87 188.844 262.007C188.881 261.873 188.895 261.735 188.885 261.597C188.885 261.277 188.885 260.883 188.885 260.407C188.885 259.308 188.885 257.815 188.951 255.953C188.951 252.106 189 246.775 189.033 240.615V240.385H171.661V240.615C171.702 246.775 171.726 252.098 171.751 255.953C171.751 257.815 171.8 259.308 171.816 260.407C171.816 260.883 171.816 261.277 171.816 261.597C171.852 261.738 171.902 261.875 171.964 262.007Z" fill="#263238"/>
<path opacity="0.2" d="M150.343 239.803H162.375V242.87H150.343V239.803Z" fill="black"/>
<path d="M179.141 205.566V207.198H118.69V205.55L179.141 205.566Z" fill="#445FEB"/>
<path d="M118.69 207.198L107.379 191.327L107.346 189.522L118.649 205.566L118.69 207.198Z" fill="#445FEB"/>
<path d="M81.8694 205.796H95.4115V206.846H81.8694V205.796Z" fill="#445FEB"/>
<path d="M131.042 233.93H136.038V235.833H131.042V233.93Z" fill="#263238"/>
<path opacity="0.3" d="M179.141 205.566V207.198H118.69V205.55L179.141 205.566Z" fill="black"/>
<path opacity="0.3" d="M118.69 207.198L107.379 191.327L107.346 189.522L118.649 205.566L118.69 207.198Z" fill="black"/>
<path opacity="0.3" d="M81.8694 205.796H95.4115V206.846H81.8694V205.796Z" fill="black"/>
<path d="M127.368 249.974C127.409 249.974 127.368 249.662 127.737 249.424C127.831 249.361 127.939 249.321 128.052 249.308C128.165 249.295 128.279 249.31 128.385 249.35C128.509 249.401 128.615 249.487 128.69 249.598C128.765 249.709 128.805 249.84 128.805 249.974C128.805 250.108 128.765 250.239 128.69 250.35C128.615 250.461 128.509 250.547 128.385 250.597C128.279 250.638 128.165 250.652 128.052 250.64C127.939 250.627 127.831 250.587 127.737 250.523C127.401 250.285 127.409 249.966 127.368 249.974C127.327 249.982 127.228 250.326 127.614 250.687C127.732 250.784 127.874 250.849 128.024 250.877C128.175 250.904 128.33 250.892 128.475 250.843C128.657 250.781 128.814 250.664 128.926 250.508C129.037 250.352 129.097 250.165 129.097 249.974C129.097 249.782 129.037 249.595 128.926 249.439C128.814 249.283 128.657 249.166 128.475 249.104C128.33 249.055 128.175 249.044 128.024 249.071C127.874 249.098 127.732 249.163 127.614 249.26C127.228 249.629 127.343 249.998 127.368 249.974Z" fill="#263238"/>
<path d="M242.356 168.828C242.356 168.828 255.078 217.222 272.18 226.31C283.45 232.298 293.4 225.154 300.068 213.834L324.183 175.021C324.798 172.809 324.546 170.446 323.479 168.413C322.413 166.38 320.611 164.83 318.441 164.079L298.337 157.066L278.307 192.771L252.675 161.602" fill="#EB996E"/>
<path d="M367.532 172.199C367.089 175.349 359.158 198.504 359.158 198.504C359.158 198.504 323.166 188.325 323.543 186.537C323.855 185.085 329.482 162.02 336.995 149.019C338.404 146.513 340.379 144.371 342.763 142.765C345.147 141.158 347.874 140.132 350.726 139.767C352.317 139.587 355.852 141.063 356.828 141.547C364.489 145.378 370.961 147.871 367.532 172.199Z" fill="#455A64"/>
<path d="M311.1 138.2C297.279 142.047 296.656 148.33 289.733 159.412L278.832 179.261L296.992 190.835L300.322 198.299L302.119 262.49L375.292 262.13L362.168 210.168L367.401 176.046C367.885 170.665 369.435 160.609 367.778 155.417C362.586 139.193 343.221 137.462 331.311 135.001C328.85 134.493 326.48 135.272 324.478 135.879" fill="#455A64"/>
<path d="M300.503 201.596C300.56 201.051 300.576 200.503 300.552 199.956C300.552 198.808 300.552 197.282 300.495 195.445V195.404C299.58 193.778 298.782 192.09 298.108 190.351C297.267 188.288 297.055 186.021 297.501 183.838C298.091 181.378 299.453 179.311 300.363 177.276C301.19 175.454 301.743 173.519 302.004 171.535C302.175 170.21 302.211 168.872 302.11 167.54C302.11 167.064 302.02 166.72 301.979 166.457C301.971 166.33 301.941 166.205 301.889 166.088C301.86 166.575 301.86 167.062 301.889 167.548C301.923 168.866 301.838 170.183 301.635 171.486C301.336 173.416 300.765 175.294 299.937 177.063C299.035 179.064 297.64 181.164 297.017 183.707C296.547 185.979 296.773 188.34 297.665 190.482C298.355 192.232 299.178 193.927 300.126 195.551V195.469C300.216 197.306 300.281 198.832 300.339 199.98C300.345 200.523 300.4 201.064 300.503 201.596Z" fill="#263238"/>
<path d="M310.526 135.945C310.463 136.103 310.422 136.268 310.403 136.437C310.315 136.916 310.26 137.402 310.239 137.889C310.173 139.694 310.475 141.494 311.125 143.179C312.088 145.697 313.75 147.888 315.915 149.495C318.628 151.427 321.953 152.303 325.266 151.956C326.968 151.782 328.631 151.33 330.187 150.619C331.626 149.943 332.947 149.04 334.1 147.945C336.028 146.079 337.496 143.79 338.389 141.26C338.994 139.566 339.34 137.791 339.415 135.994C339.446 135.508 339.446 135.02 339.415 134.534C339.42 134.366 339.404 134.198 339.366 134.034C339.308 134.034 339.366 134.731 339.251 135.986C339.105 137.751 338.716 139.487 338.094 141.145C337.182 143.604 335.717 145.821 333.813 147.625C332.691 148.681 331.406 149.548 330.007 150.192C328.502 150.878 326.895 151.313 325.249 151.48C322.062 151.827 318.857 151.008 316.227 149.175C314.458 147.879 313.018 146.187 312.021 144.234C311.024 142.281 310.498 140.122 310.485 137.93C310.428 136.642 310.584 135.953 310.526 135.945Z" fill="#263238"/>
<path d="M282.146 173.265C282.828 173.775 283.552 174.225 284.311 174.611C285.665 175.431 287.551 176.481 289.602 177.719C291.653 178.958 293.482 180.114 294.81 180.951C295.503 181.445 296.239 181.876 297.009 182.239C296.388 181.653 295.712 181.128 294.991 180.672C293.711 179.762 291.899 178.556 289.84 177.309C287.781 176.062 285.87 175.029 284.467 174.315C283.732 173.886 282.954 173.535 282.146 173.265Z" fill="#263238"/>
<path d="M365.285 174.118C365.285 174.118 365.236 174.266 365.146 174.553L364.801 175.833L363.513 180.754C362.422 185.019 360.864 191.106 358.969 198.479L359.207 198.348L325.364 187.775L324.544 187.472L324.7 187.743C326.328 180.163 328.555 172.725 331.36 165.498C333.985 158.87 336.995 153.121 340.383 148.978C341.893 147.093 343.702 145.47 345.739 144.172C347.268 143.181 349.011 142.568 350.824 142.384C351.171 142.327 351.522 142.297 351.874 142.293L352.809 142.343C353.096 142.343 353.359 142.343 353.629 142.4L354.269 142.539L355.155 142.72C355.255 142.742 355.357 142.759 355.459 142.769C355.367 142.726 355.271 142.693 355.171 142.671L354.294 142.449L353.646 142.285C353.4 142.236 353.129 142.236 352.826 142.203L351.882 142.138C351.526 142.133 351.17 142.152 350.816 142.195C348.968 142.355 347.185 142.954 345.616 143.942C343.548 145.23 341.707 146.851 340.169 148.74C336.667 152.899 333.608 158.665 330.958 165.309C328.123 172.554 325.874 180.015 324.232 187.62V187.825L324.429 187.89L325.249 188.194C337.938 192.221 349.692 195.773 359.15 198.684L359.338 198.742L359.387 198.553C361.217 191.171 362.718 185.06 363.776 180.787C364.284 178.679 364.678 177.022 364.957 175.866L365.252 174.578C365.282 174.427 365.293 174.272 365.285 174.118Z" fill="#263238"/>
<path d="M325.709 183.133C325.709 183.264 333.484 185.52 343.155 188.186C352.826 190.851 360.675 192.902 360.675 192.779C360.675 192.656 352.908 190.392 343.237 187.726C333.566 185.06 325.75 183.01 325.709 183.133Z" fill="#263238"/>
<path d="M328.686 78.1347C330.925 73.2789 337.085 70.9905 342.277 72.2782C347.469 73.566 351.571 77.8066 353.761 82.6706C355.951 87.5346 356.533 93.0055 356.574 98.3535C356.574 101.183 356.451 104.046 357.025 106.818C357.599 109.591 358.961 112.33 361.34 113.872C363.21 115.086 365.506 115.447 367.516 116.415C369.526 117.383 371.371 119.442 370.871 121.624C370.28 124.224 367.016 125.003 364.366 125.274C364.322 126.878 363.824 128.438 362.932 129.772C362.039 131.106 360.787 132.161 359.321 132.814C357.855 133.468 356.233 133.693 354.644 133.465C353.055 133.237 351.563 132.564 350.34 131.524C351.16 134.805 348.265 138.184 344.935 138.578C341.605 138.971 338.373 136.888 336.519 134.066C334.666 131.245 334.141 127.8 334.001 124.445C333.862 121.09 334.1 117.695 333.772 114.414" fill="#445FEB"/>
<path d="M290.898 84.2455C290.898 84.2455 288.437 67.7588 311.125 67.4553C336.503 67.119 341.08 88.7814 336.733 100.191L324.117 87.6905L290.898 84.2455Z" fill="#445FEB"/>
<path d="M310.805 138.2C310.551 133.812 310.362 130.236 310.362 130.236C310.362 130.236 297.37 130.539 295.458 119.278C293.547 108.016 291.357 81.7846 291.357 81.7846C297.032 78.1146 303.671 76.2144 310.428 76.3254C317.186 76.4364 323.758 78.5536 329.309 82.408L330.376 83.1462L338.578 135.223C339.163 138.874 338.278 142.609 336.117 145.609C333.956 148.61 330.694 150.632 327.046 151.234C325.107 151.554 323.123 151.461 321.223 150.963C319.322 150.465 317.548 149.572 316.016 148.342C314.484 147.113 313.228 145.574 312.33 143.827C311.432 142.079 310.912 140.162 310.805 138.2Z" fill="#FFBE9D"/>
<path d="M295.992 101.774C296.035 102.05 296.158 102.307 296.347 102.514C296.535 102.72 296.78 102.867 297.05 102.936C297.321 103.004 297.606 102.992 297.87 102.9C298.134 102.809 298.365 102.641 298.535 102.419C298.705 102.197 298.806 101.931 298.825 101.652C298.845 101.373 298.782 101.095 298.645 100.851C298.508 100.608 298.302 100.41 298.053 100.283C297.805 100.155 297.524 100.103 297.246 100.133C297.055 100.157 296.871 100.218 296.704 100.313C296.537 100.409 296.391 100.537 296.274 100.689C296.157 100.842 296.071 101.017 296.023 101.203C295.975 101.389 295.964 101.583 295.992 101.774Z" fill="#263238"/>
<path d="M294.942 100.421C295.147 100.593 296.09 99.6003 297.607 99.3133C299.125 99.0262 300.347 99.6906 300.478 99.4691C300.609 99.2476 300.322 99.0426 299.781 98.7391C299.066 98.3639 298.247 98.2369 297.452 98.3782C296.653 98.5139 295.92 98.9088 295.368 99.5019C294.95 99.9695 294.843 100.347 294.942 100.421Z" fill="#263238"/>
<path d="M311.223 100.314C311.229 100.51 311.276 100.704 311.36 100.881C311.444 101.059 311.564 101.217 311.712 101.347C311.86 101.476 312.034 101.573 312.221 101.632C312.409 101.691 312.606 101.711 312.802 101.69C312.998 101.669 313.187 101.608 313.357 101.51C313.528 101.413 313.677 101.281 313.794 101.123C313.912 100.966 313.995 100.785 314.04 100.594C314.084 100.402 314.089 100.204 314.053 100.01C314.047 99.8138 314.001 99.6206 313.917 99.4429C313.832 99.2651 313.712 99.1067 313.564 98.9775C313.416 98.8483 313.243 98.7512 313.055 98.6921C312.868 98.6331 312.67 98.6134 312.474 98.6344C312.279 98.6553 312.09 98.7165 311.919 98.8139C311.748 98.9114 311.599 99.0431 311.482 99.2008C311.364 99.3585 311.281 99.5388 311.236 99.7303C311.192 99.9218 311.187 100.12 311.223 100.314Z" fill="#263238"/>
<path d="M310.469 99.0342C310.665 99.2065 311.617 98.173 313.126 97.9269C314.635 97.6808 315.866 98.3042 316.005 98.0746C316.071 97.9761 315.841 97.648 315.3 97.3527C314.585 96.9769 313.765 96.8499 312.97 96.9918C312.171 97.1264 311.438 97.5215 310.887 98.1156C310.477 98.5749 310.37 98.9604 310.469 99.0342Z" fill="#263238"/>
<path d="M308.508 110.764C307.665 110.712 306.818 110.772 305.99 110.944C305.596 111.002 305.219 111.018 305.088 110.755C304.971 110.34 304.971 109.9 305.088 109.484C305.211 108.401 305.334 107.269 305.465 106.08C305.949 101.241 306.195 97.3118 306.015 97.2872C305.834 97.2626 305.293 101.167 304.801 106.006C304.694 107.196 304.588 108.328 304.489 109.41C304.371 109.963 304.437 110.539 304.678 111.051C304.764 111.176 304.877 111.279 305.009 111.353C305.142 111.427 305.289 111.47 305.441 111.477C305.664 111.481 305.888 111.456 306.105 111.403C306.932 111.301 307.74 111.086 308.508 110.764Z" fill="#263238"/>
<path d="M310.321 130.236C315.566 129.429 320.463 127.112 324.413 123.568C324.413 123.568 321.657 132.525 310.526 133.263L310.321 130.236Z" fill="#EB996E"/>
<path d="M309.993 115.234C310.026 114.744 310.178 114.269 310.437 113.851C310.696 113.434 311.053 113.086 311.478 112.839C311.771 112.664 312.099 112.554 312.439 112.517C312.778 112.481 313.122 112.518 313.446 112.625C313.766 112.745 314.043 112.957 314.242 113.234C314.441 113.512 314.552 113.843 314.562 114.184C314.514 114.562 314.358 114.919 314.112 115.21C313.866 115.501 313.541 115.715 313.175 115.824C312.433 116.028 311.656 116.073 310.895 115.956C310.683 115.949 310.474 115.902 310.28 115.816C310.185 115.77 310.106 115.697 310.05 115.607C309.995 115.517 309.967 115.413 309.968 115.308" fill="#EB996E"/>
<path d="M313.307 111.133C313.413 111.133 313.659 111.51 313.7 112.257C313.73 113.247 313.4 114.215 312.771 114.981C312.142 115.747 311.257 116.259 310.28 116.423C309.534 116.53 309.091 116.366 309.099 116.251C309.099 115.997 310.854 115.907 312.076 114.414C313.299 112.921 313.061 111.174 313.307 111.133Z" fill="#263238"/>
<path d="M331.967 97.8366C332.139 97.7136 338.431 94.9986 340.227 102.405C342.023 109.812 333.427 109.057 333.361 108.844C333.296 108.631 331.967 97.8366 331.967 97.8366Z" fill="#FFBE9D"/>
<path d="M335.125 105.736C335.125 105.736 335.281 105.793 335.543 105.842C335.9 105.903 336.267 105.833 336.577 105.645C337.348 105.178 337.75 103.792 337.462 102.446C337.333 101.802 337.051 101.197 336.642 100.683C336.505 100.462 336.318 100.277 336.095 100.143C335.873 100.009 335.622 99.9299 335.363 99.9119C335.2 99.9039 335.039 99.9515 334.906 100.047C334.773 100.142 334.677 100.28 334.633 100.437C334.575 100.667 334.633 100.806 334.633 100.831C334.633 100.855 334.436 100.74 334.419 100.42C334.424 100.227 334.496 100.041 334.624 99.8955C334.809 99.6916 335.064 99.5655 335.338 99.5428C335.67 99.529 336.001 99.5965 336.301 99.7394C336.601 99.8824 336.862 100.096 337.061 100.363C337.548 100.924 337.886 101.598 338.045 102.323C338.357 103.833 337.881 105.399 336.806 105.949C336.604 106.051 336.384 106.11 336.158 106.123C335.932 106.136 335.706 106.101 335.494 106.023C335.182 105.908 335.1 105.752 335.125 105.736Z" fill="#EB996E"/>
<path d="M293.933 76.5928C292.629 77.5364 291.649 78.861 291.129 80.3843C290.609 81.9076 290.574 83.5546 291.029 85.0986C292.145 88.642 295.45 92.4807 304.637 92.3577L302.545 90.0364C304.612 91.6133 307.028 92.6703 309.589 93.1185C312.149 93.5668 314.781 93.393 317.26 92.6119L314.685 87.6249C314.685 87.6249 326.299 99.9366 332.787 100.47L331.967 87.346C330.4 74.9605 325.093 71.2448 317.063 70.5805C314.081 70.3093 311.078 70.3616 308.106 70.7363C302.963 71.4598 298.087 73.4746 293.933 76.5928Z" fill="#445FEB"/>
<path d="M339.349 65.864C338.738 66.0126 338.157 66.2681 337.635 66.6186C334.997 68.1596 332.902 70.4809 331.639 73.2625C331.345 73.8178 331.151 74.4202 331.065 75.0424C331.204 75.1081 332.123 72.3603 334.477 69.7929C336.831 67.2256 339.431 66.0199 339.349 65.864Z" fill="#445FEB"/>
<path d="M362.734 107.852C362.734 107.852 362.89 107.688 363.243 107.466C363.766 107.15 364.371 106.996 364.981 107.023C365.454 107.035 365.919 107.149 366.344 107.357C366.768 107.565 367.143 107.863 367.442 108.229C367.804 108.742 368.03 109.338 368.1 109.961C368.171 110.585 368.082 111.216 367.844 111.797C367.553 112.495 367.084 113.103 366.484 113.563C365.883 114.022 365.173 114.315 364.424 114.414C363.556 114.545 362.67 114.485 361.828 114.237C360.986 113.989 360.209 113.559 359.551 112.978C358.043 111.714 357.001 109.982 356.59 108.057C356.373 107.051 356.373 106.011 356.59 105.005C356.838 103.963 357.207 102.952 357.69 101.995C358.149 101.003 358.641 100.027 359.027 99.0014C359.404 97.9927 359.649 96.9396 359.757 95.8681C359.931 93.8402 359.694 91.7979 359.059 89.864C357.96 86.6106 356.049 83.6914 353.506 81.3827C351.835 79.819 350.023 78.4132 348.093 77.1831C347.412 76.7484 346.871 76.4203 346.502 76.207C346.319 76.0903 346.127 75.9888 345.927 75.9036C346.088 76.0502 346.264 76.1795 346.452 76.2891L347.986 77.339C349.871 78.6103 351.646 80.037 353.293 81.6042C355.748 83.9093 357.594 86.7865 358.666 89.9788C359.265 91.8579 359.486 93.8375 359.314 95.8024C359.199 96.8329 358.962 97.8462 358.608 98.8209C358.231 99.8134 357.739 100.773 357.271 101.782C356.776 102.771 356.399 103.814 356.148 104.891C355.918 105.958 355.918 107.063 356.148 108.131C356.591 110.152 357.7 111.966 359.297 113.282C360.003 113.896 360.836 114.348 361.736 114.605C362.636 114.861 363.582 114.916 364.506 114.766C365.321 114.651 366.092 114.32 366.738 113.808C367.383 113.297 367.881 112.622 368.18 111.854C368.428 111.223 368.511 110.539 368.424 109.867C368.336 109.194 368.081 108.555 367.68 108.008C367.352 107.617 366.941 107.305 366.477 107.094C366.013 106.882 365.508 106.777 364.998 106.785C364.36 106.773 363.734 106.963 363.21 107.327C363.018 107.468 362.856 107.647 362.734 107.852Z" fill="#445FEB"/>
<path d="M333.017 83.0971C333.276 82.6532 333.433 82.1573 333.476 81.6453C333.669 80.4258 333.622 79.1803 333.337 77.9789C333.059 76.7747 332.547 75.6374 331.828 74.6323C331.27 73.8695 330.811 73.5004 330.778 73.5414C330.745 73.5824 332.262 75.3541 332.878 78.0855C333.493 80.8169 332.869 83.0725 333.017 83.0971Z" fill="#263238"/>
<path d="M339.792 107.031C340.227 107.41 340.565 107.889 340.776 108.426C340.866 108.709 340.899 109.006 340.874 109.302C340.849 109.597 340.765 109.885 340.629 110.148C340.437 110.456 340.176 110.716 339.868 110.907C339.559 111.097 339.21 111.214 338.849 111.247C338.49 111.304 338.123 111.281 337.774 111.179C337.425 111.076 337.103 110.898 336.831 110.657C336.406 110.233 336.167 109.658 336.167 109.057C336.192 108.474 336.374 107.907 336.692 107.417C336.692 107.417 336.511 107.483 336.306 107.737C336.02 108.105 335.854 108.551 335.83 109.016C335.807 109.368 335.856 109.72 335.974 110.052C336.093 110.383 336.278 110.687 336.519 110.944C336.835 111.243 337.215 111.465 337.631 111.594C338.046 111.724 338.485 111.757 338.914 111.69C339.338 111.65 339.747 111.511 340.107 111.285C340.467 111.059 340.77 110.751 340.99 110.386C341.144 110.068 341.231 109.722 341.243 109.369C341.256 109.016 341.195 108.664 341.063 108.336C340.902 107.902 340.617 107.526 340.243 107.253C339.981 107.073 339.8 107.031 339.792 107.031Z" fill="#455A64"/>
<path d="M289.011 88.0186C289.102 88.0186 288.741 86.7555 288.733 84.7377C288.706 82.0611 289.413 79.4283 290.776 77.1249C292.14 74.8215 294.108 72.9354 296.467 71.6714C298.264 70.6953 299.535 70.4164 299.51 70.3262C299.205 70.3314 298.903 70.3869 298.616 70.4902C297.821 70.7094 297.049 71.0061 296.311 71.3761C293.84 72.6002 291.777 74.5148 290.372 76.8879C288.967 79.2609 288.281 81.9906 288.396 84.7459C288.428 85.5746 288.537 86.3986 288.724 87.2066C288.782 87.4892 288.879 87.7625 289.011 88.0186Z" fill="#445FEB"/>
<path d="M309.739 96.147C309.788 96.2045 310.1 95.9092 310.666 95.5647C311.393 95.1165 312.211 94.8363 313.061 94.7445C313.913 94.6588 314.775 94.7682 315.579 95.0643C316.21 95.2858 316.571 95.5073 316.612 95.4416C316.653 95.376 316.342 95.0725 315.71 94.7527C314.874 94.339 313.939 94.1712 313.011 94.2687C312.086 94.37 311.206 94.7248 310.469 95.294C309.919 95.7369 309.689 96.1142 309.739 96.147Z" fill="#445FEB"/>
<path d="M295.27 97.5333C296.242 97.691 297.234 97.691 298.206 97.5333C299.189 97.5371 300.166 97.3848 301.102 97.0821C300.132 96.9264 299.143 96.9264 298.173 97.0821C297.188 97.0766 296.207 97.2289 295.27 97.5333Z" fill="#445FEB"/>
<path d="M242.356 168.828C242.356 168.828 237.706 157.78 243.997 158.985C253.635 160.823 252.199 170.198 252.199 170.198L242.356 168.828Z" fill="#EB996E"/>
<path d="M233.399 119.269C234.21 118.982 235.059 118.819 235.918 118.786C230.684 122.673 229.265 132.68 232.932 142.786C236.508 152.628 243.743 159.346 250.157 159.297L250.665 159.166C255.759 155.188 257.104 145.304 253.487 135.313C249.87 125.323 242.414 118.498 235.926 118.786C236.585 118.291 237.311 117.893 238.083 117.604C245.022 115.078 254.045 122.263 258.146 133.648C262.157 144.705 260.073 155.63 253.561 158.559H253.692L266.52 191.368C266.795 192.065 266.78 192.843 266.481 193.53C266.182 194.216 265.622 194.756 264.925 195.03C264.228 195.304 263.45 195.29 262.764 194.991C262.077 194.692 261.537 194.132 261.263 193.435L248.303 160.494C241.339 163.013 232.349 155.835 228.224 144.451C224.098 133.066 226.436 121.796 233.399 119.269Z" fill="#263238"/>
<path d="M239.19 148.946C239.099 148.598 238.966 148.262 238.797 147.945L237.599 145.295C236.238 142.404 235.177 139.381 234.433 136.273C233.72 133.175 233.72 129.955 234.433 126.857C234.793 125.588 235.248 124.349 235.795 123.149C235.555 123.42 235.356 123.724 235.204 124.051C234.741 124.913 234.375 125.824 234.113 126.766C233.287 129.909 233.239 133.206 233.974 136.371C234.721 139.499 235.836 142.528 237.296 145.394C237.845 146.493 238.304 147.379 238.633 147.978C238.774 148.324 238.962 148.649 239.19 148.946Z" fill="#263238"/>
<path d="M240.535 151.57C240.445 151.669 240.839 152.218 241.43 152.801C242.02 153.383 242.561 153.777 242.652 153.686C242.742 153.596 242.348 153.047 241.758 152.464C241.167 151.882 240.626 151.48 240.535 151.57Z" fill="#263238"/>
<path d="M254.529 163.89C255.521 162.012 256.678 159.42 258.425 158.206C260.172 156.992 262.6 155.59 264.65 157.386C262.071 161.068 259.681 164.879 257.49 168.803L254.529 163.89Z" fill="#EB996E"/>
<path d="M240.864 160.568C240.864 160.568 241.249 158.387 244.448 159.346C247.647 160.306 257.67 162.397 255.734 164.53C253.799 166.663 250.378 165.703 250.378 165.703C250.378 165.703 255.948 166.909 255.415 168.074C254.881 169.238 253.955 171.256 251.584 169.993C249.214 168.73 242.635 166.589 242.635 166.589L240.864 160.568Z" fill="#EB996E"/>
<path d="M241.225 165.44C241.225 165.44 241.225 165.227 241.225 164.891C241.232 164.665 241.309 164.446 241.444 164.265C241.578 164.083 241.765 163.947 241.979 163.874C242.692 163.793 243.413 163.9 244.071 164.185L246.737 164.899C248.631 165.399 250.354 165.818 251.609 166.097C252.277 166.295 252.964 166.418 253.659 166.466C253.031 166.162 252.371 165.931 251.691 165.777C250.46 165.408 248.754 164.956 246.86 164.448L244.186 163.767C243.449 163.473 242.642 163.399 241.864 163.554C241.603 163.662 241.382 163.851 241.235 164.093C241.088 164.334 241.021 164.617 241.044 164.899C241.069 165.268 241.208 165.449 241.225 165.44Z" fill="#263238"/>
<path d="M326.759 188.661L317.08 206.608L269.03 182.411C269.03 182.411 261.96 168.828 260.787 169C259.614 169.173 254.414 171.412 254.414 171.412C254.414 171.412 247.032 167.426 245.441 168.508C243.849 169.591 241.7 182.715 243.095 186.775C244.489 190.835 259.081 199.013 259.081 199.013C259.081 199.013 298.452 224.867 315.571 233.946C326.841 239.934 336.782 232.79 343.459 221.471L354.843 197.38" fill="#FFBE9D"/>
</svg>
