<svg width="153" height="153" viewBox="0 0 153 153" fill="none" xmlns="http://www.w3.org/2000/svg">
<path d="M60.0072 54.9213L52.0313 47.3834C52.9603 45.6956 53.535 43.7847 53.535 41.7231C53.535 35.1895 48.2429 29.8974 41.7065 29.8974C35.1702 29.8974 29.8697 35.1867 29.8697 41.7231C29.8697 48.2594 35.1702 53.5543 41.7065 53.5543C44.0109 53.5543 46.1422 52.868 47.9611 51.7298L55.9258 59.2593C57.131 57.6664 58.4895 56.2073 60.0072 54.9213Z" fill="#7B81FF"/>
<path d="M93.7434 53.9783L104.342 36.1436C105.385 36.4421 106.467 36.6569 107.603 36.6569C114.15 36.6569 119.442 31.362 119.442 24.8257C119.442 18.2921 114.15 13 107.603 13C101.066 13 95.7771 18.2893 95.7771 24.8257C95.7771 28.0701 97.0855 31.0021 99.2001 33.1418L88.6354 50.9264C90.4515 51.7493 92.1644 52.776 93.7434 53.9783Z" fill="#7B81FF"/>
<path d="M130.294 68.909C125.206 68.909 120.896 72.1423 119.225 76.6505L104.501 75.197C104.501 75.3086 104.517 75.4146 104.517 75.5234C104.517 77.4428 104.305 79.3175 103.923 81.128L118.642 82.5814C119.532 88.2279 124.394 92.5575 130.294 92.5575C136.828 92.5575 142.117 87.2682 142.117 80.7346C142.117 74.2039 136.828 68.909 130.294 68.909Z" fill="#7B81FF"/>
<path d="M89.662 115.419L86.3701 101.035C84.5122 101.683 82.5789 102.146 80.5619 102.377L83.8594 116.764C80.0793 118.742 77.4709 122.65 77.4709 127.214C77.4709 133.748 82.7602 139.034 89.3077 139.034C95.8413 139.034 101.131 133.745 101.131 127.214C101.139 120.801 96.0282 115.609 89.662 115.419Z" fill="#7B81FF"/>
<path d="M51.0521 81.234L32.7236 87.3742C30.609 84.1437 26.9684 82.0012 22.8257 82.0012C16.2893 82.0012 11 87.2933 11 93.8268C11 100.369 16.2893 105.661 22.8257 105.661C29.3564 105.661 34.6597 100.369 34.6597 93.8268C34.6597 93.5534 34.6011 93.3024 34.5788 93.0346L52.9659 86.8776C52.1373 85.0894 51.479 83.2063 51.0521 81.234Z" fill="#7B81FF"/>
<path d="M77.4792 95.8075C88.6818 95.8075 97.7633 86.726 97.7633 75.5234C97.7633 64.3208 88.6818 55.2393 77.4792 55.2393C66.2766 55.2393 57.1951 64.3208 57.1951 75.5234C57.1951 86.726 66.2766 95.8075 77.4792 95.8075Z" fill="#7B81FF"/>
</svg>
