<svg width="41" height="41" viewBox="0 0 41 41" fill="none" xmlns="http://www.w3.org/2000/svg">
<path d="M36.9 0H4.1C1.845 0 0.0205 1.845 0.0205 4.1L0 41L8.2 32.8H36.9C39.155 32.8 41 30.955 41 28.7V4.1C41 1.845 39.155 0 36.9 0Z" fill="#445FEB"/>
<path d="M21 26.75C22.1966 26.75 23.1666 25.78 23.1666 24.5834C23.1666 23.3867 22.1966 22.4167 21 22.4167C19.8034 22.4167 18.8333 23.3867 18.8333 24.5834C18.8333 25.78 19.8034 26.75 21 26.75Z" fill="white"/>
<path d="M18.8333 7.25H23.1666V20.25H18.8333V7.25Z" fill="white"/>
</svg>
