<svg width="216" height="226" viewBox="0 0 216 226" fill="none" xmlns="http://www.w3.org/2000/svg">
<path d="M83.5561 226C129.703 226 167.112 219.392 167.112 211.24C167.112 203.089 129.703 196.481 83.5561 196.481C37.4093 196.481 0 203.089 0 211.24C0 219.392 37.4093 226 83.5561 226Z" fill="#3F3D56"/>
<path d="M134.34 163.305C179.439 163.305 216 126.748 216 81.6525C216 36.5571 179.439 0 134.34 0C89.2401 0 52.6796 36.5571 52.6796 81.6525C52.6796 126.748 89.2401 163.305 134.34 163.305Z" fill="#3F3D56"/>
<path opacity="0.05" d="M134.34 149.059C171.571 149.059 201.753 118.88 201.753 81.6525C201.753 44.4248 171.571 14.2457 134.34 14.2457C97.1086 14.2457 66.9268 44.4248 66.9268 81.6525C66.9268 118.88 97.1086 149.059 134.34 149.059Z" fill="black"/>
<path opacity="0.05" d="M134.34 136.898C164.854 136.898 189.591 112.164 189.591 81.6525C189.591 51.1412 164.854 26.4068 134.34 26.4068C103.826 26.4068 79.0889 51.1412 79.0889 81.6525C79.0889 112.164 103.826 136.898 134.34 136.898Z" fill="black"/>
<path opacity="0.05" d="M134.34 121.263C156.218 121.263 173.954 103.529 173.954 81.6524C173.954 59.7764 156.218 42.0423 134.34 42.0423C112.462 42.0423 94.726 59.7764 94.726 81.6524C94.726 103.529 112.462 121.263 134.34 121.263Z" fill="black"/>
<path d="M53.403 88.9598C53.403 88.9598 46.9829 107.03 49.8363 113.449C52.6896 119.869 57.2075 126.05 57.2075 126.05C57.2075 126.05 55.543 90.1486 53.403 88.9598Z" fill="#D0CDE1"/>
<path opacity="0.1" d="M53.403 88.9598C53.403 88.9598 46.9829 107.03 49.8363 113.449C52.6896 119.869 57.2075 126.05 57.2075 126.05C57.2075 126.05 55.543 90.1486 53.403 88.9598Z" fill="black"/>
<path d="M57.9208 130.806C57.9208 130.806 57.4452 135.323 57.2075 135.561C56.9697 135.799 57.4452 136.274 57.2075 136.987C56.9697 137.701 56.7319 138.652 57.2075 138.889C57.683 139.127 54.5918 160.05 54.5918 160.05C54.5918 160.05 46.9828 170.036 50.074 185.728L51.0251 201.658C51.0251 201.658 58.3964 202.134 58.3964 199.518C58.3964 199.518 57.9208 196.427 57.9208 195.001C57.9208 193.574 59.1097 193.574 58.3964 192.861C57.683 192.148 57.683 191.672 57.683 191.672C57.683 191.672 58.8719 190.721 58.6341 190.483C58.3964 190.246 60.7742 173.365 60.7742 173.365C60.7742 173.365 63.3898 170.749 63.3898 169.323V167.896C63.3898 167.896 64.5787 164.805 64.5787 164.568C64.5787 164.33 70.9988 149.826 70.9988 149.826L73.6144 160.288L76.4678 175.267C76.4678 175.267 77.8945 188.819 80.7479 194.05C80.7479 194.05 85.7413 211.168 85.7413 210.693C85.7413 210.217 94.0637 209.029 93.8259 206.889C93.5882 204.749 88.8325 174.791 88.8325 174.791L90.0214 130.33L57.9208 130.806Z" fill="#2F2E41"/>
<path d="M51.5005 200.469C51.5005 200.469 45.0804 213.071 49.3604 213.546C53.6405 214.022 55.305 214.022 57.2073 212.12C58.2472 211.08 60.3532 209.685 62.0488 208.633C63.0535 208.021 63.8651 207.137 64.3906 206.084C64.9161 205.031 65.1341 203.851 65.0197 202.68C64.8943 201.517 64.4596 200.558 63.3896 200.469C60.5362 200.232 57.2073 197.616 57.2073 197.616L51.5005 200.469Z" fill="#2F2E41"/>
<path d="M86.9302 209.742C86.9302 209.742 80.51 222.343 84.7901 222.819C89.0702 223.294 90.7347 223.294 92.6369 221.392C93.6769 220.352 95.7829 218.957 97.4785 217.906C98.4832 217.293 99.2948 216.41 99.8202 215.357C100.346 214.304 100.564 213.124 100.449 211.953C100.324 210.79 99.8893 209.831 98.8193 209.742C95.9659 209.504 92.6369 206.889 92.6369 206.889L86.9302 209.742Z" fill="#2F2E41"/>
<path d="M80.1448 68.3382C85.6651 68.3382 90.1403 63.8635 90.1403 58.3437C90.1403 52.8238 85.6651 48.3491 80.1448 48.3491C74.6244 48.3491 70.1493 52.8238 70.1493 58.3437C70.1493 63.8635 74.6244 68.3382 80.1448 68.3382Z" fill="#FFB8B8"/>
<path d="M73.7191 61.6275C73.7191 61.6275 66.5795 74.7632 66.0083 74.7632C65.4372 74.7632 78.8597 79.0466 78.8597 79.0466C78.8597 79.0466 82.5723 66.482 83.1434 65.3398L73.7191 61.6275Z" fill="#FFB8B8"/>
<path d="M84.6713 76.0019C84.6713 76.0019 70.4043 68.1558 68.9776 68.3936C67.5509 68.6314 52.3328 81.9459 52.5706 87.4144C52.8084 92.8829 54.7107 101.918 54.7107 101.918C54.7107 101.918 55.424 127.12 56.8507 127.358C58.2774 127.596 56.6129 131.876 57.0885 131.876C57.5641 131.876 90.378 131.876 90.6158 131.162C90.8536 130.449 84.6713 76.0019 84.6713 76.0019Z" fill="#D0CDE1"/>
<path d="M92.637 132.47C92.637 132.47 97.1549 146.26 93.3504 145.785C89.5458 145.309 87.8813 133.896 87.8813 133.896L92.637 132.47Z" fill="#FFB8B8"/>
<path d="M80.51 75.1698C80.51 75.1698 71.7121 77.0718 73.1388 88.9598C74.5655 100.848 77.1811 112.736 77.1811 112.736L85.979 131.994L86.9302 135.561L93.3503 133.897L88.5947 106.316C88.5947 106.316 86.9302 76.8341 84.7901 75.883C83.4406 75.3078 81.9732 75.0632 80.51 75.1698Z" fill="#D0CDE1"/>
<path opacity="0.1" d="M75.1599 112.379L86.098 131.875L76.8825 111.332L75.1599 112.379Z" fill="black"/>
<path d="M90.0959 55.4007L90.129 54.6369L91.6485 55.0151C91.6322 54.7699 91.5629 54.5312 91.4453 54.3154C91.3278 54.0996 91.1648 53.9119 90.9676 53.7652L92.5861 53.6747C91.228 51.7449 89.4928 50.1104 87.4853 48.8698C85.4778 47.6293 83.2396 46.8085 80.906 46.457C77.4051 45.9496 73.507 46.6838 71.1063 49.2817C69.9418 50.5419 69.2102 52.1444 68.6897 53.7792C67.7311 56.7903 67.5358 60.3797 69.5346 62.8272C71.5661 65.3147 75.1146 65.802 78.3117 66.1099C79.4366 66.2182 80.6154 66.319 81.6578 65.8826C81.7739 64.687 81.6208 63.4806 81.2099 62.3519C81.0388 62.0025 80.957 61.6161 80.9719 61.2273C81.114 60.2763 82.3827 60.0367 83.3357 60.1652C84.2888 60.2937 85.4347 60.4903 86.061 59.7605C86.4923 59.2578 86.4669 58.5258 86.524 57.8659C86.6796 56.0694 90.0797 55.7773 90.0959 55.4007Z" fill="#2F2E41"/>
<path d="M151.403 213.271C157.835 213.271 163.049 208.058 163.049 201.626C163.049 195.195 157.835 189.981 151.403 189.981C144.971 189.981 139.757 195.195 139.757 201.626C139.757 208.058 144.971 213.271 151.403 213.271Z" fill="#7B81FF"/>
<path d="M14.6258 209.209C21.0579 209.209 26.2722 203.995 26.2722 197.564C26.2722 191.132 21.0579 185.919 14.6258 185.919C8.19364 185.919 2.97937 191.132 2.97937 197.564C2.97937 203.995 8.19364 209.209 14.6258 209.209Z" fill="#7B81FF"/>
<path d="M14.6257 190.522C19.2628 190.522 23.022 186.764 23.022 182.127C23.022 177.49 19.2628 173.732 14.6257 173.732C9.98862 173.732 6.22949 177.49 6.22949 182.127C6.22949 186.764 9.98862 190.522 14.6257 190.522Z" fill="#7B81FF"/>
<path d="M14.6257 175.086C17.9166 175.086 20.5844 172.418 20.5844 169.128C20.5844 165.837 17.9166 163.17 14.6257 163.17C11.3349 163.17 8.66711 165.837 8.66711 169.128C8.66711 172.418 11.3349 175.086 14.6257 175.086Z" fill="#7B81FF"/>
</svg>
