<svg width="46" height="46" viewBox="0 0 46 46" fill="#7B81FF" xmlns="http://www.w3.org/2000/svg">
<path d="M43.9091 6.27273V5.22727C43.9091 2.34182 41.5673 0 38.6818 0C35.7964 0 33.4545 2.34182 33.4545 5.22727V6.27273C32.3045 6.27273 31.3636 7.21364 31.3636 8.36364V16.7273C31.3636 17.8773 32.3045 18.8182 33.4545 18.8182H43.9091C45.0591 18.8182 46 17.8773 46 16.7273V8.36364C46 7.21364 45.0591 6.27273 43.9091 6.27273ZM42.2364 6.27273H35.1273V5.22727C35.1273 3.26182 36.7164 1.67273 38.6818 1.67273C40.6473 1.67273 42.2364 3.26182 42.2364 5.22727V6.27273ZM37.4691 23C37.5527 23.69 37.6364 24.38 37.6364 25.0909C37.6364 29.44 35.9636 33.3918 33.2455 36.3609C32.7018 34.6673 31.1545 33.4545 29.2727 33.4545H27.1818V27.1818C27.1818 26.0318 26.2409 25.0909 25.0909 25.0909H12.5455V20.9091H16.7273C17.8773 20.9091 18.8182 19.9682 18.8182 18.8182V14.6364H23C25.3 14.6364 27.1818 12.7545 27.1818 10.4545V5.14364C25.1955 4.51636 23.1045 4.18182 20.9091 4.18182C9.36727 4.18182 0 13.5491 0 25.0909C0 36.6327 9.36727 46 20.9091 46C32.4509 46 41.8182 36.6327 41.8182 25.0909C41.8182 24.38 41.7764 23.69 41.7136 23H37.4691ZM18.8182 41.6718C10.5591 40.6473 4.18182 33.6218 4.18182 25.0909C4.18182 23.7945 4.34909 22.5609 4.62091 21.3482L14.6364 31.3636V33.4545C14.6364 35.7545 16.5182 37.6364 18.8182 37.6364V41.6718Z" fill="#7B81FF"/>
</svg>
