<svg width="133" height="156" viewBox="0 0 133 156" fill="none" xmlns="http://www.w3.org/2000/svg">
<mask id="mask0" mask-type="alpha" maskUnits="userSpaceOnUse" x="0" y="23" width="133" height="134">
<path d="M66.5 156C103.227 156 133 126.353 133 89.7815C133 53.2099 103.227 23.5627 66.5 23.5627C29.7731 23.5627 0 53.2099 0 89.7815C0 126.353 29.7731 156 66.5 156Z" fill="#445FEB"/>
</mask>
<g mask="url(#mask0)">
<path fill-rule="evenodd" clip-rule="evenodd" d="M53.445 -4.06274C103.24 -4.06274 143.608 36.1338 143.608 85.7185C143.608 128.587 113.435 164.436 73.0838 173.362C75.3752 171.64 76.3008 166.183 81.4448 163.137C87.256 159.696 93.4195 155.246 97.8219 151.652C102.224 148.057 104.25 142.445 108.652 139.991C113.054 137.536 127.054 115.09 124.325 110.619C121.595 106.147 110.677 107.901 107.948 106.586C105.218 105.27 107.243 101.237 104.338 99.2207C101.432 97.2042 97.1175 97.9056 88.6648 93.0833C83.0296 89.8685 78.5978 89.4301 75.3693 91.7682L70.4826 94.6615C67.4717 96.4442 63.722 96.4409 60.7143 94.6528L58.3699 93.2591C55.3361 91.4555 52.5676 89.2425 50.1432 86.6829L48.8461 85.3135C47.3364 83.7196 46.5208 81.596 46.5772 79.4057C46.6206 77.7184 45.2822 76.3154 43.5877 76.2722C43.4727 76.2692 43.3577 76.2727 43.2431 76.2826L39.5773 76.6001C37.4685 76.7827 35.6104 75.2284 35.427 73.1286C35.3621 72.385 35.5175 71.6388 35.8741 70.9823V68.8332C38.0733 64.7845 40.404 64.0675 44.8162 65.4405L49.0517 68.8332C50.5766 69.3077 51.9705 69.3552 52.447 67.8367C52.5635 67.4656 52.4863 64.5806 52.447 64.1938C52.7345 56.2298 52.5742 56.6231 54.8322 50.6998C56.4908 48.8231 63.5104 41.9428 63.9248 39.8231C64.3391 37.7034 71.396 36.156 71.8039 36.156C71.8039 25.1872 67.926 19.4429 65.8715 18.7999C62.7898 17.8355 63.5707 20.4868 59.3444 17.6811C59.3444 17.6811 53.6211 14.7878 54.3255 18.4702C55.0299 22.1527 57.1431 30.482 50.2753 25.4844C43.4074 20.4868 39.4452 20.4868 43.3194 17.8565C47.1935 15.2262 48.8665 15.4015 48.074 13.911C47.2816 12.4205 52.5646 10.8423 46.6652 11.2807C40.7659 11.7191 39.7093 7.07223 35.8352 6.45849C31.961 5.84475 29.5837 6.63385 31.2566 8.21203C32.9295 9.79022 32.5994 10.3163 27.6466 8.73809C22.6937 7.15991 18.9297 3.82818 12.7662 8.12435C6.60277 12.4205 -1.93802 17.0674 -2.20217 19.7854C-2.20217 19.7854 7.83546 13.8234 9.59645 16.629C11.3574 19.4347 8.89205 27.1503 11.1813 30.8327C13.4706 34.5151 9.06815 26.6462 8.71596 32.4109C8.36376 38.1756 0.967611 43.8089 6.60277 54.8562C10.3595 62.221 11.6216 66.2542 10.3889 66.9556L12.2379 69.3667C12.4498 69.643 12.8466 69.696 13.1241 69.485C13.3243 69.3327 13.4146 69.0767 13.354 68.8332L12.243 64.3697C12.2002 64.1977 12.3054 64.0238 12.4781 63.9812C12.6248 63.945 12.777 64.0151 12.8442 64.1499C13.7174 65.9023 14.6802 67.609 15.7288 69.2632L17.5011 72.059C18.8633 74.2079 20.345 76.2794 21.9393 78.2638L22.8919 79.4496C25.0831 82.177 27.9627 84.2756 31.2361 85.5306L40.6369 89.1348C42.014 89.6628 43.4078 90.1463 44.8162 90.5845C46.1872 91.0112 47.3802 91.873 48.213 93.0384L48.5583 93.5217C49.6296 95.021 51.0356 96.2525 52.6656 97.1194L56.1492 98.9721C57.322 99.5958 58.6311 99.9221 59.9607 99.9221H60.3124C61.4129 99.9221 62.4983 100.177 63.4826 100.667C64.3932 101.121 64.9514 102.065 64.9081 103.077L64.8912 103.473C64.833 104.837 64.5398 106.18 64.0244 107.444L61.1248 114.56C59.6872 118.087 60.4352 122.125 63.0422 124.91C67.8849 130.083 65.6837 132.1 73.6081 136.571C81.5326 141.043 73.5201 154.37 70.9666 159.63C68.6729 164.356 68.926 172.644 71.2456 173.748C65.4909 174.896 59.5388 175.5 53.445 175.5C3.64971 175.5 -36.7175 135.303 -36.7175 85.7185C-36.7175 60.9261 -26.6257 38.4808 -10.3095 22.2336C6.0067 5.98636 28.5473 -4.06274 53.445 -4.06274C103.24 -4.06274 143.608 36.1338 143.608 85.7185C143.608 135.303 103.24 175.5 53.445 175.5C3.64971 175.5 -36.7175 135.303 -36.7175 85.7185C-36.7175 60.9261 -26.6257 38.4808 -10.3095 22.2336C6.0067 5.98636 28.5473 -4.06274 53.445 -4.06274Z" fill="#445FEB"/>
</g>
<path fill-rule="evenodd" clip-rule="evenodd" d="M128.5 29.9185C128.772 30.6844 128.921 31.4972 128.921 32.3337V59.7179C128.921 63.9637 125.406 67.4375 121.111 67.4375H82.0617C77.7663 67.4375 74.252 63.9637 74.252 59.7179V32.3337C74.252 31.4972 74.4007 30.6844 74.6724 29.9185C75.7524 26.7066 78.7926 24.3892 82.3784 24.3751V19.1401C82.3784 8.48714 90.809 0 101.586 0C112.364 0 120.794 8.48714 120.794 19.1401V24.3751C124.38 24.3892 127.42 26.7066 128.5 29.9185ZM114.234 24.375V19.0937C114.234 12.1384 108.571 6.5 101.586 6.5C94.6014 6.5 88.9391 12.1384 88.9391 19.0937V24.375H114.234Z" fill="#445FEB"/>
<path d="M133 89.3747C133 126.171 103.227 156 66.5 156C29.7731 156 0 126.171 0 89.3747C0 52.5788 29.7731 22.7498 66.5 22.7498C70.2382 22.7498 73.9043 23.0588 77.4743 23.6527C74.1256 25.2019 71.8037 28.5808 71.8037 32.4997V36.0105C70.0591 35.838 68.2898 35.7497 66.5 35.7497C36.9833 35.7497 13.0552 59.7585 13.0552 89.3747C13.0552 118.991 36.9833 143 66.5 143C96.0167 143 119.945 118.991 119.945 89.3747C119.945 82.4953 118.654 75.9184 116.301 69.8747H121.577C124.533 69.8747 127.184 68.5697 128.979 66.5066C131.581 73.6385 133 81.3406 133 89.3747Z" fill="#445FEB"/>
</svg>
