<svg width="32" height="32" viewBox="0 0 32 32" fill="none" xmlns="http://www.w3.org/2000/svg">
<path d="M26.6666 10.6667H22.6666V8.28C22.6666 4.8 20.12 1.69334 16.6533 1.36C12.68 0.98667 9.33331 4.10667 9.33331 8V10.6667H5.33331V29.3333H26.6666V10.6667ZM16 22.6667C14.5333 22.6667 13.3333 21.4667 13.3333 20C13.3333 18.5333 14.5333 17.3333 16 17.3333C17.4666 17.3333 18.6666 18.5333 18.6666 20C18.6666 21.4667 17.4666 22.6667 16 22.6667ZM12 10.6667V8C12 5.78667 13.7866 4 16 4C18.2133 4 20 5.78667 20 8V10.6667H12Z" fill="#7B81FF"/>
</svg>
