<svg x="0px" y="0px" width="102px" height="68.63px" viewBox="0 0 74 66" fill="none" xmlns="http://www.w3.org/2000/svg">
<path d="M62.3333 18.3333H11C4.91333 18.3333 0 23.2467 0 29.3333V51.3333H14.6667V66H58.6667V51.3333H73.3333V29.3333C73.3333 23.2467 68.42 18.3333 62.3333 18.3333ZM51.3333 58.6667H22V40.3333H51.3333V58.6667ZM62.3333 33C60.3167 33 58.6667 31.35 58.6667 29.3333C58.6667 27.3167 60.3167 25.6667 62.3333 25.6667C64.35 25.6667 66 27.3167 66 29.3333C66 31.35 64.35 33 62.3333 33ZM58.6667 0H14.6667V14.6667H58.6667V0Z" fill="black"/>
</svg>
