<svg width="408" height="408" viewBox="0 0 408 408" fill="none" xmlns="http://www.w3.org/2000/svg">
<path d="M203.999 348.44C291.379 348.44 362.214 344.304 362.214 339.203C362.214 334.101 291.379 329.966 203.999 329.966C116.62 329.966 45.7852 334.101 45.7852 339.203C45.7852 344.304 116.62 348.44 203.999 348.44Z" fill="#F5F5F5"/>
<path d="M296.575 118.997H270.006L251.238 333.809H277.807C281.536 333.737 285.11 332.303 287.855 329.778C290.6 327.253 292.326 323.811 292.707 320.101L309.101 132.698C309.291 130.952 309.107 129.185 308.562 127.516C308.016 125.846 307.121 124.312 305.935 123.016C304.75 121.72 303.302 120.691 301.688 119.998C300.074 119.305 298.331 118.964 296.575 118.997Z" fill="#407BFF"/>
<path d="M291.156 118.998H201.233C197.504 119.068 193.929 120.5 191.183 123.023C188.437 125.547 186.709 128.989 186.325 132.699L169.931 320.101C169.742 321.846 169.927 323.611 170.472 325.279C171.017 326.947 171.911 328.48 173.094 329.777C174.277 331.073 175.722 332.103 177.334 332.798C178.945 333.494 180.686 333.839 182.441 333.81H272.356C276.08 333.73 279.647 332.293 282.386 329.769C285.125 327.244 286.848 323.806 287.231 320.101L303.625 132.699C303.814 130.957 303.632 129.196 303.09 127.53C302.547 125.865 301.657 124.334 300.478 123.038C299.299 121.743 297.858 120.713 296.251 120.016C294.644 119.32 292.908 118.973 291.156 118.998Z" fill="#407BFF"/>
<path opacity="0.3" d="M291.156 118.998H201.233C197.504 119.068 193.929 120.5 191.183 123.023C188.437 125.547 186.709 128.989 186.325 132.699L169.931 320.101C169.742 321.846 169.927 323.611 170.472 325.279C171.017 326.947 171.911 328.48 173.094 329.777C174.277 331.073 175.722 332.103 177.334 332.798C178.945 333.494 180.686 333.839 182.441 333.81H272.356C276.08 333.73 279.647 332.293 282.386 329.769C285.125 327.244 286.848 323.806 287.231 320.101L303.625 132.699C303.814 130.957 303.632 129.196 303.09 127.53C302.547 125.865 301.657 124.334 300.478 123.038C299.299 121.743 297.858 120.713 296.251 120.016C294.644 119.32 292.908 118.973 291.156 118.998Z" fill="white"/>
<path opacity="0.4" d="M290.772 123.388H267.059C266.352 123.393 265.663 123.611 265.081 124.013C264.499 124.414 264.051 124.981 263.795 125.64C262.86 128.06 261.225 130.146 259.098 131.633C256.972 133.12 254.451 133.94 251.857 133.987H237.871C235.427 134.037 233.044 133.232 231.13 131.713C229.216 130.194 227.891 128.055 227.385 125.664C227.25 125.017 226.893 124.438 226.376 124.027C225.859 123.616 225.214 123.398 224.553 123.412H200.849C198.314 123.457 195.884 124.429 194.018 126.145C192.152 127.861 190.979 130.201 190.722 132.723L174.32 320.125C174.189 321.312 174.312 322.513 174.682 323.648C175.051 324.783 175.659 325.826 176.463 326.708C177.268 327.59 178.252 328.29 179.348 328.762C180.445 329.234 181.63 329.466 182.823 329.444H272.746C275.282 329.397 277.712 328.423 279.578 326.706C281.444 324.989 282.616 322.648 282.873 320.125L299.266 132.723C299.4 131.535 299.279 130.333 298.911 129.197C298.543 128.06 297.937 127.015 297.133 126.132C296.329 125.248 295.345 124.546 294.249 124.073C293.152 123.6 291.966 123.366 290.772 123.388Z" fill="white"/>
<path d="M268.366 225.216H205.436C205.003 225.223 204.574 225.138 204.177 224.967C203.78 224.796 203.424 224.542 203.132 224.223C202.84 223.903 202.62 223.525 202.485 223.114C202.351 222.703 202.305 222.268 202.352 221.838L202.67 218.231C202.763 217.317 203.189 216.468 203.865 215.846C204.542 215.223 205.423 214.87 206.342 214.853H269.28C269.712 214.846 270.141 214.931 270.539 215.102C270.936 215.273 271.292 215.527 271.584 215.847C271.875 216.166 272.096 216.544 272.23 216.955C272.365 217.366 272.411 217.801 272.364 218.231L272.054 221.838C271.959 222.754 271.531 223.604 270.851 224.227C270.171 224.849 269.287 225.201 268.366 225.216Z" fill="white"/>
<path d="M267.011 240.72H204.073C203.641 240.727 203.212 240.642 202.815 240.471C202.419 240.3 202.063 240.046 201.772 239.726C201.481 239.407 201.261 239.029 201.128 238.617C200.994 238.206 200.949 237.771 200.997 237.342L201.307 233.735C201.402 232.821 201.828 231.974 202.504 231.352C203.18 230.73 204.06 230.376 204.979 230.357H267.917C268.35 230.35 268.779 230.435 269.176 230.606C269.573 230.777 269.929 231.031 270.221 231.351C270.513 231.67 270.733 232.048 270.868 232.459C271.002 232.87 271.048 233.305 271.002 233.735L270.683 237.342C270.588 238.256 270.162 239.103 269.486 239.725C268.81 240.347 267.93 240.701 267.011 240.72Z" fill="white"/>
<path opacity="0.1" d="M249.246 126.896C249.142 127.912 248.669 128.854 247.917 129.544C247.165 130.235 246.186 130.625 245.166 130.642C244.686 130.65 244.21 130.557 243.769 130.367C243.329 130.177 242.933 129.896 242.61 129.542C242.286 129.187 242.042 128.768 241.893 128.312C241.744 127.856 241.694 127.373 241.747 126.896C241.85 125.881 242.323 124.939 243.075 124.248C243.827 123.558 244.806 123.168 245.827 123.151C246.306 123.142 246.782 123.236 247.223 123.426C247.664 123.615 248.059 123.897 248.383 124.251C248.706 124.605 248.95 125.025 249.099 125.481C249.248 125.937 249.298 126.419 249.246 126.896Z" fill="black"/>
<path opacity="0.1" d="M247.549 126.896C247.491 127.451 247.233 127.965 246.823 128.342C246.413 128.719 245.879 128.934 245.321 128.945C245.059 128.95 244.799 128.899 244.557 128.795C244.316 128.692 244.1 128.538 243.923 128.344C243.746 128.15 243.613 127.921 243.532 127.671C243.451 127.421 243.424 127.157 243.453 126.896C243.509 126.341 243.766 125.826 244.177 125.449C244.588 125.071 245.123 124.858 245.68 124.848C245.942 124.845 246.202 124.896 246.443 125C246.683 125.105 246.899 125.258 247.076 125.452C247.252 125.646 247.386 125.874 247.467 126.123C247.549 126.372 247.577 126.636 247.549 126.896Z" fill="black"/>
<g opacity="0.8">
<path d="M279.699 133.147C279.558 133.149 279.418 133.121 279.289 133.065C279.16 133.009 279.044 132.926 278.949 132.822C278.854 132.718 278.783 132.595 278.739 132.461C278.695 132.327 278.68 132.186 278.695 132.046L278.875 130.038C278.905 129.742 279.043 129.466 279.262 129.265C279.482 129.063 279.768 128.949 280.066 128.945C280.206 128.943 280.345 128.971 280.474 129.026C280.602 129.082 280.718 129.164 280.812 129.267C280.907 129.37 280.979 129.492 281.023 129.625C281.068 129.758 281.083 129.899 281.07 130.038L280.89 132.046C280.86 132.343 280.723 132.619 280.503 132.822C280.284 133.025 279.998 133.141 279.699 133.147Z" fill="white"/>
<path d="M288.478 133.147C288.337 133.149 288.198 133.121 288.068 133.065C287.939 133.009 287.823 132.926 287.728 132.822C287.634 132.718 287.562 132.595 287.518 132.461C287.474 132.327 287.459 132.186 287.474 132.045L287.891 127.337C287.921 127.041 288.059 126.765 288.278 126.564C288.498 126.362 288.784 126.248 289.082 126.244C289.222 126.242 289.361 126.27 289.49 126.325C289.618 126.381 289.734 126.463 289.828 126.566C289.923 126.669 289.995 126.791 290.039 126.924C290.084 127.057 290.099 127.198 290.086 127.337L289.669 132.045C289.64 132.343 289.502 132.619 289.283 132.822C289.063 133.025 288.777 133.141 288.478 133.147Z" fill="white"/>
<path d="M284.089 133.147C283.949 133.149 283.809 133.121 283.68 133.065C283.55 133.009 283.435 132.926 283.34 132.822C283.245 132.718 283.173 132.595 283.129 132.461C283.086 132.327 283.071 132.185 283.086 132.045L283.38 128.692C283.41 128.393 283.548 128.115 283.769 127.912C283.991 127.709 284.279 127.594 284.579 127.59C284.72 127.588 284.859 127.616 284.988 127.672C285.117 127.728 285.232 127.811 285.326 127.915C285.421 128.019 285.492 128.143 285.534 128.277C285.577 128.41 285.591 128.552 285.575 128.692L285.281 132.045C285.251 132.343 285.113 132.619 284.894 132.822C284.674 133.025 284.388 133.14 284.089 133.147Z" fill="white"/>
</g>
<g opacity="0.8">
<path d="M204.521 133.147H199.004C198.925 133.149 198.846 133.133 198.773 133.102C198.7 133.071 198.635 133.024 198.582 132.965C198.528 132.906 198.488 132.837 198.464 132.761C198.44 132.685 198.432 132.606 198.441 132.527L198.694 129.565C198.712 129.396 198.791 129.241 198.916 129.126C199.04 129.012 199.203 128.947 199.372 128.944H204.888C204.967 128.943 205.046 128.958 205.119 128.989C205.192 129.021 205.257 129.067 205.311 129.126C205.364 129.185 205.404 129.255 205.428 129.33C205.452 129.406 205.46 129.486 205.451 129.565L205.19 132.527C205.175 132.695 205.099 132.852 204.975 132.966C204.851 133.081 204.689 133.145 204.521 133.147Z" fill="white"/>
<path d="M207.074 132.339C206.994 132.341 206.915 132.325 206.842 132.294C206.769 132.263 206.703 132.216 206.649 132.158C206.595 132.099 206.554 132.03 206.529 131.954C206.504 131.878 206.495 131.798 206.503 131.719L206.625 130.364C206.641 130.196 206.72 130.039 206.845 129.924C206.97 129.81 207.133 129.746 207.303 129.744C207.382 129.743 207.461 129.758 207.534 129.789C207.607 129.821 207.672 129.867 207.725 129.926C207.779 129.985 207.819 130.054 207.843 130.13C207.867 130.206 207.875 130.286 207.866 130.364L207.751 131.719C207.734 131.887 207.655 132.043 207.53 132.157C207.405 132.271 207.243 132.336 207.074 132.339Z" fill="white"/>
</g>
<path d="M257.996 201.496C268.977 190.984 270.072 174.308 260.443 164.249C250.813 154.189 234.105 154.556 223.124 165.068C212.144 175.579 211.049 192.255 220.678 202.315C230.308 212.374 247.016 212.007 257.996 201.496Z" fill="white"/>
<path d="M240.653 182.278C233.733 182.278 227.883 184.914 227.385 190.634L226.83 196.991H251.906L252.461 190.634C252.958 184.914 247.581 182.278 240.653 182.278Z" fill="#407BFF"/>
<path d="M240.882 179.659C244.097 179.659 245.582 177.056 245.86 173.841C246.137 170.625 245.117 168.022 241.902 168.022C238.687 168.022 237.21 170.634 236.924 173.841C236.639 177.047 237.667 179.659 240.882 179.659Z" fill="#407BFF"/>
<path d="M265.493 219.814C263.787 219.814 262.343 220.467 262.229 221.878L262.09 223.453H268.283L268.422 221.878C268.536 220.467 267.206 219.814 265.493 219.814Z" fill="#407BFF"/>
<path d="M265.55 219.17C266.366 219.17 266.708 218.525 266.782 217.734C266.855 216.942 266.594 216.297 265.803 216.297C265.011 216.297 264.644 216.942 264.57 217.734C264.497 218.525 264.758 219.17 265.55 219.17Z" fill="#407BFF"/>
<path d="M246.432 256.224H221.952C221.288 256.236 220.629 256.107 220.019 255.844C219.409 255.582 218.862 255.193 218.415 254.703C217.967 254.212 217.629 253.632 217.423 253.001C217.216 252.37 217.147 251.703 217.219 251.043C217.364 249.639 218.018 248.338 219.056 247.383C220.095 246.429 221.447 245.887 222.857 245.861H247.337C248.001 245.85 248.659 245.981 249.268 246.243C249.877 246.506 250.424 246.895 250.871 247.385C251.319 247.875 251.657 248.455 251.864 249.085C252.071 249.716 252.141 250.383 252.07 251.043C251.927 252.446 251.274 253.749 250.235 254.704C249.196 255.659 247.843 256.2 246.432 256.224Z" fill="#407BFF"/>
<path d="M243.469 314.013H217.267C216.564 314.032 215.865 313.9 215.218 313.625C214.571 313.349 213.991 312.938 213.517 312.418C213.043 311.899 212.687 311.283 212.472 310.614C212.257 309.944 212.189 309.236 212.273 308.538L213.946 289.427C214.095 287.945 214.783 286.569 215.88 285.559C216.976 284.55 218.405 283.978 219.894 283.952H246.104C246.805 283.94 247.501 284.077 248.145 284.354C248.789 284.632 249.366 285.043 249.838 285.561C250.311 286.079 250.668 286.692 250.885 287.358C251.102 288.025 251.175 288.73 251.098 289.427L249.425 308.538C249.272 310.021 248.582 311.396 247.485 312.404C246.387 313.413 244.959 313.985 243.469 314.013Z" fill="#407BFF"/>
<g opacity="0.6">
<path d="M235.39 294.25C235.433 293.833 235.387 293.411 235.255 293.014C235.123 292.616 234.907 292.25 234.624 291.942C234.34 291.633 233.994 291.389 233.608 291.224C233.223 291.059 232.807 290.978 232.387 290.986C231.495 290.999 230.638 291.338 229.978 291.939C229.318 292.54 228.901 293.362 228.805 294.25C228.753 294.746 228.827 295.248 229.019 295.708C229.212 296.169 229.517 296.574 229.907 296.886L229.336 303.471C229.308 303.72 229.333 303.973 229.411 304.211C229.488 304.45 229.616 304.67 229.785 304.855C229.954 305.04 230.161 305.187 230.392 305.287C230.623 305.386 230.872 305.434 231.123 305.429C231.654 305.418 232.164 305.213 232.554 304.852C232.945 304.491 233.191 304 233.244 303.471L233.824 296.886C234.261 296.587 234.628 296.196 234.898 295.741C235.169 295.286 235.337 294.777 235.39 294.25Z" fill="white"/>
</g>
<path d="M246.334 287.934H242.956L243.772 278.477C243.914 277.164 243.776 275.836 243.366 274.581C242.956 273.326 242.284 272.173 241.394 271.197C240.504 270.222 239.417 269.447 238.205 268.923C236.993 268.4 235.683 268.141 234.363 268.162C231.558 268.217 228.869 269.296 226.804 271.196C224.739 273.096 223.44 275.685 223.151 278.477L222.335 287.934H218.957L219.773 278.477C220.153 274.772 221.876 271.335 224.617 268.814C227.357 266.293 230.926 264.863 234.649 264.792C236.401 264.762 238.14 265.106 239.749 265.799C241.358 266.493 242.802 267.521 243.983 268.815C245.165 270.109 246.058 271.64 246.602 273.306C247.147 274.972 247.331 276.734 247.142 278.477L246.334 287.934Z" fill="#407BFF"/>
<path d="M265.909 234.298L266.015 233.376C266.037 233.163 266.014 232.947 265.946 232.743C265.879 232.539 265.769 232.351 265.624 232.193C265.48 232.034 265.303 231.908 265.106 231.822C264.909 231.736 264.696 231.693 264.481 231.695C264.024 231.705 263.586 231.881 263.25 232.19C262.913 232.5 262.701 232.922 262.653 233.376L262.572 234.282C262.389 234.287 262.215 234.359 262.081 234.484C261.947 234.608 261.863 234.777 261.846 234.959L261.633 237.407C261.623 237.493 261.631 237.58 261.657 237.662C261.683 237.744 261.727 237.82 261.785 237.883C261.843 237.947 261.915 237.997 261.994 238.03C262.074 238.064 262.159 238.08 262.245 238.077H265.607C265.789 238.073 265.964 238.004 266.098 237.88C266.232 237.757 266.316 237.589 266.334 237.407L266.546 234.959C266.553 234.873 266.541 234.786 266.512 234.704C266.483 234.622 266.437 234.548 266.377 234.485C266.316 234.423 266.244 234.374 266.163 234.342C266.083 234.309 265.996 234.295 265.909 234.298ZM264.383 232.128C264.545 232.126 264.706 232.158 264.854 232.222C265.003 232.287 265.136 232.382 265.246 232.501C265.355 232.621 265.438 232.762 265.489 232.915C265.54 233.069 265.558 233.232 265.542 233.393L265.461 234.298H262.931L263.013 233.393C263.048 233.051 263.207 232.734 263.459 232.502C263.712 232.269 264.04 232.136 264.383 232.128Z" fill="#407BFF"/>
<path d="M215.3 235.269L214.125 235.024C214.092 235.018 214.061 235.004 214.035 234.983C214.008 234.963 213.987 234.937 213.972 234.907C213.957 234.877 213.949 234.844 213.949 234.811C213.948 234.777 213.956 234.744 213.97 234.714L214.459 233.556C214.48 233.505 214.482 233.45 214.465 233.398C214.448 233.347 214.414 233.303 214.368 233.275C214.322 233.247 214.267 233.235 214.214 233.243C214.16 233.252 214.112 233.278 214.076 233.319L213.186 234.233C213.165 234.26 213.138 234.282 213.107 234.297C213.076 234.312 213.042 234.32 213.007 234.32C212.972 234.32 212.938 234.312 212.907 234.297C212.876 234.282 212.849 234.26 212.827 234.233L212.101 233.319C211.946 233.123 211.612 233.319 211.669 233.556L211.954 234.714C211.963 234.748 211.964 234.783 211.958 234.818C211.952 234.852 211.939 234.885 211.92 234.914C211.901 234.943 211.876 234.968 211.847 234.987C211.818 235.006 211.785 235.019 211.75 235.024L210.534 235.269C210.273 235.318 210.241 235.685 210.494 235.734L211.669 235.979C211.702 235.985 211.733 235.999 211.759 236.02C211.785 236.04 211.807 236.066 211.821 236.097C211.835 236.127 211.842 236.16 211.841 236.194C211.84 236.227 211.832 236.26 211.816 236.289L211.342 237.456C211.322 237.506 211.32 237.562 211.337 237.613C211.354 237.664 211.388 237.708 211.434 237.737C211.48 237.765 211.535 237.776 211.588 237.768C211.641 237.76 211.69 237.733 211.726 237.693L212.615 236.779C212.638 236.754 212.666 236.734 212.697 236.721C212.728 236.707 212.761 236.7 212.795 236.7C212.828 236.7 212.862 236.707 212.893 236.721C212.924 236.734 212.951 236.754 212.974 236.779L213.701 237.693C213.856 237.889 214.19 237.693 214.125 237.456L213.839 236.297C213.827 236.228 213.843 236.157 213.882 236.099C213.922 236.041 213.983 236.001 214.051 235.987L215.267 235.742C215.52 235.685 215.553 235.318 215.3 235.269Z" fill="#263238"/>
<path d="M223.021 235.269L221.846 235.024C221.813 235.018 221.782 235.004 221.756 234.983C221.729 234.963 221.708 234.937 221.693 234.907C221.678 234.877 221.67 234.844 221.669 234.811C221.669 234.777 221.676 234.744 221.691 234.714L222.18 233.556C222.2 233.505 222.202 233.45 222.186 233.398C222.169 233.347 222.134 233.303 222.088 233.275C222.043 233.247 221.988 233.235 221.934 233.243C221.881 233.252 221.832 233.278 221.797 233.319L220.907 234.233C220.886 234.26 220.859 234.282 220.827 234.297C220.796 234.312 220.762 234.32 220.728 234.32C220.693 234.32 220.659 234.312 220.628 234.297C220.597 234.282 220.57 234.26 220.548 234.233L219.822 233.319C219.667 233.123 219.332 233.319 219.398 233.556L219.683 234.714C219.69 234.749 219.69 234.784 219.683 234.818C219.676 234.853 219.663 234.885 219.643 234.914C219.623 234.943 219.598 234.968 219.568 234.987C219.539 235.006 219.506 235.018 219.471 235.024L218.255 235.269C217.994 235.318 217.961 235.685 218.214 235.734L219.389 235.979C219.422 235.986 219.453 236 219.479 236.02C219.506 236.04 219.527 236.067 219.542 236.096C219.557 236.126 219.565 236.159 219.566 236.193C219.566 236.226 219.559 236.259 219.544 236.289L219.055 237.448C219.034 237.498 219.033 237.554 219.049 237.605C219.066 237.656 219.101 237.7 219.147 237.728C219.192 237.757 219.247 237.768 219.3 237.76C219.354 237.752 219.403 237.725 219.438 237.684L220.328 236.771C220.351 236.746 220.379 236.726 220.409 236.713C220.44 236.699 220.474 236.692 220.507 236.692C220.541 236.692 220.574 236.699 220.605 236.713C220.636 236.726 220.664 236.746 220.687 236.771L221.413 237.684C221.568 237.88 221.903 237.684 221.846 237.448L221.56 236.289C221.553 236.255 221.552 236.221 221.559 236.187C221.565 236.153 221.578 236.12 221.597 236.092C221.616 236.063 221.641 236.038 221.669 236.019C221.698 235.999 221.73 235.986 221.764 235.979L222.98 235.734C223.241 235.685 223.274 235.318 223.021 235.269Z" fill="#263238"/>
<path d="M230.739 235.269L229.572 235.024C229.539 235.019 229.507 235.006 229.479 234.986C229.452 234.966 229.429 234.94 229.414 234.91C229.399 234.879 229.391 234.846 229.392 234.812C229.392 234.778 229.401 234.744 229.417 234.714L229.907 233.556C229.938 233.504 229.948 233.441 229.933 233.382C229.918 233.324 229.881 233.273 229.829 233.241C229.777 233.21 229.715 233.201 229.656 233.215C229.597 233.23 229.546 233.267 229.515 233.319L228.634 234.233C228.612 234.26 228.584 234.282 228.552 234.297C228.52 234.312 228.485 234.32 228.45 234.32C228.415 234.32 228.38 234.312 228.348 234.297C228.317 234.282 228.289 234.26 228.267 234.233L227.54 233.319C227.385 233.123 227.051 233.319 227.116 233.556L227.402 234.714C227.409 234.748 227.409 234.783 227.403 234.817C227.396 234.851 227.383 234.883 227.364 234.912C227.345 234.941 227.321 234.966 227.292 234.985C227.264 235.004 227.231 235.018 227.198 235.024L225.982 235.269C225.721 235.318 225.688 235.685 225.941 235.734L227.108 235.979C227.141 235.986 227.171 236 227.198 236.02C227.224 236.041 227.246 236.067 227.261 236.096C227.276 236.126 227.284 236.159 227.284 236.193C227.284 236.226 227.277 236.259 227.263 236.289L226.773 237.448C226.742 237.5 226.732 237.562 226.747 237.621C226.761 237.68 226.799 237.731 226.851 237.762C226.903 237.793 226.965 237.803 227.024 237.788C227.083 237.774 227.134 237.737 227.165 237.685L228.046 236.771C228.069 236.746 228.097 236.726 228.128 236.713C228.159 236.699 228.192 236.692 228.226 236.692C228.259 236.692 228.293 236.699 228.324 236.713C228.355 236.726 228.382 236.746 228.405 236.771L229.14 237.685C229.295 237.88 229.629 237.685 229.564 237.448L229.278 236.289C229.266 236.221 229.28 236.151 229.318 236.093C229.356 236.036 229.415 235.995 229.482 235.979L230.698 235.734C230.927 235.685 230.992 235.318 230.739 235.269Z" fill="#263238"/>
<path d="M238.468 235.269L237.293 235.024C237.26 235.018 237.229 235.004 237.203 234.983C237.176 234.963 237.155 234.937 237.14 234.907C237.125 234.877 237.117 234.844 237.117 234.811C237.116 234.777 237.123 234.744 237.138 234.714L237.627 233.556C237.648 233.505 237.65 233.45 237.633 233.398C237.616 233.347 237.582 233.303 237.536 233.275C237.49 233.247 237.435 233.235 237.382 233.243C237.328 233.252 237.279 233.278 237.244 233.319L236.354 234.233C236.333 234.26 236.306 234.282 236.275 234.297C236.244 234.312 236.209 234.32 236.175 234.32C236.14 234.32 236.106 234.312 236.075 234.297C236.044 234.282 236.017 234.26 235.995 234.233L235.269 233.319C235.114 233.123 234.78 233.319 234.837 233.556L235.122 234.714C235.131 234.748 235.132 234.783 235.126 234.818C235.12 234.852 235.107 234.885 235.088 234.914C235.069 234.943 235.044 234.968 235.015 234.987C234.985 235.006 234.953 235.019 234.918 235.024L233.702 235.269C233.441 235.318 233.409 235.685 233.702 235.734L234.877 235.979C234.91 235.985 234.941 235.999 234.968 236.02C234.994 236.04 235.015 236.066 235.03 236.097C235.044 236.127 235.051 236.16 235.05 236.194C235.049 236.227 235.04 236.26 235.024 236.289L234.543 237.448C234.523 237.498 234.521 237.554 234.537 237.605C234.554 237.656 234.589 237.7 234.635 237.728C234.681 237.757 234.735 237.768 234.789 237.76C234.842 237.752 234.891 237.725 234.926 237.684L235.816 236.771C235.839 236.746 235.867 236.726 235.897 236.713C235.928 236.699 235.962 236.692 235.995 236.692C236.029 236.692 236.062 236.699 236.093 236.713C236.124 236.726 236.152 236.746 236.175 236.771L236.901 237.684C237.056 237.88 237.391 237.684 237.325 237.448L237.04 236.289C237.028 236.22 237.043 236.149 237.083 236.091C237.123 236.033 237.183 235.993 237.252 235.979L238.468 235.734C238.688 235.685 238.721 235.318 238.468 235.269Z" fill="#263238"/>
<path d="M246.187 235.269L245.012 235.024C244.979 235.018 244.948 235.004 244.922 234.983C244.895 234.963 244.874 234.937 244.859 234.907C244.844 234.877 244.836 234.844 244.835 234.811C244.835 234.777 244.842 234.744 244.857 234.714L245.346 233.556C245.367 233.505 245.369 233.45 245.352 233.398C245.335 233.347 245.3 233.303 245.255 233.275C245.209 233.247 245.154 233.235 245.101 233.243C245.047 233.252 244.998 233.278 244.963 233.319L244.073 234.233C244.052 234.26 244.025 234.282 243.993 234.297C243.962 234.312 243.928 234.32 243.894 234.32C243.859 234.32 243.825 234.312 243.794 234.297C243.763 234.282 243.736 234.26 243.714 234.233L242.988 233.319C242.833 233.123 242.498 233.319 242.564 233.556L242.849 234.714C242.856 234.749 242.856 234.784 242.849 234.818C242.843 234.853 242.829 234.885 242.809 234.914C242.789 234.943 242.764 234.968 242.734 234.987C242.705 235.006 242.672 235.018 242.637 235.024L241.421 235.269C241.16 235.318 241.127 235.685 241.38 235.734L242.555 235.979C242.588 235.986 242.619 236 242.645 236.02C242.672 236.04 242.693 236.067 242.708 236.096C242.723 236.126 242.731 236.159 242.732 236.193C242.732 236.226 242.725 236.259 242.71 236.289L242.221 237.448C242.201 237.498 242.199 237.554 242.215 237.605C242.232 237.656 242.267 237.7 242.313 237.728C242.359 237.757 242.413 237.768 242.467 237.76C242.52 237.752 242.569 237.725 242.604 237.684L243.494 236.771C243.517 236.746 243.545 236.726 243.575 236.713C243.606 236.699 243.64 236.692 243.673 236.692C243.707 236.692 243.74 236.699 243.771 236.713C243.802 236.726 243.83 236.746 243.853 236.771L244.579 237.684C244.734 237.88 245.069 237.684 245.012 237.448L244.726 236.289C244.719 236.255 244.718 236.221 244.725 236.187C244.731 236.153 244.744 236.12 244.763 236.092C244.782 236.063 244.807 236.038 244.835 236.019C244.864 235.999 244.896 235.986 244.93 235.979L246.146 235.734C246.431 235.685 246.431 235.318 246.187 235.269Z" fill="#263238"/>
<path d="M253.905 235.269L252.73 235.024C252.697 235.018 252.666 235.004 252.64 234.984C252.613 234.963 252.592 234.937 252.578 234.907C252.563 234.877 252.556 234.843 252.557 234.81C252.558 234.776 252.567 234.744 252.583 234.714L253.073 233.556C253.088 233.53 253.099 233.501 253.103 233.472C253.108 233.442 253.106 233.412 253.099 233.382C253.092 233.353 253.079 233.326 253.061 233.302C253.043 233.277 253.021 233.257 252.995 233.241C252.969 233.226 252.941 233.216 252.911 233.211C252.882 233.207 252.851 233.208 252.822 233.215C252.793 233.222 252.765 233.235 252.741 233.253C252.717 233.271 252.697 233.293 252.681 233.319L251.8 234.233C251.778 234.26 251.75 234.282 251.718 234.297C251.686 234.312 251.651 234.32 251.616 234.32C251.581 234.32 251.546 234.312 251.514 234.297C251.483 234.282 251.455 234.26 251.433 234.233L250.706 233.319C250.551 233.123 250.217 233.319 250.282 233.556L250.568 234.714C250.575 234.748 250.575 234.783 250.569 234.817C250.562 234.851 250.549 234.883 250.53 234.912C250.511 234.941 250.487 234.966 250.458 234.985C250.43 235.004 250.397 235.018 250.364 235.024L249.148 235.269C248.887 235.318 248.854 235.685 249.107 235.734L250.274 235.979C250.307 235.986 250.337 236 250.364 236.02C250.39 236.041 250.412 236.067 250.427 236.096C250.442 236.126 250.45 236.159 250.45 236.193C250.45 236.226 250.443 236.259 250.429 236.289L249.939 237.448C249.908 237.5 249.898 237.562 249.913 237.621C249.928 237.68 249.965 237.731 250.017 237.762C250.069 237.793 250.131 237.803 250.19 237.788C250.249 237.774 250.3 237.737 250.331 237.685L251.212 236.771C251.235 236.746 251.263 236.726 251.294 236.713C251.325 236.699 251.358 236.692 251.392 236.692C251.425 236.692 251.459 236.699 251.49 236.713C251.521 236.726 251.548 236.746 251.571 236.771L252.298 237.685C252.336 237.727 252.387 237.756 252.443 237.766C252.5 237.775 252.558 237.766 252.608 237.738C252.658 237.711 252.697 237.667 252.72 237.614C252.742 237.562 252.745 237.503 252.73 237.448L252.444 236.289C252.432 236.221 252.446 236.151 252.484 236.093C252.522 236.036 252.581 235.995 252.648 235.979L253.864 235.734C254.125 235.685 254.158 235.318 253.905 235.269Z" fill="#263238"/>
<path d="M235.292 218.37H220.8C220.355 218.377 219.928 218.548 219.601 218.848C219.273 219.149 219.067 219.559 219.021 220.002C218.998 220.21 219.019 220.421 219.084 220.62C219.149 220.819 219.255 221.002 219.397 221.157C219.538 221.312 219.711 221.434 219.904 221.516C220.097 221.599 220.305 221.639 220.514 221.634H235.006C235.451 221.626 235.878 221.456 236.205 221.155C236.533 220.855 236.739 220.444 236.785 220.002C236.807 219.794 236.785 219.584 236.719 219.385C236.654 219.186 236.547 219.004 236.406 218.85C236.265 218.695 236.093 218.573 235.9 218.49C235.708 218.407 235.501 218.366 235.292 218.37Z" fill="#263238"/>
<path d="M250.013 218.37H241.6C241.156 218.377 240.731 218.548 240.404 218.849C240.078 219.15 239.873 219.56 239.829 220.002C239.806 220.209 239.827 220.419 239.892 220.618C239.956 220.817 240.062 220.999 240.203 221.154C240.343 221.308 240.515 221.431 240.707 221.514C240.899 221.596 241.106 221.637 241.315 221.634H249.695C250.139 221.626 250.564 221.455 250.891 221.154C251.217 220.854 251.422 220.443 251.466 220.002C251.488 219.797 251.468 219.59 251.406 219.393C251.343 219.197 251.24 219.016 251.103 218.862C250.966 218.708 250.798 218.585 250.61 218.5C250.423 218.415 250.219 218.371 250.013 218.37Z" fill="#263238"/>
<path d="M261.12 292.34C255.997 294.291 251.373 297.357 247.582 301.316C245.28 299.529 242.536 298.401 239.642 298.052L239.259 297.995L239.096 299.921L239.308 300.003C242.481 301.171 245.165 303.38 246.921 306.269L247.199 306.726L247.5 306.237C250.88 300.842 255.649 296.456 261.307 293.54L261.495 293.442L261.601 292.169L261.12 292.34Z" fill="#263238"/>
<path opacity="0.2" d="M188.203 131.678C187.163 133.494 186.523 135.511 186.326 137.594L174.176 276.494H211.777L219.333 247.534L216.844 218.566L224.401 189.606L221.953 160.646L229.509 131.678H188.203Z" fill="black"/>
<path d="M218.647 152.486L226.203 123.518H131.114L123.566 152.486L126.047 181.446L118.499 210.406L120.98 239.374L113.432 268.334H208.512L216.068 239.374L213.579 210.406L221.135 181.446L218.647 152.486Z" fill="#407BFF"/>
<path opacity="0.7" d="M218.647 152.486L226.203 123.518H131.114L123.566 152.486L126.047 181.446L118.499 210.406L120.98 239.374L113.432 268.334H208.512L216.068 239.374L213.579 210.406L221.135 181.446L218.647 152.486Z" fill="white"/>
<path opacity="0.5" d="M218.647 152.486H123.566L131.114 123.518H226.203L218.647 152.486Z" fill="white"/>
<path opacity="0.5" d="M213.58 210.406H118.5L126.048 181.446H221.136L213.58 210.406Z" fill="white"/>
<path opacity="0.5" d="M208.512 268.333H113.424L120.98 239.374H216.068L208.512 268.333Z" fill="white"/>
<path opacity="0.2" d="M205.925 164.588C204.949 164.87 203.937 165.007 202.922 164.996C201.545 165.057 200.174 164.776 198.932 164.18C198.707 164.046 198.45 163.976 198.189 163.976C197.949 163.979 197.714 164.041 197.504 164.155H197.455C197.09 164.36 196.701 164.516 196.296 164.62C195.383 164.861 194.442 164.979 193.497 164.971C193.212 164.971 192.934 164.971 192.681 164.971C191.948 164.924 191.223 164.795 190.519 164.588C190.415 164.557 190.308 164.538 190.2 164.53C190.021 164.516 189.84 164.538 189.67 164.597C189.5 164.656 189.343 164.749 189.211 164.87C189.078 164.992 188.972 165.14 188.9 165.305C188.827 165.47 188.789 165.648 188.789 165.828V166.709H151.775C151.095 166.709 150.422 166.843 149.793 167.104C149.165 167.364 148.594 167.746 148.114 168.227C147.633 168.709 147.253 169.28 146.993 169.908C146.734 170.537 146.601 171.211 146.602 171.891V177.105C146.599 177.786 146.732 178.46 146.991 179.09C147.25 179.719 147.63 180.292 148.111 180.774C148.592 181.256 149.163 181.638 149.791 181.899C150.42 182.16 151.094 182.295 151.775 182.295H193.824H194.101C194.55 182.67 195.023 183.046 195.529 183.429C196.035 183.813 196.753 184.343 197.414 184.816C197.639 184.979 197.911 185.067 198.189 185.067C198.468 185.067 198.739 184.979 198.964 184.816C204.252 180.981 207.647 178.337 207.647 171.075V165.852C207.649 165.644 207.602 165.437 207.509 165.25C207.415 165.063 207.279 164.901 207.111 164.778C206.942 164.654 206.747 164.572 206.541 164.539C206.334 164.506 206.123 164.523 205.925 164.588Z" fill="black"/>
<path d="M193.017 163.845H150.977C148.115 163.845 145.795 166.165 145.795 169.026V174.241C145.795 177.102 148.115 179.422 150.977 179.422H193.017C195.879 179.422 198.198 177.102 198.198 174.241V169.026C198.198 166.165 195.879 163.845 193.017 163.845Z" fill="#407BFF"/>
<path d="M202.116 162.123C200.739 162.182 199.369 161.902 198.125 161.307C197.905 161.171 197.65 161.1 197.391 161.1C197.132 161.1 196.878 161.171 196.657 161.307C195.411 161.903 194.038 162.183 192.658 162.123C191.643 162.134 190.631 161.996 189.655 161.715C189.459 161.649 189.249 161.631 189.044 161.662C188.839 161.693 188.644 161.772 188.476 161.893C188.308 162.014 188.171 162.174 188.076 162.359C187.982 162.543 187.933 162.748 187.934 162.955V168.178C187.934 175.448 191.328 178.092 196.616 181.927C196.841 182.091 197.113 182.179 197.391 182.179C197.669 182.179 197.941 182.091 198.166 181.927C203.454 178.092 206.848 175.448 206.848 168.178V162.955C206.848 162.748 206.797 162.543 206.702 162.359C206.607 162.174 206.469 162.015 206.3 161.893C206.131 161.772 205.936 161.693 205.731 161.662C205.525 161.631 205.316 161.649 205.119 161.715C204.143 161.997 203.131 162.134 202.116 162.123Z" fill="#407BFF"/>
<path opacity="0.3" d="M202.116 162.123C200.739 162.182 199.369 161.902 198.125 161.307C197.905 161.171 197.65 161.1 197.391 161.1C197.132 161.1 196.878 161.171 196.657 161.307C195.411 161.903 194.038 162.183 192.658 162.123C191.643 162.134 190.631 161.996 189.655 161.715C189.459 161.649 189.249 161.631 189.044 161.662C188.839 161.693 188.644 161.772 188.476 161.893C188.308 162.014 188.171 162.174 188.076 162.359C187.982 162.543 187.933 162.748 187.934 162.955V168.178C187.934 175.448 191.328 178.092 196.616 181.927C196.841 182.091 197.113 182.179 197.391 182.179C197.669 182.179 197.941 182.091 198.166 181.927C203.454 178.092 206.848 175.448 206.848 168.178V162.955C206.848 162.748 206.797 162.543 206.702 162.359C206.607 162.174 206.469 162.015 206.3 161.893C206.131 161.772 205.936 161.693 205.731 161.662C205.525 161.631 205.316 161.649 205.119 161.715C204.143 161.997 203.131 162.134 202.116 162.123Z" fill="white"/>
<path opacity="0.2" d="M196.657 161.291C195.411 161.886 194.038 162.167 192.658 162.107C191.643 162.117 190.631 161.979 189.655 161.699C189.459 161.632 189.249 161.614 189.044 161.645C188.839 161.676 188.644 161.755 188.476 161.877C188.308 161.998 188.171 162.158 188.076 162.342C187.982 162.527 187.933 162.731 187.934 162.939V168.161C187.934 175.432 191.328 178.076 196.616 181.911C196.853 182.083 197.139 182.172 197.432 182.164V161.078C197.158 161.073 196.889 161.147 196.657 161.291Z" fill="white"/>
<path d="M204.97 166.758C201.789 168.004 198.956 170 196.712 172.576C195.147 171.422 193.313 170.689 191.384 170.446H191.131V171.695L191.27 171.744C193.415 172.518 195.264 173.945 196.557 175.824L196.761 176.117L196.933 175.799C198.809 172.313 201.665 169.453 205.15 167.574L205.272 167.517V166.701L204.97 166.758Z" fill="#263238"/>
<path d="M224.523 131.67H220.916C220.452 131.679 219.992 131.588 219.566 131.405C219.139 131.221 218.757 130.949 218.444 130.606C218.132 130.263 217.896 129.858 217.752 129.416C217.608 128.975 217.561 128.508 217.612 128.047L217.93 124.44C218.028 123.459 218.482 122.548 219.207 121.881C219.932 121.213 220.877 120.834 221.863 120.817H225.47C225.934 120.807 226.396 120.897 226.823 121.08C227.25 121.263 227.634 121.535 227.947 121.878C228.261 122.221 228.498 122.627 228.642 123.069C228.786 123.511 228.834 123.978 228.783 124.44L228.464 128.047C228.355 129.024 227.895 129.929 227.171 130.595C226.447 131.261 225.507 131.643 224.523 131.67Z" fill="#407BFF"/>
<path d="M226.024 124.432L225.241 123.567L223.266 125.378L221.618 123.567L220.679 124.432L222.336 126.243L220.369 128.055L221.152 128.912L223.119 127.1L224.776 128.912L225.706 128.055L224.049 126.243L226.024 124.432Z" fill="white"/>
<path d="M143.918 162.784C146.007 165.06 147.998 167.419 149.981 169.793C151.964 172.168 153.882 174.591 155.791 177.023C155.873 177.129 155.84 177.088 155.856 177.121C155.873 177.153 155.856 177.162 155.856 177.17C155.871 177.2 155.89 177.228 155.913 177.251C155.983 177.35 156.071 177.434 156.174 177.499C156.276 177.563 156.39 177.607 156.509 177.627C156.601 177.639 156.694 177.639 156.787 177.627C156.835 177.631 156.885 177.631 156.933 177.627H157.007C157.048 177.627 157.007 177.627 157.137 177.578L159.177 176.468C161.919 175.016 164.685 173.596 167.541 172.323L169.932 175.285C167.631 177.398 165.232 180.05 162.809 181.992L160.981 183.428C160.867 183.521 160.747 183.606 160.622 183.681C160.483 183.78 160.339 183.87 160.189 183.951C159.894 184.121 159.589 184.273 159.275 184.408C158.643 184.673 157.979 184.857 157.301 184.954C155.928 185.156 154.526 185.016 153.221 184.546C152.556 184.311 151.926 183.99 151.344 183.592C151.05 183.396 150.773 183.167 150.528 182.947C150.389 182.833 150.275 182.702 150.144 182.58L149.818 182.253C147.655 180.034 145.526 177.798 143.437 175.521C141.348 173.245 139.283 170.952 137.309 168.569L143.918 162.784Z" fill="#B55B52"/>
<path d="M166.465 174.118L168.366 168.006L173.376 170.503C173.376 170.503 172.642 174.958 169.003 175.733L166.465 174.118Z" fill="#B55B52"/>
<path d="M170.365 166.317L174.885 167.557L173.368 170.503L168.357 168.006L170.365 166.317Z" fill="#B55B52"/>
<path d="M117.577 164.448C117.038 167.043 116.369 169.613 115.676 172.176C114.982 174.738 114.223 177.276 113.432 179.813L113.138 180.768L112.991 181.241C112.971 181.31 112.944 181.375 112.909 181.437C112.816 181.7 112.764 181.975 112.754 182.253C112.737 182.846 112.902 183.43 113.228 183.926C113.388 184.144 113.565 184.348 113.758 184.538L114.435 185.281L115.774 186.774C116.647 187.786 117.528 188.798 118.36 189.858L115.512 193.122C114.337 192.453 113.211 191.727 112.085 191.009L110.412 189.899L109.596 189.336C109.319 189.14 109.09 189.01 108.642 188.643C107.045 187.282 105.943 185.431 105.508 183.379C105.289 182.333 105.237 181.259 105.353 180.197C105.353 179.936 105.435 179.642 105.476 179.381L105.565 178.891L105.737 177.912C106.194 175.293 106.683 172.682 107.23 170.087C107.777 167.492 108.364 164.905 109.058 162.351L117.577 164.448Z" fill="#B55B52"/>
<path d="M115.57 189.597L118.932 187.875L120.417 193.587C120.417 193.587 117.716 194.624 115.627 193.294L115.57 189.597Z" fill="#B55B52"/>
<path d="M123.584 186.04L123.739 191.295L119.977 193.751L118.672 187.982L123.584 186.04Z" fill="#B55B52"/>
<path d="M134.592 137.471C134.674 137.871 134.959 138.157 135.22 138.108C135.482 138.059 135.637 137.683 135.555 137.292C135.473 136.9 135.188 136.606 134.927 136.655C134.666 136.704 134.511 137.088 134.592 137.471Z" fill="#263238"/>
<path d="M134.918 138.165C135.653 139.303 136.539 140.335 137.554 141.233C137.318 141.488 137.029 141.687 136.707 141.818C136.386 141.949 136.04 142.009 135.693 141.992L134.918 138.165Z" fill="#A02724"/>
<path d="M132.658 135.529C132.611 135.529 132.565 135.515 132.526 135.489C132.487 135.463 132.456 135.426 132.437 135.383C132.418 135.34 132.412 135.292 132.419 135.246C132.426 135.2 132.447 135.156 132.478 135.121C132.734 134.832 133.054 134.608 133.413 134.466C133.772 134.324 134.159 134.269 134.543 134.305C134.574 134.311 134.605 134.323 134.632 134.341C134.659 134.358 134.682 134.381 134.7 134.408C134.718 134.434 134.731 134.464 134.738 134.495C134.744 134.527 134.745 134.559 134.739 134.591C134.734 134.622 134.723 134.652 134.706 134.679C134.689 134.706 134.667 134.729 134.641 134.747C134.616 134.766 134.586 134.779 134.555 134.785C134.524 134.792 134.492 134.793 134.461 134.787C134.157 134.758 133.85 134.802 133.566 134.915C133.282 135.029 133.03 135.208 132.829 135.44C132.786 135.49 132.724 135.522 132.658 135.529Z" fill="#263238"/>
<path d="M122.824 143.159C123.721 146.904 124.627 153.767 121.412 156.255C121.412 156.255 122.669 160.058 131.204 160.058C140.588 160.058 135.692 157.61 135.692 157.61C130.568 156.615 130.698 152.167 131.612 149.254L122.824 143.159Z" fill="#B55B52"/>
<path d="M120.41 156.949C119.855 155.913 119.235 154.722 120.508 154.346C121.911 153.938 130.912 153.179 133.564 153.947C132.748 155.391 134.127 157.211 134.127 157.211L120.41 156.949Z" fill="#263238"/>
<path d="M127.867 332.047H133.751L134.338 320.198H128.447L127.867 332.047Z" fill="#B55B52"/>
<path d="M90.5039 330.415L96.4689 330.733L100.092 319.056L94.1269 318.738L90.5039 330.415Z" fill="#B55B52"/>
<path d="M96.2884 330.26L90.6662 329.044C90.5677 329.021 90.4645 329.033 90.3739 329.078C90.2833 329.123 90.2108 329.197 90.1684 329.289L88.2182 333.524C88.1702 333.626 88.1464 333.739 88.1486 333.852C88.1508 333.966 88.179 334.077 88.231 334.178C88.283 334.279 88.3574 334.366 88.4486 334.434C88.5397 334.502 88.6451 334.548 88.7567 334.568C90.7233 334.96 91.7025 335.049 94.175 335.588C95.6927 335.914 99.1281 336.755 101.225 337.22C103.322 337.685 104.049 335.661 103.233 335.286C99.5606 333.613 98.0265 332.136 97.031 330.757C96.8523 330.507 96.5883 330.33 96.2884 330.26Z" fill="#263238"/>
<path d="M133.441 331.451H127.851C127.75 331.452 127.652 331.487 127.574 331.551C127.495 331.615 127.441 331.703 127.419 331.802L126.407 336.347C126.381 336.457 126.38 336.571 126.405 336.682C126.43 336.792 126.48 336.895 126.55 336.983C126.621 337.071 126.711 337.142 126.814 337.19C126.916 337.238 127.028 337.262 127.141 337.261C129.157 337.261 132.037 337.106 134.608 337.106C137.57 337.106 140.124 337.269 143.584 337.269C145.681 337.269 146.268 335.147 145.387 334.951C141.38 334.078 138.116 333.98 134.657 331.851C134.295 331.61 133.875 331.471 133.441 331.451Z" fill="#263238"/>
<path d="M110.748 157.986C106.309 160.099 105.102 172.91 105.102 172.91L116.093 177.986C117.951 174.852 118.963 171.29 119.031 167.647C119.251 161.029 115.293 155.856 110.748 157.986Z" fill="#263238"/>
<path opacity="0.4" d="M116.688 165.884C114.705 168.969 114.893 173.734 115.578 177.757L116.068 177.986C117.924 174.851 118.936 171.289 119.006 167.647C119.006 167.255 119.006 166.831 119.006 166.48L116.688 165.884Z" fill="black"/>
<path d="M141.421 157.676C141.421 157.676 146.872 163.828 141.723 201.903H114.362C114.175 197.7 116.81 177.211 112.73 157.414C115.754 156.833 118.813 156.446 121.886 156.256C125.762 156.035 129.647 156.035 133.522 156.256C136.188 156.526 138.828 157 141.421 157.676Z" fill="#407BFF"/>
<path opacity="0.6" d="M141.421 157.676C141.421 157.676 146.872 163.828 141.723 201.903H114.362C114.175 197.7 116.81 177.211 112.73 157.414C115.754 156.833 118.813 156.446 121.886 156.256C125.762 156.035 129.647 156.035 133.522 156.256C136.188 156.526 138.828 157 141.421 157.676Z" fill="#FAFAFA"/>
<path opacity="0.2" d="M143.813 169.312L143.715 169.222L138.272 166.317C137.717 174.697 141.463 179.952 143.69 182.245C143.97 177.94 144.011 173.622 143.813 169.312Z" fill="black"/>
<path opacity="0.2" d="M134.338 320.198L134.036 326.31H128.145L128.446 320.198H134.338Z" fill="black"/>
<path opacity="0.2" d="M94.1265 318.746L100.091 319.056L98.2228 325.078L92.2578 324.76L94.1265 318.746Z" fill="black"/>
<path d="M120.931 139.356C122.245 144.252 122.767 147.198 125.827 149.238C130.381 152.306 136.044 148.781 136.223 143.583C136.378 138.907 134.208 131.669 128.944 130.682C127.782 130.452 126.581 130.524 125.455 130.891C124.328 131.258 123.315 131.907 122.511 132.777C121.707 133.647 121.14 134.709 120.863 135.861C120.587 137.012 120.61 138.216 120.931 139.356Z" fill="#B55B52"/>
<path d="M132.022 201.903C132.022 201.903 126.212 240.997 123.046 255.653C119.537 271.728 100.818 324.768 100.818 324.768L91.6543 322.785C91.6543 322.785 103.397 279.537 106.342 257.113C107.485 248.358 108.864 234.265 110.61 222.491C112.299 211.067 114.38 201.911 114.38 201.911L132.022 201.903Z" fill="#263238"/>
<path d="M103.012 321.708L101.298 325.021L91 322.785L91.865 319.692L103.012 321.708Z" fill="#407BFF"/>
<path opacity="0.6" d="M103.012 321.708L101.298 325.021L91 322.785L91.865 319.692L103.012 321.708Z" fill="white"/>
<path opacity="0.6" d="M128.35 215.832C121.634 217.146 122.344 242.189 123.152 255.065C125.094 245.959 127.925 228.447 129.859 216.011C129.391 215.781 128.859 215.718 128.35 215.832Z" fill="black"/>
<path d="M141.723 201.903C141.723 201.903 144.457 240.157 143.902 255.759C143.322 271.989 135.627 325.119 135.627 325.119H126.961C126.961 325.119 126.643 272.895 126.26 256.991C125.835 239.61 123.738 201.895 123.738 201.895L141.723 201.903Z" fill="#263238"/>
<path d="M137.293 321.675C137.333 321.675 136.803 325.274 136.803 325.274H126.26L125.975 322.059L137.293 321.675Z" fill="#407BFF"/>
<path opacity="0.6" d="M137.293 321.675C137.333 321.675 136.803 325.274 136.803 325.274H126.26L125.975 322.059L137.293 321.675Z" fill="white"/>
<path d="M138.23 164.832C138.23 175.097 143.69 179.324 143.69 179.324L152.592 170.658C150.485 167.137 148.086 163.798 145.419 160.679C140.27 154.779 138.23 158.239 138.23 164.832Z" fill="#263238"/>
<path opacity="0.2" d="M135.881 145.444C135.699 145.958 135.395 146.421 134.994 146.79C134.593 147.16 134.107 147.426 133.58 147.565C133 147.684 132.473 147.986 132.078 148.427C131.682 148.867 131.439 149.424 131.385 150.013C132.441 149.66 133.399 149.062 134.181 148.268C134.962 147.474 135.545 146.506 135.881 145.444Z" fill="black"/>
<path d="M133.579 129.605C135.407 127.296 132.592 127.157 132.592 127.157C133.326 124.407 130.03 125.884 130.03 125.884C128.055 123.159 126.937 126.48 126.937 126.48C124.889 124.171 124.489 127.94 124.489 127.94C122.433 125.011 121.388 129.238 121.388 129.238C119.495 126.194 118.337 130.152 118.337 130.152C114.428 128.756 116.28 132.82 116.28 132.82C112.951 132.91 115.627 135.497 115.627 135.497C111.629 135.497 115.154 137.79 115.154 137.79C111.98 139.87 115.97 140.433 115.97 140.433C113.383 144.513 117.831 142.979 117.831 142.979C116.027 146.994 120.017 145.223 120.017 145.223C119.765 149.091 121.992 148.039 123.069 147.32C123.273 148.136 123.665 148.952 124.383 149.018C125.778 149.205 126.015 146.57 126.015 146.57C126.015 146.57 127.304 147.582 128.39 147.035C129.475 146.488 129.067 145.109 129.067 145.109C129.303 145.285 129.589 145.38 129.883 145.38C130.177 145.38 130.463 145.285 130.699 145.109C131.164 144.75 131.164 142.155 130.577 141.241L132.698 140.425C132.698 140.425 134.273 140.205 133.571 138.124C133.148 136.928 133.111 135.629 133.465 134.411C135.864 133.285 133.889 131.963 133.889 131.963C136.672 130.176 133.579 129.605 133.579 129.605Z" fill="#263238"/>
<path d="M129.28 139.536C129.612 140.753 130.338 141.826 131.344 142.588C132.674 143.583 133.67 142.588 133.572 141.094C133.49 139.74 132.691 137.594 131.222 137.186C129.753 136.778 128.929 138.092 129.28 139.536Z" fill="#B55B52"/>
</svg>
