<svg width="169" height="169" viewBox="0 0 169 169" fill="none" xmlns="http://www.w3.org/2000/svg">
<g opacity="0.5">
<path opacity="0.5" d="M84.5 169C131.168 169 169 131.168 169 84.5C169 37.8319 131.168 0 84.5 0C37.8319 0 0 37.8319 0 84.5C0 131.168 37.8319 169 84.5 169Z" fill="url(#paint0_linear)"/>
</g>
<path d="M84.6648 166.678C130.349 166.678 167.383 129.644 167.383 83.9601C167.383 38.2762 130.349 1.24207 84.6648 1.24207C38.9809 1.24207 1.94678 38.2762 1.94678 83.9601C1.94678 129.644 38.9809 166.678 84.6648 166.678Z" fill="#F5F5F5"/>
<path d="M84.7422 167.005C100.905 167.031 116.719 162.299 130.21 153.398C127.162 136.74 115.562 135.791 115.562 135.791H51.5935C51.5935 135.791 40.6473 136.689 37.2285 152.013C51.1381 161.797 67.7361 167.034 84.7422 167.005Z" fill="#7B81FF"/>
<path d="M83.8631 122.142C105.913 122.142 123.789 104.267 123.789 82.2168C123.789 60.1665 105.913 42.2912 83.8631 42.2912C61.8128 42.2912 43.9375 60.1665 43.9375 82.2168C43.9375 104.267 61.8128 122.142 83.8631 122.142Z" fill="#333333"/>
<path opacity="0.1" d="M70.9775 115.472H96.56V135.938C96.56 139.33 95.213 142.583 92.8152 144.982C90.4175 147.38 87.1652 148.728 83.7736 148.73C80.3812 148.73 77.1277 147.382 74.7288 144.983C72.33 142.584 70.9824 139.331 70.9824 135.938V115.472H70.9775Z" fill="black"/>
<path d="M71.7887 114.523H95.7586C95.9737 114.523 96.18 114.608 96.3321 114.761C96.4842 114.913 96.5697 115.119 96.5697 115.334V134.989C96.57 136.67 96.2392 138.334 95.5962 139.886C94.9533 141.439 94.0107 142.849 92.8224 144.037C91.6341 145.225 90.2233 146.168 88.6707 146.81C87.118 147.453 85.454 147.784 83.7736 147.783C80.3812 147.783 77.1277 146.435 74.7289 144.037C72.3301 141.638 70.9824 138.384 70.9824 134.992V115.334C70.9824 115.12 71.0672 114.914 71.2183 114.762C71.3693 114.61 71.5744 114.524 71.7887 114.523Z" fill="#FDB797"/>
<path opacity="0.1" d="M71.0234 125.133C79.2684 128.213 88.3441 128.238 96.6059 125.203V122.055H71.0234V125.133Z" fill="black"/>
<path d="M83.8632 126.844C104.115 126.844 120.532 110.427 120.532 90.1753C120.532 69.9235 104.115 53.5062 83.8632 53.5062C63.6114 53.5062 47.1941 69.9235 47.1941 90.1753C47.1941 110.427 63.6114 126.844 83.8632 126.844Z" fill="#FDB797"/>
<path opacity="0.1" d="M57.7432 56.8208C57.7432 56.8208 73.1977 88.1899 116.791 69.9728L106.642 54.0582L88.6498 47.6009L57.7432 56.8208Z" fill="black"/>
<path d="M57.7432 56.3608C57.7432 56.3608 73.1977 87.7299 116.791 69.5079L106.642 53.5933L88.6498 47.136L57.7432 56.3608Z" fill="#333333"/>
<path d="M57.6078 54.235C58.6498 51.0093 60.4508 48.0807 62.8594 45.6954C70.0721 38.5649 81.8973 37.0614 87.9624 28.931C89.4151 31.1875 88.2917 34.6571 85.7833 35.6256C91.5942 35.5869 98.3276 35.0784 101.613 30.2989C102.425 32.1892 102.684 34.2712 102.36 36.3028C102.035 38.3343 101.141 40.2321 99.7803 41.7755C104.93 42.0176 110.434 45.5041 110.758 50.6492C110.981 54.0776 108.821 57.322 106.015 59.288C103.209 61.2541 99.79 62.1572 96.4366 62.8956C86.6453 65.0578 51.2182 74.1058 57.6078 54.235Z" fill="#333333"/>
<path d="M47.1795 96.5382C49.0636 96.5382 50.591 93.6743 50.591 90.1414C50.591 86.6085 49.0636 83.7446 47.1795 83.7446C45.2954 83.7446 43.7681 86.6085 43.7681 90.1414C43.7681 93.6743 45.2954 96.5382 47.1795 96.5382Z" fill="#FDB797"/>
<path d="M120.527 96.5382C122.412 96.5382 123.939 93.6743 123.939 90.1414C123.939 86.6085 122.412 83.7446 120.527 83.7446C118.643 83.7446 117.116 86.6085 117.116 90.1414C117.116 93.6743 118.643 96.5382 120.527 96.5382Z" fill="#FDB797"/>
<defs>
<linearGradient id="paint0_linear" x1="84.5" y1="169" x2="84.5" y2="0" gradientUnits="userSpaceOnUse">
<stop stop-color="#808080" stop-opacity="0.25"/>
<stop offset="0.54" stop-color="#808080" stop-opacity="0.12"/>
<stop offset="1" stop-color="#808080" stop-opacity="0.1"/>
</linearGradient>
</defs>
</svg>
