<svg width="83" height="83" viewBox="0 0 83 83" fill="none" xmlns="http://www.w3.org/2000/svg">
<path d="M71.0342 18.0871L66.2271 12.2771C65.2933 11.1012 63.8754 10.375 62.25 10.375H20.75C19.1246 10.375 17.7067 11.1012 16.7383 12.2771L11.9658 18.0871C10.9629 19.2629 10.375 20.8192 10.375 22.4792V65.7083C10.375 69.5125 13.4875 72.625 17.2917 72.625H65.7083C69.5125 72.625 72.625 69.5125 72.625 65.7083V22.4792C72.625 20.8192 72.0371 19.2629 71.0342 18.0871ZM41.5 60.5208L22.4792 41.5H34.5833V34.5833H48.4167V41.5H60.5208L41.5 60.5208ZM17.7067 17.2917L20.5079 13.8333H62.0079L65.2588 17.2917H17.7067Z" fill="black"/>
</svg>
