<svg width="24" height="24" viewBox="0 0 24 24" fill="none" xmlns="http://www.w3.org/2000/svg">
<path d="M8.20002 4.00006V5.38006C7.37002 5.05006 6.48002 4.88006 5.59001 4.88006C3.80001 4.88006 2.01001 5.56006 0.640015 6.93006L3.97002 10.2601H5.08002V11.3701C5.94002 12.2301 7.06002 12.6801 8.19002 12.7301V15.0001H5.20002V18.0001C5.20002 19.1001 6.10002 20.0001 7.20002 20.0001H17.2C18.86 20.0001 20.2 18.6601 20.2 17.0001V4.00006H8.20002ZM7.09002 10.4101V8.26006H4.81002L3.77002 7.22006C4.34002 7.00006 4.96001 6.88006 5.59001 6.88006C6.93002 6.88006 8.18002 7.40006 9.13002 8.34006L10.54 9.75006L10.34 9.95006C9.83002 10.4601 9.15002 10.7501 8.42002 10.7501C7.95002 10.7501 7.49002 10.6301 7.09002 10.4101ZM18.2 17.0001C18.2 17.5501 17.75 18.0001 17.2 18.0001C16.65 18.0001 16.2 17.5501 16.2 17.0001V15.0001H10.2V12.4101C10.77 12.1801 11.3 11.8401 11.76 11.3801L11.96 11.1801L14.79 14.0001H16.2V12.5901L10.2 6.62006V6.00006H18.2V17.0001Z" fill="#7B81FF"/>
</svg>
