<svg width="278" height="170" viewBox="0 0 278 170" fill="none" xmlns="http://www.w3.org/2000/svg">
<g clip-path="url(#clip0)">
<path d="M33.5943 169.391L33.1172 169.283C38.4366 145.638 51.8046 124.166 70.7587 108.823C85.0887 97.2408 102.132 89.4946 120.284 86.3137C138.436 83.1329 157.099 84.6219 174.516 90.6408C191.933 96.6596 207.531 107.01 219.841 120.718C232.152 134.425 240.769 151.039 244.883 168.995L244.406 169.103C233.146 119.685 189.815 85.1706 139.033 85.1706C88.916 85.1706 44.5728 120.59 33.5943 169.391Z" fill="#3F3D56"/>
<path d="M101.99 30.2357C109.325 30.2357 115.271 24.2927 115.271 16.9616C115.271 9.63045 109.325 3.68741 101.99 3.68741C94.656 3.68741 88.7102 9.63045 88.7102 16.9616C88.7102 24.2927 94.656 30.2357 101.99 30.2357Z" fill="#FF6584"/>
<path d="M44.776 166.375C45.1901 167.906 46.6088 168.853 46.6088 168.853C46.6088 168.853 47.3559 167.32 46.9417 165.79C46.5276 164.259 45.1089 163.311 45.1089 163.311C45.1089 163.311 44.3618 164.845 44.776 166.375Z" fill="#3F3D56"/>
<path d="M45.3845 166.046C46.521 167.152 46.6599 168.852 46.6599 168.852C46.6599 168.852 44.956 168.759 43.8195 167.653C42.683 166.547 42.5442 164.847 42.5442 164.847C42.5442 164.847 44.248 164.94 45.3845 166.046Z" fill="#7B81FF"/>
<path d="M76.317 166.375C76.7311 167.906 78.1498 168.853 78.1498 168.853C78.1498 168.853 78.8969 167.32 78.4827 165.79C78.0686 164.259 76.6499 163.311 76.6499 163.311C76.6499 163.311 75.9028 164.845 76.317 166.375Z" fill="#3F3D56"/>
<path d="M76.9255 166.046C78.062 167.152 78.2008 168.852 78.2008 168.852C78.2008 168.852 76.497 168.759 75.3605 167.653C74.224 166.547 74.0852 164.847 74.0852 164.847C74.0852 164.847 75.789 164.94 76.9255 166.046Z" fill="#7B81FF"/>
<path d="M82.5711 44.4763L77.5774 40.483L105.542 15.5259H176.453V37.4882L130.511 68.435L82.5711 44.4763Z" fill="#3F3D56"/>
<path d="M189.381 29.5254V16.0245H179.967V19.3309L176.453 15.5259L153.482 40.483L144.493 46.4728L130.556 148.253L151.575 169.262H200.423V41.4813L189.381 29.5254Z" fill="#CCCCCC"/>
<path d="M153.482 40.4831H77.5774V169.262H153.482V40.4831Z" fill="#F2F2F2"/>
<path d="M121.023 137.816H107.04V169.262H121.023V137.816Z" fill="#CCCCCC"/>
<path d="M92.0592 146.8V141.809H86.0669V146.8H91.5599H92.0592Z" fill="#3F3D56"/>
<path d="M91.5599 150.794H86.0669V155.785H92.0592V150.794H91.5599Z" fill="#3F3D56"/>
<path d="M102.047 141.809H96.0542V146.8H102.047V141.809Z" fill="#3F3D56"/>
<path d="M102.047 150.794H96.0542V155.785H102.047V150.794Z" fill="#3F3D56"/>
<path d="M133.007 146.8V141.809H127.015V146.8H132.508H133.007Z" fill="#3F3D56"/>
<path d="M132.508 150.794H127.015V155.785H133.007V150.794H132.508Z" fill="#3F3D56"/>
<path d="M142.995 141.809H137.002V146.8H142.995V141.809Z" fill="#3F3D56"/>
<path d="M142.995 150.794H137.002V155.785H142.995V150.794Z" fill="#3F3D56"/>
<path d="M174.955 46.9718V41.9806H168.962V46.9718H174.455H174.955Z" fill="#3F3D56"/>
<path d="M174.455 50.9652H168.962V55.9564H174.955V50.9652H174.455Z" fill="#3F3D56"/>
<path d="M184.942 41.9805H178.95V46.9719H184.942V41.9805Z" fill="#3F3D56"/>
<path d="M184.942 50.9651H178.95V55.9565H184.942V50.9651Z" fill="#3F3D56"/>
<path d="M174.955 74.9239V69.9324H168.962V74.9239H174.455H174.955Z" fill="#3F3D56"/>
<path d="M174.455 78.917H168.962V83.9084H174.955V78.917H174.455Z" fill="#3F3D56"/>
<path d="M184.942 69.9325H178.95V74.9239H184.942V69.9325Z" fill="#3F3D56"/>
<path d="M184.942 78.9171H178.95V83.9085H184.942V78.9171Z" fill="#3F3D56"/>
<path d="M174.955 102.876V97.8845H168.962V102.876H174.455H174.955Z" fill="#3F3D56"/>
<path d="M174.455 106.869H168.962V111.86H174.955V106.869H174.455Z" fill="#3F3D56"/>
<path d="M184.942 97.8845H178.95V102.876H184.942V97.8845Z" fill="#3F3D56"/>
<path d="M184.942 106.869H178.95V111.861H184.942V106.869Z" fill="#3F3D56"/>
<path d="M174.955 130.828V125.836H168.962V130.828H174.455H174.955Z" fill="#3F3D56"/>
<path d="M174.455 134.821H168.962V139.813H174.955V134.821H174.455Z" fill="#3F3D56"/>
<path d="M184.942 125.836H178.95V130.828H184.942V125.836Z" fill="#3F3D56"/>
<path d="M184.942 134.821H178.95V139.812H184.942V134.821Z" fill="#3F3D56"/>
<path d="M143.994 46.9719H86.0667V58.9514H143.994V46.9719Z" fill="#3F3D56"/>
<path d="M143.994 70.9308H86.0667V82.9102H143.994V70.9308Z" fill="#3F3D56"/>
<path d="M143.994 94.8896H86.0667V106.869H143.994V94.8896Z" fill="#3F3D56"/>
<path d="M143.994 118.849H86.0667V130.828H143.994V118.849Z" fill="#3F3D56"/>
<path d="M278 168.759H0V169.248H278V168.759Z" fill="#3F3D56"/>
<path d="M47.9911 112.326H46.5547V169.038H47.9911V112.326Z" fill="#3F3D56"/>
<path d="M61.2473 119.553C61.3387 139.384 47.3804 155.525 47.3804 155.525C47.3804 155.525 33.2738 139.513 33.1823 119.683C33.0909 99.8518 47.0492 83.7112 47.0492 83.7112C47.0492 83.7112 61.1558 99.7225 61.2473 119.553Z" fill="#7B81FF"/>
<path opacity="0.1" d="M61.2473 119.553C61.3387 139.384 47.3804 155.525 47.3804 155.525C47.3804 155.525 33.2738 139.513 33.1823 119.683C33.0909 99.8518 47.0492 83.7112 47.0492 83.7112C47.0492 83.7112 61.1558 99.7225 61.2473 119.553Z" fill="black"/>
<path d="M29.3177 112.326H27.8813V169.038H29.3177V112.326Z" fill="#3F3D56"/>
<path d="M42.5742 119.553C42.6656 139.384 28.7073 155.525 28.7073 155.525C28.7073 155.525 14.6007 139.513 14.5092 119.683C14.4178 99.8518 28.3761 83.7112 28.3761 83.7112C28.3761 83.7112 42.4827 99.7225 42.5742 119.553Z" fill="#7B81FF"/>
<path d="M231.191 40.4029C219.876 40.455 210.667 40.6221 210.667 40.6221C210.667 40.6221 221.614 26.1279 231.15 31.4979C240.686 36.8679 251.641 40.4333 251.641 40.4333C251.641 40.4333 242.506 40.3508 231.191 40.4029Z" fill="#F2F2F2"/>
<path d="M42.6791 68.2635C31.3643 68.3157 22.1545 68.4828 22.1545 68.4828C22.1545 68.4828 33.1018 53.9885 42.6381 59.3585C52.1743 64.7286 63.1291 68.294 63.1291 68.294C63.1291 68.294 53.9939 68.2114 42.6791 68.2635Z" fill="#F2F2F2"/>
<path d="M83.7556 10.0983C72.4408 10.1505 63.231 10.3176 63.231 10.3176C63.231 10.3176 74.1782 -4.17664 83.7145 1.19336C93.2507 6.56335 104.205 10.1288 104.205 10.1288C104.205 10.1288 95.0704 10.0462 83.7556 10.0983Z" fill="#F2F2F2"/>
<path d="M254.505 112.326H253.069V169.038H254.505V112.326Z" fill="#3F3D56"/>
<path d="M267.761 119.553C267.853 139.384 253.895 155.525 253.895 155.525C253.895 155.525 239.788 139.513 239.696 119.683C239.605 99.8518 253.563 83.7112 253.563 83.7112C253.563 83.7112 267.67 99.7225 267.761 119.553Z" fill="#7B81FF"/>
<path d="M201.633 133.836H216.13V130.338H224.128V133.836H239.124V149.325H224.128V168.811H216.13V149.325H201.633L194.135 140.831L201.633 133.836Z" fill="#3F3D56"/>
</g>
<defs>
<clipPath id="clip0">
<rect width="278" height="169.391" fill="white"/>
</clipPath>
</defs>
</svg>
