<svg width="1182" height="839" viewBox="0 0 1182 839" fill="none" xmlns="http://www.w3.org/2000/svg">
<path opacity="0.15" d="M620.553 30.3781C663.48 12.9175 708.844 -1.70038 755.154 0.160082C823.292 2.84099 888.554 43.8173 920.614 103.988C947.777 154.96 951.126 214.714 962.825 271.279C977.238 340.982 1004.84 407.219 1034.33 472C1050.18 506.748 1066.89 542.34 1069.49 580.485C1073.1 633.433 1047.8 686.207 1008.13 721.464C968.46 756.72 915.74 775.267 862.881 779.323C834.737 781.484 805.334 779.485 780.331 766.38C753.884 752.514 734.609 727.45 708.058 713.791C683.448 701.08 654.668 699.346 627.044 700.999C590.86 703.165 555.206 710.745 521.268 723.486C482.661 738 446.755 759.008 408.229 773.718C369.702 788.429 326.66 796.645 287.278 784.361C250.322 772.805 221.058 744.841 194.692 716.472C151.416 669.907 111.946 619.942 76.663 567.057C52.884 531.42 30.7566 493.817 20.2356 452.275C0.140712 372.864 27.8 283.262 89.1703 229.02C139.985 184.091 208.227 164.585 275.013 152.752C335.91 141.959 406.323 141.289 462.381 113.163C515.852 86.2959 564.495 53.189 620.553 30.3781Z" fill="#57B894"/>
<path d="M1083.85 466.665C1083.69 479.186 1083.12 493.213 1081.83 507.992L1117.9 463.023L1118.16 463.726C1115.2 453.577 1110.84 443.895 1105.18 434.965L1105.47 435.627L1083.85 466.665Z" fill="#57B894"/>
<path d="M1083.88 464.469L1104.81 434.403C1098.79 425.336 1091.58 418.316 1083.35 414.033C1082.92 413.811 1082.49 413.603 1082.06 413.397C1082.38 416.786 1084.13 436.692 1083.88 464.469Z" fill="#57B894"/>
<path d="M1122.41 551.749C1123.3 546.506 1123.99 541.274 1124.48 536.055L1070.08 578.771L1070.01 578.393C1069.19 581.474 1068.34 584.503 1067.45 587.479L1122.29 550.918L1122.41 551.749Z" fill="#57B894"/>
<path d="M1076.29 550.007L1124.97 504.895L1125.16 505.675C1124.54 491.726 1122.26 477.9 1118.38 464.487L1081.62 510.313C1080.35 524.159 1078.57 537.39 1076.29 550.007Z" fill="#57B894"/>
<path d="M1080.7 509.534L1015.57 444.831L1015.86 444.04C1010.58 452.468 1006.16 461.407 1002.67 470.723L1076.78 540.994C1078.55 530.011 1079.81 519.402 1080.7 509.534Z" fill="#57B894"/>
<path d="M1075.08 550.824C1075.58 548.142 1076.05 545.476 1076.48 542.828L1002.1 472.297L1002.38 471.501C1001.15 474.783 999.994 478.171 998.915 481.663L999.184 480.865L1075.08 550.824Z" fill="#57B894"/>
<path d="M1070.47 576.601L1124.41 534.241L1124.57 535.05C1125.42 525.589 1125.63 516.081 1125.21 506.591L1075.86 552.313C1074.29 560.717 1072.49 568.813 1070.47 576.601Z" fill="#57B894"/>
<path d="M993.746 547.952L1054.74 618.649C1058.88 609.375 1062.46 599.861 1065.46 590.159L992.05 521.492C991.89 530.616 992.342 539.741 993.402 548.806L993.746 547.952Z" fill="#57B894"/>
<path d="M1081.02 413.394L1081.52 413.138C1068.71 407.222 1055.31 408.712 1042.81 416.184L1082.87 464.476C1083.14 434.423 1081.05 413.692 1081.02 413.394Z" fill="#57B894"/>
<path d="M1065.89 592.534C1063.13 601.268 1059.9 609.844 1056.2 618.226L1111.54 585.416L1111.65 586.233C1115.53 578.725 1118.44 570.756 1120.31 562.516C1121.03 559.276 1121.68 556.03 1122.24 552.781L1066.75 589.777C1066.46 590.698 1066.18 591.624 1065.89 592.534Z" fill="#57B894"/>
<path d="M1082.85 466.716L1041.87 417.315L1042.18 416.56C1032.8 422.33 1023.96 431.477 1016.28 443.389L1080.87 507.565C1082.13 492.953 1082.69 479.091 1082.85 466.716Z" fill="#57B894"/>
<path d="M1065.98 588.456C1069.54 576.675 1072.47 564.711 1074.74 552.615L998.66 482.484C997.219 487.222 995.929 492.139 994.789 497.235C993.22 504.537 992.321 511.967 992.103 519.432L1065.93 588.491L1065.98 588.456Z" fill="#57B894"/>
<path d="M1144.35 664.333C1136.24 673.874 1126.85 684.312 1116.43 694.875L1172.9 683.243L1172.65 683.946C1176.85 674.247 1179.66 664.003 1181 653.519L1180.8 654.211L1144.35 664.333Z" fill="#57B894"/>
<path d="M1177.54 623.477C1177.36 623.033 1177.16 622.599 1176.96 622.166C1175.04 624.98 1163.69 641.424 1145.77 662.657L1181.08 652.852C1182.23 642.03 1181.15 632.026 1177.54 623.477Z" fill="#57B894"/>
<path d="M1062.42 741.557C1059.82 743.409 1057.23 745.197 1054.65 746.921L1120.21 753.733L1119.78 754.454C1123.8 750.982 1127.67 747.391 1131.38 743.684L1062.23 741.895L1062.42 741.557Z" fill="#57B894"/>
<path d="M1085.36 723.698L1151.64 719.999L1151.29 720.722C1159.7 709.579 1166.77 697.479 1172.34 684.674L1114.79 696.528C1104.98 706.383 1095.17 715.44 1085.36 723.698Z" fill="#57B894"/>
<path d="M1063.92 740.471L1132.49 742.246L1132.09 742.969C1138.78 736.225 1145.01 729.038 1150.74 721.456L1083.56 725.205C1076.99 730.674 1070.44 735.763 1063.92 740.471Z" fill="#57B894"/>
<path d="M982.298 779.071C982.754 778.553 983.216 778.025 983.691 777.475C997.482 774.445 1010.86 769.764 1023.53 763.534L1022.54 714.361C1023.02 713.076 1023.48 711.782 1023.92 710.479L1024.98 762.825C1034.08 758.322 1042.91 753.276 1051.41 747.716L1039.78 656.678C1040.25 656.397 1040.73 656.108 1041.22 655.811L1052.83 746.733L1052.9 746.739C1063.16 739.937 1073.04 732.588 1082.51 724.723L1070.41 635.181C1070.87 634.796 1071.34 634.407 1071.81 634.014L1083.91 723.559C1086.01 721.811 1088.07 720.056 1090.09 718.295L1079.13 627.576C1079.6 627.148 1080.06 626.717 1080.52 626.282L1091.49 717.072C1099.86 709.738 1107.6 702.371 1114.58 695.339L1105.7 603.976L1106.42 603.548C1103.92 604.357 1101.39 605.276 1098.83 606.281C1103.41 600.407 1107.46 594.149 1110.96 587.578L1055.09 620.702C1051.55 628.478 1047.51 636.012 1042.98 643.255C1041.99 644.306 1041 645.371 1040.03 646.465L1040.17 647.576C1039.74 648.221 1039.3 648.861 1038.86 649.496L1038.67 648.018C1038.12 648.658 1037.57 649.311 1037.02 649.964C1043.63 640.573 1049.34 630.581 1054.08 620.119L993.529 549.939C994.289 556.459 995.306 563.008 996.506 569.492C990.789 561.32 983.998 553.955 976.315 547.596L976.791 548.137L965.831 584.336C969.549 596.292 973.34 609.81 976.686 624.263L996.806 571.094C996.959 571.898 997.114 572.701 997.272 573.502L977.203 626.534C980.278 640.095 982.677 653.228 984.401 665.933L1009.57 620.857C1009.76 621.474 1009.96 622.086 1010.15 622.694L984.713 668.257C985.814 676.736 986.607 684.991 987.092 693.023L1018.35 646.426C1018.56 647.001 1018.77 647.564 1018.98 648.117L987.393 695.206L987.207 694.87C987.381 698.053 987.505 701.197 987.579 704.302L1023.27 659.123C1023.5 659.709 1023.72 660.249 1023.93 660.744L987.622 706.705C987.638 707.668 987.659 708.635 987.665 709.59C987.739 718.749 987.314 727.906 986.393 737.019L989.86 733.077C989.246 734.564 988.648 736.031 988.067 737.477L986.096 739.718C985.94 741.076 985.767 742.42 985.587 743.757C984.915 745.491 984.269 747.183 983.649 748.832C984.153 745.732 984.588 742.614 984.954 739.476L905.675 691.445C928.511 741.176 968.769 787.409 971.345 790.342C973.077 786.604 974.639 782.781 976.031 778.873C976.504 778.801 976.977 778.722 977.45 778.645C977.286 779.113 977.127 779.586 976.959 780.051C976.712 780.091 976.464 780.137 976.218 780.176C976.422 780.221 976.637 780.268 976.861 780.316C975.87 783.054 974.812 785.728 973.686 788.34C975.272 786.739 977.649 784.265 980.527 781.064C998.738 784.604 1047.59 791.585 1088.1 774.744L1023.94 764.628C1010.71 771.153 996.724 776.005 982.298 779.071V779.071ZM1022.18 696.332L1023.61 694.706L1023.65 697.015L1022.22 698.642L1022.18 696.332Z" fill="#57B894"/>
<path d="M1176.16 621.501L1176.7 621.619C1170.62 608.897 1159.34 601.497 1144.95 599.281L1145 662.024C1164.37 639.047 1175.99 621.749 1176.16 621.501Z" fill="#57B894"/>
<path d="M1050.23 749.824C1042.53 754.79 1034.57 759.333 1026.38 763.434L1089.93 773.453L1089.49 774.15C1097.26 770.84 1104.59 766.558 1111.29 761.407C1113.91 759.372 1116.48 757.282 1118.98 755.138L1052.64 748.244C1051.84 748.773 1051.03 749.308 1050.23 749.824Z" fill="#57B894"/>
<path d="M1115.97 693.933C1126.26 683.482 1135.53 673.164 1143.55 663.733L1143.5 599.551L1144.22 599.169C1133.32 597.634 1120.67 599.037 1107.16 603.314L1115.97 693.933Z" fill="#57B894"/>
<path d="M975.792 547.175C967.264 540.412 958.238 535.963 949.083 534.436C948.607 534.356 948.134 534.291 947.662 534.228C949.014 537.353 956.828 555.744 965.174 582.239L975.792 547.175Z" fill="#57B894"/>
<path d="M976.083 626.08L894.148 584.67L894.172 583.831C891.754 593.478 890.318 603.345 889.884 613.281L982.087 657.209C980.369 646.218 978.287 635.739 976.083 626.08Z" fill="#57B894"/>
<path d="M982.37 659.045L889.827 614.955L889.842 614.113C889.687 617.614 889.636 621.193 889.69 624.848L889.699 624.005L983.509 667.083C983.153 664.378 982.774 661.699 982.37 659.045Z" fill="#57B894"/>
<path d="M986.515 707.466L895.475 664.847C898.143 673.575 901.394 682.113 905.205 690.406L905.268 689.488L985.131 737.874C986.2 727.775 986.662 717.62 986.515 707.466V707.466Z" fill="#57B894"/>
<path d="M946.672 534.547L947.063 534.151C933.057 532.481 920.77 538.041 911.194 549.01L964.224 582.556C955.186 553.892 946.793 534.821 946.672 534.547Z" fill="#57B894"/>
<path d="M964.893 584.693L910.646 550.376L910.711 549.561C903.577 557.947 897.991 569.38 894.371 583.081L975.639 624.154C972.321 609.867 968.57 596.51 964.893 584.693Z" fill="#57B894"/>
<path d="M986.487 705.685C986.233 693.38 985.316 681.097 983.741 668.891L889.701 625.707C889.796 630.659 890.089 635.734 890.58 640.932C891.346 648.361 892.788 655.705 894.888 662.872L986.448 705.734L986.487 705.685Z" fill="#57B894"/>
<path d="M908.688 555.426L679.992 526.603C669.626 440.396 685.286 356.236 712.023 272.541L940.719 301.363C906.209 383.472 896.079 468.219 908.688 555.426Z" fill="#FEFEFE"/>
<path d="M883.734 320.578L743.975 302.964L742.082 317.977L881.841 335.591L883.734 320.578Z" fill="#57B894"/>
<path opacity="0.3" d="M901.093 359.721L711.668 335.848L710.722 343.354L900.147 367.227L901.093 359.721Z" fill="#57B894"/>
<path opacity="0.3" d="M898.036 383.973L708.611 360.099L707.664 367.606L897.089 391.479L898.036 383.973Z" fill="#57B894"/>
<path opacity="0.3" d="M894.978 408.224L705.553 384.351L704.607 391.857L894.032 415.73L894.978 408.224Z" fill="#57B894"/>
<path opacity="0.3" d="M891.921 432.476L702.496 408.602L701.549 416.108L890.974 439.982L891.921 432.476Z" fill="#57B894"/>
<path opacity="0.3" d="M888.863 456.727L699.438 432.854L698.492 440.36L887.917 464.233L888.863 456.727Z" fill="#7B81FF"/>
<path opacity="0.3" d="M885.806 480.978L696.38 457.105L695.434 464.611L884.859 488.485L885.806 480.978Z" fill="#7B81FF"/>
<path opacity="0.3" d="M882.748 505.23L693.323 481.356L692.377 488.863L881.802 512.736L882.748 505.23Z" fill="#7B81FF"/>
<path d="M800.388 470.497L586.429 384.754C598.218 298.73 634.668 221.27 681.716 147.063L895.675 232.806C841.508 303.512 810.26 382.938 800.388 470.497Z" fill="#57B894"/>
<path d="M835.682 236.979L704.929 184.58L699.299 198.625L830.051 251.024L835.682 236.979Z" fill="#F2F2F2"/>
<path opacity="0.3" d="M842.57 279.24L665.351 208.22L662.536 215.243L839.755 286.263L842.57 279.24Z" fill="white"/>
<path opacity="0.3" d="M833.474 301.928L656.256 230.909L653.44 237.931L830.659 308.951L833.474 301.928Z" fill="#F2F2F2"/>
<path opacity="0.3" d="M824.379 324.617L647.16 253.597L644.345 260.62L821.563 331.64L824.379 324.617Z" fill="white"/>
<path opacity="0.3" d="M815.283 347.306L638.064 276.286L635.249 283.309L812.468 354.329L815.283 347.306Z" fill="#F2F2F2"/>
<path opacity="0.3" d="M806.187 369.994L628.969 298.975L626.154 305.997L803.372 377.017L806.187 369.994Z" fill="white"/>
<path opacity="0.3" d="M797.092 392.683L619.874 321.664L617.058 328.686L794.277 399.706L797.092 392.683Z" fill="#F2F2F2"/>
<path opacity="0.3" d="M787.996 415.372L610.778 344.352L607.963 351.375L785.181 422.394L787.996 415.372Z" fill="white"/>
<path d="M747.475 491.148H516.97C495.902 406.914 500.912 321.456 516.97 235.075H747.475C723.507 320.854 724.058 406.202 747.475 491.148Z" fill="white"/>
<path d="M693.341 261.264H552.477V276.395H693.341V261.264Z" fill="#57B894"/>
<path opacity="0.3" d="M715.461 297.929H524.537V305.494H715.461V297.929Z" fill="#57B894"/>
<path opacity="0.3" d="M715.461 322.372H524.537V329.938H715.461V322.372Z" fill="#57B894"/>
<path opacity="0.3" d="M715.461 346.815H524.537V354.381H715.461V346.815Z" fill="#57B894"/>
<path opacity="0.3" d="M715.461 371.259H524.537V378.825H715.461V371.259Z" fill="#57B894"/>
<path opacity="0.3" d="M715.461 395.702H524.537V403.268H715.461V395.702Z" fill="#57B894"/>
<path opacity="0.3" d="M715.461 420.146H524.537V427.711H715.461V420.146Z" fill="#57B894"/>
<path opacity="0.3" d="M715.461 444.589H524.537V452.155H715.461V444.589Z" fill="#7B81FF"/>
<path d="M592.102 440.027L512.69 378.3C511.895 376.918 510.751 375.771 509.371 374.973C507.991 374.175 506.425 373.754 504.831 373.754H461.971C459.567 373.754 457.261 374.709 455.561 376.409C453.861 378.109 452.906 380.414 452.906 382.818V761.043C452.906 768.84 456.004 776.317 461.518 781.831C467.032 787.344 474.511 790.441 482.31 790.441H922.288C926.15 790.441 929.973 789.681 933.541 788.204C937.108 786.726 940.349 784.561 943.08 781.831C945.81 779.101 947.976 775.86 949.454 772.293C950.931 768.726 951.692 764.904 951.692 761.043V466.748C951.692 459.661 948.876 452.864 943.864 447.853C938.852 442.842 932.054 440.027 924.966 440.027H592.102Z" fill="#C9CBD2"/>
<path d="M374.285 469.711C374.285 469.711 406.398 486.359 394.504 501.818C382.611 517.276 362.392 483.981 362.392 481.602C362.392 479.224 374.285 469.711 374.285 469.711Z" fill="#A0616A"/>
<path d="M338.605 426.902C338.605 426.902 360.013 453.063 365.96 456.631C371.906 460.198 376.664 463.765 376.664 464.955C376.664 466.144 381.421 472.089 381.421 472.089L362.392 488.737C362.392 488.737 340.984 460.198 338.605 460.198C336.226 460.198 338.605 426.902 338.605 426.902Z" fill="#575A89"/>
<path d="M231.565 732.509L217.293 756.292L238.701 765.805L258.92 759.859L247.026 730.131L231.565 732.509Z" fill="#A0616A"/>
<path d="M272.002 473.279L260.109 586.246C260.109 586.246 233.943 639.757 233.943 682.566C233.943 725.375 224.428 737.266 224.428 737.266L254.162 742.022L286.274 637.379L339.794 539.87L324.333 442.361L298.167 432.848L272.002 473.279Z" fill="#2F2E41"/>
<path d="M229.186 755.103C229.186 755.103 220.266 742.617 220.266 746.184C220.266 749.751 203.021 789.587 217.293 789.587C231.565 789.587 269.624 787.209 276.76 789.587C283.896 791.966 307.682 787.209 305.304 772.939C302.925 758.67 274.381 759.859 274.381 759.859C274.381 759.859 257.177 735.884 252.696 744.304L248.215 752.724L229.186 755.103Z" fill="#2F2E41"/>
<path d="M357.635 732.509L343.363 756.292L364.77 765.805L384.989 759.859L373.096 730.131L357.635 732.509Z" fill="#A0616A"/>
<path d="M355.256 755.103C355.256 755.103 346.336 743.806 346.336 747.373C346.336 750.941 329.09 789.587 343.363 789.587C357.635 789.587 395.693 787.209 402.829 789.587C409.965 791.966 433.752 787.209 431.374 772.939C428.995 758.67 400.451 759.859 400.451 759.859C400.451 759.859 383.247 735.884 378.766 744.304L374.285 752.724L355.256 755.103Z" fill="#2F2E41"/>
<path d="M252.973 472.089C252.973 472.089 256.541 504.196 275.57 533.924C294.599 563.653 321.954 615.974 321.954 615.974C321.954 615.974 319.576 668.296 332.658 698.024C345.741 727.753 348.12 743.211 348.12 743.211L380.232 734.887C380.232 734.887 362.392 635 369.528 612.407C376.664 589.813 342.173 472.089 342.173 472.089L310.061 444.739L268.434 439.983L252.973 472.089Z" fill="#2F2E41"/>
<path d="M321.519 276.547C336.626 276.547 348.874 264.302 348.874 249.197C348.874 234.092 336.626 221.847 321.519 221.847C306.411 221.847 294.164 234.092 294.164 249.197C294.164 264.302 306.411 276.547 321.519 276.547Z" fill="#A0616A"/>
<path d="M299.168 250.572L284.852 281.194L325.045 309.029C325.045 309.029 320.314 275.878 329.227 267.483C338.14 259.089 299.168 250.572 299.168 250.572Z" fill="#A0616A"/>
<path d="M330.28 311.557C330.28 311.557 311.25 272.315 295.789 272.315C280.327 272.315 239.89 299.665 241.079 305.611C242.269 311.557 242.269 312.746 242.269 316.313C242.269 319.881 233.943 319.881 241.079 322.259C248.215 324.637 249.405 327.015 249.405 327.015L243.458 479.224C243.458 479.224 269.623 488.737 279.138 485.17C288.653 481.603 298.168 457.82 298.168 457.82C298.168 457.82 295.789 489.926 305.304 488.737C314.818 487.548 350.498 485.17 351.688 480.413C352.877 475.657 344.552 371.013 344.552 371.013L330.28 311.557Z" fill="#575A89"/>
<path d="M243.458 487.548C243.458 487.548 229.186 539.87 249.405 535.114C269.623 530.357 263.677 488.737 263.677 488.737L243.458 487.548Z" fill="#A0616A"/>
<path d="M268.434 302.044L233.943 390.039C233.943 390.039 229.186 399.552 233.943 406.687C238.701 413.822 231.565 456.631 236.322 466.144C241.08 475.657 241.08 492.304 241.08 492.304L268.434 494.683L274.381 390.039L305.304 323.448C305.304 323.448 302.925 296.098 268.434 302.044Z" fill="#575A89"/>
<path opacity="0.1" d="M277.354 299.071C277.354 299.071 255.946 305.016 248.81 326.421L277.354 299.071Z" fill="black"/>
<path d="M303.592 261.674C306.254 261.515 308.852 262.415 311.495 262.766C320.951 264.021 330.788 257.16 332.876 247.855C333.043 246.615 333.412 245.412 333.969 244.292C335.425 241.917 338.739 241.464 341.471 242.01C344.203 242.556 346.793 243.835 349.575 243.981C353.872 244.206 357.996 241.562 360.286 237.92C362.575 234.279 363.223 229.798 362.914 225.508L360.855 227.669C360.018 225.899 359.695 223.929 359.922 221.984C358.831 221.694 357.683 221.688 356.589 221.968C355.495 222.248 354.491 222.804 353.673 223.583C351.857 223.776 353.228 220.215 351.879 218.985C351.314 218.469 350.447 218.566 349.683 218.574C345.819 218.611 342.694 215.657 339.65 213.278C334.375 209.167 328.206 206.353 321.643 205.066C317.28 204.215 312.642 204.079 308.504 205.703C305.107 207.037 302.263 209.466 299.632 211.996C293.154 218.223 287.419 225.54 284.724 234.111C282.533 241.131 282.471 248.642 284.546 255.698C285.631 259.362 288.904 271.911 293.694 272.203C299.714 272.57 296.1 262.121 303.592 261.674Z" fill="#2F2E41"/>
<path opacity="0.1" d="M305.536 349.147L277.524 390.223L268.566 485.634L305.536 349.147Z" fill="black"/>
<path d="M428.64 540.719L363.423 498.861C386.986 478.073 403.587 454.722 409.324 427.371L474.541 469.228C453.423 488.78 437.627 513.382 428.64 540.719Z" fill="#57B894"/>
<path d="M441.477 527.862L365.125 514.589C378.772 486.288 385.009 458.325 379.68 430.892L456.033 444.165C444.158 470.378 439.149 499.18 441.477 527.862V527.862Z" fill="white"/>
<path d="M434.995 456.145L395.439 449.268L395.119 451.108L434.675 457.984L434.995 456.145Z" fill="#3F3D56"/>
<path d="M433.716 463.5L394.159 456.624L393.84 458.463L433.396 465.34L433.716 463.5Z" fill="#3F3D56"/>
<path d="M432.436 470.859L392.88 463.982L392.56 465.821L432.116 472.698L432.436 470.859Z" fill="#3F3D56"/>
<path d="M431.156 478.217L391.6 471.34L391.28 473.179L430.836 480.056L431.156 478.217Z" fill="#3F3D56"/>
<path d="M429.877 485.575L390.321 478.698L390.001 480.538L429.557 487.414L429.877 485.575Z" fill="#3F3D56"/>
<path d="M428.597 492.933L389.041 486.056L388.721 487.895L428.277 494.772L428.597 492.933Z" fill="#3F3D56"/>
<path d="M427.318 500.29L387.761 493.414L387.442 495.253L426.998 502.13L427.318 500.29Z" fill="#3F3D56"/>
<path d="M426.038 507.649L386.482 500.772L386.162 502.611L425.718 509.488L426.038 507.649Z" fill="#3F3D56"/>
<path opacity="0.1" d="M111.692 793.95C120.233 793.95 127.157 792.998 127.157 791.823C127.157 790.648 120.233 789.696 111.692 789.696C103.15 789.696 96.2263 790.648 96.2263 791.823C96.2263 792.998 103.15 793.95 111.692 793.95Z" fill="#57B894"/>
<path opacity="0.1" d="M41.9204 785.823C50.4617 785.823 57.3859 784.871 57.3859 783.696C57.3859 782.521 50.4617 781.569 41.9204 781.569C33.379 781.569 26.4548 782.521 26.4548 783.696C26.4548 784.871 33.379 785.823 41.9204 785.823Z" fill="#57B894"/>
<path d="M111.358 791.356C111.358 791.356 133.044 720.27 107.961 691.796C89.1949 670.495 67.8904 673.042 58.3497 675.675C55.8827 676.334 53.5882 677.521 51.6247 679.153C49.6612 680.785 48.0755 682.824 46.9771 685.128C43.6378 692.321 44.2389 703.997 67.7854 717.628C107.198 740.445 109.65 771.743 109.65 771.743L111.358 791.356Z" fill="#57B894"/>
<path d="M61.7556 685.758C61.7556 685.758 125.679 705.79 111.367 791.356" stroke="#565987" stroke-miterlimit="10"/>
<path d="M99.0981 692.922C99.0981 692.922 90.292 698.855 93.097 707.774" stroke="#565987" stroke-miterlimit="10"/>
<path d="M68.167 698.206C68.167 698.206 73.548 692.731 80.1025 695.755" stroke="#565987" stroke-miterlimit="10"/>
<path d="M93.4402 725.736C93.4402 725.736 102.895 720.967 105.337 726.948" stroke="#565987" stroke-miterlimit="10"/>
<path d="M116.825 735.724C116.825 735.724 109.726 735.161 109.602 738.586" stroke="#565987" stroke-miterlimit="10"/>
<path d="M112.236 791.918C112.236 791.918 86.8286 740.255 79.8543 741.361C76.5437 741.905 75.0171 745.177 74.3207 748.439C73.4643 752.672 73.9478 757.066 75.7041 761.012C79.3105 769.311 88.9943 785.003 112.236 791.918Z" fill="#57B894"/>
<path d="M80.0452 751.187C80.0452 751.187 106.702 789.839 111.854 791.537" stroke="#565987" stroke-miterlimit="10"/>
<path d="M77.5933 757.225H83.8138" stroke="#565987" stroke-miterlimit="10"/>
<path d="M85.0444 771.362L94.8046 771.781" stroke="#565987" stroke-miterlimit="10"/>
<path d="M90.9885 760.048L89.9294 765.133" stroke="#565987" stroke-miterlimit="10"/>
<path d="M101.359 775.511L101.168 780.128" stroke="#565987" stroke-miterlimit="10"/>
<path d="M111.482 791.918C111.482 791.918 136.879 740.255 143.854 741.361C147.174 741.905 148.7 745.177 149.387 748.439C150.244 752.672 149.76 757.066 148.004 761.012C144.397 769.311 134.704 785.003 111.482 791.918Z" fill="#57B894"/>
<path d="M143.672 751.187C143.672 751.187 116.958 789.839 111.854 791.537" stroke="#565987" stroke-miterlimit="10"/>
<path d="M146.124 757.225H139.904" stroke="#565987" stroke-miterlimit="10"/>
<path d="M138.673 771.362L128.913 771.781" stroke="#565987" stroke-miterlimit="10"/>
<path d="M132.729 760.048L133.788 765.133" stroke="#565987" stroke-miterlimit="10"/>
<path d="M122.358 775.511L122.549 780.128" stroke="#565987" stroke-miterlimit="10"/>
<path d="M40.9091 761.918C40.9091 761.918 38.8387 764.627 41.8631 768.719C44.8875 772.812 47.3872 776.265 46.3759 778.812C46.3759 778.812 41.8059 771.18 38.085 771.114C34.3641 771.047 36.8161 766.449 40.9091 761.918Z" fill="#57B894"/>
<path opacity="0.1" d="M40.909 761.918C40.7303 762.18 40.589 762.466 40.4892 762.767C36.8637 767.031 34.9269 771.009 38.4188 771.114C41.6627 771.209 45.5648 777.009 46.4903 778.478C46.461 778.591 46.426 778.702 46.3854 778.812C46.3854 778.812 41.8153 771.18 38.0945 771.114C34.3736 771.047 36.816 766.449 40.909 761.918Z" fill="black"/>
<path d="M37.0642 765.371C37.0642 766.325 37.1692 767.098 37.3027 767.098C37.4363 767.098 37.5412 766.325 37.5412 765.371C37.5412 764.417 37.4077 764.866 37.2741 764.866C37.1405 764.866 37.0642 764.417 37.0642 765.371Z" fill="#FFD037"/>
<path d="M35.738 766.516C36.5775 766.974 37.3026 767.241 37.3694 767.127C37.4362 767.012 36.8065 766.554 35.9669 766.096C35.1273 765.638 35.4613 765.972 35.3945 766.096C35.3277 766.22 34.8984 766.058 35.738 766.516Z" fill="#FFD037"/>
<path d="M51.8522 761.918C51.8522 761.918 53.9321 764.627 50.8982 768.719C47.8642 772.812 45.3741 776.265 46.3854 778.812C46.3854 778.812 50.9554 771.18 54.6763 771.114C58.3972 771.047 55.9452 766.449 51.8522 761.918Z" fill="#57B894"/>
<path opacity="0.1" d="M51.8523 761.918C52.0322 762.181 52.1766 762.466 52.2817 762.767C55.9071 767.031 57.8439 771.009 54.352 771.114C51.1081 771.209 47.206 777.009 46.271 778.478C46.2991 778.592 46.3374 778.704 46.3855 778.812C46.3855 778.812 50.9555 771.18 54.6764 771.114C58.3973 771.047 55.9453 766.449 51.8523 761.918Z" fill="black"/>
<path d="M55.7065 765.371C55.7065 766.325 55.6016 767.098 55.468 767.098C55.3344 767.098 55.2295 766.325 55.2295 765.371C55.2295 764.417 55.3631 764.866 55.4966 764.866C55.6302 764.866 55.7065 764.417 55.7065 765.371Z" fill="#FFD037"/>
<path d="M57.0328 766.516C56.1932 766.974 55.4586 767.241 55.4014 767.127C55.3441 767.012 55.9643 766.554 56.8039 766.096C57.6434 765.638 57.3095 765.972 57.3668 766.096C57.424 766.22 57.8629 766.058 57.0328 766.516Z" fill="#FFD037"/>
<path d="M55.0485 778.459C55.0485 778.459 49.2573 778.277 47.5114 777.037C45.7654 775.797 38.6003 774.309 38.1614 776.303C37.7226 778.297 29.4603 786.223 35.9957 786.271C42.5311 786.319 51.1941 785.25 52.94 784.192C54.686 783.133 55.0485 778.459 55.0485 778.459Z" fill="#A8A8A8"/>
<path opacity="0.2" d="M35.8812 785.575C42.4261 785.632 51.0796 784.564 52.8255 783.495C54.1517 782.694 54.6764 779.794 54.8577 778.449H55.0485C55.0485 778.449 54.686 783.123 52.94 784.173C51.1941 785.222 42.5406 786.309 35.9957 786.252C34.0875 786.252 33.4578 785.565 33.496 784.573C33.7536 785.193 34.5264 785.527 35.8812 785.575Z" fill="black"/>
<path opacity="0.15" d="M276.452 111.62C297.638 111.62 314.812 94.4485 314.812 73.2668C314.812 52.0852 297.638 34.9141 276.452 34.9141C255.267 34.9141 238.093 52.0852 238.093 73.2668C238.093 94.4485 255.267 111.62 276.452 111.62Z" fill="#57B894"/>
<path opacity="0.15" d="M91.6709 134.642C104.312 134.642 114.56 124.396 114.56 111.757C114.56 99.1184 104.312 88.8726 91.6709 88.8726C79.0298 88.8726 68.7822 99.1184 68.7822 111.757C68.7822 124.396 79.0298 134.642 91.6709 134.642Z" fill="#57B894"/>
<path d="M783.885 608.11C776.943 573.828 747.193 548 711 548C682.242 548 657.45 564.394 645.052 588.235C615.302 591.216 592 616.554 592 647.375C592 680.164 618.77 707 651.5 707H780.416C807.685 707 830 684.638 830 657.312C830.052 644.757 825.3 632.658 816.723 623.506C808.145 614.354 796.393 608.844 783.885 608.11Z" fill="#575A89"/>
<path opacity="0.9" d="M740.221 630.008L714.789 603.715C714.234 603.154 713.571 602.713 712.84 602.418C712.109 602.123 711.326 601.982 710.538 602.002H710.462C709.674 601.982 708.891 602.123 708.16 602.418C707.429 602.713 706.766 603.154 706.211 603.715L680.779 630.008C680.218 630.535 679.77 631.172 679.464 631.879C679.158 632.586 679 633.349 679 634.121C679 634.892 679.158 635.655 679.464 636.362C679.77 637.07 680.218 637.706 680.779 638.233C681.942 639.325 683.476 639.932 685.068 639.932C686.661 639.932 688.195 639.325 689.358 638.233L704.427 622.431V663.174C704.497 664.743 705.167 666.224 706.298 667.309C707.43 668.394 708.935 669 710.5 669C712.065 669 713.57 668.394 714.701 667.309C715.833 666.224 716.503 664.743 716.573 663.174V622.431L731.642 638.233C732.805 639.325 734.339 639.932 735.932 639.932C737.524 639.932 739.058 639.325 740.221 638.233C740.782 637.706 741.23 637.07 741.536 636.362C741.842 635.655 742 634.892 742 634.121C742 633.349 741.842 632.586 741.536 631.879C741.23 631.172 740.782 630.535 740.221 630.008V630.008Z" fill="white"/>
</svg>
