<svg width="1075" height="585" viewBox="0 0 1075 585" fill="none" xmlns="http://www.w3.org/2000/svg">
<g clip-path="url(#clip0)">
<path d="M540.643 506.249C831.973 506.249 1068.14 490.614 1068.14 471.327C1068.14 452.041 831.973 436.406 540.643 436.406C249.313 436.406 13.1428 452.041 13.1428 471.327C13.1428 490.614 249.313 506.249 540.643 506.249Z" fill="#F2F2F2"/>
<path d="M520.425 89.0278C434.481 89.0278 372.774 144.167 372.774 272.826C372.774 418.639 434.481 457.236 520.425 457.236C606.369 457.236 671.752 414.963 671.752 272.826C671.752 120.886 606.369 89.0278 520.425 89.0278ZM520.99 408.836C461.463 408.836 430.364 373.913 430.364 272.92C430.364 183.808 462.736 136.815 522.263 136.815C581.79 136.815 614.162 167.683 614.162 272.92C614.162 371.367 580.517 408.836 520.99 408.836Z" fill="#2F2E41"/>
<path d="M321.31 355.535H285.776V250.896C285.776 245.338 283.568 240.008 279.638 236.078C275.708 232.148 270.378 229.94 264.82 229.94H256.494C253.742 229.94 251.017 230.482 248.474 231.535C245.932 232.588 243.622 234.132 241.676 236.078C239.73 238.024 238.186 240.334 237.133 242.876C236.08 245.419 235.538 248.144 235.538 250.896V355.535H135.308C133.246 355.535 131.219 355.002 129.424 353.988C127.629 352.974 126.126 351.513 125.062 349.747C123.997 347.981 123.407 345.97 123.349 343.908C123.291 341.847 123.767 339.806 124.73 337.983L230.813 137.203C232.135 134.699 232.937 131.954 233.169 129.133C233.402 126.311 233.06 123.472 232.164 120.786C231.269 118.1 229.839 115.623 227.96 113.506C226.081 111.388 223.792 109.673 221.232 108.464L214.97 105.507C210.107 103.21 204.548 102.871 199.443 104.56C194.337 106.248 190.076 109.834 187.541 114.577L58.1593 356.609C55.9561 360.731 54.8035 365.332 54.8035 370.005V370.005C54.8035 373.737 55.5385 377.432 56.9665 380.88C58.3945 384.327 60.4876 387.46 63.1263 390.098C65.7649 392.737 68.8975 394.83 72.345 396.258C75.7926 397.686 79.4877 398.421 83.2193 398.421H235.538V464.588C235.538 467.887 236.188 471.153 237.45 474.201C238.712 477.249 240.563 480.018 242.895 482.35C245.228 484.683 247.997 486.533 251.044 487.795C254.092 489.058 257.358 489.707 260.657 489.707H260.657C263.956 489.707 267.222 489.058 270.27 487.795C273.317 486.533 276.086 484.683 278.419 482.35C280.751 480.018 282.602 477.249 283.864 474.201C285.126 471.153 285.776 467.887 285.776 464.588V398.421H321.31C326.997 398.421 332.452 396.162 336.473 392.141C340.494 388.119 342.753 382.665 342.753 376.978V376.978C342.753 371.291 340.494 365.837 336.473 361.816C332.452 357.794 326.998 355.535 321.31 355.535V355.535Z" fill="#57B894"/>
<path d="M979.307 355.535H943.773V250.896C943.773 245.338 941.565 240.008 937.635 236.078C933.705 232.148 928.375 229.94 922.817 229.94H914.49C911.739 229.94 909.014 230.482 906.471 231.535C903.929 232.588 901.618 234.132 899.672 236.078C897.727 238.024 896.183 240.334 895.13 242.876C894.077 245.419 893.535 248.144 893.535 250.896V355.535H793.305C791.243 355.535 789.216 355.002 787.42 353.988C785.625 352.974 784.122 351.513 783.058 349.747C781.994 347.981 781.404 345.97 781.346 343.908C781.288 341.847 781.764 339.806 782.727 337.983L888.809 137.203C890.132 134.699 890.934 131.954 891.166 129.133C891.398 126.311 891.056 123.472 890.161 120.786C889.266 118.1 887.835 115.623 885.956 113.506C884.078 111.388 881.789 109.673 879.229 108.464L872.967 105.507C868.104 103.21 862.545 102.871 857.439 104.56C852.334 106.248 848.072 109.834 845.537 114.577L716.156 356.609C713.953 360.731 712.8 365.332 712.8 370.005V370.005C712.8 377.542 715.794 384.769 721.123 390.098C726.452 395.427 733.68 398.421 741.216 398.421H893.535V464.588C893.535 471.25 896.181 477.639 900.892 482.35C905.603 487.061 911.992 489.707 918.654 489.707V489.707C925.316 489.707 931.705 487.061 936.415 482.35C941.126 477.639 943.773 471.25 943.773 464.588V398.421H979.307C984.994 398.421 990.448 396.162 994.469 392.141C998.491 388.119 1000.75 382.665 1000.75 376.978V376.978C1000.75 371.291 998.491 365.837 994.469 361.816C990.448 357.794 984.994 355.535 979.307 355.535Z" fill="#57B894"/>
<path d="M331.113 343.282H295.579V238.642C295.579 235.89 295.037 233.165 293.984 230.623C292.931 228.08 291.387 225.77 289.441 223.824C287.495 221.878 285.185 220.335 282.643 219.282C280.1 218.228 277.375 217.686 274.623 217.686H266.297C260.739 217.686 255.409 219.894 251.479 223.824C247.549 227.754 245.341 233.084 245.341 238.642V343.282H145.111C143.049 343.282 141.022 342.749 139.227 341.734C137.431 340.72 135.929 339.259 134.864 337.493C133.8 335.727 133.21 333.716 133.152 331.655C133.094 329.594 133.57 327.553 134.533 325.73L240.615 124.949C241.938 122.446 242.74 119.701 242.972 116.879C243.204 114.058 242.862 111.218 241.967 108.532C241.072 105.847 239.642 103.37 237.763 101.252C235.884 99.1344 233.595 97.4193 231.035 96.2103L224.773 93.2532C219.91 90.9569 214.351 90.6179 209.245 92.3061C204.14 93.9944 199.879 97.5807 197.344 102.323L67.962 344.356C65.7589 348.477 64.6062 353.078 64.6062 357.752V357.752C64.6062 365.288 67.6 372.516 72.929 377.845C78.258 383.174 85.4857 386.168 93.022 386.168H245.341V452.335C245.341 455.634 245.991 458.9 247.253 461.948C248.515 464.995 250.365 467.764 252.698 470.097C255.031 472.429 257.8 474.28 260.847 475.542C263.895 476.804 267.161 477.454 270.46 477.454H270.46C277.122 477.454 283.511 474.808 288.222 470.097C292.932 465.386 295.579 458.997 295.579 452.335V386.168H331.113C333.929 386.168 336.717 385.613 339.319 384.535C341.921 383.458 344.285 381.878 346.276 379.887C348.267 377.896 349.846 375.532 350.924 372.931C352.002 370.329 352.556 367.541 352.556 364.725V364.725C352.556 361.909 352.002 359.12 350.924 356.519C349.846 353.917 348.267 351.553 346.276 349.562C344.285 347.571 341.921 345.991 339.319 344.914C336.717 343.836 333.929 343.282 331.113 343.282V343.282Z" stroke="#3F3D56" stroke-miterlimit="10"/>
<path d="M997.687 343.282H962.153V238.642C962.153 233.084 959.945 227.754 956.015 223.824C952.085 219.894 946.755 217.686 941.197 217.686H932.87C930.118 217.686 927.393 218.228 924.851 219.282C922.308 220.335 919.998 221.878 918.052 223.824C916.106 225.77 914.563 228.08 913.51 230.623C912.457 233.165 911.915 235.89 911.915 238.642V343.282H811.684C809.623 343.282 807.596 342.749 805.8 341.734C804.005 340.72 802.502 339.259 801.438 337.493C800.374 335.727 799.784 333.716 799.726 331.655C799.668 329.594 800.144 327.553 801.107 325.73L907.189 124.949C908.512 122.446 909.313 119.701 909.546 116.879C909.778 114.058 909.436 111.218 908.541 108.532C907.646 105.847 906.215 103.37 904.336 101.252C902.457 99.1344 900.169 97.4193 897.609 96.2103L891.347 93.2532C886.484 90.9569 880.925 90.6179 875.819 92.3061C870.714 93.9944 866.452 97.5807 863.917 102.323L734.536 344.356C732.333 348.477 731.18 353.078 731.18 357.752C731.18 365.288 734.174 372.516 739.503 377.845C744.832 383.174 752.059 386.168 759.596 386.168H911.915V452.335C911.915 458.997 914.561 465.386 919.272 470.097C923.982 474.808 930.372 477.454 937.034 477.454V477.454C943.696 477.454 950.085 474.808 954.795 470.097C959.506 465.386 962.153 458.997 962.153 452.335V386.168H997.687C1000.5 386.168 1003.29 385.613 1005.89 384.535C1008.49 383.458 1010.86 381.878 1012.85 379.887C1014.84 377.896 1016.42 375.532 1017.5 372.931C1018.58 370.329 1019.13 367.541 1019.13 364.725V364.725C1019.13 359.038 1016.87 353.583 1012.85 349.562C1008.83 345.541 1003.37 343.282 997.687 343.282V343.282Z" stroke="#3F3D56" stroke-miterlimit="10"/>
<path d="M540.03 78C454.086 78 392.379 133.139 392.379 261.798C392.379 407.611 454.086 446.208 540.03 446.208C625.974 446.208 691.357 403.935 691.357 261.798C691.357 109.858 625.974 78 540.03 78ZM540.595 397.808C481.068 397.808 449.969 362.886 449.969 261.892C449.969 172.78 482.341 125.787 541.868 125.787C601.395 125.787 633.767 156.655 633.767 261.892C633.767 360.339 600.122 397.808 540.595 397.808V397.808Z" stroke="#3F3D56" stroke-miterlimit="10"/>
<path d="M1006.86 341.568C1009.89 342.669 1013.14 343.052 1016.34 342.686C1019.54 342.319 1022.61 341.214 1025.32 339.458C1028.02 337.701 1030.28 335.341 1031.91 332.563C1033.55 329.785 1034.51 326.665 1034.74 323.45C1034.96 320.234 1034.43 317.011 1033.2 314.033C1031.96 311.056 1030.05 308.406 1027.62 306.293C1025.19 304.18 1022.29 302.661 1019.17 301.855C1016.05 301.05 1012.79 300.981 1009.63 301.653L1010.16 312.365L1005.09 303.184C1000.11 305.522 996.271 309.738 994.404 314.907C993.741 316.718 993.338 318.613 993.207 320.537C992.887 325.051 994.047 329.545 996.511 333.341C998.976 337.136 1002.61 340.024 1006.86 341.568V341.568Z" fill="#57B894"/>
<path d="M1031.94 465.811C1030.15 456.701 1037.9 448.624 1045.56 443.375C1053.22 438.125 1062.17 432.967 1064.78 424.058C1068.53 411.254 1057.35 399.528 1048.64 389.416C1042.18 381.912 1036.64 373.669 1032.12 364.859C1030.31 361.326 1028.64 357.633 1028.17 353.692C1027.48 348.017 1029.3 342.369 1031.14 336.956C1037.26 318.921 1043.8 301.038 1050.77 283.306" stroke="#3F3D56" stroke-miterlimit="10"/>
<path d="M1007.72 338.81C1010.75 339.911 1013.99 340.293 1017.2 339.927C1020.4 339.561 1023.47 338.456 1026.17 336.699C1028.88 334.943 1031.13 332.582 1032.77 329.804C1034.4 327.026 1035.37 323.907 1035.59 320.691C1035.82 317.476 1035.29 314.252 1034.06 311.275C1032.82 308.298 1030.91 305.648 1028.48 303.535C1026.04 301.421 1023.15 299.902 1020.03 299.097C1016.91 298.292 1013.64 298.222 1010.49 298.894L1011.01 309.607L1005.94 300.426C1000.97 302.763 997.128 306.98 995.261 312.149C994.598 313.959 994.195 315.855 994.064 317.779C993.744 322.292 994.904 326.787 997.368 330.582C999.833 334.377 1003.47 337.266 1007.72 338.81V338.81Z" stroke="#3F3D56" stroke-miterlimit="10"/>
<path d="M1029.4 279.606C1030.59 276.326 1032.58 273.398 1035.2 271.092C1037.82 268.785 1040.97 267.175 1044.38 266.409L1046.09 276.593L1049.27 265.897C1053.68 265.962 1057.95 267.428 1061.48 270.082C1065 272.736 1067.59 276.442 1068.87 280.663C1070.15 284.885 1070.06 289.404 1068.6 293.569C1067.15 297.734 1064.41 301.328 1060.78 303.833C1057.15 306.339 1052.81 307.625 1048.4 307.507C1043.99 307.389 1039.73 305.873 1036.24 303.177C1032.75 300.481 1030.2 296.745 1028.97 292.508C1027.74 288.271 1027.89 283.754 1029.4 279.606H1029.4Z" fill="#57B894"/>
<path d="M1030.54 275.929C1031.73 272.649 1033.72 269.72 1036.34 267.414C1038.96 265.108 1042.12 263.497 1045.52 262.731L1047.23 272.915L1050.41 262.219C1054.82 262.285 1059.1 263.75 1062.62 266.404C1066.15 269.058 1068.73 272.764 1070.02 276.985C1071.3 281.207 1071.2 285.726 1069.75 289.891C1068.29 294.056 1065.55 297.65 1061.92 300.156C1058.29 302.661 1053.95 303.948 1049.54 303.83C1045.13 303.711 1040.88 302.195 1037.38 299.499C1033.89 296.803 1031.35 293.067 1030.12 288.83C1028.89 284.594 1029.03 280.076 1030.54 275.929H1030.54Z" stroke="#3F3D56" stroke-miterlimit="10"/>
<path d="M1044.99 389.622C1049.79 391.365 1055.07 391.279 1059.82 389.38C1064.56 387.482 1068.44 383.904 1070.72 379.329C1072.99 374.753 1073.51 369.5 1072.16 364.571C1070.81 359.641 1067.7 355.38 1063.41 352.6L1060.97 360.819L1059.24 350.515C1059.22 350.507 1059.2 350.5 1059.18 350.495C1056.61 349.561 1053.89 349.143 1051.15 349.264C1048.42 349.384 1045.74 350.042 1043.27 351.2C1040.79 352.357 1038.56 353.991 1036.72 356.009C1034.87 358.026 1033.44 360.387 1032.51 362.957C1031.58 365.528 1031.16 368.256 1031.29 370.987C1031.41 373.719 1032.07 376.399 1033.23 378.875C1034.38 381.351 1036.02 383.575 1038.04 385.419C1040.06 387.263 1042.42 388.691 1044.99 389.622H1044.99Z" fill="#57B894"/>
<path d="M1045.98 385.898C1050.78 387.64 1056.06 387.554 1060.81 385.656C1065.55 383.757 1069.43 380.18 1071.71 375.604C1073.98 371.029 1074.5 365.776 1073.15 360.846C1071.8 355.917 1068.69 351.656 1064.4 348.875L1061.96 357.094L1060.23 346.79C1060.21 346.782 1060.19 346.776 1060.17 346.77C1057.6 345.836 1054.88 345.418 1052.14 345.539C1049.41 345.66 1046.73 346.318 1044.26 347.475C1041.78 348.633 1039.55 350.267 1037.71 352.284C1035.86 354.301 1034.43 356.663 1033.5 359.233C1032.57 361.803 1032.15 364.532 1032.28 367.263C1032.4 369.994 1033.06 372.674 1034.22 375.151C1035.38 377.627 1037.01 379.851 1039.03 381.695C1041.05 383.539 1043.41 384.967 1045.98 385.898H1045.98Z" stroke="#3F3D56" stroke-miterlimit="10"/>
<path d="M1023.32 424.185C1024.15 428.885 1026.57 433.158 1030.17 436.288C1033.77 439.418 1038.34 441.213 1043.11 441.374C1047.88 441.535 1052.56 440.05 1056.36 437.17C1060.17 434.29 1062.87 430.189 1064.01 425.555C1065.15 420.921 1064.66 416.036 1062.63 411.719C1060.59 407.402 1057.14 403.915 1052.84 401.844C1048.54 399.773 1043.66 399.243 1039.01 400.344C1034.37 401.444 1030.25 404.108 1027.33 407.888L1036.61 421.844L1023.94 414.437C1022.95 417.59 1022.74 420.933 1023.32 424.185V424.185Z" fill="#57B894"/>
<path d="M1024.18 421.427C1025.01 426.127 1027.42 430.401 1031.03 433.53C1034.63 436.66 1039.2 438.456 1043.97 438.616C1048.74 438.777 1053.42 437.293 1057.22 434.412C1061.03 431.532 1063.73 427.431 1064.87 422.797C1066.01 418.163 1065.52 413.278 1063.48 408.961C1061.45 404.644 1057.99 401.158 1053.7 399.086C1049.4 397.015 1044.52 396.486 1039.87 397.586C1035.23 398.686 1031.1 401.35 1028.19 405.13L1037.46 419.086L1024.79 411.679C1023.81 414.832 1023.6 418.175 1024.18 421.427V421.427Z" stroke="#3F3D56" stroke-miterlimit="10"/>
<path d="M9.00672 392.267C10.997 392.99 13.1282 393.242 15.2322 393.001C17.3362 392.761 19.3556 392.035 21.1312 390.88C22.9068 389.726 24.39 388.175 25.464 386.35C26.538 384.525 27.1734 382.475 27.3201 380.363C27.4668 378.25 27.1208 376.132 26.3094 374.176C25.498 372.22 24.2433 370.479 22.6442 369.091C21.0452 367.702 19.1455 366.704 17.0949 366.175C15.0444 365.646 12.8989 365.6 10.8277 366.042L11.17 373.08L7.84012 367.048C4.57204 368.584 2.04732 371.354 0.820762 374.75C0.38516 375.94 0.120346 377.185 0.0342206 378.449C-0.175962 381.415 0.586246 384.368 2.20534 386.861C3.82443 389.355 6.21217 391.252 9.00672 392.267V392.267Z" fill="#57B894"/>
<path d="M25.483 473.897C24.3076 467.912 29.401 462.605 34.4322 459.156C39.4633 455.707 45.3419 452.318 47.0586 446.465C49.5257 438.052 42.1769 430.348 36.4571 423.704C32.2136 418.774 28.5695 413.358 25.6009 407.57C24.3103 405.296 23.4312 402.812 23.0042 400.233C22.5532 396.504 23.7512 392.794 24.9581 389.237C28.9787 377.388 33.2775 365.638 37.8543 353.988" stroke="#3F3D56" stroke-miterlimit="10"/>
<path d="M9.56997 390.455C11.5603 391.178 13.6914 391.43 15.7954 391.189C17.8995 390.948 19.9188 390.223 21.6944 389.068C23.47 387.914 24.9533 386.363 26.0272 384.538C27.1012 382.713 27.7366 380.663 27.8833 378.551C28.03 376.438 27.684 374.32 26.8726 372.364C26.0612 370.408 24.8065 368.667 23.2075 367.278C21.6084 365.89 19.7088 364.892 17.6582 364.363C15.6076 363.834 13.4622 363.788 11.391 364.23L11.7332 371.268L8.40336 365.236C5.13528 366.772 2.61055 369.542 1.38399 372.938C0.948397 374.128 0.683587 375.373 0.597457 376.637C0.38726 379.602 1.14946 382.556 2.76856 385.049C4.38766 387.543 6.7754 389.44 9.56997 390.455V390.455Z" stroke="#3F3D56" stroke-miterlimit="10"/>
<path d="M23.8116 351.557C24.5927 349.402 25.9037 347.478 27.6236 345.963C29.3436 344.447 31.4174 343.389 33.6537 342.886L34.7796 349.577L36.867 342.55C39.7652 342.593 42.5747 343.556 44.89 345.299C47.2052 347.043 48.9064 349.478 49.7479 352.251C50.5894 355.025 50.5276 357.994 49.5715 360.731C48.6154 363.467 46.8145 365.829 44.4287 367.475C42.043 369.121 39.1958 369.966 36.2984 369.888C33.4009 369.811 30.603 368.815 28.3088 367.043C26.0145 365.272 24.3425 362.817 23.5341 360.034C22.7258 357.25 22.823 354.282 23.8116 351.557V351.557Z" fill="#57B894"/>
<path d="M24.5626 349.141C25.3437 346.986 26.6546 345.062 28.3746 343.547C30.0946 342.031 32.1683 340.973 34.4047 340.47L35.5306 347.161L37.618 340.134C40.5161 340.177 43.3257 341.14 45.6409 342.883C47.9562 344.627 49.6574 347.062 50.4989 349.835C51.3403 352.609 51.2786 355.578 50.3225 358.315C49.3664 361.051 47.5655 363.413 45.1797 365.059C42.7939 366.705 39.9468 367.55 37.0493 367.472C34.1519 367.395 31.354 366.399 29.0597 364.627C26.7654 362.856 25.0934 360.401 24.2851 357.618C23.4768 354.834 23.574 351.866 24.5626 349.141V349.141Z" stroke="#3F3D56" stroke-miterlimit="10"/>
<path d="M34.0568 423.84C37.2133 424.985 40.6806 424.928 43.798 423.681C46.9154 422.434 49.4649 420.083 50.9605 417.077C52.4561 414.071 52.7932 410.619 51.9076 407.38C51.022 404.142 48.9756 401.342 46.1585 399.515L44.5546 404.915L43.4172 398.146C43.406 398.14 43.3944 398.136 43.3824 398.132C41.6941 397.518 39.9013 397.243 38.1066 397.322C36.3118 397.402 34.5503 397.834 32.9226 398.594C31.295 399.354 29.8331 400.428 28.6206 401.754C27.408 403.079 26.4686 404.631 25.856 406.32C25.2433 408.008 24.9695 409.801 25.0502 411.596C25.1308 413.391 25.5643 415.152 26.3259 416.779C27.0875 418.406 28.1623 419.867 29.4888 421.079C30.8153 422.29 32.3676 423.228 34.0568 423.84V423.84Z" fill="#57B894"/>
<path d="M34.7075 421.392C37.8639 422.537 41.3313 422.481 44.4487 421.233C47.5661 419.986 50.1156 417.635 51.6112 414.629C53.1067 411.623 53.4439 408.172 52.5583 404.933C51.6727 401.694 49.6263 398.895 46.8092 397.068L45.2052 402.468L44.0679 395.698C44.0567 395.693 44.045 395.688 44.0331 395.685C42.3451 395.073 40.5531 394.799 38.7593 394.879C36.9655 394.959 35.205 395.392 33.5785 396.153C30.2935 397.689 27.7533 400.467 26.5166 403.876C25.28 407.285 25.4482 411.045 26.9843 414.33C28.5204 417.615 31.2985 420.156 34.7075 421.392V421.392Z" stroke="#3F3D56" stroke-miterlimit="10"/>
<path d="M19.8211 446.548C20.3639 449.636 21.9519 452.444 24.3189 454.5C26.686 456.556 29.6881 457.736 32.8217 457.842C35.9554 457.947 39.03 456.972 41.5301 455.08C44.0301 453.187 45.8034 450.493 46.5526 447.448C47.3018 444.404 46.9814 441.194 45.6451 438.358C44.3088 435.521 42.0378 433.231 39.213 431.87C36.3882 430.509 33.1815 430.161 30.1305 430.884C27.0796 431.607 24.37 433.357 22.4561 435.84L28.5485 445.01L20.2241 440.143C19.5786 442.215 19.4404 444.412 19.8211 446.548V446.548Z" fill="#57B894"/>
<path d="M20.3844 444.736C20.9271 447.824 22.5151 450.632 24.8822 452.688C27.2492 454.744 30.2513 455.924 33.385 456.03C36.5186 456.135 39.5933 455.16 42.0933 453.268C44.5933 451.375 46.3666 448.681 47.1158 445.636C47.8651 442.592 47.5447 439.382 46.2083 436.546C44.872 433.709 42.601 431.419 39.7762 430.058C36.9515 428.697 33.7447 428.349 30.6938 429.072C27.6428 429.795 24.9332 431.545 23.0194 434.028L29.1117 443.198L20.7873 438.331C20.1419 440.403 20.0037 442.6 20.3844 444.736V444.736Z" stroke="#3F3D56" stroke-miterlimit="10"/>
</g>
<defs>
<clipPath id="clip0">
<rect width="1074.39" height="584.231" fill="white"/>
</clipPath>
</defs>
</svg>
