<svg width="44" height="44" viewBox="0 0 44 44" fill="none" xmlns="http://www.w3.org/2000/svg">
  <path d="M18.7917 23.8334C18.7917 25.0984 17.765 26.1251 16.5 26.1251C15.235 26.1251 14.2083 25.0984 14.2083 23.8334C14.2083 22.5684 15.235 21.5417 16.5 21.5417C17.765 21.5417 18.7917 22.5684 18.7917 23.8334ZM27.5 21.5417C26.235 21.5417 25.2083 22.5684 25.2083 23.8334C25.2083 25.0984 26.235 26.1251 27.5 26.1251C28.765 26.1251 29.7917 25.0984 29.7917 23.8334C29.7917 22.5684 28.765 21.5417 27.5 21.5417ZM40.3333 22.0001C40.3333 32.1201 32.12 40.3334 22 40.3334C11.88 40.3334 3.66667 32.1201 3.66667 22.0001C3.66667 11.8801 11.88 3.66675 22 3.66675C32.12 3.66675 40.3333 11.8801 40.3333 22.0001ZM19.5433 7.55341C22.11 11.8067 26.7667 14.6667 32.0833 14.6667C32.9267 14.6667 33.7517 14.5751 34.54 14.4467C31.9733 10.1934 27.3167 7.33341 22 7.33341C21.1567 7.33341 20.3317 7.42508 19.5433 7.55341ZM8.10333 17.3617C11.2383 15.5834 13.6583 12.6867 14.8133 9.22175C11.6783 11.0001 9.25833 13.8967 8.10333 17.3617ZM36.6667 22.0001C36.6667 20.5701 36.4467 19.1951 36.0617 17.8934C34.7783 18.1684 33.4583 18.3334 32.0833 18.3334C26.345 18.3334 21.23 15.6934 17.8567 11.5684C15.9317 16.2617 12.1 19.9467 7.33333 21.7434C7.35167 21.8167 7.33333 21.9084 7.33333 22.0001C7.33333 30.0851 13.915 36.6667 22 36.6667C30.085 36.6667 36.6667 30.0851 36.6667 22.0001Z" fill="black"/>
</svg>
