<svg width="297" height="275" viewBox="0 0 297 275" fill="none" xmlns="http://www.w3.org/2000/svg">
  <path d="M97.7738 17.8328H24.7617V145.571H97.7738V17.8328Z" fill="#FAFAFA"/>
  <path d="M47.5013 146.799C47.5013 146.799 39.4881 89.3275 35.3173 83.0154C35.3173 83.0154 59.2321 65.0514 59.9677 16.3811H23.6719V146.799H47.5013Z" fill="#EBEBEB"/>
  <path d="M75.0155 146.543C75.0155 146.543 83.0156 89.0711 87.2061 82.7591C87.2061 82.7591 63.2847 64.8016 62.5557 16.1248H98.8515V146.543H75.0155Z" fill="#EBEBEB"/>
  <path d="M99.692 12.9722H17.9902V149.794H103.075V12.9722H99.692ZM39.4354 84.0597V116.592H24.762V84.0597H39.4354ZM24.762 81.7017V48.0266H39.4354V81.7017H24.762ZM61.7738 81.7017V48.0266H80.1253V81.7017H61.7738ZM80.1253 84.0597V116.592H61.7738V84.0597H80.1253ZM40.0594 81.7017V48.0266H59.3961V81.7017H40.0594ZM59.3961 84.0597V116.592H40.0856V84.0597H59.3961ZM40.0856 47.4486V17.8326H59.4224V47.4486H40.0856ZM59.4224 117.177V145.584H40.0856V117.177H59.4224ZM61.7738 117.177H80.1253V145.584H61.7738V117.177ZM61.7738 47.4486V17.8326H80.1253V47.4486H61.7738ZM80.7822 84.0597H96.3094V116.592H80.7822V84.0597ZM80.7822 81.7017V48.0266H96.3094V81.7017H80.7822ZM96.3094 47.4486H80.7822V17.8326H96.3094V47.4486ZM39.4354 17.8326V47.4486H24.762V17.8326H39.4354ZM24.762 117.177H39.4354V145.584H24.762V117.177ZM80.7822 145.584V117.177H96.3094V145.584H80.7822Z" fill="#E0E0E0"/>
  <path d="M282.813 17.8328H209.801V145.571H282.813V17.8328Z" fill="#FAFAFA"/>
  <path d="M232.547 146.799C232.547 146.799 224.547 89.3275 220.356 83.0154C220.356 83.0154 244.278 65.0514 245.007 16.3811H208.711V146.799H232.547Z" fill="#EBEBEB"/>
  <path d="M260.061 146.543C260.061 146.543 268.055 89.0711 272.245 82.7591C272.245 82.7591 248.33 64.8016 247.595 16.1248H283.891V146.543H260.061Z" fill="#EBEBEB"/>
  <path d="M284.738 12.9722H203.036V149.794H288.121V12.9722H284.738ZM224.481 84.0597V116.592H209.801V84.0597H224.481ZM209.801 81.7017V48.0266H224.481V81.7017H209.801ZM246.813 81.7017V48.0266H265.204V81.7017H246.813ZM265.204 84.0597V116.592H246.813V84.0597H265.204ZM225.138 81.7017V48.0266H244.468V81.7017H225.138ZM244.468 84.0597V116.592H225.132V84.0597H244.468ZM225.132 47.4486V17.8326H244.462V47.4486H225.132ZM244.462 117.177V145.584H225.132V117.177H244.462ZM246.813 117.177H265.204V145.584H246.813V117.177ZM246.813 47.4486V17.8326H265.204V47.4486H246.813ZM265.821 84.0597H281.349V116.592H265.821V84.0597ZM265.821 81.7017V48.0266H281.349V81.7017H265.821ZM281.349 47.4486H265.821V17.8326H281.349V47.4486ZM224.481 17.8326V47.4486H209.801V17.8326H224.481ZM209.801 117.177H224.481V145.584H209.801V117.177ZM265.821 145.584V117.177H281.349V145.584H265.821Z" fill="#E0E0E0"/>
  <path d="M140.566 48.6636H122.812V71.0742H140.566V48.6636Z" fill="#EBEBEB"/>
  <path d="M133.032 70.5686H130.569V71.1663H133.032V70.5686Z" fill="#E0E0E0"/>
  <path d="M132.257 56.3748L128.986 56.8542L127.771 59.9281L129.82 62.516L133.085 62.0365L134.306 58.9692L132.257 56.3748Z" fill="#E0E0E0"/>
  <path d="M133.788 58.3584L130.517 58.8379L129.295 61.9118L131.344 64.4997L134.615 64.0268L135.837 60.9528L133.788 58.3584Z" fill="#FAFAFA"/>
  <path d="M133.38 48.3552H130.917V48.8675H133.38V48.3552Z" fill="#E0E0E0"/>
  <path d="M183.647 18.7456H154.004V56.1646H183.647V18.7456Z" fill="#EBEBEB"/>
  <path d="M171.069 55.3303H166.957V56.3287H171.069V55.3303Z" fill="#E0E0E0"/>
  <path d="M169.775 31.6326L164.31 32.4273L162.274 37.5571L165.696 41.8855L171.154 41.0908L173.19 35.961L169.775 31.6326Z" fill="#E0E0E0"/>
  <path d="M172.323 34.9426L166.865 35.7439L164.822 40.8737L168.251 45.2021L173.709 44.4008L175.745 39.2776L172.323 34.9426Z" fill="#FAFAFA"/>
  <path d="M171.646 18.2397H167.535V19.0936H171.646V18.2397Z" fill="#E0E0E0"/>
  <path d="M133.978 174.793C129.958 175.449 128.165 180.376 128.513 184.435C128.861 188.494 130.536 192.455 130.09 196.501C129.518 201.643 125.636 205.985 125.183 211.134C124.651 217.21 128.947 222.596 130.227 228.56C130.851 231.456 130.766 234.524 131.843 237.289C132.762 239.643 134.469 241.606 136.674 242.842C138.878 244.078 141.443 244.511 143.931 244.067C146.419 243.623 148.676 242.329 150.316 240.407C151.957 238.484 152.88 236.052 152.927 233.525C153.013 228.862 150.136 224.468 150.484 219.818C150.74 216.376 152.756 213.118 152.329 209.696C151.811 205.63 148.04 202.74 146.714 198.859C145.387 194.977 146.661 190.701 146.201 186.622C145.374 179.305 141.321 174.202 133.978 174.799" fill="#F5F5F5"/>
  <path d="M113.453 210.215C112.796 216.993 115.765 224.967 119.252 230.819C122.784 236.71 128.101 241.323 134.431 243.988C135.134 244.284 136.021 244.534 136.619 244.054C136.829 243.82 136.988 243.544 137.083 243.244C137.178 242.943 137.208 242.626 137.17 242.314C137.217 235.119 134.931 228.102 130.655 222.316C126.38 216.529 120.344 212.283 113.453 210.215Z" fill="#EBEBEB"/>
  <path d="M142.983 258.163C142.902 258.047 142.836 257.921 142.786 257.788C142.661 257.493 142.503 257.132 142.306 256.678C141.899 255.706 141.288 254.314 140.513 252.606C138.491 248.151 136.244 243.802 133.781 239.575C131.308 235.354 128.623 231.261 125.735 227.312C124.625 225.801 123.705 224.586 123.061 223.752L122.332 222.787C122.24 222.682 122.163 222.564 122.103 222.438C122.103 222.438 122.214 222.53 122.392 222.741L123.18 223.66C123.837 224.461 124.809 225.631 125.952 227.154C128.912 231.064 131.639 235.145 134.116 239.378C136.587 243.622 138.807 248.009 140.763 252.514C141.505 254.242 142.076 255.654 142.444 256.639C142.615 257.099 142.753 257.48 142.858 257.775C142.914 257.899 142.956 258.029 142.983 258.163Z" fill="#E0E0E0"/>
  <path d="M138.615 193.545C138.658 193.762 138.685 193.981 138.694 194.202C138.727 194.662 138.773 195.286 138.825 196.067C138.93 197.729 139.082 200.061 139.272 202.937C139.633 208.737 140.152 216.731 140.77 225.591C141.387 234.452 142.004 242.445 142.458 248.238C142.674 251.109 142.858 253.447 142.983 255.102C143.036 255.884 143.075 256.508 143.108 256.967C143.125 257.186 143.125 257.406 143.108 257.624C143.059 257.408 143.026 257.189 143.009 256.967C142.963 256.514 142.898 255.89 142.812 255.109C142.655 253.453 142.438 251.122 142.155 248.258C141.637 242.465 140.98 234.465 140.356 225.611C139.732 216.757 139.259 208.75 138.963 202.944C138.832 200.067 138.72 197.729 138.641 196.067C138.641 195.286 138.596 194.662 138.582 194.202C138.576 193.982 138.587 193.763 138.615 193.545Z" fill="#E0E0E0"/>
  <path d="M132.382 248.501H149.361V260.981C149.361 263.142 148.502 265.216 146.973 266.744C145.445 268.273 143.371 269.132 141.209 269.132C139.123 269.131 137.116 268.331 135.602 266.895C134.088 265.459 133.182 263.498 133.071 261.414L132.382 248.501Z" fill="#E0E0E0"/>
  <path d="M296.882 269.342C296.882 269.434 230.419 269.513 148.441 269.513C66.4635 269.513 0 269.434 0 269.342C0 269.25 66.4504 269.171 148.441 269.171C230.432 269.171 296.882 269.25 296.882 269.342Z" fill="#263238"/>
  <path d="M204.034 130.55L201.407 130.005C199.062 129.302 197.735 129 197.19 128.231C196.468 127.2 197.847 126.609 197.847 126.609C197.847 126.609 196.231 125.669 196.606 124.638C196.697 124.434 196.852 124.264 197.047 124.153C197.241 124.042 197.467 123.996 197.689 124.021C197.689 124.021 196.284 123.121 196.106 122.425C195.863 121.479 197.032 121.229 197.032 121.229C195.206 119.535 195.647 118.3 196.152 118.274C196.658 118.247 198.123 119.305 198.123 119.305C199.436 119.962 202.931 121.847 201.952 119.509C200.973 117.17 201.098 115.009 201.538 114.444C201.654 114.324 201.806 114.243 201.971 114.214C202.135 114.185 202.305 114.208 202.456 114.281C202.606 114.354 202.73 114.472 202.81 114.619C202.889 114.767 202.92 114.935 202.898 115.101C202.956 115.955 203.131 116.797 203.417 117.604C203.624 118.259 203.942 118.874 204.356 119.423C204.842 120.08 205.276 120.586 205.67 121.019L207.568 123.738L204.034 130.55Z" fill="#FFBE9D"/>
  <path d="M193.919 266.715L196.179 261.947L205.138 266.124L201.906 273.132L201.335 272.909C198.799 271.891 188.514 267.569 187.095 266.295C185.512 264.876 193.919 266.715 193.919 266.715Z" fill="#445FEB"/>
  <g opacity="0.3">
    <path opacity="0.3" d="M198.688 271.543C199.174 270.85 199.899 270.361 200.724 270.17C201.535 269.968 202.392 270.084 203.122 270.492L201.952 272.994L198.688 271.543Z" fill="white"/>
  </g>
  <g opacity="0.3">
    <path opacity="0.3" d="M189.748 265.946C189.748 265.946 186.727 265.473 186.852 266.071C186.977 266.669 197.21 271.424 201.906 273.132L201.985 272.922L190.005 267.47C190.005 267.47 190.261 266.235 189.748 265.946Z" fill="white"/>
  </g>
  <path d="M202.123 272.981L201.965 272.928L201.512 272.751L199.85 272.061C198.451 271.47 196.527 270.63 194.431 269.651C192.336 268.672 190.445 267.753 189.092 267.063L187.495 266.235L187.069 266.006L186.917 265.92C186.973 265.934 187.026 265.956 187.075 265.986L187.515 266.196L189.131 266.991C190.491 267.648 192.382 268.567 194.477 269.546C196.573 270.524 198.491 271.372 199.883 271.983L201.525 272.705L201.972 272.902L202.123 272.981Z" fill="#263238"/>
  <path d="M189.946 267.608C189.996 267.306 190.013 267 189.998 266.695C189.944 266.391 189.856 266.093 189.735 265.808C189.945 266.053 190.078 266.356 190.115 266.676C190.153 266.997 190.094 267.321 189.946 267.608Z" fill="#263238"/>
  <path d="M193.184 267.503C193.108 267.354 193.065 267.19 193.059 267.023C193.02 266.864 193.02 266.697 193.059 266.537C193.059 266.537 193.145 266.741 193.177 267.01C193.22 267.171 193.223 267.341 193.184 267.503Z" fill="#263238"/>
  <path d="M194.116 267.457C194.083 267.457 193.985 267.306 193.893 267.096C193.801 266.886 193.755 266.708 193.788 266.695C193.821 266.682 193.919 266.84 194.005 267.05C194.076 267.174 194.115 267.314 194.116 267.457Z" fill="#263238"/>
  <path d="M194.964 266.82C194.964 266.853 194.734 266.781 194.471 266.663C194.305 266.607 194.153 266.518 194.024 266.4C194.024 266.367 194.261 266.439 194.517 266.557C194.683 266.613 194.835 266.702 194.964 266.82Z" fill="#263238"/>
  <path d="M195.404 266.301C195.2 266.332 194.991 266.3 194.806 266.209C194.611 266.155 194.437 266.043 194.307 265.887C194.495 265.94 194.677 266.01 194.852 266.097C195.041 266.149 195.226 266.218 195.404 266.301Z" fill="#263238"/>
  <path d="M193.269 266.577C193.065 266.52 192.871 266.429 192.697 266.308C192.5 266.186 192.315 266.045 192.146 265.887C192.043 265.795 191.95 265.691 191.87 265.579C191.82 265.508 191.799 265.421 191.811 265.336C191.819 265.288 191.842 265.245 191.876 265.211C191.91 265.177 191.954 265.154 192.001 265.145C192.175 265.143 192.346 265.18 192.504 265.252C192.662 265.324 192.802 265.43 192.914 265.562C193.026 265.695 193.108 265.85 193.153 266.017C193.199 266.185 193.207 266.36 193.177 266.531C193.169 266.589 193.149 266.645 193.118 266.695C193.139 266.489 193.128 266.281 193.085 266.078C193.024 265.868 192.906 265.679 192.743 265.533C192.649 265.442 192.538 265.371 192.416 265.323C192.295 265.276 192.165 265.253 192.034 265.257C191.909 265.257 191.896 265.408 191.968 265.519C192.045 265.625 192.133 265.722 192.231 265.808C192.393 265.963 192.567 266.106 192.75 266.235C193.059 266.459 193.275 266.557 193.269 266.577Z" fill="#263238"/>
  <path d="M193.105 266.538C193.094 266.383 193.138 266.229 193.229 266.104C193.318 265.963 193.437 265.844 193.578 265.756C193.667 265.695 193.77 265.657 193.878 265.646C193.986 265.634 194.095 265.649 194.195 265.69C194.247 265.731 194.281 265.789 194.291 265.854C194.3 265.919 194.285 265.985 194.248 266.038C194.193 266.124 194.118 266.196 194.031 266.249C193.897 266.342 193.751 266.417 193.597 266.472C193.459 266.534 193.308 266.561 193.157 266.551C193.157 266.551 193.321 266.498 193.564 266.393C193.707 266.331 193.842 266.252 193.965 266.157C194.103 266.071 194.261 265.881 194.129 265.789C193.998 265.697 193.775 265.789 193.637 265.854C193.504 265.928 193.387 266.029 193.295 266.15C193.224 266.275 193.161 266.405 193.105 266.538Z" fill="#263238"/>
  <path d="M203.082 270.446C203.082 270.446 202.839 270.301 202.425 270.163C201.869 269.98 201.274 269.952 200.704 270.084C200.138 270.231 199.621 270.525 199.207 270.938C198.891 271.26 198.76 271.51 198.74 271.503C198.756 271.437 198.785 271.374 198.826 271.319C198.916 271.161 199.024 271.013 199.147 270.879C199.556 270.43 200.089 270.112 200.678 269.966C201.268 269.827 201.885 269.868 202.451 270.084C202.621 270.146 202.784 270.225 202.937 270.321C203.036 270.393 203.088 270.439 203.082 270.446Z" fill="#263238"/>
  <path d="M203.89 266.288C203.671 266.928 203.412 267.553 203.115 268.16C202.853 268.787 202.554 269.399 202.222 269.992C202.447 269.352 202.708 268.725 203.003 268.114C203.264 267.489 203.56 266.879 203.89 266.288Z" fill="#263238"/>
  <path d="M197.965 270.176C197.492 270.071 197.034 269.91 196.599 269.697C196.151 269.51 195.728 269.27 195.338 268.981C195.338 268.948 195.922 269.257 196.652 269.585C197.381 269.914 197.978 270.117 197.965 270.176Z" fill="#263238"/>
  <path d="M199.752 270.964C199.752 270.964 199.647 271.063 199.522 271.168C199.397 271.273 199.312 271.378 199.286 271.365C199.259 271.352 199.286 271.201 199.443 271.076C199.601 270.951 199.752 270.931 199.752 270.964Z" fill="#263238"/>
  <path d="M200.77 270.446C200.77 270.446 200.678 270.544 200.547 270.597C200.415 270.649 200.291 270.662 200.277 270.629C200.264 270.597 200.369 270.531 200.501 270.485C200.632 270.439 200.757 270.413 200.77 270.446Z" fill="#263238"/>
  <path d="M201.893 270.511C201.893 270.511 201.755 270.478 201.598 270.465C201.44 270.452 201.322 270.465 201.309 270.465C201.295 270.465 201.427 270.347 201.611 270.367C201.795 270.386 201.913 270.485 201.893 270.511Z" fill="#263238"/>
  <path d="M202.648 270.649C202.648 270.649 202.576 270.702 202.484 270.695C202.392 270.689 202.326 270.656 202.333 270.623C202.34 270.59 202.405 270.57 202.497 270.577C202.589 270.584 202.648 270.616 202.648 270.649Z" fill="#263238"/>
  <path d="M269.486 269.322L267.253 264.541L276.179 260.324L279.522 267.28L278.984 267.582C276.586 268.895 266.701 274.051 264.816 274.334C262.714 274.629 269.486 269.322 269.486 269.322Z" fill="#445FEB"/>
  <g opacity="0.3">
    <path opacity="0.3" d="M276.252 268.725C276.023 267.909 276.107 267.038 276.488 266.281C276.854 265.533 277.487 264.95 278.262 264.646L279.451 267.135L276.252 268.725Z" fill="white"/>
  </g>
  <g opacity="0.3">
    <path opacity="0.3" d="M266.242 272.048C266.242 272.048 263.95 274.078 264.488 274.36C265.027 274.642 275.214 269.762 279.523 267.26L279.411 267.069L267.588 272.823C267.588 272.823 266.748 271.825 266.242 272.048Z" fill="white"/>
  </g>
  <path d="M279.549 266.997L279.405 267.083L278.978 267.319L277.388 268.16C276.042 268.863 274.17 269.808 272.075 270.787C269.979 271.766 268.074 272.639 266.682 273.244L265.027 273.953L264.574 274.137L264.416 274.189L264.567 274.111L265.007 273.907L266.649 273.171C268.029 272.547 269.933 271.674 272.029 270.676C274.124 269.677 275.969 268.751 277.349 268.048L278.951 267.24L279.391 267.024C279.443 267.009 279.496 267 279.549 266.997Z" fill="#263238"/>
  <path d="M267.647 272.961C267.453 272.719 267.233 272.498 266.99 272.304C266.722 272.154 266.438 272.032 266.143 271.943C266.467 271.938 266.785 272.03 267.056 272.207C267.328 272.383 267.54 272.637 267.667 272.935L267.647 272.961Z" fill="#263238"/>
  <path d="M269.644 270.373C269.644 270.373 269.427 270.308 269.197 270.163C268.968 270.019 268.797 269.881 268.816 269.854C268.836 269.828 269.033 269.92 269.263 270.064C269.493 270.209 269.657 270.347 269.644 270.373Z" fill="#263238"/>
  <path d="M270.183 269.644C270.183 269.677 269.986 269.644 269.769 269.585C269.552 269.526 269.381 269.441 269.388 269.408C269.529 269.396 269.671 269.418 269.802 269.473C270.032 269.519 270.189 269.611 270.183 269.644Z" fill="#263238"/>
  <path d="M270.242 268.587C270.242 268.62 270.058 268.744 269.802 268.869C269.546 268.994 269.329 269.073 269.309 269.04C269.434 268.916 269.584 268.819 269.749 268.758C270.032 268.633 270.222 268.554 270.242 268.587Z" fill="#263238"/>
  <path d="M270.11 267.917C270.11 267.917 269.959 268.153 269.664 268.317C269.495 268.432 269.296 268.495 269.092 268.501C269.435 268.312 269.774 268.117 270.11 267.917Z" fill="#263238"/>
  <path d="M268.968 269.736C268.795 269.861 268.602 269.952 268.396 270.006C268.183 270.08 267.963 270.132 267.739 270.163C267.6 270.18 267.459 270.18 267.319 270.163C267.276 270.161 267.234 270.15 267.196 270.13C267.157 270.111 267.123 270.084 267.096 270.052C267.07 270.011 267.056 269.965 267.056 269.917C267.056 269.869 267.07 269.822 267.096 269.782C267.264 269.571 267.501 269.424 267.766 269.368C268.031 269.312 268.307 269.349 268.547 269.474C268.688 269.547 268.813 269.647 268.915 269.769C268.954 269.811 268.983 269.86 269 269.914C268.858 269.766 268.691 269.644 268.508 269.552C268.303 269.457 268.073 269.428 267.851 269.467C267.722 269.482 267.598 269.522 267.485 269.585C267.373 269.648 267.274 269.733 267.194 269.835C267.135 269.947 267.194 270.038 267.352 270.052C267.481 270.065 267.61 270.065 267.739 270.052C267.961 270.028 268.181 269.987 268.396 269.927C268.718 269.822 268.961 269.723 268.968 269.736Z" fill="#263238"/>
  <path d="M268.836 269.835C268.836 269.835 268.672 269.743 268.58 269.467C268.526 269.309 268.51 269.14 268.534 268.974C268.544 268.866 268.58 268.762 268.64 268.672C268.699 268.581 268.78 268.507 268.876 268.455C268.94 268.441 269.007 268.453 269.064 268.487C269.12 268.521 269.161 268.576 269.178 268.639C269.2 268.739 269.2 268.842 269.178 268.941C269.162 269.103 269.125 269.263 269.066 269.414C268.974 269.677 268.862 269.815 268.849 269.802C268.836 269.789 268.915 269.644 268.987 269.388C269.03 269.24 269.057 269.088 269.066 268.935C269.066 268.771 269.033 268.528 268.882 268.574C268.731 268.62 268.652 268.843 268.619 268.994C268.586 269.143 268.586 269.298 268.619 269.447C268.676 269.585 268.749 269.715 268.836 269.835Z" fill="#263238"/>
  <path d="M278.202 264.639C278.202 264.639 277.94 264.738 277.546 264.981C277.055 265.284 276.659 265.718 276.403 266.235C276.151 266.762 276.048 267.349 276.107 267.93C276.153 268.383 276.258 268.646 276.238 268.652C276.201 268.596 276.172 268.534 276.153 268.468C276.09 268.299 276.046 268.122 276.022 267.943C275.936 267.342 276.03 266.73 276.291 266.183C276.555 265.631 276.981 265.172 277.513 264.869C277.67 264.776 277.838 264.701 278.012 264.646C278.075 264.633 278.139 264.631 278.202 264.639Z" fill="#263238"/>
  <path d="M275.516 261.368C275.864 261.948 276.18 262.547 276.462 263.162C276.778 263.762 277.059 264.38 277.303 265.014C276.954 264.432 276.638 263.831 276.357 263.214C276.037 262.618 275.756 262.001 275.516 261.368Z" fill="#263238"/>
  <path d="M274.715 268.39C274.335 268.692 273.918 268.944 273.473 269.139C273.047 269.371 272.592 269.545 272.12 269.658C272.12 269.658 272.705 269.382 273.434 269.034C274.163 268.686 274.695 268.364 274.715 268.39Z" fill="#263238"/>
  <path d="M276.462 267.549C276.462 267.549 276.462 267.7 276.462 267.858C276.462 268.015 276.495 268.153 276.462 268.166C276.429 268.18 276.344 268.048 276.344 267.864C276.344 267.68 276.429 267.549 276.462 267.549Z" fill="#263238"/>
  <path d="M276.731 266.426C276.764 266.426 276.731 266.557 276.698 266.695C276.666 266.833 276.587 266.932 276.561 266.925C276.534 266.919 276.561 266.794 276.561 266.656C276.561 266.518 276.698 266.413 276.731 266.426Z" fill="#263238"/>
  <path d="M277.493 265.578C277.493 265.611 277.381 265.67 277.276 265.775C277.171 265.881 277.105 265.999 277.073 265.992C277.04 265.986 277.073 265.821 277.191 265.69C277.309 265.559 277.493 265.578 277.493 265.578Z" fill="#263238"/>
  <path d="M278.084 265.106C278.084 265.106 278.084 265.197 278.018 265.263C277.953 265.329 277.887 265.355 277.861 265.335C277.834 265.316 277.861 265.243 277.926 265.178C277.992 265.112 278.058 265.079 278.084 265.106Z" fill="#263238"/>
  <path d="M279.923 262.675L265.473 269.395L239.489 223.135C236.107 210.931 232.842 167.962 232.842 167.962L251.64 169.394C251.64 169.394 254.537 200.265 259.076 216.133L279.923 262.675Z" fill="#263238"/>
  <path d="M263.161 264.869C263.161 264.869 263.345 264.731 263.706 264.541C264.068 264.35 264.6 264.081 265.256 263.759C266.57 263.102 268.403 262.242 270.432 261.296C272.462 260.35 274.301 259.516 275.641 258.931C276.298 258.636 276.862 258.399 277.237 258.275C277.428 258.178 277.631 258.107 277.841 258.064C277.676 258.199 277.492 258.31 277.296 258.393C276.928 258.583 276.403 258.853 275.746 259.174C274.432 259.831 272.6 260.692 270.577 261.638C268.554 262.583 266.708 263.411 265.361 264.002C264.705 264.298 264.146 264.534 263.765 264.659C263.575 264.757 263.371 264.828 263.161 264.869Z" fill="#455A64"/>
  <path d="M260.179 150.668C260.534 150.668 264.376 162.051 260.679 169.598C260.304 170.353 257.395 174.511 257.395 174.511C247.161 186.583 236.797 209.979 233.907 216.146C227.995 228.764 206.084 270.268 206.084 270.268L192.028 262.222L212.58 209.381L231.233 161.696L260.179 150.668Z" fill="#263238"/>
  <path d="M234.839 199.49C234.839 199.49 233.847 204.291 233.335 204.015C231.87 203.22 221.801 199.47 221.801 199.47L224.52 196.455L234.839 199.49Z" fill="#455A64"/>
  <path d="M231.87 203.22C231.87 203.22 229.985 210.964 227.561 210.544C225.138 210.123 220.074 207.575 220.074 207.575L223.128 199.936L231.87 203.22Z" fill="#455A64"/>
  <path d="M233.335 204.015L222.097 199.522L222.635 201.171L231.535 204.429L233.335 204.015Z" fill="#263238"/>
  <path d="M252.842 180.586C252.795 180.691 252.733 180.788 252.658 180.875L252.081 181.657C251.581 182.314 250.872 183.338 250.051 184.606C248.402 187.141 246.327 190.767 244.205 194.865C242.084 198.964 240.264 202.747 238.984 205.466L237.44 208.705L237.013 209.578C236.968 209.683 236.911 209.782 236.842 209.874C236.863 209.762 236.899 209.654 236.947 209.552L237.322 208.652C237.65 207.87 238.143 206.747 238.76 205.368C240.008 202.609 241.768 198.8 243.903 194.708C245.681 191.189 247.654 187.773 249.814 184.475C250.668 183.22 251.404 182.235 251.943 181.578C252.192 181.276 252.402 181.033 252.599 180.836C252.67 180.743 252.751 180.659 252.842 180.586Z" fill="#455A64"/>
  <path d="M193.099 259.759C193.138 259.68 196.455 261.257 200.507 263.286C204.56 265.316 207.805 267.037 207.732 267.122C207.66 267.208 204.376 265.625 200.324 263.595C196.271 261.565 193.059 259.845 193.099 259.759Z" fill="#455A64"/>
  <path d="M209.801 123.463C209.039 125.183 208.175 126.857 207.213 128.474C206.352 130.149 205.387 131.768 204.323 133.322C205.087 131.6 205.951 129.924 206.911 128.303C207.777 126.634 208.742 125.017 209.801 123.463Z" fill="#263238"/>
  <path d="M236.357 103.476C237.125 103.476 238.038 109.059 238.813 119.088C239.693 130.464 239.614 141.945 236.468 149.164C236.178 149.935 235.738 150.641 235.175 151.241C234.611 151.842 233.935 152.326 233.184 152.665C225.04 156.028 202.57 131.936 202.57 131.936L208.1 122.234L223.923 135.009C223.923 135.009 225.499 122.083 225.197 116.126C224.954 111.607 229.467 103.528 236.357 103.476Z" fill="#455A64"/>
  <path d="M243.358 103.587C243.358 103.587 257.099 105.597 260.652 110.996C264.205 116.395 262.406 164.015 262.406 164.015L227.082 166.103C227.082 166.103 229.933 105.492 231.68 104.802C236.067 103.082 242.833 103.417 243.358 103.587Z" fill="#455A64"/>
  <path d="M186.806 91.0486C186.703 89.6036 186.972 88.1564 187.588 86.845C187.86 86.2839 188.004 85.669 188.008 85.0453V83.4492H167.417C166.579 83.4492 165.775 83.7821 165.183 84.3746C164.59 84.967 164.257 85.7706 164.257 86.6085V107.114H162.865C162.222 107.108 161.588 106.956 161.013 106.668C159.722 106.046 158.296 105.76 156.865 105.834C155.435 105.908 154.046 106.341 152.827 107.093C151.607 107.845 150.597 108.891 149.888 110.136C149.179 111.381 148.795 112.784 148.771 114.216C148.746 115.649 149.083 117.064 149.749 118.332C150.415 119.6 151.39 120.68 152.583 121.473C153.776 122.266 155.149 122.746 156.577 122.868C158.004 122.991 159.439 122.753 160.75 122.175C161.293 121.928 161.881 121.799 162.477 121.794H164.284V141.788C164.283 142.203 164.364 142.615 164.522 142.999C164.681 143.383 164.913 143.732 165.207 144.026C165.5 144.32 165.849 144.553 166.232 144.713C166.616 144.872 167.027 144.954 167.443 144.954H223.069C223.752 144.954 224.407 144.683 224.89 144.2C225.372 143.717 225.644 143.062 225.644 142.379V86.024C225.645 85.6856 225.579 85.3504 225.449 85.0376C225.32 84.7249 225.131 84.4407 224.891 84.2014C224.652 83.9621 224.368 83.7725 224.055 83.6434C223.742 83.5144 223.407 83.4484 223.069 83.4492H202.97V85.7284C202.968 86.2557 203.071 86.7781 203.272 87.2653C203.743 88.4112 203.958 89.6456 203.904 90.883C203.849 92.1204 203.526 93.3312 202.957 94.4313C202.388 95.5314 201.587 96.4946 200.608 97.2539C199.63 98.0132 198.497 98.5506 197.291 98.8287C196.084 99.1068 194.83 99.1189 193.618 98.8643C192.406 98.6098 191.264 98.0945 190.271 97.3543C189.278 96.6141 188.457 95.6667 187.867 94.5779C187.277 93.489 186.93 92.2847 186.852 91.0486H186.806Z" fill="#445FEB"/>
  <path d="M229.48 113.715C229.5 113.846 229.511 113.977 229.513 114.109C229.513 114.412 229.513 114.766 229.513 115.246C229.513 116.277 229.513 117.696 229.565 119.423C229.565 122.95 229.624 127.824 229.513 133.216C229.401 138.609 229.105 143.476 228.744 147.01C228.56 148.77 228.383 150.182 228.238 151.161C228.166 151.62 228.107 151.988 228.054 152.284C228.045 152.416 228.016 152.547 227.969 152.671C227.96 152.54 227.96 152.408 227.969 152.277C228.002 151.982 228.035 151.62 228.087 151.147C228.186 150.162 228.33 148.744 228.481 146.99C228.783 143.476 229.053 138.615 229.138 133.236C229.224 127.857 229.243 122.99 229.289 119.443C229.289 117.715 229.335 116.297 229.348 115.265C229.348 114.806 229.348 114.425 229.381 114.129C229.395 113.987 229.428 113.848 229.48 113.715Z" fill="#263238"/>
  <path d="M250.491 81.1372C249.926 84.7234 249.959 87.8696 251.713 90.2079C252.093 90.6576 252.444 91.1315 252.764 91.6266C252.922 91.8757 253.027 92.1546 253.074 92.446C253.12 92.7375 253.106 93.0353 253.033 93.3212C252.952 93.5748 252.804 93.802 252.606 93.9796C252.407 94.1572 252.165 94.2787 251.904 94.3316C251.643 94.3844 251.373 94.3668 251.121 94.2804C250.869 94.194 250.645 94.042 250.471 93.8401C250.528 94.2458 250.463 94.6592 250.284 95.0277C250.105 95.3962 249.82 95.703 249.466 95.9091C249.285 95.9923 249.088 96.0333 248.889 96.029C248.689 96.0246 248.494 95.975 248.317 95.8839C248.139 95.7927 247.985 95.6625 247.866 95.503C247.746 95.3435 247.665 95.1589 247.627 94.9633C247.627 94.9633 248.094 96.7826 246.005 96.5002L247.476 84.0206L250.491 81.1372Z" fill="#263238"/>
  <path d="M241.131 108.724C240.317 108.724 239.511 108.552 238.767 108.221C238.022 107.889 237.356 107.405 236.811 106.799C236.266 106.193 235.854 105.48 235.603 104.705C235.352 103.93 235.266 103.11 235.351 102.3C235.542 100.435 235.713 98.9174 235.713 98.9174C235.713 98.9174 231.115 98.2014 231.056 93.6037C230.997 89.006 231.798 78.4509 231.798 78.4509C234.412 77.329 237.277 76.9251 240.099 77.2807C242.921 77.6363 245.597 78.7386 247.851 80.4739L248.508 80.9928L246.911 103.325C246.807 104.788 246.153 106.157 245.081 107.159C244.009 108.16 242.598 108.719 241.131 108.724Z" fill="#FFBE9D"/>
  <path d="M232.98 86.7529C233.075 86.6649 233.142 86.551 233.172 86.4253C233.202 86.2997 233.195 86.1679 233.15 86.0466C233.106 85.9252 233.027 85.8196 232.923 85.743C232.819 85.6663 232.694 85.6221 232.565 85.6158C232.436 85.6095 232.308 85.6413 232.197 85.7074C232.086 85.7735 231.997 85.8709 231.941 85.9874C231.885 86.1039 231.865 86.2342 231.883 86.3622C231.901 86.4902 231.956 86.6101 232.041 86.7069C232.099 86.7725 232.17 86.8259 232.249 86.8638C232.328 86.9018 232.414 86.9236 232.501 86.9278C232.589 86.9321 232.676 86.9189 232.759 86.8888C232.841 86.8588 232.916 86.8125 232.98 86.7529Z" fill="#263238"/>
  <path d="M231.706 85.3015C231.779 85.3803 232.232 85.0322 232.862 85.0322C233.493 85.0322 233.959 85.354 234.025 85.2752C234.091 85.1964 233.992 85.0979 233.788 84.9402C233.519 84.7456 233.194 84.6441 232.862 84.6512C232.529 84.6512 232.205 84.757 231.936 84.9534C231.739 85.1241 231.673 85.2686 231.706 85.3015Z" fill="#263238"/>
  <path d="M239.003 86.2667C238.928 86.3113 238.862 86.3705 238.81 86.4408C238.758 86.5111 238.72 86.5911 238.699 86.6762C238.679 86.7613 238.675 86.8496 238.689 86.9361C238.703 87.0226 238.734 87.1054 238.78 87.1797C238.825 87.256 238.884 87.3226 238.955 87.3753C239.026 87.4281 239.107 87.4661 239.192 87.4869C239.278 87.5078 239.367 87.5111 239.455 87.4967C239.542 87.4823 239.625 87.4504 239.7 87.403C239.775 87.358 239.841 87.2981 239.893 87.227C239.946 87.1559 239.983 87.0751 240.003 86.9893C240.023 86.9035 240.026 86.8144 240.011 86.7276C239.996 86.6407 239.964 86.5577 239.916 86.4835C239.871 86.4086 239.812 86.3435 239.741 86.292C239.671 86.2404 239.59 86.2035 239.505 86.1833C239.42 86.1631 239.332 86.1601 239.246 86.1744C239.16 86.1887 239.077 86.2201 239.003 86.2667Z" fill="#263238"/>
  <path d="M238.583 85.8597C238.655 85.9385 239.108 85.5904 239.739 85.5904C240.369 85.5904 240.836 85.9122 240.901 85.8334C240.967 85.7546 240.862 85.6561 240.665 85.4984C240.394 85.3028 240.066 85.2013 239.732 85.2094C239.399 85.2098 239.076 85.3207 238.813 85.5247C238.616 85.6823 238.55 85.8268 238.583 85.8597Z" fill="#263238"/>
  <path d="M236.048 91.0814C235.72 90.9562 235.374 90.8831 235.023 90.8647C234.859 90.8647 234.728 90.8121 234.714 90.7202C234.707 90.5545 234.749 90.3902 234.833 90.2473L235.332 88.9336C235.809 87.8465 236.172 86.7129 236.416 85.551C235.834 86.5954 235.358 87.6956 234.997 88.8351C234.833 89.2818 234.675 89.7087 234.524 90.1488C234.414 90.3609 234.381 90.6048 234.432 90.8384C234.455 90.9013 234.493 90.9579 234.542 91.0035C234.591 91.0491 234.65 91.0826 234.714 91.1011C234.807 91.125 234.902 91.1382 234.997 91.1406C235.348 91.1813 235.704 91.1613 236.048 91.0814Z" fill="#263238"/>
  <path d="M238.104 91.7842C238.761 91.3901 236.284 92.7497 234.997 92.6841C235.211 93.0164 235.532 93.2661 235.907 93.3926C236.281 93.5191 236.688 93.5147 237.059 93.3803C238.439 92.8745 238.104 91.7842 238.104 91.7842Z" fill="white"/>
  <path d="M235.673 98.8515C237.795 98.8909 239.881 98.2963 241.663 97.1438C241.663 97.1438 240.245 100.428 235.66 100.04L235.673 98.8515Z" fill="#EB996E"/>
  <path d="M248.507 85.4457C248.606 85.4129 251.936 85.183 251.384 89.0582C250.833 92.9335 247.102 91.0944 247.108 90.9827C247.115 90.8711 248.507 85.4457 248.507 85.4457Z" fill="#FFBE9D"/>
  <path d="M248.488 89.7941C248.488 89.7941 248.547 89.8532 248.659 89.9189C248.732 89.9654 248.814 89.997 248.9 90.0116C248.985 90.0263 249.073 90.0238 249.158 90.0043C249.431 89.8806 249.666 89.6864 249.839 89.4416C250.013 89.1969 250.117 88.9105 250.143 88.6118C250.205 88.2821 250.189 87.9426 250.097 87.62C250.078 87.4939 250.028 87.3744 249.953 87.2715C249.877 87.1686 249.778 87.0854 249.664 87.0289C249.589 86.9959 249.504 86.991 249.426 87.0151C249.347 87.0392 249.28 87.0907 249.237 87.1602C249.171 87.2588 249.184 87.3376 249.158 87.3442C249.132 87.3507 249.086 87.2653 249.158 87.1143C249.191 87.0187 249.259 86.9391 249.348 86.8909C249.406 86.8569 249.471 86.8353 249.537 86.8274C249.604 86.8194 249.672 86.8254 249.736 86.845C249.89 86.9057 250.025 87.0054 250.129 87.1344C250.233 87.2634 250.301 87.4172 250.327 87.5806C250.447 87.938 250.474 88.3199 250.406 88.6906C250.377 89.0389 250.246 89.3708 250.028 89.6444C249.811 89.918 249.517 90.121 249.184 90.2276C249.076 90.2424 248.965 90.233 248.861 90.2001C248.756 90.1671 248.66 90.1115 248.58 90.0371C248.481 89.8861 248.475 89.8007 248.488 89.7941Z" fill="#EB996E"/>
  <path d="M230.563 78.0106C230.631 77.6203 230.849 77.2721 231.171 77.0411C231.493 76.8102 231.892 76.7149 232.284 76.7758C232.02 76.7532 231.764 76.6699 231.537 76.5325C231.31 76.3951 231.118 76.2073 230.975 75.9836C230.832 75.7599 230.743 75.5063 230.714 75.2426C230.685 74.9788 230.718 74.712 230.809 74.4627C230.9 74.2135 231.047 73.9885 231.239 73.8053C231.431 73.6221 231.662 73.4855 231.915 73.4062C232.168 73.3269 232.436 73.307 232.699 73.348C232.961 73.3891 233.21 73.4899 233.427 73.6428C232.909 73.1566 232.497 72.5684 232.218 71.9154C232.077 71.5814 232.045 71.2118 232.125 70.8584C232.205 70.5049 232.394 70.1855 232.665 69.9449C232.964 69.772 233.304 69.6809 233.65 69.6809C233.996 69.6809 234.336 69.772 234.635 69.9449C235.581 70.4244 236.297 71.2914 237.263 71.6986C238.228 72.1058 239.364 72.0073 240.435 72.119C241.625 72.2161 242.754 72.6874 243.66 73.4654C244.112 73.8535 244.466 74.3421 244.694 74.892C244.922 75.4419 245.018 76.0376 244.974 76.6313C246.425 76.5459 248.015 76.6313 249.138 77.5312C249.053 76.946 249.125 76.3488 249.346 75.8006C249.568 75.2524 249.931 74.7729 250.399 74.4113C250.996 73.9963 251.688 73.7411 252.412 73.6698C253.135 73.5985 253.864 73.7136 254.53 74.004C254.846 74.1117 255.136 74.2842 255.382 74.5104C255.627 74.7366 255.823 75.0116 255.956 75.3177C256.251 76.2044 255.693 77.1568 254.99 77.7742C254.333 78.3322 253.553 78.7281 252.715 78.93C251.876 79.132 251.002 79.1343 250.163 78.9368C250.429 79.6221 250.541 80.3576 250.491 81.0911C250.419 82.3588 249.401 83.6724 248.954 84.8613L248.855 85.6429L248.094 88.8941L246.057 88.7299L246.616 81.899C246.616 81.899 246.997 79.0287 244.501 79.1272C242.005 79.2258 238.465 81.8202 233.683 80.8153C232.898 80.7218 232.144 80.4548 231.476 80.0336C231.161 79.8053 230.911 79.4985 230.75 79.1436C230.59 78.7887 230.526 78.3982 230.563 78.0106Z" fill="#263238"/>
  <path d="M257.342 81.0123C256.958 81.3067 256.506 81.5008 256.028 81.5772C254.867 81.841 253.651 81.6987 252.582 81.174C251.514 80.6492 250.657 79.7737 250.156 78.6937C249.921 78.2671 249.797 77.7883 249.795 77.3013C249.854 77.3013 249.959 77.8333 250.373 78.6149C250.903 79.6025 251.729 80.3992 252.735 80.8928C253.741 81.3865 254.877 81.5523 255.982 81.367C256.823 81.1962 257.315 80.9466 257.342 81.0123Z" fill="#263238"/>
  <path d="M252.462 84.7956C252.409 84.7956 252.462 84.3883 252.343 83.7841C252.156 82.9946 251.834 82.2435 251.391 81.564C250.927 80.8702 250.51 80.146 250.143 79.3965C249.972 79.0866 249.882 78.7388 249.88 78.385C250.064 78.6739 250.224 78.977 250.36 79.2914C250.655 79.8432 251.161 80.5525 251.673 81.3867C252.144 82.097 252.454 82.9019 252.58 83.7447C252.656 84.0985 252.615 84.4676 252.462 84.7956Z" fill="#263238"/>
  <path d="M218.432 122.786C216.146 121.396 213.938 119.88 211.818 118.248C209.276 116.1 209.46 115.863 209.755 115.62C210.543 114.918 214.353 119.233 214.07 117.814C213.788 116.395 208.816 113.098 209.657 112.402C210.773 111.489 214.688 116.08 215.049 116.441C215.41 116.803 215.936 116.284 215.594 115.975C215.102 115.528 210.057 110.72 211.141 109.814C211.745 109.308 212.52 110.504 212.52 110.504C212.52 110.504 216.921 115.371 217.42 114.924C217.919 114.477 215.45 111.528 214.53 110.596C213.611 109.663 213.696 108.868 214.425 108.796C214.918 108.75 217.762 111.535 218.642 112.474C219.522 113.413 221.874 116.047 221.742 113.788C221.611 111.528 222.333 109.729 222.859 109.381C223.384 109.032 224.048 109.663 223.798 110.32C223.598 111.06 223.5 111.825 223.509 112.592C223.49 113.209 223.574 113.824 223.759 114.412C223.916 114.918 224.074 115.364 224.225 115.758L225.768 120.008L221.893 124.914L218.432 122.786Z" fill="#FFBE9D"/>
  <path d="M256.665 108.178C257.48 108.382 262.327 110.891 262.406 121.88C262.465 130.615 261.795 150.005 255.838 152.888C253.138 154.202 249.04 154.202 245.48 151.87C235.443 145.387 217.67 124.487 217.67 124.487L225.624 116.014C225.624 116.014 246.274 137.032 247.155 136.257C248.468 135.088 246.452 125.052 247.581 115.134C248.357 108.08 251.641 106.924 256.665 108.178Z" fill="#455A64"/>
  <path d="M225.611 116.316C225.571 116.37 225.525 116.419 225.473 116.461L225.046 116.881C224.671 117.243 224.12 117.781 223.423 118.504C221.441 120.551 219.619 122.746 217.972 125.072V124.921C223.581 130.642 231.765 138.964 240.849 148.218C242.995 150.259 245.612 151.737 248.468 152.52C249.813 152.894 251.226 152.957 252.599 152.704C253.906 152.415 255.118 151.803 256.127 150.924C257.967 149.239 259.313 147.084 260.021 144.691C260.649 142.605 261.072 140.462 261.283 138.294C261.815 134.353 262.097 131.069 262.222 128.855C262.287 127.738 262.32 126.885 262.347 126.28V125.624C262.338 125.549 262.338 125.474 262.347 125.4C262.357 125.477 262.357 125.554 262.347 125.63C262.347 125.794 262.347 126.018 262.347 126.287C262.347 126.878 262.347 127.745 262.287 128.868C262.202 131.108 261.959 134.353 261.453 138.333C261.257 140.52 260.846 142.683 260.225 144.79C259.515 147.236 258.153 149.443 256.284 151.174C255.238 152.092 253.978 152.731 252.619 153.033C251.198 153.296 249.736 153.233 248.343 152.849C245.428 152.058 242.756 150.555 240.566 148.474C231.45 139.207 223.332 130.826 217.762 125.092L217.689 125.019L217.749 124.94C219.419 122.621 221.273 120.44 223.292 118.418C224.008 117.715 224.606 117.19 224.967 116.835L225.414 116.448L225.611 116.316Z" fill="#263238"/>
  <path d="M225.618 116.014C225.618 116.014 225.663 116.014 225.729 116.106L226.038 116.415L227.214 117.604C228.232 118.642 229.723 120.126 231.595 121.945C233.467 123.765 235.726 125.932 238.274 128.31L242.294 132.034C243.706 133.308 245.164 134.661 246.728 135.936L246.458 136.067C246.504 135.292 246.55 134.471 246.596 133.643C246.859 129.302 247.102 125.164 247.325 121.4C247.463 119.522 247.496 117.729 247.7 116.054C247.851 114.488 248.283 112.961 248.974 111.548C249.547 110.373 250.416 109.368 251.496 108.632C252.322 108.091 253.271 107.768 254.255 107.692C254.872 107.641 255.494 107.717 256.081 107.916C256.287 107.976 256.483 108.065 256.665 108.178C256.665 108.178 256.462 108.093 256.061 107.981C255.477 107.815 254.866 107.761 254.261 107.824C253.309 107.922 252.395 108.254 251.601 108.789C250.568 109.528 249.736 110.515 249.184 111.66C248.526 113.053 248.117 114.552 247.976 116.086C247.792 117.742 247.772 119.535 247.641 121.413L246.938 133.656C246.892 134.484 246.839 135.312 246.8 136.08V136.415L246.544 136.211C244.941 134.898 243.509 133.584 242.097 132.271C240.685 130.957 239.358 129.722 238.084 128.527C235.549 126.129 233.302 123.929 231.45 122.11C229.598 120.29 228.133 118.747 227.141 117.683C226.636 117.157 226.268 116.737 226.012 116.448L225.729 116.126C225.644 116.054 225.611 116.014 225.618 116.014Z" fill="#263238"/>
  <path d="M221.177 127.994C221.46 127.491 221.797 127.02 222.182 126.589C222.839 125.755 223.772 124.618 224.842 123.39C225.913 122.162 226.905 121.078 227.64 120.31C228.016 119.871 228.437 119.473 228.895 119.121C228.58 119.605 228.219 120.059 227.818 120.474L225.098 123.613L222.366 126.747C222.01 127.199 221.612 127.617 221.177 127.994Z" fill="#263238"/>
  <path d="M248.521 141C248.114 140.197 247.78 139.359 247.522 138.497C247.151 137.677 246.852 136.827 246.629 135.955C247.603 137.487 248.247 139.205 248.521 141Z" fill="#263238"/>
  <path d="M250.327 139.601C249.554 139.124 248.843 138.553 248.212 137.899C247.507 137.321 246.874 136.66 246.327 135.929C247.811 136.978 249.155 138.212 250.327 139.601Z" fill="#263238"/>
  <path d="M53.5968 237.447L32.4997 256.488L26.7197 249.092L45.2092 226.189L53.5968 237.447Z" fill="#FFBE9D"/>
  <path d="M32.9857 257.204L33.7082 256.547L27.0481 248.37L24.0464 250.997L24.447 251.509C26.2402 253.788 33.7345 262.971 35.4553 264.035C37.3733 265.217 32.9857 257.204 32.9857 257.204Z" fill="#445FEB"/>
  <g opacity="0.5">
    <path opacity="0.5" d="M26.6276 253.795C27.19 253.094 27.471 252.209 27.4158 251.312C27.376 250.426 27.0003 249.587 26.3649 248.968L24.1646 250.938L26.6276 253.795Z" fill="white"/>
  </g>
  <path opacity="0.5" d="M35.0153 261.224C35.0153 261.224 36.4077 264.166 35.7575 264.212C35.1072 264.258 27.2188 255.266 24.0464 250.997L24.2369 250.853L33.3864 261.421C33.3864 261.421 34.5883 260.784 35.0153 261.224Z" fill="white"/>
  <path d="M24.1318 250.728C24.1615 250.779 24.1967 250.828 24.2369 250.872L24.5522 251.286L25.7542 252.77C26.7723 254.018 28.2107 255.719 29.833 257.565C31.4554 259.411 32.9661 261.053 34.0761 262.228L35.3897 263.608L35.751 263.976C35.7923 264.022 35.8386 264.064 35.8889 264.1L35.7707 263.956L35.4226 263.575C35.0744 263.187 34.6409 262.721 34.1089 262.169C33.0186 260.98 31.5211 259.332 29.8987 257.486C28.2764 255.641 26.8314 253.946 25.787 252.711L24.5588 251.253L24.2238 250.859C24.1979 250.812 24.1671 250.768 24.1318 250.728Z" fill="#263238"/>
  <path d="M33.2617 261.526C33.5535 261.377 33.8623 261.265 34.1813 261.191C34.5064 261.154 34.8348 261.154 35.1599 261.191C34.8552 261.024 34.4991 260.977 34.1616 261.06C33.8144 261.099 33.494 261.265 33.2617 261.526Z" fill="#263238"/>
  <path d="M32.3945 258.163C32.5651 258.203 32.7428 258.203 32.9134 258.163C33.1959 258.123 33.4192 258.058 33.4126 258.018C33.0649 257.989 32.7154 258.045 32.3945 258.182V258.163Z" fill="#263238"/>
  <path d="M32.1714 257.23C32.1714 257.23 32.3553 257.316 32.5983 257.342C32.8413 257.368 33.0384 257.342 33.045 257.342C33.0515 257.342 32.8545 257.256 32.6115 257.23C32.3684 257.204 32.1714 257.191 32.1714 257.23Z" fill="#263238"/>
  <path d="M32.5586 256.173C32.5586 256.173 32.6703 256.396 32.8673 256.626C33.0643 256.856 33.2483 257.027 33.2745 257C33.3008 256.974 33.1629 256.777 32.9593 256.547C32.7556 256.317 32.5849 256.147 32.5586 256.173Z" fill="#263238"/>
  <path d="M32.9595 255.568C32.9859 255.785 33.0802 255.987 33.2288 256.146C33.4455 256.429 33.6885 256.593 33.7082 256.567C33.728 256.54 33.5309 256.343 33.3339 256.068C33.2225 255.892 33.0973 255.725 32.9595 255.568Z" fill="#263238"/>
  <path d="M33.3139 257.828C33.4345 258.02 33.5879 258.189 33.7672 258.327C33.9487 258.492 34.1468 258.637 34.3583 258.761C34.4814 258.846 34.6164 258.912 34.759 258.958C34.8435 258.99 34.9371 258.99 35.0217 258.958C35.0673 258.933 35.1048 258.896 35.1293 258.85C35.1539 258.805 35.1644 258.753 35.1596 258.702C35.1087 258.525 35.0194 258.361 34.8982 258.222C34.7769 258.084 34.6266 257.974 34.458 257.9C34.2893 257.826 34.1065 257.79 33.9224 257.794C33.7383 257.799 33.5575 257.844 33.3928 257.926C33.3354 257.953 33.284 257.991 33.2417 258.038C33.4489 257.946 33.6719 257.895 33.8985 257.887C34.1305 257.884 34.3584 257.948 34.5553 258.071C34.6768 258.142 34.7826 258.236 34.8662 258.349C34.9498 258.462 35.0094 258.591 35.0414 258.728C35.0414 258.859 34.9363 258.912 34.8049 258.872C34.6753 258.824 34.5501 258.765 34.4305 258.695C34.2218 258.576 34.0221 258.442 33.8328 258.294C33.4979 258.005 33.3337 257.808 33.3139 257.828Z" fill="#263238"/>
  <path d="M33.4062 257.979C33.5661 257.948 33.7088 257.859 33.8069 257.729C33.9271 257.597 34.0128 257.437 34.0565 257.263C34.0981 257.154 34.1097 257.035 34.0901 256.919C34.0704 256.804 34.0203 256.696 33.9448 256.606C33.8874 256.566 33.8168 256.549 33.7472 256.558C33.6776 256.568 33.6144 256.604 33.5704 256.659C33.5012 256.742 33.4498 256.838 33.4193 256.941C33.3667 257.107 33.3358 257.28 33.3274 257.454C33.3025 257.61 33.3183 257.771 33.3734 257.92C33.3975 257.768 33.4107 257.614 33.4128 257.46C33.438 257.297 33.4776 257.137 33.531 256.981C33.577 256.816 33.728 256.6 33.866 256.705C33.915 256.782 33.9473 256.869 33.9609 256.959C33.9745 257.05 33.969 257.142 33.9448 257.23C33.9093 257.388 33.8398 257.536 33.7412 257.664C33.6385 257.778 33.5265 257.883 33.4062 257.979Z" fill="#263238"/>
  <path d="M26.4238 248.987C26.4238 248.987 26.6471 249.191 26.9164 249.585C27.2719 250.097 27.4787 250.697 27.5141 251.319C27.5371 251.939 27.3919 252.554 27.0938 253.099C26.8573 253.513 26.6406 253.756 26.6603 253.756C26.68 253.756 26.726 253.716 26.8179 253.618C26.9508 253.478 27.0676 253.324 27.166 253.158C27.5049 252.609 27.6698 251.97 27.6389 251.326C27.6022 250.68 27.3735 250.06 26.9821 249.546C26.8672 249.391 26.735 249.25 26.588 249.125C26.4961 249.02 26.4304 248.981 26.4238 248.987Z" fill="#263238"/>
  <path d="M28.2563 254.117C28.5058 254.568 28.8127 254.985 29.1693 255.358C29.4955 255.76 29.8731 256.118 30.2925 256.422C30.2925 256.422 29.8327 255.91 29.2744 255.273C28.7161 254.636 28.322 254.097 28.2563 254.117Z" fill="#263238"/>
  <path d="M26.9102 252.567C26.8708 252.567 26.838 252.705 26.7657 252.856C26.6935 253.007 26.6146 253.138 26.6409 253.164C26.6672 253.191 26.7985 253.092 26.8839 252.908C26.9693 252.724 26.943 252.567 26.9102 252.567Z" fill="#263238"/>
  <path d="M27.1205 251.345C27.0876 251.345 27.0482 251.463 27.0351 251.621C27.022 251.779 27.0351 251.904 27.0811 251.904C27.1271 251.904 27.1533 251.785 27.1665 251.628C27.1796 251.47 27.1533 251.345 27.1205 251.345Z" fill="#263238"/>
  <path d="M26.7197 250.222C26.7197 250.222 26.792 250.353 26.8511 250.504C26.9102 250.655 26.9233 250.793 26.9627 250.8C27.0022 250.807 27.0481 250.642 26.9627 250.458C26.8774 250.275 26.7329 250.189 26.7197 250.222Z" fill="#263238"/>
  <path d="M26.3516 249.493C26.3516 249.493 26.3516 249.585 26.3516 249.67C26.3516 249.756 26.4369 249.821 26.4698 249.808C26.5026 249.795 26.4698 249.716 26.4698 249.624C26.4698 249.532 26.3844 249.48 26.3516 249.493Z" fill="#263238"/>
  <path d="M91.1208 237.25L93.6627 266.012H82.7923L77.9976 237.25H91.1208Z" fill="#FFBE9D"/>
  <path d="M93.3471 266.281V265.316L82.792 265.27L82.9168 269.256H83.5736C86.4768 269.309 98.3258 269.335 100.237 268.678C102.3 267.969 93.3471 266.281 93.3471 266.281Z" fill="#445FEB"/>
  <g opacity="0.5">
    <path opacity="0.5" d="M86.6484 269.033C86.463 268.153 85.9574 267.374 85.2296 266.846C84.5149 266.326 83.6318 266.092 82.7534 266.189L82.8585 269.125L86.6484 269.033Z" fill="white"/>
  </g>
  <path opacity="0.5" d="M97.7154 267.26C97.7154 267.26 100.868 268.048 100.5 268.573C100.132 269.099 88.1521 269.526 82.8516 269.23V268.994L96.8287 268.619C96.8287 268.619 97.1045 267.312 97.7154 267.26Z" fill="white"/>
  <path d="M82.6938 269.02H82.8778H83.3966H85.3014C86.9172 269.02 89.1438 269.02 91.6003 268.909C94.0568 268.797 96.2834 268.698 97.8926 268.587L99.7974 268.442L100.316 268.39H100.494H100.316H99.7974L97.8861 268.495C96.2769 268.587 94.0568 268.698 91.6003 268.784C89.1438 268.869 86.9172 268.909 85.3014 268.928H83.3966H82.8778L82.6938 269.02Z" fill="#263238"/>
  <path d="M96.8351 268.81C96.9073 268.49 97.0152 268.179 97.1569 267.884C97.3462 267.61 97.5667 267.358 97.8138 267.135C97.4892 267.262 97.2259 267.509 97.0781 267.825C96.8784 268.112 96.7919 268.463 96.8351 268.81Z" fill="#263238"/>
  <path d="M93.6821 267.345C93.715 267.345 93.8595 267.181 94.004 266.931C94.1485 266.682 94.2404 266.472 94.2076 266.452C94.0737 266.568 93.9662 266.711 93.8923 266.872C93.7889 267.013 93.7172 267.174 93.6821 267.345Z" fill="#263238"/>
  <path d="M92.822 266.932C92.822 266.932 93.0059 266.84 93.1833 266.669C93.3606 266.498 93.4788 266.34 93.4526 266.321C93.4263 266.301 93.2686 266.406 93.0913 266.577C92.914 266.748 92.7957 266.892 92.822 266.932Z" fill="#263238"/>
  <path d="M92.2505 265.959C92.4262 266.017 92.6128 266.033 92.7956 266.005C92.9826 266.021 93.1707 265.996 93.3474 265.933C93.1701 265.873 92.9811 265.855 92.7956 265.881C92.4935 265.887 92.2505 265.92 92.2505 265.959Z" fill="#263238"/>
  <path d="M92.0337 265.263C92.2182 265.378 92.4339 265.433 92.6511 265.421C92.8756 265.457 93.106 265.42 93.3079 265.316C93.1027 265.294 92.8957 265.294 92.6905 265.316C92.4735 265.279 92.2537 265.262 92.0337 265.263Z" fill="#263238"/>
  <path d="M94.0044 266.419C94.2217 266.458 94.4439 266.458 94.6612 266.419C94.9049 266.38 95.1445 266.318 95.3771 266.235C95.5172 266.189 95.6516 266.128 95.7778 266.051C95.8573 266.002 95.9158 265.925 95.942 265.835C95.9499 265.785 95.9436 265.734 95.9239 265.687C95.9041 265.641 95.8717 265.601 95.8304 265.572C95.569 265.453 95.274 265.429 94.9968 265.504C94.7196 265.58 94.4777 265.75 94.3131 265.986C94.2123 266.122 94.1428 266.279 94.1095 266.446C94.0939 266.504 94.0939 266.565 94.1095 266.623C94.1759 266.415 94.2733 266.218 94.3985 266.038C94.5441 265.857 94.7375 265.721 94.9568 265.644C95.0847 265.591 95.222 265.563 95.3607 265.563C95.4994 265.563 95.6368 265.591 95.7647 265.644C95.8763 265.723 95.8369 265.848 95.7187 265.927C95.6012 265.994 95.4782 266.051 95.3509 266.097C95.1271 266.184 94.8964 266.253 94.6612 266.301C94.2671 266.386 94.0044 266.4 94.0044 266.419Z" fill="#263238"/>
  <path d="M94.1882 266.445C94.2614 266.301 94.2823 266.137 94.2473 265.979C94.2216 265.802 94.1515 265.635 94.0437 265.493C93.9859 265.393 93.9025 265.31 93.8022 265.252C93.7018 265.194 93.588 265.164 93.4723 265.165C93.4047 265.183 93.3467 265.227 93.3101 265.287C93.2735 265.346 93.2611 265.418 93.2752 265.486C93.2918 265.594 93.3346 265.695 93.4 265.782C93.493 265.928 93.6057 266.061 93.735 266.176C93.8416 266.296 93.9773 266.387 94.1291 266.439C94.1291 266.439 93.9912 266.321 93.7941 266.117C93.6852 265.994 93.5864 265.862 93.4986 265.723C93.4 265.578 93.3278 265.329 93.4986 265.289C93.6693 265.25 93.8467 265.434 93.9518 265.559C94.0513 265.686 94.1209 265.834 94.1554 265.992C94.1785 266.142 94.1895 266.294 94.1882 266.445Z" fill="#263238"/>
  <path d="M82.8384 266.143C82.8384 266.143 83.1405 266.104 83.6134 266.143C84.2352 266.197 84.8293 266.425 85.3277 266.8C85.8241 267.173 86.2082 267.675 86.4377 268.252C86.6151 268.698 86.6414 269.001 86.6676 268.994C86.6778 268.924 86.6778 268.853 86.6676 268.784C86.6392 268.594 86.5931 268.407 86.5297 268.225C86.3209 267.614 85.9316 267.08 85.4131 266.695C84.8917 266.316 84.2704 266.099 83.6266 266.071C83.4342 266.055 83.2409 266.055 83.0486 266.071C82.9749 266.083 82.9038 266.107 82.8384 266.143Z" fill="#263238"/>
  <path d="M87.9351 267.976C88.4413 268.073 88.9582 268.101 89.472 268.061C89.9879 268.065 90.5021 268.003 91.0024 267.877C91.0024 267.838 90.3127 267.91 89.4654 267.936C88.6182 267.963 87.9351 267.943 87.9351 267.976Z" fill="#263238"/>
  <path d="M85.8794 268.035C85.8794 268.035 85.9385 268.179 86.0173 268.331C86.0961 268.482 86.1356 268.626 86.1684 268.626C86.2012 268.626 86.2209 268.455 86.129 268.278C86.037 268.101 85.8991 268.009 85.8794 268.035Z" fill="#263238"/>
  <path d="M85.0713 267.102C85.0713 267.102 85.1173 267.234 85.2289 267.339C85.3406 267.444 85.4523 267.509 85.4785 267.483C85.5048 267.457 85.4325 267.352 85.3143 267.247C85.1961 267.142 85.091 267.076 85.0713 267.102Z" fill="#263238"/>
  <path d="M83.9481 266.695C83.9481 266.734 84.0926 266.728 84.2502 266.774C84.4078 266.82 84.5195 266.905 84.5458 266.879C84.572 266.853 84.4801 266.708 84.283 266.656C84.086 266.603 83.9349 266.669 83.9481 266.695Z" fill="#263238"/>
  <path d="M83.147 266.518C83.147 266.55 83.1995 266.603 83.2849 266.636C83.3703 266.669 83.4557 266.636 83.4688 266.636C83.482 266.636 83.4163 266.55 83.3309 266.518C83.2455 266.485 83.1601 266.485 83.147 266.518Z" fill="#263238"/>
  <path d="M72.0139 152.835C72.0139 152.835 80.5197 209.322 79.2849 212.074C78.0501 214.826 50.4965 243.01 50.4965 243.01L40.145 225.302C40.145 225.302 58.3783 205.105 58.1156 204.061C57.8529 203.016 44.9792 148.29 44.9792 148.29L72.0139 152.835Z" fill="#263238"/>
  <path d="M75.0419 173.696C74.9565 173.092 68.0928 157.663 68.0928 157.663L71.4228 152.96L72.014 152.835L75.0419 173.696Z" fill="#263238"/>
  <path d="M40.1449 147.515L39.626 149.61C38.1234 155.793 39.0645 162.318 42.2533 167.824L65.2945 207.778C66.9316 210.609 68.1234 213.675 68.8282 216.869L74.5754 242.721H93.4918C93.4918 242.721 91.1535 224.987 89.0714 212.054C87.495 202.287 74.4243 171.988 68.0926 157.643L72.0335 152.816L65.2223 151.679L40.1449 147.515Z" fill="#263238"/>
  <path d="M68.5918 157.551C68.8558 158.415 69.1784 159.26 69.5573 160.08C70.2141 161.624 71.0549 163.758 71.9744 166.129C72.894 168.5 73.7019 170.668 74.2799 172.231C74.5574 173.091 74.8909 173.931 75.2782 174.747C75.2544 174.502 75.1992 174.261 75.114 174.031C74.9892 173.584 74.7922 172.934 74.536 172.139C74.0171 170.55 73.2224 168.376 72.3291 165.991C71.4358 163.607 70.4966 161.492 69.8003 159.975C69.4522 159.213 69.1435 158.602 68.953 158.188C68.8615 157.961 68.74 157.747 68.5918 157.551Z" fill="#455A64"/>
  <path d="M70.661 224.718C70.6756 224.569 70.6756 224.42 70.661 224.271C70.6216 223.936 70.5756 223.516 70.5165 222.99C70.4511 222.313 70.3503 221.64 70.2143 220.974C70.0633 220.199 69.9188 219.299 69.6626 218.347C69.5444 217.861 69.4196 217.348 69.2882 216.823C69.1569 216.297 68.9729 215.752 68.8022 215.187C68.4869 214.051 68.0403 212.875 67.6068 211.627C66.5769 208.939 65.4039 206.308 64.0928 203.745C61.6646 199.137 58.976 194.67 56.0402 190.366C54.9302 188.711 54.0106 187.378 53.3669 186.465L52.6247 185.447C52.5413 185.322 52.4468 185.206 52.3423 185.098C52.3989 185.238 52.4717 185.37 52.559 185.492L53.2487 186.576C53.9055 187.555 54.7594 188.895 55.8234 190.517C57.9844 193.867 60.9663 198.517 63.7644 203.916C65.0566 206.457 66.2207 209.062 67.2521 211.719C67.6922 212.954 68.1519 214.123 68.4803 215.246C68.6511 215.805 68.8285 216.343 68.9795 216.869C69.1306 217.394 69.2488 217.893 69.3736 218.379C69.6495 219.338 69.8071 220.225 69.9779 221.007C70.1487 221.788 70.2669 222.452 70.3457 222.977C70.4245 223.503 70.5033 223.916 70.5625 224.245C70.5771 224.406 70.6102 224.564 70.661 224.718Z" fill="#455A64"/>
  <path d="M43.2517 165.939C43.2517 165.939 43.1992 165.88 43.1072 165.742L42.7065 165.085C43.0223 164.589 43.4353 164.162 43.9208 163.83C44.4062 163.498 44.954 163.268 45.5309 163.154C46.3935 162.96 47.2854 162.933 48.1581 163.075C49.183 163.254 50.1897 163.525 51.1664 163.883C52.2947 164.232 53.393 164.671 54.4505 165.197C55.6575 165.798 56.6068 166.815 57.1237 168.06C57.3817 168.74 57.4253 169.483 57.2485 170.188C57.033 170.872 56.7491 171.532 56.4012 172.159C56.046 172.77 55.8538 173.462 55.8429 174.169C55.9003 174.882 56.2267 175.546 56.7559 176.028C58.017 177.282 59.8824 177.512 61.4259 178.294C62.9323 179.056 64.1597 180.274 64.9333 181.775C65.6595 183.109 66.0006 184.619 65.9185 186.136C65.8409 187.458 65.4149 188.736 64.6837 189.841C63.6396 191.444 62.0805 192.644 60.2633 193.243C59.7739 193.397 59.2698 193.5 58.7592 193.552C58.5821 193.565 58.4043 193.565 58.2272 193.552C58.8957 193.454 59.5549 193.3 60.1976 193.092C61.9542 192.461 63.4514 191.264 64.4538 189.689C65.1465 188.616 65.5451 187.379 65.6098 186.103C65.6715 184.639 65.3332 183.186 64.6312 181.9C63.8779 180.464 62.6953 179.3 61.2485 178.569C60.5063 178.202 59.6722 177.952 58.838 177.637C57.9639 177.349 57.162 176.876 56.4866 176.251C55.8961 175.709 55.5344 174.962 55.4751 174.162C55.4869 173.399 55.6925 172.65 56.0728 171.988C56.4137 171.378 56.6931 170.736 56.907 170.07C57.0692 169.428 57.0279 168.751 56.7887 168.133C56.3084 166.954 55.4169 165.991 54.2797 165.42C53.2403 164.885 52.1597 164.435 51.0481 164.073C50.0931 163.706 49.1058 163.429 48.099 163.246C47.2577 163.091 46.3942 163.102 45.5571 163.279C44.997 163.382 44.4628 163.595 43.9849 163.905C43.5071 164.215 43.095 164.616 42.7722 165.085L43.1335 165.742C43.1801 165.803 43.2198 165.869 43.2517 165.939Z" fill="#FAFAFA"/>
  <path d="M91.0092 224.79C90.545 224.382 90.0198 224.05 89.4526 223.805C88.7759 223.539 88.0705 223.354 87.3507 223.253C86.5166 223.115 85.5445 223.03 84.4804 222.859C83.3013 222.69 82.1634 222.305 81.1241 221.723C79.1345 220.61 77.6172 218.812 76.8548 216.663C76.0923 214.515 76.1367 212.163 76.9796 210.044C77.6035 208.501 78.5428 207.161 78.8055 205.67C78.9719 204.211 78.7593 202.734 78.1881 201.381C77.6887 200.126 77.2632 198.843 76.9139 197.539C76.6306 196.375 76.6306 195.161 76.9139 193.998C77.3255 192.314 78.2757 190.811 79.62 189.716C80.1005 189.309 80.6469 188.987 81.2357 188.763C80.6996 189.074 80.188 189.426 79.7054 189.814C78.4292 190.923 77.5351 192.405 77.1503 194.051C76.878 195.177 76.878 196.353 77.1503 197.479C77.5157 198.769 77.9543 200.036 78.464 201.276C79.0644 202.676 79.2907 204.208 79.1208 205.723C78.8449 207.319 77.8794 208.678 77.2883 210.176C76.4738 212.218 76.4241 214.485 77.1481 216.561C77.8722 218.636 79.3214 220.381 81.2292 221.473C82.2444 222.054 83.3575 222.443 84.5133 222.622C85.5642 222.806 86.5363 222.905 87.377 223.063C88.1088 223.192 88.8215 223.413 89.4985 223.719C89.9248 223.91 90.3208 224.163 90.6742 224.468C90.9041 224.659 91.0224 224.777 91.0092 224.79Z" fill="#FAFAFA"/>
  <path d="M82.1817 243.634C82.116 243.634 82.0963 242.78 81.7547 241.46C81.5542 240.689 81.2793 239.938 80.9337 239.22C80.5018 238.345 79.9801 237.518 79.377 236.751C78.7593 235.994 78.0637 235.305 77.3015 234.695C76.6753 234.193 76.0023 233.753 75.2916 233.381C74.0765 232.764 73.2424 232.56 73.2621 232.494C73.4641 232.497 73.6642 232.535 73.8532 232.606C74.0771 232.657 74.2967 232.725 74.51 232.81C74.8065 232.909 75.0961 233.027 75.377 233.164C76.1207 233.506 76.8253 233.926 77.4788 234.419C79.083 235.633 80.3604 237.226 81.1964 239.056C81.5371 239.799 81.7969 240.576 81.9715 241.375C82.0447 241.679 82.0973 241.989 82.1291 242.301C82.1667 242.533 82.1843 242.768 82.1817 243.003C82.2184 243.212 82.2184 243.425 82.1817 243.634Z" fill="#FAFAFA"/>
  <path d="M72.4734 169.334C72.4734 169.334 72.388 169.334 72.2173 169.387C71.9668 169.423 71.7147 169.444 71.4619 169.453C70.5331 169.483 69.6045 169.384 68.7033 169.157C67.358 168.833 66.0843 168.263 64.9463 167.476C63.528 166.528 62.3618 165.25 61.5481 163.751C60.7345 162.251 60.298 160.577 60.2763 158.871C60.2453 157.487 60.4679 156.109 60.9331 154.806C61.2375 153.926 61.6619 153.093 62.1942 152.329C62.3345 152.123 62.488 151.925 62.654 151.738C62.7656 151.607 62.8313 151.541 62.8379 151.548C62.1384 152.583 61.5755 153.705 61.163 154.884C60.7469 156.169 60.5602 157.516 60.6113 158.865C60.6464 160.513 61.0719 162.13 61.8528 163.582C62.6338 165.035 63.7479 166.281 65.1039 167.22C66.2055 167.997 67.4348 168.575 68.7361 168.927C69.9586 169.227 71.2152 169.364 72.4734 169.334Z" fill="#FAFAFA"/>
  <path d="M55.6328 206.189C55.7599 206.233 55.8829 206.288 56.0006 206.353C56.2436 206.465 56.5851 206.655 57.0186 206.911C58.2459 207.655 59.333 208.609 60.2305 209.729C60.8505 210.515 61.3264 211.404 61.6361 212.356C61.9799 213.459 62.0565 214.627 61.8594 215.765C61.6627 217.041 61.0537 218.218 60.1254 219.115C59.1533 220.061 57.728 220.376 56.9004 221.414C56.0728 222.452 55.8889 223.811 55.7641 225.079C55.7241 226.339 55.5028 227.586 55.1073 228.783C54.662 229.865 53.8505 230.755 52.815 231.299C51.9348 231.779 50.9638 232.07 49.9644 232.153C48.5325 232.232 47.097 232.09 45.7082 231.732C45.2156 231.614 44.8412 231.516 44.5851 231.443C44.4533 231.418 44.3253 231.376 44.2041 231.319C44.3393 231.325 44.4735 231.345 44.6048 231.378L45.7345 231.601C47.1135 231.906 48.5294 232.01 49.9381 231.91C50.8982 231.817 51.8285 231.526 52.6705 231.056C53.6415 230.532 54.4006 229.687 54.8183 228.665C55.1879 227.493 55.3934 226.275 55.4291 225.046C55.4774 224.382 55.5785 223.723 55.7313 223.076C55.8855 222.388 56.1956 221.746 56.6377 221.197C57.5835 220.061 59.0154 219.752 59.9218 218.872C60.7997 218.028 61.3785 216.921 61.5704 215.719C61.7653 214.625 61.7023 213.501 61.3865 212.435C61.0974 211.515 60.6531 210.651 60.0729 209.88C59.2055 208.766 58.1603 207.803 56.9792 207.029C56.5654 206.754 56.2305 206.55 56.0006 206.419C55.8689 206.357 55.7454 206.28 55.6328 206.189Z" fill="#FAFAFA"/>
  <path d="M57.6492 70.2798C54.0038 69.3734 50.0826 71.6526 48.2698 74.9367C46.457 78.2208 46.4373 82.2471 47.2911 85.899C47.6524 87.4294 48.1581 89.0123 47.8034 90.5493C47.4225 92.1979 46.1088 93.4787 45.4783 95.055C44.2763 98.0961 45.8067 101.466 47.3043 104.369C47.9611 105.682 48.8609 107.16 50.3191 107.449C51.9545 107.771 53.393 106.464 54.7723 105.525C57.207 103.882 60.1703 103.214 63.0745 103.653C66.3586 104.159 69.3274 106.044 72.6246 106.103C74.1181 106.113 75.5903 105.749 76.9065 105.043C78.2227 104.338 79.3408 103.313 80.1584 102.063C81.137 100.533 81.472 98.2275 80.0598 97.0977C79.1271 96.3555 77.7018 96.3818 76.8808 95.5148C75.8825 94.4573 76.316 92.7562 76.8283 91.4031C77.3406 90.0501 77.8529 88.3949 76.9399 87.2652C75.9219 85.9909 73.715 86.234 72.7429 84.9269C71.7708 83.6198 72.7954 81.6428 72.7429 79.9088C72.6783 79.1452 72.4422 78.406 72.0521 77.7463C71.662 77.0867 71.128 76.5237 70.49 76.0992C69.2552 75.1994 69.0844 74.9104 67.3832 71.8168" fill="#263238"/>
  <path d="M52.5656 100.316L65.702 101.439C65.702 101.439 75.2718 100.04 78.9369 124.31L93.4789 123.712L94.1357 133.38L74.1355 134.365L71.7775 132.953L72.014 152.835L38.93 150.398C39.6788 145.886 43.2059 139.948 44.3882 136.139C43.1862 133.131 36.5392 120.868 36.2108 114.569C35.3175 97.3209 52.5656 100.316 52.5656 100.316Z" fill="#445FEB"/>
  <path opacity="0.3" d="M73.2553 118.109C73.2553 118.109 75.5804 120.736 75.6199 122.95C75.679 126.497 74.7857 128.316 75.8957 132.191L72.7299 132.953C72.7299 132.953 72.2438 132.007 72.6576 129.984C73.0714 127.961 73.8727 125.498 74.2274 123.298C74.5422 121.508 74.1968 119.664 73.2553 118.109Z" fill="black"/>
  <path d="M72.7296 132.953C72.6325 132.704 72.5664 132.444 72.5325 132.178C72.4393 131.455 72.4393 130.722 72.5325 129.998C72.673 128.934 72.8925 127.883 73.1893 126.852C73.5626 125.607 73.8523 124.339 74.0563 123.055C74.2511 121.785 74.1131 120.486 73.6557 119.285C73.2362 118.324 72.6639 117.436 71.9611 116.658C70.7657 115.298 69.9184 114.543 69.9906 114.497C70.2147 114.64 70.4237 114.805 70.6146 114.989C71.1618 115.463 71.6815 115.967 72.1713 116.5C72.9229 117.285 73.5339 118.194 73.9775 119.187C74.4754 120.437 74.6274 121.798 74.4176 123.127C74.2176 124.427 73.9167 125.71 73.5177 126.963C73.2069 127.978 72.959 129.011 72.7755 130.057C72.6652 130.763 72.6278 131.478 72.6639 132.192C72.7122 132.443 72.7342 132.698 72.7296 132.953Z" fill="#263238"/>
  <g opacity="0.2">
    <path opacity="0.2" d="M73.1633 132.704L63.3635 132.927C62.5868 133.001 61.8034 132.909 61.0647 132.658C60.0335 132.224 59.3701 131.22 58.7921 130.261C57.0712 127.423 55.4949 124.507 54.063 121.512C54.063 121.512 56.6509 129.742 58.2732 133.334C58.4308 133.788 58.7566 134.163 59.1832 134.383C59.6099 134.603 60.1047 134.651 60.5655 134.517C64.8303 134.525 69.0737 133.914 73.1633 132.704Z" fill="black"/>
  </g>
  <path d="M137.229 111.029C138.674 110.926 140.122 111.195 141.433 111.811C141.992 112.083 142.604 112.227 143.226 112.231H144.829V91.6396C144.829 91.2241 144.747 90.8128 144.588 90.4291C144.428 90.0453 144.195 89.6967 143.901 89.4033C143.607 89.1098 143.258 88.8773 142.874 88.7189C142.49 88.5605 142.078 88.4794 141.663 88.4803H121.157V87.0878C121.164 86.4425 121.316 85.807 121.604 85.229C122.385 83.6279 122.637 81.8204 122.326 80.0664C121.962 77.958 120.819 76.0633 119.124 74.7572C117.429 73.4512 115.306 72.8292 113.174 73.0142C111.042 73.1992 109.058 74.1778 107.613 75.7562C106.169 77.3347 105.369 79.398 105.374 81.5377C105.374 82.7212 105.622 83.8915 106.103 84.9729C106.346 85.5145 106.475 86.1001 106.484 86.6937V88.4803H86.4835C85.6456 88.4803 84.842 88.8131 84.2496 89.4056C83.6571 89.9981 83.3242 90.8017 83.3242 91.6396V147.266C83.3242 147.604 83.3908 147.939 83.5202 148.251C83.6496 148.563 83.8392 148.847 84.0783 149.086C84.3174 149.325 84.6013 149.515 84.9136 149.644C85.226 149.774 85.5608 149.84 85.8989 149.84H142.254C142.936 149.839 143.59 149.567 144.073 149.084C144.555 148.602 144.827 147.948 144.829 147.266V127.16H142.55C142.023 127.161 141.501 127.264 141.013 127.463C140.003 127.874 138.924 128.086 137.834 128.086C135.569 128.167 133.365 127.344 131.707 125.799C130.049 124.255 129.073 122.115 128.993 119.85C128.913 117.585 129.735 115.382 131.28 113.724C132.825 112.066 134.965 111.089 137.229 111.009V111.029Z" fill="#445FEB"/>
  <path opacity="0.2" d="M137.229 111.029C138.674 110.926 140.122 111.195 141.433 111.811C141.992 112.083 142.604 112.227 143.226 112.231H144.829V91.6396C144.829 91.2241 144.747 90.8128 144.588 90.4291C144.428 90.0453 144.195 89.6967 143.901 89.4033C143.607 89.1098 143.258 88.8773 142.874 88.7189C142.49 88.5605 142.078 88.4794 141.663 88.4803H121.157V87.0878C121.164 86.4425 121.316 85.807 121.604 85.229C122.385 83.6279 122.637 81.8204 122.326 80.0664C121.962 77.958 120.819 76.0633 119.124 74.7572C117.429 73.4512 115.306 72.8292 113.174 73.0142C111.042 73.1992 109.058 74.1778 107.613 75.7562C106.169 77.3347 105.369 79.398 105.374 81.5377C105.374 82.7212 105.622 83.8915 106.103 84.9729C106.346 85.5145 106.475 86.1001 106.484 86.6937V88.4803H86.4835C85.6456 88.4803 84.842 88.8131 84.2496 89.4056C83.6571 89.9981 83.3242 90.8017 83.3242 91.6396V147.266C83.3242 147.604 83.3908 147.939 83.5202 148.251C83.6496 148.563 83.8392 148.847 84.0783 149.086C84.3174 149.325 84.6013 149.515 84.9136 149.644C85.226 149.774 85.5608 149.84 85.8989 149.84H142.254C142.936 149.839 143.59 149.567 144.073 149.084C144.555 148.602 144.827 147.948 144.829 147.266V127.16H142.55C142.023 127.161 141.501 127.264 141.013 127.463C140.003 127.874 138.924 128.086 137.834 128.086C135.569 128.167 133.365 127.344 131.707 125.799C130.049 124.255 129.073 122.115 128.993 119.85C128.913 117.585 129.735 115.382 131.28 113.724C132.825 112.066 134.965 111.089 137.229 111.009V111.029Z" fill="white"/>
  <path d="M52.3882 100.776L51.3701 77.5902L60.5656 70.6147L68.9335 74.7067C68.9335 74.7067 69.2159 85.2158 68.9335 89.7742C68.651 94.3325 64.0599 94.8185 64.0599 94.8185C64.0599 94.8185 64.1715 97.4852 64.2766 100.29C64.3069 101.095 64.1734 101.898 63.8843 102.651C63.5951 103.403 63.1564 104.089 62.5945 104.667C62.0327 105.244 61.3595 105.702 60.6156 106.012C59.8717 106.322 59.0726 106.478 58.2667 106.471C56.7449 106.452 55.2879 105.851 54.1947 104.792C53.1016 103.734 52.4552 102.296 52.3882 100.776Z" fill="#FFBE9D"/>
  <path d="M68.0402 82.3651C68.0402 82.4807 68.0059 82.5937 67.9417 82.6899C67.8775 82.786 67.7862 82.8609 67.6794 82.9052C67.5726 82.9494 67.455 82.961 67.3416 82.9384C67.2282 82.9159 67.1241 82.8602 67.0423 82.7784C66.9606 82.6967 66.9049 82.5925 66.8823 82.4791C66.8598 82.3657 66.8713 82.2482 66.9156 82.1414C66.9598 82.0346 67.0348 81.9433 67.1309 81.879C67.227 81.8148 67.34 81.7805 67.4557 81.7805C67.6107 81.7805 67.7594 81.8421 67.869 81.9517C67.9786 82.0614 68.0402 82.21 68.0402 82.3651Z" fill="#263238"/>
  <path d="M68.6053 81.7282C68.5265 81.807 68.0995 81.4392 67.469 81.4064C66.8384 81.3735 66.3721 81.6757 66.3064 81.5903C66.2407 81.5049 66.3524 81.4129 66.556 81.275C66.8325 81.0929 67.1605 81.0054 67.4909 81.0255C67.8213 81.0457 68.1363 81.1724 68.3885 81.3867C68.579 81.5509 68.6381 81.6691 68.6053 81.7282Z" fill="#263238"/>
  <path d="M61.2814 82.3651C61.2814 82.4807 61.2472 82.5937 61.1829 82.6899C61.1187 82.786 61.0274 82.8609 60.9206 82.9052C60.8138 82.9494 60.6962 82.961 60.5828 82.9384C60.4694 82.9159 60.3653 82.8602 60.2835 82.7784C60.2018 82.6967 60.1461 82.5925 60.1235 82.4791C60.101 82.3657 60.1126 82.2482 60.1568 82.1414C60.201 82.0346 60.276 81.9433 60.3721 81.879C60.4682 81.8148 60.5813 81.7805 60.6969 81.7805C60.8519 81.7805 61.0006 81.8421 61.1102 81.9517C61.2199 82.0614 61.2814 82.21 61.2814 82.3651Z" fill="#263238"/>
  <path d="M61.6429 81.7281C61.5641 81.8069 61.1371 81.4391 60.5066 81.4062C59.876 81.3734 59.4097 81.6755 59.344 81.5901C59.2783 81.5047 59.39 81.4128 59.5936 81.2748C59.8626 81.093 60.1822 81.0011 60.5066 81.0121C60.8373 81.0337 61.1526 81.1602 61.4064 81.3734C61.6166 81.5507 61.6757 81.6689 61.6429 81.7281Z" fill="#263238"/>
  <path d="M64.0796 94.8054C61.9141 94.7134 59.8198 94.0047 58.0435 92.7627C58.0435 92.7627 59.5541 96.1716 64.1256 95.9877L64.0796 94.8054Z" fill="#EB996E"/>
  <path d="M63.9088 87.0352C64.2443 86.9531 64.588 86.909 64.9334 86.9038C65.0911 86.9038 65.2487 86.9038 65.2881 86.7593C65.3063 86.5833 65.2745 86.4057 65.1962 86.247C65.0604 85.8398 64.9159 85.4019 64.7627 84.9334C64.4671 84.0073 64.2109 83.1665 64.0336 82.5557C63.9174 82.2288 63.8402 81.8892 63.8037 81.5442C63.9761 81.8439 64.1107 82.1638 64.2044 82.4966C64.4211 83.1008 64.7101 83.9284 65.0057 84.8546L65.4195 86.1682C65.5141 86.3739 65.5349 86.6058 65.4786 86.825C65.4554 86.8809 65.4196 86.9308 65.3741 86.9706C65.3285 87.0105 65.2744 87.0393 65.2159 87.0549C65.1241 87.0634 65.0318 87.0634 64.94 87.0549C64.5967 87.0896 64.2505 87.083 63.9088 87.0352Z" fill="#263238"/>
  <path d="M63.4426 87.5803C63.1961 87.6453 62.9701 87.7718 62.7858 87.9481C62.6725 88.044 62.5979 88.1778 62.576 88.3245C62.5541 88.4713 62.5864 88.6211 62.6669 88.7458C62.7473 88.8705 62.8705 88.9616 63.0132 89.0022C63.156 89.0428 63.3086 89.03 63.4426 88.9662C63.5629 88.94 63.6761 88.8884 63.7747 88.8147C63.8733 88.7411 63.9549 88.6472 64.0141 88.5393C64.0693 88.4268 64.0913 88.3009 64.0773 88.1764C64.0634 88.0518 64.0141 87.9339 63.9353 87.8365C63.8532 87.748 63.7435 87.69 63.6241 87.6721C63.5048 87.6542 63.3829 87.6775 63.2784 87.738" fill="#EB996E"/>
  <path d="M64.2568 88.4866C64.2568 88.5786 63.7379 88.7231 63.1796 88.4012C62.6213 88.0794 62.4702 87.5474 62.5622 87.5277C62.6541 87.508 62.8906 87.8561 63.3504 88.1057C63.8101 88.3553 64.2436 88.3881 64.2568 88.4866Z" fill="#263238"/>
  <path d="M61.078 69.7083C60.1127 69.6748 59.1519 69.8547 58.2641 70.235C57.3763 70.6153 56.5833 71.1868 55.9416 71.9086C54.6673 73.383 54.0192 75.2967 54.1354 77.242C54.1224 77.9728 54.3535 78.687 54.7922 79.2716C55.449 80.0269 56.559 80.178 57.564 80.2765C58.5846 80.4656 59.6354 80.4116 60.6313 80.1189C61.6034 79.7445 62.4113 78.7396 62.1945 77.7281C61.7151 78.3849 62.1157 79.357 62.7988 79.7708C63.5217 80.1253 64.3293 80.2709 65.1305 80.1911H68.5723C68.965 80.2299 69.36 80.145 69.702 79.9481C69.8858 79.7611 70.0305 79.5393 70.1274 79.2957C70.2244 79.0521 70.2718 78.7915 70.2669 78.5294C70.4508 76.6968 70.6215 74.7461 69.7808 73.1106C68.9456 71.6616 67.5832 70.591 65.9778 70.1221C64.408 69.6032 62.6937 69.8397 61.0582 69.7346" fill="#263238"/>
  <path d="M51.37 100.119C52.6245 100.776 55.0022 98.1881 55.7772 96.9992C56.4672 95.7466 56.6995 94.2928 56.434 92.8875C56.2698 91.4754 55.8954 90.0895 55.8626 88.6707C55.8166 86.3719 56.6836 84.1715 57.0909 81.9055C57.5277 79.4406 57.4224 76.9101 56.7822 74.49C56.5326 73.5508 56.1253 72.5196 55.2058 72.1649C54.8215 72.0366 54.4101 72.0122 54.0133 72.0941C53.6165 72.176 53.2484 72.3613 52.9463 72.6312C52.3517 73.1797 51.8852 73.8524 51.5801 74.6017L50.8511 80.1321L51.3962 87.876L51.37 100.119Z" fill="#263238"/>
  <path d="M84.4345 129.282L87.7842 140.711C87.7842 140.711 70.2537 147.088 60.7627 146.97C51.8628 146.865 49.3143 145.854 46.1879 138.668C43.0614 131.482 39.4883 123.233 38.7592 118.484C38.7592 118.484 31.6065 98.6348 50.7593 100.592L53.3866 115.699C53.3866 115.699 55.5081 122.707 55.6592 123.114C57.0911 126.898 58.9433 132.441 60.7364 133.111C62.5295 133.781 84.4345 129.282 84.4345 129.282Z" fill="#445FEB"/>
  <path d="M84.4342 129.282C84.2857 129.338 84.1315 129.377 83.9745 129.4L82.6608 129.682C81.4917 129.925 79.7971 130.287 77.6953 130.773C75.5934 131.259 73.0975 131.856 70.2338 132.382C67.1241 132.999 63.9588 133.291 60.7887 133.255H60.6771L60.6377 133.15C60.2764 132.211 59.8955 131.219 59.5342 130.208C57.012 123.121 55.0941 116.605 53.544 111.942C52.7755 109.603 52.1319 107.718 51.6721 106.424C51.4553 105.768 51.278 105.301 51.1466 104.933C51.0753 104.762 51.0204 104.583 50.9824 104.401C50.9824 104.401 51.0678 104.572 51.2123 104.907C51.3568 105.242 51.5539 105.735 51.7969 106.378C52.2961 107.659 52.9726 109.531 53.7673 111.863C55.3831 116.513 57.3404 123.029 59.8561 130.09C60.2173 131.101 60.5917 132.06 60.9529 133.026L60.7953 132.92C63.9438 132.96 67.0882 132.682 70.1812 132.093C73.0187 131.581 75.5343 130.996 77.6493 130.556C79.7642 130.116 81.4588 129.774 82.6411 129.564L83.9942 129.347C84.1396 129.318 84.2865 129.296 84.4342 129.282Z" fill="#263238"/>
  <path d="M87.7842 140.711C87.6212 140.805 87.4497 140.884 87.2719 140.947C86.9304 141.091 86.4246 141.289 85.7678 141.532C84.4542 142.018 82.5231 142.661 80.1126 143.364C77.7021 144.067 74.8186 144.835 71.6068 145.65C68.1323 146.619 64.5702 147.242 60.9729 147.509C60.0222 147.554 59.0695 147.53 58.1223 147.436C57.1947 147.351 56.2801 147.16 55.3965 146.865C53.7416 146.266 52.2247 145.339 50.9367 144.139C48.8056 142.083 47.0301 139.688 45.6821 137.052C44.4998 134.839 43.7117 132.973 43.1468 131.679C42.8775 131.022 42.6739 130.53 42.5425 130.182C42.4631 130.013 42.3993 129.837 42.3521 129.656C42.4524 129.814 42.536 129.981 42.6016 130.155C42.7658 130.523 42.9892 131.009 43.2585 131.627C43.843 132.901 44.6772 134.747 45.8857 136.94C47.248 139.531 49.0227 141.882 51.1403 143.903C52.4034 145.058 53.8837 145.951 55.495 146.53C56.3471 146.811 57.2286 146.994 58.1223 147.075C59.0541 147.168 59.9915 147.193 60.9269 147.147C64.5007 146.884 68.0402 146.272 71.4951 145.321C74.7135 144.527 77.6035 143.791 80.0338 143.114C82.464 142.438 84.3819 141.801 85.7087 141.387L87.2325 140.862C87.4123 140.797 87.5967 140.747 87.7842 140.711Z" fill="#263238"/>
  <path opacity="0.2" d="M45.5308 136.934C45.5308 136.934 48.8149 149.545 57.3535 149.288C65.8922 149.032 73.9119 145.38 73.9119 145.38L73.531 144.986C73.531 144.986 59.0809 148.1 55.0678 146.142C47.4421 142.438 45.5308 136.934 45.5308 136.934Z" fill="black"/>
  <path d="M86.5951 139.397H89.2815C91.7183 139.16 93.0779 139.121 93.761 138.477C94.674 137.604 93.4195 136.756 93.4195 136.756C93.4195 136.756 95.1797 136.146 95.0155 135.075C94.9039 134.339 94.0697 134.26 94.0697 134.26C94.0697 134.26 95.6264 133.65 95.9351 132.999C96.3489 132.119 95.2783 131.646 95.2783 131.646C97.3998 130.333 97.2093 129.019 96.7167 128.914C96.2241 128.809 94.5755 129.571 94.5755 129.571C93.1764 129.971 89.3603 131.134 90.7725 129.032C92.1846 126.93 92.4802 124.783 92.1584 124.145C92.0684 124.007 91.9374 123.9 91.7836 123.839C91.6299 123.778 91.4611 123.767 91.3006 123.807C91.1402 123.847 90.9962 123.935 90.8885 124.061C90.7809 124.186 90.7151 124.342 90.7002 124.507C90.4823 125.333 90.1484 126.125 89.7084 126.858C89.3764 127.462 88.9457 128.006 88.4342 128.467C87.8365 128.999 87.3045 129.426 86.8513 129.781L84.4604 132.08L86.5951 139.397Z" fill="#FFBE9D"/>
</svg>
