<svg width="44" height="44" viewBox="0 0 44 44" fill="none" xmlns="http://www.w3.org/2000/svg">
  <path d="M34.6867 11.0184C34.32 9.93675 33.2933 9.16675 32.0833 9.16675H11.9167C10.7067 9.16675 9.69833 9.93675 9.31333 11.0184L5.5 22.0001V36.6667C5.5 37.6751 6.325 38.5001 7.33333 38.5001H9.16667C10.175 38.5001 11 37.6751 11 36.6667V34.8334H33V36.6667C33 37.6751 33.825 38.5001 34.8333 38.5001H36.6667C37.675 38.5001 38.5 37.6751 38.5 36.6667V22.0001L34.6867 11.0184ZM12.5583 12.8334H31.4233L33.4033 18.5351H10.5783L12.5583 12.8334ZM34.8333 31.1667H9.16667V22.0001H34.8333V31.1667Z" fill="black"/>
  <path d="M13.75 29.3333C15.2688 29.3333 16.5 28.102 16.5 26.5833C16.5 25.0645 15.2688 23.8333 13.75 23.8333C12.2312 23.8333 11 25.0645 11 26.5833C11 28.102 12.2312 29.3333 13.75 29.3333Z" fill="black"/>
  <path d="M30.25 29.3333C31.7688 29.3333 33 28.102 33 26.5833C33 25.0645 31.7688 23.8333 30.25 23.8333C28.7312 23.8333 27.5 25.0645 27.5 26.5833C27.5 28.102 28.7312 29.3333 30.25 29.3333Z" fill="black"/>
</svg>
