<svg width="515" height="515" viewBox="0 0 515 515" fill="none" xmlns="http://www.w3.org/2000/svg">
  <path d="M515 393.872H0V394.13H515V393.872Z" fill="#E0E0E0"/>
  <path d="M458.947 400.495H425.215V400.752H458.947V400.495Z" fill="#E0E0E0"/>
  <path d="M340.178 406.088H298.031V406.345H340.178V406.088Z" fill="#E0E0E0"/>
  <path d="M356.256 406.088H346.492V406.345H356.256V406.088Z" fill="#E0E0E0"/>
  <path d="M135.62 403.132H95.9651V403.389H135.62V403.132Z" fill="#E0E0E0"/>
  <path d="M214.755 403.132H179.395V403.389H214.755V403.132Z" fill="#E0E0E0"/>
  <path d="M415.244 400.495H379.277V400.752H415.244V400.495Z" fill="#E0E0E0"/>
  <path d="M87.55 403.132H53.1995V403.389H87.55V403.132Z" fill="#E0E0E0"/>
  <path d="M244.11 347.934H45.2273C43.6693 347.931 42.176 347.31 41.0753 346.208C39.9745 345.105 39.3563 343.611 39.3563 342.053V62.4797C39.3699 60.9306 39.9941 59.4494 41.0934 58.3579C42.1926 57.2663 43.6782 56.6526 45.2273 56.6499H244.11C245.67 56.6499 247.166 57.2695 248.269 58.3725C249.372 59.4755 249.991 60.9714 249.991 62.5312V342.053C249.991 343.612 249.372 345.108 248.269 346.211C247.166 347.314 245.67 347.934 244.11 347.934ZM45.2273 56.8559C43.7376 56.8586 42.3098 57.4523 41.2574 58.5067C40.2049 59.5611 39.6138 60.99 39.6138 62.4797V342.053C39.6138 343.542 40.2049 344.971 41.2574 346.026C42.3098 347.08 43.7376 347.674 45.2273 347.676H244.11C245.601 347.674 247.03 347.08 248.084 346.026C249.138 344.972 249.731 343.543 249.734 342.053V62.4797C249.731 60.989 249.138 59.5602 248.084 58.5061C247.03 57.452 245.601 56.8586 244.11 56.8559H45.2273Z" fill="#E0E0E0"/>
  <path d="M466.909 347.934H268.016C266.457 347.931 264.963 347.311 263.861 346.208C262.758 345.106 262.138 343.612 262.135 342.053V62.4797C262.151 60.9297 262.778 59.4485 263.879 58.3572C264.98 57.266 266.466 56.6525 268.016 56.6499H466.909C468.457 56.6553 469.94 57.2702 471.037 58.3615C472.134 59.4527 472.756 60.9324 472.77 62.4797V342.053C472.77 343.609 472.153 345.102 471.055 346.204C469.956 347.306 468.466 347.928 466.909 347.934ZM268.016 56.8559C266.526 56.8586 265.097 57.452 264.043 58.5061C262.989 59.5602 262.395 60.989 262.393 62.4797V342.053C262.395 343.543 262.989 344.972 264.043 346.026C265.097 347.08 266.526 347.674 268.016 347.676H466.909C468.4 347.674 469.829 347.08 470.883 346.026C471.937 344.972 472.53 343.543 472.533 342.053V62.4797C472.53 60.989 471.937 59.5602 470.883 58.5061C469.829 57.452 468.4 56.8586 466.909 56.8559H268.016Z" fill="#E0E0E0"/>
  <path d="M156.972 147.589L177.757 127.081L173.421 118.656C173.802 117.822 174.163 116.977 174.451 116.112L183.515 113.351L183.721 84.1406L174.688 81.2463C174.358 80.3914 174.018 79.5365 173.658 78.6919L178.19 70.3077L157.693 49.512L149.257 53.8586C148.413 53.4672 147.568 53.117 146.703 52.8286L143.942 43.7646L114.742 43.5586L111.806 52.5299C110.941 52.8492 110.086 53.1891 109.242 53.5599L100.868 49.1L80.0722 69.6279L84.46 78.0636C84.0789 78.8979 83.7184 79.7528 83.43 80.6077L74.2733 83.4299L74.0673 112.63L83.1004 115.525C83.4197 116.39 83.7596 117.245 84.1304 118.089L79.6705 126.453L100.178 147.249L108.613 142.912C109.448 143.294 110.303 143.654 111.158 143.942L113.928 153.017L143.129 153.212L146.023 144.179C146.888 143.86 147.743 143.52 148.588 143.149L156.972 147.589ZM144.2 113.825C141.139 116.843 137.252 118.885 133.031 119.694C128.809 120.503 124.443 120.042 120.483 118.369C116.524 116.696 113.149 113.887 110.786 110.296C108.424 106.705 107.179 102.495 107.209 98.1965C107.239 93.8983 108.543 89.7056 110.956 86.1485C113.369 82.5914 116.783 79.8298 120.766 78.2129C124.748 76.5959 129.121 76.1962 133.331 77.0643C137.54 77.9324 141.398 80.0294 144.416 83.09C146.421 85.1216 148.007 87.5285 149.081 90.173C150.156 92.8176 150.698 95.648 150.678 98.5024C150.658 101.357 150.076 104.179 148.964 106.809C147.852 109.438 146.234 111.822 144.2 113.825Z" fill="#F0F0F0"/>
  <path d="M78.0019 201.88L91.67 188.49L88.8272 182.959C89.0744 182.403 89.3113 181.846 89.5276 181.28L95.4913 179.467L95.6252 160.289L89.6924 158.393C89.4761 157.827 89.2495 157.26 89.0023 156.704L91.9275 151.214L78.4448 137.505L72.9137 140.358C72.3575 140.101 71.8013 139.874 71.2348 139.647L69.422 133.694L50.2434 133.56L48.3379 139.493C47.7714 139.699 47.2152 139.925 46.659 140.173L41.2 137.247L27.5113 150.71L30.3541 156.251C30.1069 156.797 29.87 157.363 29.6537 157.92L23.69 159.743L23.5664 178.921L29.4889 180.816C29.7052 181.383 29.9318 181.949 30.179 182.506L27.2538 187.996L40.7159 201.653L46.247 198.79C46.8032 199.047 47.3594 199.274 47.9259 199.501L49.7387 205.454L68.9173 205.588L70.8228 199.655C71.3893 199.439 71.9455 199.212 72.5017 198.975L78.0019 201.88ZM69.6074 179.735C67.5983 181.72 65.0456 183.064 62.2724 183.598C59.4991 184.131 56.6299 183.831 54.0277 182.733C51.4254 181.636 49.2071 179.791 47.6534 177.433C46.0997 175.075 45.2804 172.308 45.2991 169.484C45.3179 166.66 46.1738 163.905 47.7587 161.568C49.3436 159.23 51.5861 157.415 54.2027 156.353C56.8193 155.29 59.6923 155.027 62.4582 155.598C65.2241 156.168 67.7587 157.546 69.7413 159.557C71.0577 160.891 72.0985 162.471 72.8042 164.206C73.51 165.942 73.8668 167.8 73.8544 169.674C73.8419 171.548 73.4605 173.401 72.7318 175.127C72.0031 176.853 70.9414 178.419 69.6074 179.735Z" fill="#E0E0E0"/>
  <path d="M474.542 372.561L484.46 362.776L482.4 358.759C482.586 358.358 482.751 357.956 482.915 357.544L487.241 356.225L487.334 342.3L483.07 340.93C482.915 340.518 482.751 340.116 482.576 339.704L484.697 335.718L474.83 325.789L470.803 327.849C470.401 327.664 469.999 327.499 469.587 327.344L468.269 323.018L454.343 322.915L452.963 327.221C452.551 327.375 452.149 327.54 451.748 327.715L447.751 325.583L437.843 335.358L439.903 339.385C439.717 339.787 439.542 340.188 439.388 340.6L435.062 341.919L434.969 355.844L439.274 357.225C439.429 357.637 439.583 358.038 439.769 358.44L437.637 362.426L447.422 372.345L451.439 370.285C451.84 370.47 452.242 370.635 452.654 370.79L453.972 375.116L467.898 375.219L469.278 370.903C469.69 370.759 470.102 370.594 470.504 370.409L474.542 372.561ZM468.444 356.462C466.985 357.901 465.131 358.874 463.119 359.259C461.106 359.645 459.024 359.425 457.137 358.627C455.249 357.829 453.641 356.49 452.514 354.778C451.388 353.066 450.795 351.059 450.809 349.01C450.823 346.961 451.445 344.962 452.595 343.266C453.746 341.57 455.373 340.253 457.271 339.482C459.17 338.711 461.255 338.52 463.262 338.934C465.269 339.347 467.108 340.347 468.547 341.805C469.503 342.774 470.259 343.922 470.771 345.183C471.283 346.444 471.542 347.794 471.532 349.155C471.522 350.516 471.245 351.862 470.715 353.116C470.185 354.37 469.413 355.507 468.444 356.462Z" fill="#F0F0F0"/>
  <path d="M352.868 357.286H50.1095C48.3776 357.286 46.7166 356.598 45.492 355.374C44.2673 354.149 43.5793 352.488 43.5793 350.756V123.445C43.5821 121.714 44.2709 120.055 45.495 118.831C46.7191 117.607 48.3785 116.918 50.1095 116.915H352.868C354.599 116.918 356.258 117.607 357.482 118.831C358.706 120.055 359.395 121.714 359.398 123.445V350.756C359.398 352.488 358.71 354.149 357.485 355.374C356.261 356.598 354.6 357.286 352.868 357.286ZM50.1095 117.42C48.5151 117.423 46.9866 118.057 45.8592 119.185C44.7317 120.312 44.0971 121.841 44.0943 123.435V350.756C44.0971 352.351 44.7317 353.879 45.8592 355.007C46.9866 356.134 48.5151 356.769 50.1095 356.771H352.868C354.462 356.769 355.991 356.134 357.118 355.007C358.246 353.879 358.88 352.351 358.883 350.756V123.445C358.88 121.851 358.246 120.323 357.118 119.195C355.991 118.068 354.462 117.433 352.868 117.43L50.1095 117.42Z" fill="#E0E0E0"/>
  <path d="M57.5976 128.925C56.8867 128.925 56.1917 128.714 55.6005 128.319C55.0094 127.924 54.5486 127.363 54.2766 126.706C54.0045 126.049 53.9333 125.326 54.072 124.629C54.2107 123.932 54.5531 123.291 55.0558 122.788C55.5585 122.286 56.199 121.943 56.8963 121.805C57.5936 121.666 58.3164 121.737 58.9733 122.009C59.6301 122.281 60.1915 122.742 60.5865 123.333C60.9815 123.924 61.1923 124.619 61.1923 125.33C61.1923 126.284 60.8136 127.198 60.1395 127.872C59.4653 128.546 58.551 128.925 57.5976 128.925ZM57.5976 122.251C56.9865 122.251 56.3891 122.432 55.8809 122.771C55.3728 123.111 54.9767 123.593 54.7428 124.158C54.509 124.723 54.4478 125.344 54.567 125.943C54.6862 126.543 54.9805 127.093 55.4127 127.526C55.8448 127.958 56.3954 128.252 56.9948 128.371C57.5942 128.49 58.2155 128.429 58.7801 128.195C59.3448 127.962 59.8273 127.565 60.1669 127.057C60.5064 126.549 60.6876 125.952 60.6876 125.341C60.6876 124.521 60.3621 123.735 59.7826 123.156C59.2031 122.576 58.4172 122.251 57.5976 122.251Z" fill="#E0E0E0"/>
  <path d="M69.422 128.925C68.711 128.925 68.016 128.714 67.4249 128.319C66.8337 127.924 66.373 127.363 66.1009 126.706C65.8288 126.049 65.7576 125.326 65.8963 124.629C66.035 123.932 66.3774 123.291 66.8801 122.788C67.3829 122.286 68.0234 121.943 68.7207 121.805C69.418 121.666 70.1408 121.737 70.7976 122.009C71.4545 122.281 72.0159 122.742 72.4109 123.333C72.8059 123.924 73.0167 124.619 73.0167 125.33C73.0167 126.284 72.638 127.198 71.9638 127.872C71.2897 128.546 70.3754 128.925 69.422 128.925ZM69.422 122.251C68.8108 122.251 68.2134 122.432 67.7053 122.771C67.1971 123.111 66.8011 123.593 66.5672 124.158C66.3333 124.723 66.2721 125.344 66.3913 125.943C66.5106 126.543 66.8049 127.093 67.237 127.526C67.6692 127.958 68.2197 128.252 68.8191 128.371C69.4185 128.49 70.0398 128.429 70.6045 128.195C71.1691 127.962 71.6517 127.565 71.9912 127.057C72.3308 126.549 72.512 125.952 72.512 125.341C72.512 124.521 72.1864 123.735 71.6069 123.156C71.0275 122.576 70.2415 122.251 69.422 122.251Z" fill="#E0E0E0"/>
  <path d="M81.2464 128.925C80.5355 128.925 79.8405 128.714 79.2493 128.319C78.6582 127.924 78.1974 127.363 77.9254 126.706C77.6533 126.049 77.5821 125.326 77.7208 124.629C77.8595 123.932 78.2019 123.291 78.7046 122.788C79.2073 122.286 79.8478 121.943 80.5451 121.805C81.2424 121.666 81.9652 121.737 82.6221 122.009C83.2789 122.281 83.8403 122.742 84.2353 123.333C84.6303 123.924 84.8411 124.619 84.8411 125.33C84.8411 126.284 84.4624 127.198 83.7883 127.872C83.1141 128.546 82.1998 128.925 81.2464 128.925ZM81.2464 122.251C80.6353 122.251 80.0379 122.432 79.5297 122.771C79.0216 123.111 78.6255 123.593 78.3916 124.158C78.1578 124.723 78.0966 125.344 78.2158 125.943C78.335 126.543 78.6293 127.093 79.0615 127.526C79.4936 127.958 80.0442 128.252 80.6436 128.371C81.243 128.49 81.8643 128.429 82.4289 128.195C82.9936 127.962 83.4761 127.565 83.8157 127.057C84.1552 126.549 84.3364 125.952 84.3364 125.341C84.3364 124.521 84.0109 123.735 83.4314 123.156C82.8519 122.576 82.066 122.251 81.2464 122.251Z" fill="#E0E0E0"/>
  <path d="M473.11 73.6758H170.352C166.887 73.6758 164.079 76.4842 164.079 79.9485V307.259C164.079 310.723 166.887 313.532 170.352 313.532H473.11C476.574 313.532 479.383 310.723 479.383 307.259V79.9485C479.383 76.4842 476.574 73.6758 473.11 73.6758Z" fill="#E0E0E0"/>
  <path d="M473.11 314.562H170.352C168.416 314.559 166.56 313.789 165.191 312.42C163.822 311.051 163.052 309.195 163.049 307.259V79.9485C163.052 78.0125 163.822 76.1566 165.191 74.7877C166.56 73.4187 168.416 72.6485 170.352 72.6458H473.11C475.046 72.6485 476.902 73.4187 478.271 74.7877C479.64 76.1566 480.41 78.0125 480.413 79.9485V307.259C480.41 309.195 479.64 311.051 478.271 312.42C476.902 313.789 475.046 314.559 473.11 314.562ZM170.352 74.7058C168.962 74.7085 167.63 75.2617 166.648 76.2443C165.665 77.2269 165.112 78.5588 165.109 79.9485V307.259C165.112 308.649 165.665 309.981 166.648 310.963C167.63 311.946 168.962 312.499 170.352 312.502H473.11C474.499 312.499 475.831 311.946 476.814 310.963C477.797 309.981 478.35 308.649 478.353 307.259V79.9485C478.353 78.558 477.8 77.2245 476.817 76.2413C475.834 75.2581 474.5 74.7058 473.11 74.7058H170.352Z" fill="#E0E0E0"/>
  <path d="M164.079 89.8982V307.228C164.084 308.89 164.747 310.482 165.922 311.658C167.097 312.833 168.69 313.495 170.352 313.501H473.11C474.772 313.495 476.364 312.833 477.539 311.658C478.715 310.482 479.377 308.89 479.383 307.228V89.8982H164.079Z" fill="#F0F0F0"/>
  <path d="M478.229 98.2412H165.243V305.189H478.229V98.2412Z" fill="white"/>
  <path d="M467.157 286.247H176.315C176.302 286.249 176.287 286.247 176.274 286.243C176.261 286.238 176.249 286.231 176.239 286.221C176.229 286.211 176.221 286.199 176.217 286.185C176.212 286.172 176.211 286.158 176.212 286.144V111.652C176.212 111.625 176.223 111.598 176.243 111.579C176.262 111.56 176.288 111.549 176.315 111.549H467.157C467.183 111.551 467.208 111.563 467.227 111.582C467.246 111.6 467.257 111.625 467.26 111.652V286.144C467.26 286.158 467.257 286.171 467.252 286.184C467.247 286.196 467.239 286.207 467.229 286.217C467.22 286.227 467.208 286.234 467.196 286.239C467.183 286.244 467.17 286.247 467.157 286.247ZM176.418 286.041H467.054V111.765H176.418V286.041Z" fill="#E6E6E6"/>
  <path d="M177.84 85.5826C177.099 85.5806 176.375 85.359 175.76 84.9458C175.144 84.5326 174.665 83.9463 174.383 83.2611C174.101 82.5758 174.028 81.8223 174.174 81.0957C174.32 80.3691 174.678 79.702 175.203 79.1787C175.727 78.6554 176.395 78.2994 177.122 78.1555C177.849 78.0117 178.603 78.0865 179.287 78.3706C179.972 78.6547 180.557 79.1352 180.968 79.7515C181.38 80.3679 181.599 81.0923 181.599 81.8334C181.599 82.3266 181.502 82.815 181.313 83.2706C181.124 83.7261 180.847 84.1399 180.498 84.4882C180.148 84.8364 179.734 85.1124 179.278 85.3002C178.822 85.488 178.333 85.584 177.84 85.5826ZM177.84 78.9185C177.264 78.9206 176.701 79.0932 176.223 79.4148C175.745 79.7363 175.373 80.1922 175.154 80.7251C174.935 81.2579 174.879 81.8436 174.992 82.4084C175.106 82.9731 175.384 83.4916 175.793 83.8982C176.201 84.3048 176.72 84.5814 177.285 84.693C177.85 84.8047 178.436 84.7464 178.968 84.5254C179.5 84.3045 179.955 83.9309 180.274 83.4518C180.594 82.9726 180.765 82.4095 180.765 81.8334C180.765 81.4498 180.689 81.0699 180.542 80.7156C180.395 80.3612 180.179 80.0394 179.908 79.7686C179.636 79.4978 179.313 79.2833 178.958 79.1374C178.604 78.9916 178.223 78.9172 177.84 78.9185Z" fill="white"/>
  <path d="M189.664 85.5826C188.923 85.5806 188.199 85.359 187.584 84.9458C186.969 84.5326 186.49 83.9463 186.208 83.2611C185.926 82.5758 185.853 81.8223 185.999 81.0957C186.144 80.3691 186.502 79.702 187.027 79.1787C187.552 78.6554 188.22 78.2994 188.947 78.1555C189.674 78.0117 190.427 78.0865 191.112 78.3706C191.796 78.6547 192.381 79.1352 192.793 79.7515C193.204 80.3679 193.424 81.0923 193.424 81.8334C193.424 82.3266 193.326 82.815 193.137 83.2706C192.948 83.7261 192.671 84.1399 192.322 84.4882C191.973 84.8364 191.558 85.1124 191.102 85.3002C190.646 85.488 190.157 85.584 189.664 85.5826ZM189.664 78.9185C189.089 78.9246 188.529 79.1007 188.053 79.4247C187.578 79.7487 187.209 80.206 186.993 80.7392C186.777 81.2723 186.724 81.8574 186.84 82.4208C186.956 82.9842 187.236 83.5007 187.645 83.9052C188.054 84.3098 188.573 84.5844 189.138 84.6944C189.702 84.8044 190.287 84.7449 190.818 84.5234C191.348 84.3019 191.802 83.9283 192.121 83.4496C192.44 82.9709 192.61 82.4086 192.61 81.8334C192.61 81.448 192.534 81.0664 192.385 80.7108C192.237 80.3551 192.019 80.0324 191.745 79.7613C191.471 79.4902 191.146 79.2761 190.789 79.1315C190.432 78.9868 190.05 78.9144 189.664 78.9185Z" fill="white"/>
  <path d="M201.489 85.5826C200.748 85.5806 200.024 85.359 199.409 84.9458C198.793 84.5326 198.314 83.9463 198.032 83.2611C197.75 82.5758 197.677 81.8223 197.823 81.0957C197.969 80.3691 198.327 79.702 198.852 79.1787C199.376 78.6554 200.044 78.2994 200.771 78.1555C201.498 78.0117 202.252 78.0865 202.936 78.3706C203.621 78.6547 204.205 79.1352 204.617 79.7515C205.029 80.3679 205.248 81.0923 205.248 81.8334C205.248 82.3266 205.151 82.815 204.962 83.2706C204.773 83.7261 204.496 84.1399 204.146 84.4882C203.797 84.8364 203.383 85.1124 202.927 85.3002C202.471 85.488 201.982 85.584 201.489 85.5826ZM201.489 78.9185C200.913 78.9206 200.35 79.0932 199.872 79.4148C199.394 79.7363 199.022 80.1922 198.803 80.7251C198.584 81.2579 198.528 81.8436 198.641 82.4084C198.755 82.9731 199.033 83.4916 199.441 83.8982C199.85 84.3048 200.369 84.5814 200.934 84.693C201.499 84.8047 202.085 84.7464 202.617 84.5254C203.149 84.3045 203.603 83.9309 203.923 83.4518C204.243 82.9726 204.414 82.4095 204.414 81.8334C204.414 81.4498 204.338 81.0699 204.191 80.7156C204.044 80.3612 203.828 80.0394 203.556 79.7686C203.285 79.4978 202.962 79.2833 202.607 79.1374C202.252 78.9916 201.872 78.9172 201.489 78.9185Z" fill="white"/>
  <path d="M479.383 89.4761H164.079V90.3104H479.383V89.4761Z" fill="#E0E0E0"/>
  <path d="M307.064 265.812H451.305V118.8L307.064 118.8V265.812Z" fill="#F0F0F0"/>
  <path d="M183.443 166.623H278.677V118.8L183.443 118.8V166.623Z" fill="#F0F0F0"/>
  <path d="M183.443 305.189H278.677V184.504H183.443V305.189Z" fill="#F0F0F0"/>
  <path d="M257.5 440.387C367.795 440.387 457.207 435.167 457.207 428.727C457.207 422.288 367.795 417.068 257.5 417.068C147.205 417.068 57.7933 422.288 57.7933 428.727C57.7933 435.167 147.205 440.387 257.5 440.387Z" fill="#F5F5F5"/>
  <path d="M442.272 99.6936H72.7386C70.1149 99.7017 67.6009 100.747 65.7447 102.601C63.8886 104.455 62.8408 106.968 62.83 109.592V356.236C62.8381 358.86 63.885 361.375 65.7418 363.229C67.5985 365.084 70.1141 366.129 72.7386 366.134H442.272C444.894 366.126 447.407 365.08 449.262 363.226C451.116 361.371 452.162 358.858 452.17 356.236V109.592C452.159 106.97 451.113 104.459 449.259 102.605C447.405 100.751 444.894 99.7044 442.272 99.6936Z" fill="#445FEB"/>
  <path opacity="0.3" d="M442.272 99.6936H72.7386C70.1149 99.7017 67.6009 100.747 65.7447 102.601C63.8886 104.455 62.8408 106.968 62.83 109.592V356.236C62.8381 358.86 63.885 361.375 65.7418 363.229C67.5985 365.084 70.1141 366.129 72.7386 366.134H442.272C444.894 366.126 447.407 365.08 449.262 363.226C451.116 361.371 452.162 358.858 452.17 356.236V109.592C452.159 106.97 451.113 104.459 449.259 102.605C447.405 100.751 444.894 99.7044 442.272 99.6936Z" fill="white"/>
  <path d="M136.413 116.215H84.1098C83.1537 116.215 82.2367 115.835 81.5606 115.159C80.8846 114.483 80.5048 113.566 80.5048 112.61C80.5048 111.654 80.8846 110.737 81.5606 110.061C82.2367 109.385 83.1537 109.005 84.1098 109.005H136.413C137.369 109.005 138.286 109.385 138.962 110.061C139.638 110.737 140.018 111.654 140.018 112.61C140.018 113.566 139.638 114.483 138.962 115.159C138.286 115.835 137.369 116.215 136.413 116.215ZM84.1098 110.035C83.4268 110.035 82.7719 110.306 82.289 110.789C81.8061 111.272 81.5348 111.927 81.5348 112.61C81.5348 113.293 81.8061 113.948 82.289 114.431C82.7719 114.914 83.4268 115.185 84.1098 115.185H136.413C137.096 115.185 137.751 114.914 138.234 114.431C138.717 113.948 138.988 113.293 138.988 112.61C138.988 111.927 138.717 111.272 138.234 110.789C137.751 110.306 137.096 110.035 136.413 110.035H84.1098Z" fill="#FAFAFA"/>
  <path d="M153.388 116.215H149.896C148.94 116.215 148.023 115.835 147.347 115.159C146.671 114.483 146.291 113.566 146.291 112.61C146.291 111.654 146.671 110.737 147.347 110.061C148.023 109.385 148.94 109.005 149.896 109.005H153.388C154.344 109.005 155.261 109.385 155.937 110.061C156.613 110.737 156.993 111.654 156.993 112.61C156.993 113.566 156.613 114.483 155.937 115.159C155.261 115.835 154.344 116.215 153.388 116.215ZM149.896 110.035C149.213 110.035 148.558 110.306 148.075 110.789C147.592 111.272 147.321 111.927 147.321 112.61C147.321 113.293 147.592 113.948 148.075 114.431C148.558 114.914 149.213 115.185 149.896 115.185H153.388C154.071 115.185 154.725 114.914 155.208 114.431C155.691 113.948 155.963 113.293 155.963 112.61C155.963 111.927 155.691 111.272 155.208 110.789C154.725 110.306 154.071 110.035 153.388 110.035H149.896Z" fill="#FAFAFA"/>
  <path d="M167.983 116.215H164.491C163.535 116.215 162.618 115.835 161.942 115.159C161.266 114.483 160.886 113.566 160.886 112.61C160.886 111.654 161.266 110.737 161.942 110.061C162.618 109.385 163.535 109.005 164.491 109.005H167.983C168.939 109.005 169.856 109.385 170.532 110.061C171.208 110.737 171.588 111.654 171.588 112.61C171.588 113.566 171.208 114.483 170.532 115.159C169.856 115.835 168.939 116.215 167.983 116.215ZM164.491 110.035C163.808 110.035 163.153 110.306 162.67 110.789C162.187 111.272 161.916 111.927 161.916 112.61C161.916 113.293 162.187 113.948 162.67 114.431C163.153 114.914 163.808 115.185 164.491 115.185H167.983C168.666 115.185 169.321 114.914 169.803 114.431C170.286 113.948 170.558 113.293 170.558 112.61C170.558 111.927 170.286 111.272 169.803 110.789C169.321 110.306 168.666 110.035 167.983 110.035H164.491Z" fill="#FAFAFA"/>
  <path d="M62.83 125.299V356.236C62.8381 358.86 63.885 361.375 65.7418 363.229C67.5985 365.084 70.1141 366.128 72.7386 366.134H442.272C444.894 366.126 447.407 365.08 449.262 363.226C451.116 361.371 452.162 358.858 452.17 356.236V125.299H62.83Z" fill="#445FEB"/>
  <path opacity="0.6" d="M62.83 125.299V356.236C62.8381 358.86 63.885 361.375 65.7418 363.229C67.5985 365.084 70.1141 366.128 72.7386 366.134H442.272C444.894 366.126 447.407 365.08 449.262 363.226C451.116 361.371 452.162 358.858 452.17 356.236V125.299H62.83Z" fill="white"/>
  <path d="M64.6633 125.299V347.347C64.662 348.085 64.8062 348.816 65.0877 349.498C65.3692 350.18 65.7825 350.8 66.3038 351.323C66.8252 351.845 67.4445 352.26 68.1263 352.542C68.808 352.825 69.5388 352.971 70.2768 352.971H444.723C445.461 352.971 446.192 352.825 446.874 352.542C447.555 352.26 448.175 351.845 448.696 351.323C449.217 350.8 449.631 350.18 449.912 349.498C450.194 348.816 450.338 348.085 450.337 347.347V125.299H64.6633Z" fill="#FAFAFA"/>
  <path d="M82.3999 138.37V179.57H347.11V138.37H82.3999Z" fill="#445FEB"/>
  <path opacity="0.9" d="M82.3999 138.37V179.57H347.11V138.37H82.3999Z" fill="white"/>
  <path d="M346.08 191.518V300.904H83.4299V191.518H346.08ZM347.11 190.488H82.3999V301.934H347.11V190.488Z" fill="#445FEB"/>
  <path opacity="0.9" d="M346.08 191.518V300.904H83.4299V191.518H346.08ZM347.11 190.488H82.3999V301.934H347.11V190.488Z" fill="white"/>
  <path d="M376.795 419.148H369.028L366.958 401.154H374.735L376.795 419.148Z" fill="#FF8B7B"/>
  <path d="M423.927 419.148H416.161L410.105 401.154H417.871L423.927 419.148Z" fill="#FF8B7B"/>
  <path d="M415.09 418.242H424.566C424.72 418.243 424.87 418.297 424.99 418.394C425.109 418.491 425.192 418.626 425.225 418.777L426.76 425.678C426.797 425.847 426.796 426.022 426.756 426.189C426.716 426.357 426.639 426.514 426.53 426.648C426.421 426.782 426.283 426.889 426.127 426.962C425.97 427.035 425.799 427.071 425.627 427.069C422.537 427.017 420.353 426.832 416.511 426.832C414.153 426.832 409.301 427.079 406.026 427.079C402.751 427.079 402.339 423.855 403.667 423.567C409.662 422.248 411.907 420.477 413.833 418.726C414.178 418.414 414.626 418.242 415.09 418.242Z" fill="#263238"/>
  <path d="M369.08 418.242H377.567C377.723 418.242 377.874 418.296 377.995 418.393C378.117 418.49 378.202 418.626 378.237 418.777L379.771 425.678C379.808 425.846 379.807 426.02 379.768 426.187C379.729 426.354 379.652 426.51 379.545 426.644C379.437 426.777 379.3 426.885 379.145 426.958C378.99 427.032 378.82 427.07 378.649 427.069C375.559 427.017 371.16 426.832 367.319 426.832C362.817 426.832 358.934 427.079 353.661 427.079C350.468 427.079 349.541 423.855 350.921 423.567C356.998 422.228 361.963 422.094 367.216 418.849C367.768 418.477 368.414 418.267 369.08 418.242Z" fill="#263238"/>
  <path d="M381.254 226.342C380.482 232.358 379.637 238.404 378.741 244.419L376.053 262.712C375.636 264.936 374.744 267.044 373.437 268.892C372.254 270.553 370.823 272.022 369.193 273.249C366.321 275.343 363.127 276.957 359.738 278.028C356.625 279.048 353.431 279.799 350.19 280.273C348.593 280.52 347.007 280.685 345.41 280.819C343.814 280.953 342.269 281.035 340.569 281.035L340.044 275.226C342.815 274.588 345.75 273.846 348.5 272.929C351.225 272.082 353.889 271.049 356.473 269.839C358.825 268.775 361.008 267.369 362.951 265.668C363.711 264.978 364.361 264.176 364.877 263.288C365.267 262.593 365.509 261.826 365.588 261.033L365.887 256.696C365.99 255.151 366.134 253.606 366.268 252.082C366.536 249.013 366.841 245.95 367.185 242.894C367.854 236.787 368.647 230.72 369.595 224.633L381.254 226.342Z" fill="#FF8B7B"/>
  <path d="M383.819 222.48C386.435 229.432 380.163 252.741 380.163 252.741L362.9 244.11C362.9 244.11 363.714 232.491 367.659 223.51C371.603 214.528 380.946 214.817 383.819 222.48Z" fill="#445FEB"/>
  <path opacity="0.3" d="M383.819 222.48C386.435 229.432 380.163 252.741 380.163 252.741L362.9 244.11C362.9 244.11 363.714 232.491 367.659 223.51C371.603 214.528 380.946 214.817 383.819 222.48Z" fill="black"/>
  <path d="M344.175 274.516L335.698 275.082L339.663 284.177C341.255 284.132 342.791 283.579 344.045 282.599C345.3 281.618 346.208 280.262 346.636 278.728L344.175 274.516Z" fill="#FF8B7B"/>
  <path d="M328.045 278.656L332.752 285.022L339.653 284.177L335.698 275.082L328.045 278.656Z" fill="#FF8B7B"/>
  <path d="M366.968 401.154L368.163 411.598L375.888 411.135L374.735 401.154H366.968Z" fill="#EA7063"/>
  <path d="M417.881 401.154H410.105L414.163 413.205L421.394 411.588L417.881 401.154Z" fill="#EA7063"/>
  <path d="M374.59 217.124C374.59 217.124 365.423 240.587 374.127 284.29H415.687C415.976 277.904 411.969 246.788 418.118 216.722C413.526 215.836 408.881 215.251 404.213 214.971C398.327 214.626 392.425 214.626 386.538 214.971C382.506 215.376 378.511 216.095 374.59 217.124Z" fill="#445FEB"/>
  <path opacity="0.3" d="M374.59 217.124C374.59 217.124 365.423 240.587 374.127 284.29H415.687C415.976 277.904 411.969 246.788 418.118 216.722C413.526 215.836 408.881 215.251 404.213 214.971C398.327 214.626 392.425 214.626 386.538 214.971C382.506 215.376 378.511 216.095 374.59 217.124Z" fill="black"/>
  <path d="M389.773 239.084C389.216 244.295 386.353 248.271 383.366 247.952C380.379 247.633 378.412 243.152 378.958 237.93C379.504 232.708 382.388 228.742 385.364 229.051C388.341 229.36 390.37 233.861 389.773 239.084Z" fill="#445FEB"/>
  <path opacity="0.1" d="M389.773 239.084C389.216 244.295 386.353 248.271 383.366 247.952C380.379 247.633 378.412 243.152 378.958 237.93C379.504 232.708 382.388 228.742 385.364 229.051C388.341 229.36 390.37 233.861 389.773 239.084Z" fill="white"/>
  <path d="M409.652 231.091C411.011 224.231 413.648 225.415 416.161 228.794C415.087 237.889 414.592 247.044 414.678 256.202C412.968 253.298 407.386 242.586 409.652 231.091Z" fill="#445FEB"/>
  <path opacity="0.4" d="M409.652 231.091C411.011 224.231 413.648 225.415 416.161 228.794C415.087 237.889 414.592 247.044 414.678 256.202C412.968 253.298 407.386 242.586 409.652 231.091Z" fill="black"/>
  <path d="M402.462 195.072C401.35 200.757 400.237 211.17 404.213 214.971C404.213 214.971 402.658 220.729 392.09 220.729C380.482 220.729 386.538 214.971 386.538 214.971C392.883 213.457 392.718 208.791 391.616 204.331L402.462 195.072Z" fill="#FF8B7B"/>
  <path d="M398.033 198.852L391.616 204.331C391.889 205.343 392.072 206.377 392.162 207.421C394.583 207.071 397.91 204.414 398.167 201.88C398.312 200.871 398.267 199.844 398.033 198.852Z" fill="#EA7063"/>
  <path d="M386.25 173.792C381.975 177.119 382.006 190.395 388.485 190.673C394.964 190.952 394.377 167.509 386.25 173.792Z" fill="#263238"/>
  <path d="M404.11 188.356C401.854 195.731 400.907 200.16 396.2 203.095C389.134 207.514 380.75 201.87 380.75 193.97C380.75 186.852 384.447 175.996 392.492 174.77C394.261 174.498 396.071 174.682 397.749 175.305C399.427 175.928 400.919 176.969 402.082 178.33C403.246 179.69 404.043 181.325 404.397 183.08C404.752 184.834 404.653 186.65 404.11 188.356Z" fill="#FF8B7B"/>
  <path d="M401.824 195.566C397.487 196.246 395.118 173.936 405.459 178.87C420.158 185.905 408.848 194.474 401.824 195.566Z" fill="#263238"/>
  <path d="M402.236 180.919C396.89 180.456 389.155 180.683 387.476 174.08C385.138 164.872 396.148 163.512 398.868 170.558C405.418 168.405 423.464 179.653 411.444 185.359L402.236 180.919Z" fill="#263238"/>
  <path d="M405.511 197.42C404.116 198.765 402.247 199.505 400.309 199.48C397.745 199.428 397.22 196.956 398.517 194.917C399.722 193.073 402.503 190.89 404.78 191.93C407.056 192.97 407.19 195.7 405.511 197.42Z" fill="#FF8B7B"/>
  <path d="M374.127 284.28C374.127 284.28 343.824 326.273 344.679 349.963C345.555 374.611 365.114 408.673 365.114 408.673L377.753 405.779C377.753 405.779 365.176 376.105 365.763 351.9C366.402 325.511 401.453 304.684 401.453 284.332L374.127 284.28Z" fill="#263238"/>
  <path d="M388.876 284.28C388.876 284.28 373.426 327.54 378.278 349.798C383.572 374.158 410.208 410.156 410.208 410.156L422.928 406.654C422.928 406.654 405.707 375.682 402.689 351.56C399.403 325.387 415.729 303.747 415.729 284.28H388.876Z" fill="#263238"/>
  <path d="M408.271 411.928L426.564 408.529L425.647 403.616L405.14 407.087L408.271 411.928Z" fill="#445FEB"/>
  <path opacity="0.4" d="M408.271 411.928L426.564 408.529L425.647 403.616L405.14 407.087L408.271 411.928Z" fill="white"/>
  <path d="M362.478 409.734L380.987 407.911L380.492 402.864L359.769 404.646L362.478 409.734Z" fill="#445FEB"/>
  <path opacity="0.4" d="M362.478 409.734L380.987 407.911L380.492 402.864L359.769 404.646L362.478 409.734Z" fill="white"/>
  <path d="M392.255 187.728C392.111 188.335 391.668 188.758 391.225 188.655C390.782 188.552 390.617 187.985 390.772 187.378C390.926 186.77 391.359 186.348 391.75 186.451C392.142 186.554 392.43 187.12 392.255 187.728Z" fill="#263238"/>
  <path d="M385.364 186.07C385.22 186.677 384.777 187.1 384.334 187.007C383.891 186.914 383.737 186.337 383.881 185.73C384.025 185.122 384.468 184.7 384.911 184.792C385.354 184.885 385.508 185.462 385.364 186.07Z" fill="#263238"/>
  <path d="M387.476 186.904C386.316 188.59 384.93 190.108 383.356 191.415C383.701 191.813 384.128 192.13 384.608 192.346C385.089 192.561 385.61 192.669 386.137 192.662L387.476 186.904Z" fill="#FF5652"/>
  <path d="M388.846 194.938C388.381 194.935 387.918 194.88 387.465 194.773C387.419 194.759 387.379 194.727 387.355 194.685C387.33 194.644 387.322 194.594 387.331 194.546C387.337 194.523 387.348 194.5 387.363 194.481C387.377 194.461 387.396 194.445 387.417 194.432C387.438 194.42 387.461 194.412 387.485 194.408C387.51 194.405 387.534 194.406 387.558 194.412C388.312 194.612 389.103 194.63 389.866 194.465C390.628 194.301 391.341 193.958 391.946 193.465C391.98 193.431 392.027 193.413 392.075 193.413C392.123 193.413 392.169 193.431 392.203 193.465C392.221 193.481 392.235 193.501 392.245 193.523C392.255 193.545 392.26 193.569 392.26 193.594C392.26 193.618 392.255 193.642 392.245 193.664C392.235 193.686 392.221 193.706 392.203 193.722C391.265 194.515 390.074 194.946 388.846 194.938Z" fill="#263238"/>
  <path d="M394.943 186.008C394.873 186.007 394.805 185.987 394.746 185.949C394.688 185.91 394.642 185.856 394.614 185.791C394.44 185.363 394.168 184.982 393.818 184.68C393.469 184.377 393.054 184.162 392.605 184.051C392.508 184.034 392.422 183.98 392.365 183.9C392.308 183.82 392.285 183.72 392.301 183.623C392.318 183.526 392.372 183.44 392.452 183.383C392.532 183.326 392.632 183.303 392.729 183.319C393.298 183.45 393.827 183.716 394.271 184.094C394.716 184.472 395.063 184.952 395.283 185.493C395.304 185.536 395.315 185.584 395.317 185.632C395.318 185.681 395.31 185.729 395.293 185.774C395.276 185.819 395.25 185.86 395.216 185.895C395.182 185.93 395.142 185.958 395.098 185.977C395.05 186.002 394.997 186.012 394.943 186.008Z" fill="#263238"/>
  <path d="M383.006 182.99C382.919 182.992 382.835 182.963 382.769 182.907C382.731 182.877 382.699 182.84 382.676 182.798C382.653 182.755 382.639 182.709 382.634 182.661C382.629 182.613 382.634 182.564 382.648 182.518C382.663 182.472 382.686 182.429 382.717 182.392C383.081 181.927 383.552 181.556 384.09 181.312C384.628 181.068 385.217 180.958 385.807 180.991C385.904 181.004 385.992 181.055 386.051 181.132C386.111 181.209 386.138 181.307 386.126 181.403C386.114 181.498 386.065 181.584 385.99 181.644C385.915 181.703 385.82 181.732 385.725 181.723C385.262 181.711 384.804 181.807 384.385 182.004C383.967 182.2 383.6 182.492 383.314 182.856C383.278 182.902 383.231 182.939 383.177 182.962C383.123 182.986 383.064 182.995 383.006 182.99Z" fill="#263238"/>
  <path d="M281.688 331.962L253.807 335.282L253.929 336.305L281.809 332.985L281.688 331.962Z" fill="#445FEB"/>
  <path d="M303.117 329.384L291.633 330.764L291.756 331.786L303.24 330.407L303.117 329.384Z" fill="#445FEB"/>
  <path d="M462.2 263.503L214.918 292.989L220.129 336.692L467.411 307.205L462.2 263.503Z" fill="#445FEB"/>
  <path d="M425.689 279.835L312.092 293.381L314.486 313.457L428.083 299.912L425.689 279.835Z" fill="#445FEB"/>
  <path opacity="0.2" d="M425.689 279.835L312.092 293.381L314.486 313.457L428.083 299.912L425.689 279.835Z" fill="white"/>
  <path d="M252.246 321.627C257.771 317.204 258.664 309.141 254.241 303.617C249.818 298.092 241.755 297.199 236.231 301.622C230.706 306.044 229.813 314.108 234.236 319.632C238.658 325.157 246.722 326.05 252.246 321.627Z" fill="#445FEB"/>
  <path opacity="0.2" d="M252.246 321.627C257.771 317.204 258.664 309.141 254.241 303.617C249.818 298.092 241.755 297.199 236.231 301.622C230.706 306.044 229.813 314.108 234.236 319.632C238.658 325.157 246.722 326.05 252.246 321.627Z" fill="white"/>
  <path d="M290.634 315.175C294.947 309.564 293.895 301.52 288.284 297.207C282.674 292.894 274.63 293.946 270.317 299.557C266.004 305.167 267.056 313.212 272.666 317.524C278.277 321.837 286.321 320.785 290.634 315.175Z" fill="#445FEB"/>
  <path opacity="0.2" d="M290.634 315.175C294.947 309.564 293.895 301.52 288.284 297.207C282.674 292.894 274.63 293.946 270.317 299.557C266.004 305.167 267.056 313.212 272.666 317.524C278.277 321.837 286.321 320.785 290.634 315.175Z" fill="white"/>
  <path d="M421.085 222.768C421.764 224.21 422.321 225.488 422.856 226.888C423.392 228.289 423.886 229.597 424.422 231.008C425.452 233.738 426.307 236.509 427.079 239.341C427.88 242.187 428.537 245.071 429.046 247.983L429.417 250.197L429.685 252.453C429.788 253.205 429.829 253.977 429.881 254.74L429.963 255.893V256.182V256.655C429.963 257.026 429.963 257.345 429.963 257.685C429.761 259.711 429.173 261.679 428.233 263.484C427.507 264.937 426.681 266.338 425.761 267.676C424.058 270.123 422.197 272.456 420.188 274.66C416.311 278.919 412.11 282.873 407.622 286.484L403.502 282.364C406.86 278.069 410.218 273.63 413.257 269.221C414.748 267.079 416.123 264.858 417.377 262.568C417.951 261.541 418.45 260.474 418.87 259.375C419.165 258.671 419.339 257.922 419.385 257.16C419.385 257.16 419.385 257.109 419.385 257.16C419.385 257.212 419.385 257.222 419.385 257.16V256.923L419.241 255.996C419.148 255.368 419.066 254.76 418.922 254.122L418.551 252.247L418.108 250.352C417.48 247.828 416.769 245.294 415.955 242.771C415.141 240.247 414.256 237.724 413.318 235.211C412.855 233.954 412.381 232.708 411.887 231.462L410.373 227.63L421.085 222.768Z" fill="#FF8B7B"/>
  <path d="M419.745 217.237C426.677 219.905 431.652 245.264 431.652 245.264L415.172 251.763C415.172 251.763 409.641 239.022 407.777 229.597C405.82 219.678 411.876 214.24 419.745 217.237Z" fill="#445FEB"/>
  <path opacity="0.3" d="M419.745 217.237C426.677 219.905 431.652 245.264 431.652 245.264L415.172 251.763C415.172 251.763 409.641 239.022 407.777 229.597C405.82 219.678 411.876 214.24 419.745 217.237Z" fill="black"/>
  <path d="M412.556 419.601C412.025 419.64 411.497 419.503 411.052 419.21C410.915 419.09 410.808 418.938 410.742 418.767C410.675 418.597 410.651 418.413 410.671 418.231C410.67 418.124 410.7 418.019 410.756 417.928C410.813 417.836 410.894 417.763 410.991 417.716C411.856 417.273 414.359 418.808 414.637 418.994C414.669 419.011 414.695 419.039 414.71 419.072C414.725 419.106 414.728 419.143 414.719 419.179C414.714 419.214 414.698 419.246 414.674 419.272C414.65 419.297 414.619 419.315 414.585 419.323C413.922 419.493 413.241 419.587 412.556 419.601ZM411.403 417.994C411.317 417.987 411.231 418.005 411.155 418.046C411.104 418.046 411.052 418.118 411.042 418.262C411.024 418.384 411.038 418.508 411.081 418.624C411.124 418.739 411.196 418.841 411.289 418.922C412.157 419.323 413.145 419.374 414.05 419.066C413.244 418.543 412.345 418.179 411.403 417.994Z" fill="#445FEB"/>
  <path d="M414.544 419.334C414.514 419.342 414.482 419.342 414.451 419.334C413.648 418.901 412.093 417.201 412.257 416.336C412.284 416.2 412.357 416.077 412.464 415.989C412.571 415.9 412.706 415.852 412.845 415.852C412.984 415.836 413.126 415.849 413.261 415.89C413.395 415.93 413.52 415.998 413.627 416.089C414.534 416.82 414.719 419.066 414.729 419.179C414.73 419.213 414.723 419.246 414.709 419.276C414.695 419.307 414.673 419.333 414.647 419.354C414.612 419.357 414.576 419.35 414.544 419.334ZM413.03 416.182H412.937C412.7 416.182 412.68 416.326 412.669 416.367C412.577 416.882 413.566 418.17 414.369 418.777C414.313 417.891 413.994 417.041 413.452 416.336C413.333 416.239 413.184 416.185 413.03 416.182Z" fill="#445FEB"/>
  <path d="M365.856 419.601C365.189 419.662 364.521 419.495 363.961 419.128C363.836 419.017 363.739 418.878 363.68 418.721C363.621 418.565 363.601 418.397 363.621 418.231C363.625 418.131 363.654 418.032 363.706 417.946C363.759 417.859 363.832 417.788 363.92 417.737C364.867 417.212 367.988 418.767 368.349 418.983C368.381 419.002 368.407 419.029 368.423 419.062C368.44 419.095 368.446 419.132 368.441 419.169C368.437 419.207 368.421 419.242 368.395 419.27C368.369 419.298 368.335 419.317 368.297 419.323C367.494 419.493 366.677 419.586 365.856 419.601ZM364.445 417.995C364.327 417.987 364.209 418.012 364.105 418.067C364.069 418.085 364.038 418.113 364.016 418.148C363.995 418.182 363.982 418.222 363.981 418.262C363.971 418.371 363.986 418.481 364.025 418.583C364.064 418.685 364.127 418.776 364.208 418.849C364.682 419.272 365.969 419.354 367.679 419.066C366.67 418.527 365.576 418.164 364.445 417.995Z" fill="#445FEB"/>
  <path d="M368.256 419.333H368.184C367.246 418.911 365.393 417.273 365.526 416.357C365.526 416.151 365.712 415.893 366.216 415.842C366.4 415.818 366.587 415.833 366.764 415.886C366.942 415.94 367.106 416.03 367.246 416.151C368.276 416.964 368.441 419.055 368.452 419.148C368.457 419.18 368.453 419.212 368.44 419.241C368.427 419.27 368.406 419.295 368.379 419.313C368.341 419.332 368.298 419.339 368.256 419.333ZM366.361 416.182H366.258C365.918 416.182 365.897 416.346 365.897 416.388C365.804 416.923 367.071 418.242 368.029 418.818C367.94 417.932 367.581 417.094 366.999 416.419C366.823 416.263 366.596 416.179 366.361 416.182Z" fill="#445FEB"/>
  <path d="M405.305 281.19L397.683 283.25L403.997 290.903C403.997 290.903 410.105 287.741 408.786 284.311L405.305 281.19Z" fill="#FF8B7B"/>
  <path d="M392.162 289.605L397.683 295.6L403.997 290.893L397.683 283.24L392.162 289.605Z" fill="#FF8B7B"/>
  <path d="M145.879 198.79C144.159 200.541 142.315 202.488 140.616 204.424C138.916 206.361 137.217 208.348 135.62 210.388C134.024 212.427 132.53 214.508 131.057 216.568L130.027 218.164L128.997 219.781C128.657 220.327 128.359 220.873 128.06 221.429L127.246 222.923C126.911 223.778 126.723 224.683 126.69 225.601C126.608 226.781 126.608 227.965 126.69 229.144C126.87 231.691 127.196 234.226 127.669 236.735C128.111 239.3 128.699 241.885 129.286 244.44C129.873 246.994 130.553 249.59 131.222 252.134L127.452 253.545C125.157 248.546 123.242 243.382 121.725 238.095C120.941 235.392 120.343 232.639 119.933 229.855C119.72 228.364 119.613 226.86 119.614 225.354C119.585 223.577 119.886 221.81 120.5 220.142C120.726 219.575 120.86 219.349 121.015 219.009L121.478 218.041C121.787 217.392 122.107 216.753 122.446 216.135L123.476 214.261L124.506 212.438C125.947 210.038 127.514 207.717 129.203 205.485C130.872 203.26 132.602 201.077 134.425 198.996C136.248 196.915 138.092 194.876 140.204 192.898L145.879 198.79Z" fill="#B55B52"/>
  <path d="M146.311 186.523C140.801 186.77 135.558 195.927 135.558 195.927L142.078 209.234C142.078 209.234 152.718 202.58 152.852 194.495C152.934 189.242 151.74 186.275 146.311 186.523Z" fill="#445FEB"/>
  <path opacity="0.5" d="M146.311 186.523C140.801 186.77 135.558 195.927 135.558 195.927L142.078 209.234C142.078 209.234 152.718 202.58 152.852 194.495C152.934 189.242 151.74 186.275 146.311 186.523Z" fill="black"/>
  <path d="M130.182 250.589L136.897 252.587L132.427 257.109C132.427 257.109 127.596 255.615 126.917 252.329L130.182 250.589Z" fill="#B55B52"/>
  <path d="M140.956 257.747L139.833 262.073L132.427 257.109L136.897 252.587L140.956 257.747Z" fill="#B55B52"/>
  <path d="M294.895 212.97L132.017 216.866L133.485 278.277L296.364 274.382L294.895 212.97Z" fill="#445FEB"/>
  <path opacity="0.6" d="M294.895 212.97L132.017 216.866L133.485 278.277L296.364 274.382L294.895 212.97Z" fill="white"/>
  <path d="M286.709 218.059L225.988 219.511L226.535 242.401L287.257 240.949L286.709 218.059Z" fill="#445FEB"/>
  <path opacity="0.7" d="M286.709 218.059L225.988 219.511L226.535 242.401L287.257 240.949L286.709 218.059Z" fill="white"/>
  <path d="M254.151 246.556L193.43 248.009L193.977 270.899L254.699 269.447L254.151 246.556Z" fill="#445FEB"/>
  <path opacity="0.7" d="M254.151 246.556L193.43 248.009L193.977 270.899L254.699 269.447L254.151 246.556Z" fill="white"/>
  <path d="M184.37 166.232C184.267 166.86 184.514 167.437 184.926 167.509C185.338 167.581 185.761 167.149 185.874 166.479C185.987 165.81 185.719 165.274 185.307 165.192C184.895 165.109 184.422 165.593 184.37 166.232Z" fill="#263238"/>
  <path d="M185.07 165.233L186.657 165.088C186.657 165.088 185.688 166.118 185.07 165.233Z" fill="#263238"/>
  <path d="M184.751 166.942C185.081 168.494 185.618 169.994 186.348 171.402C185.982 171.57 185.585 171.656 185.184 171.656C184.782 171.656 184.385 171.57 184.02 171.402L184.751 166.942Z" fill="#A02724"/>
  <path d="M185.863 162.194C185.802 162.193 185.741 162.175 185.688 162.142C185.271 161.901 184.804 161.76 184.323 161.731C183.841 161.703 183.36 161.787 182.918 161.978C182.874 162.001 182.826 162.015 182.776 162.019C182.727 162.023 182.678 162.017 182.631 162.002C182.584 161.986 182.54 161.962 182.503 161.929C182.465 161.897 182.435 161.857 182.413 161.813C182.388 161.77 182.372 161.722 182.367 161.673C182.361 161.624 182.366 161.574 182.38 161.527C182.395 161.479 182.419 161.436 182.451 161.398C182.483 161.36 182.523 161.33 182.567 161.308C183.119 161.061 183.721 160.948 184.324 160.978C184.927 161.009 185.515 161.182 186.039 161.483C186.082 161.506 186.121 161.537 186.152 161.575C186.183 161.613 186.207 161.656 186.221 161.703C186.236 161.75 186.241 161.8 186.236 161.848C186.231 161.897 186.216 161.945 186.193 161.988C186.164 162.05 186.117 162.103 186.058 162.139C186 162.176 185.932 162.195 185.863 162.194Z" fill="#263238"/>
  <path d="M164.192 171.423C164.347 176.233 163.852 184.906 160.072 187.357C160.072 187.357 160.567 192.311 169.229 193.98C178.746 195.824 174.554 190.169 174.554 190.169C169.559 187.923 170.331 184.123 171.835 180.693L164.192 171.423Z" fill="#B55B52"/>
  <path d="M190.128 199.49C190.725 201.89 191.477 204.517 192.301 206.989C193.125 209.461 194.052 211.933 195.092 214.312C196.108 216.654 197.292 218.919 198.635 221.089C199.863 223.15 201.356 225.041 203.075 226.713C203.87 227.459 204.748 228.112 205.691 228.66C206.129 228.921 206.587 229.148 207.061 229.34L207.493 229.504C207.608 229.538 207.725 229.558 207.844 229.566C208.67 229.584 209.488 229.408 210.233 229.051C211.278 228.582 212.275 228.013 213.21 227.352C217.4 224.206 221.203 220.576 224.54 216.537L227.898 218.772C227.187 220.07 226.456 221.254 225.683 222.459C224.911 223.664 224.087 224.818 223.211 225.961C221.457 228.327 219.465 230.509 217.268 232.471C216.061 233.534 214.741 234.463 213.334 235.242C211.646 236.199 209.752 236.736 207.813 236.807C207.243 236.809 206.674 236.761 206.113 236.663C205.588 236.563 205.071 236.422 204.568 236.241C203.753 235.958 202.961 235.614 202.199 235.211C200.722 234.44 199.339 233.5 198.079 232.409C193.187 228.155 190.2 222.902 187.779 217.649C186.563 215.028 185.5 212.339 184.597 209.595C183.657 206.849 182.873 204.054 182.248 201.221L190.128 199.49Z" fill="#B55B52"/>
  <path d="M224.087 216.939L226.425 212.654L232.914 214.374C232.914 214.374 229.021 220.296 225.704 220.307L224.087 216.939Z" fill="#B55B52"/>
  <path d="M231.709 211.109L236.642 214.374H232.914L226.415 212.654L231.709 211.109Z" fill="#B55B52"/>
  <path d="M143.479 418.592L151.431 419.169L153.789 400.917L145.838 400.33L143.479 418.592Z" fill="#B55B52"/>
  <path d="M80.9167 379.328L86.4067 385.23L101.311 374.56L95.8105 368.658L80.9167 379.328Z" fill="#B55B52"/>
  <path d="M88.8169 384.314L84.2231 376.486C84.1505 376.35 84.0307 376.246 83.8864 376.193C83.7422 376.14 83.5834 376.141 83.4403 376.197L76.9101 378.834C76.7464 378.909 76.6006 379.018 76.4824 379.154C76.3643 379.29 76.2764 379.45 76.2248 379.622C76.1731 379.795 76.1588 379.976 76.1829 380.155C76.2069 380.333 76.2687 380.504 76.3642 380.657C78.0019 383.356 78.9289 384.581 80.9477 388.022C82.1837 390.082 83.7905 393.357 85.5003 396.262C87.2101 399.166 90.1147 397.693 89.6203 396.323C87.5603 390.195 88.5903 388.413 89.0435 385.694C89.1253 385.221 89.0455 384.735 88.8169 384.314Z" fill="#263238"/>
  <path d="M151.925 418.046H142.995C142.84 418.042 142.689 418.093 142.57 418.192C142.45 418.291 142.371 418.429 142.346 418.582L141.11 425.658C141.087 425.834 141.101 426.013 141.152 426.183C141.204 426.353 141.291 426.51 141.408 426.644C141.525 426.777 141.669 426.885 141.831 426.958C141.993 427.031 142.168 427.069 142.346 427.069C145.436 427.017 146.971 426.832 150.905 426.832C153.326 426.832 158.321 427.09 161.659 427.09C164.996 427.09 165.253 423.783 163.873 423.485C157.693 422.146 155.273 420.292 153.213 418.53C152.852 418.226 152.397 418.055 151.925 418.046Z" fill="#263238"/>
  <path d="M153.789 400.917L152.481 411.073L144.622 409.755L145.838 400.34L153.789 400.917Z" fill="#9E4541"/>
  <path d="M95.8106 368.658L101.311 374.56L95.1411 378.978L89.4452 373.21L95.8106 368.658Z" fill="#9E4541"/>
  <path d="M144.076 234.953L176.006 241.133C191.034 196.73 187.46 195.34 187.46 195.34C185.126 194.074 182.719 192.949 180.25 191.971L179.817 191.817C177.757 191.065 177.345 190.962 174.616 190.159C169.919 189.057 165.542 188.099 160.134 187.367L159.104 187.223C158.126 187.1 157.157 186.997 156.22 186.904C155.582 186.832 154.953 186.791 154.346 186.749L152.286 186.636C148.804 186.471 146.312 186.523 146.312 186.523C148.073 214.24 146.744 222.161 144.076 234.953Z" fill="#445FEB"/>
  <path opacity="0.5" d="M144.076 234.953L176.006 241.133C191.034 196.73 187.46 195.34 187.46 195.34C185.126 194.074 182.719 192.949 180.25 191.971L179.817 191.817C177.757 191.065 177.345 190.962 174.616 190.159C169.919 189.057 165.542 188.099 160.134 187.367L159.104 187.223C158.126 187.1 157.157 186.997 156.22 186.904C155.582 186.832 154.953 186.791 154.346 186.749L152.286 186.636C148.804 186.471 146.312 186.523 146.312 186.523C148.073 214.24 146.744 222.161 144.076 234.953Z" fill="black"/>
  <path d="M180.981 208.833C180.066 213.473 180.389 218.272 181.919 222.748C184.566 214.075 186.039 208.142 186.883 204.084C184.442 203.765 181.836 204.558 180.981 208.833Z" fill="#445FEB"/>
  <path opacity="0.6" d="M180.981 208.833C180.066 213.473 180.389 218.272 181.919 222.748C184.566 214.075 186.039 208.142 186.883 204.084C184.442 203.765 181.836 204.558 180.981 208.833Z" fill="black"/>
  <path d="M187.161 195.185C192.486 198.656 195.875 206.391 196.771 210.81L184.411 220.873C184.411 220.873 177.685 205.856 179.889 202.024C182.207 198.028 185.153 193.877 187.161 195.185Z" fill="#445FEB"/>
  <path opacity="0.5" d="M187.161 195.185C192.486 198.656 195.875 206.391 196.771 210.81L184.411 220.873C184.411 220.873 177.685 205.856 179.889 202.024C182.207 198.028 185.153 193.877 187.161 195.185Z" fill="black"/>
  <path d="M163.409 160.392C162.616 168.22 162.101 171.516 165.377 176.243C170.3 183.361 180.126 182.918 183.258 175.553C186.08 168.93 186.914 157.24 179.807 152.687C178.295 151.659 176.541 151.043 174.718 150.899C172.896 150.754 171.067 151.087 169.412 151.865C167.757 152.642 166.333 153.838 165.281 155.333C164.228 156.828 163.583 158.571 163.409 160.392Z" fill="#B55B52"/>
  <path d="M163.523 144.416C158.713 147.98 161.792 148.835 159.743 152.43C157.549 156.282 155.242 151.894 150.874 156.127C148.042 158.877 152.934 161.792 149.36 166.633C146.621 170.393 143.654 167.138 144.808 174.873C145.601 180.137 142.377 179.477 140.204 182.454C137.114 186.718 139.884 189.777 147.836 191.384C155.788 192.991 150.123 200.984 157.6 201.221C165.758 201.489 163.863 190.859 167.839 193.444C171.814 196.03 179.055 193.671 178.612 187.316C178.221 181.486 171.742 181.692 176.985 177.706C181.105 174.616 182.351 174.616 179.447 167.983C176.985 162.338 186.028 163.203 185.864 158.311C185.555 149.484 179.447 152.131 177.521 147.609C176.274 144.643 169.682 139.843 163.523 144.416Z" fill="#263238"/>
  <path d="M178.623 164.47C178.663 165.933 179.156 167.347 180.034 168.518C181.249 170.177 182.681 169.744 183.031 168.22C183.35 166.85 183.103 164.336 181.548 163.183C179.992 162.029 178.633 162.833 178.623 164.47Z" fill="#B55B52"/>
  <path d="M167.55 239.506C167.55 239.506 152.018 291.531 144.427 321.494C136.413 353.115 98.2002 378.875 98.2002 378.875L90.0529 370.8C90.0529 370.8 115.597 349.242 123.353 319.733C139.101 259.848 131.521 247.159 144.076 234.984L167.55 239.506Z" fill="#445FEB"/>
  <path opacity="0.8" d="M167.55 239.506C167.55 239.506 152.018 291.531 144.427 321.494C136.413 353.115 98.2002 378.875 98.2002 378.875L90.0529 370.8C90.0529 370.8 115.597 349.242 123.353 319.733C139.101 259.848 131.521 247.159 144.076 234.984L167.55 239.506Z" fill="white"/>
  <path d="M98.9108 380.06L88.7241 369.935L91.4948 366.865L103.886 377.413L98.9108 380.06Z" fill="#445FEB"/>
  <path d="M160.258 250.589C150.061 258.448 149.381 288.4 149.618 301.934C154.768 283.013 160.948 261.97 164.512 249.796C163.533 248.972 162.132 249.137 160.258 250.589Z" fill="#445FEB"/>
  <path opacity="0.6" d="M160.258 250.589C150.061 258.448 149.381 288.4 149.618 301.934C154.768 283.013 160.948 261.97 164.512 249.796C163.533 248.972 162.132 249.137 160.258 250.589Z" fill="white"/>
  <path d="M90.4649 388.557C90.3695 388.573 90.272 388.573 90.1765 388.557C89.2083 388.259 88.5182 386.497 88.1887 385.467C88.1785 385.432 88.179 385.395 88.19 385.36C88.201 385.325 88.222 385.294 88.2504 385.272C88.2804 385.25 88.3164 385.238 88.3534 385.238C88.3905 385.238 88.4265 385.25 88.4564 385.272C88.7551 385.416 91.3301 386.765 91.4331 387.774C91.4426 387.887 91.4229 388 91.376 388.103C91.3291 388.206 91.2566 388.295 91.1653 388.362C90.9607 388.504 90.7138 388.573 90.4649 388.557ZM88.7036 385.745C89.1774 387.105 89.7336 387.991 90.2795 388.156C90.3952 388.185 90.5165 388.184 90.6319 388.154C90.7473 388.123 90.8529 388.063 90.9387 387.98C90.9797 387.955 91.0123 387.918 91.0324 387.874C91.0526 387.83 91.0594 387.781 91.052 387.733C91.0005 387.198 89.713 386.312 88.7036 385.745Z" fill="#445FEB"/>
  <path d="M175.491 241.133C175.491 241.133 177.479 304.087 173.03 327.797C168.405 352.456 154.315 408.56 154.315 408.56L142.851 407.077C142.851 407.077 150.061 350.427 153.151 325.902C156.498 299.184 152.121 236.612 152.121 236.612L175.491 241.133Z" fill="#445FEB"/>
  <path opacity="0.8" d="M175.491 241.133C175.491 241.133 177.479 304.087 173.03 327.797C168.405 352.456 154.315 408.56 154.315 408.56L142.851 407.077C142.851 407.077 150.061 350.427 153.151 325.902C156.498 299.184 152.121 236.612 152.121 236.612L175.491 241.133Z" fill="white"/>
  <path d="M156.756 409.209L140.41 407.107L140.605 403.224L158.393 403.997L156.756 409.209Z" fill="#445FEB"/>
  <path d="M90.7223 386.075C89.8746 386.069 89.0382 385.879 88.2709 385.519C88.2445 385.5 88.2226 385.475 88.2066 385.446C88.1906 385.418 88.1809 385.386 88.1782 385.354C88.1805 385.32 88.1911 385.287 88.2091 385.259C88.227 385.23 88.2518 385.206 88.2812 385.189C88.3636 385.138 90.3412 384.015 91.3712 384.375C91.513 384.42 91.6434 384.494 91.7536 384.594C91.8639 384.694 91.9513 384.816 92.0098 384.952C92.086 385.084 92.1143 385.238 92.0899 385.388C92.0655 385.538 91.9899 385.675 91.8759 385.776C91.5357 386.002 91.1295 386.107 90.7223 386.075ZM88.7859 385.344C89.682 385.704 91.2373 385.859 91.6493 385.488C91.7214 385.436 91.7832 385.333 91.6493 385.107C91.616 385.018 91.5623 384.938 91.4925 384.874C91.4228 384.809 91.3389 384.762 91.2476 384.736C90.3842 384.682 89.5251 384.894 88.7859 385.344Z" fill="#445FEB"/>
  <path d="M154.881 419.437C154.043 419.419 153.208 419.322 152.388 419.148C152.35 419.141 152.315 419.122 152.288 419.095C152.26 419.067 152.241 419.032 152.234 418.994C152.228 418.954 152.234 418.914 152.253 418.879C152.272 418.844 152.301 418.815 152.337 418.798C152.697 418.613 155.921 416.985 156.879 417.531C156.968 417.581 157.043 417.652 157.097 417.739C157.151 417.825 157.182 417.924 157.188 418.026C157.208 418.197 157.185 418.371 157.12 418.531C157.055 418.691 156.951 418.833 156.817 418.942C156.248 419.324 155.564 419.499 154.881 419.437ZM153.017 418.88C154.768 419.169 156.107 419.097 156.57 418.664C156.657 418.59 156.724 418.496 156.765 418.39C156.806 418.284 156.821 418.169 156.807 418.056C156.808 418.015 156.798 417.974 156.778 417.938C156.758 417.902 156.729 417.872 156.694 417.85C156.168 417.562 154.345 418.252 153.017 418.88Z" fill="#445FEB"/>
  <path d="M152.44 419.148C152.406 419.157 152.371 419.157 152.337 419.148C152.309 419.129 152.287 419.102 152.273 419.072C152.258 419.041 152.252 419.007 152.255 418.973C152.255 418.829 152.677 415.378 154.572 415.584C155.087 415.636 155.242 415.904 155.273 416.11C155.417 417.006 153.491 418.736 152.522 419.2L152.44 419.148ZM154.428 415.924C153.274 415.924 152.821 417.819 152.687 418.623C153.717 418.036 154.984 416.676 154.902 416.14C154.902 416.14 154.902 415.965 154.531 415.935L154.428 415.924Z" fill="#445FEB"/>
  <path d="M143.912 233.007L142.006 235.561C141.852 235.767 142.078 236.035 142.449 236.107L175.893 242.586C176.181 242.647 176.449 242.586 176.49 242.369L177.253 239.588C177.253 239.393 177.078 239.187 176.769 239.125L144.468 232.862C144.371 232.835 144.268 232.833 144.17 232.859C144.072 232.884 143.983 232.935 143.912 233.007Z" fill="#445FEB"/>
  <path d="M147.65 237.436L146.785 237.271C146.62 237.271 146.497 237.116 146.528 237.013L147.558 233.408C147.558 233.305 147.753 233.243 147.918 233.274L148.783 233.439C148.959 233.439 149.072 233.594 149.041 233.697L148.011 237.302C147.99 237.405 147.826 237.466 147.65 237.436Z" fill="#445FEB"/>
  <path opacity="0.8" d="M147.65 237.436L146.785 237.271C146.62 237.271 146.497 237.116 146.528 237.013L147.558 233.408C147.558 233.305 147.753 233.243 147.918 233.274L148.783 233.439C148.959 233.439 149.072 233.594 149.041 233.697L148.011 237.302C147.99 237.405 147.826 237.466 147.65 237.436Z" fill="white"/>
  <path d="M169.497 241.72L168.632 241.545C168.456 241.545 168.343 241.401 168.374 241.298L169.404 237.683C169.404 237.58 169.6 237.518 169.775 237.559L170.64 237.724C170.815 237.724 170.928 237.868 170.898 237.982L169.868 241.587C169.837 241.69 169.672 241.751 169.497 241.72Z" fill="#445FEB"/>
  <path opacity="0.8" d="M169.497 241.72L168.632 241.545C168.456 241.545 168.343 241.401 168.374 241.298L169.404 237.683C169.404 237.58 169.6 237.518 169.775 237.559L170.64 237.724C170.815 237.724 170.928 237.868 170.898 237.982L169.868 241.587C169.837 241.69 169.672 241.751 169.497 241.72Z" fill="white"/>
</svg>
