<svg width="38" height="30" viewBox="0 0 38 30" fill="none" xmlns="http://www.w3.org/2000/svg">
  <path d="M33.6667 0.333252H4.33335C2.31669 0.333252 0.666687 1.98325 0.666687 3.99992V25.9999C0.666687 28.0166 2.31669 29.6666 4.33335 29.6666H33.6667C35.6834 29.6666 37.3334 28.0166 37.3334 25.9999V3.99992C37.3334 1.98325 35.6834 0.333252 33.6667 0.333252ZM33.6667 25.9999H4.33335V3.99992H33.6667V25.9999Z" fill="black"/>
  <path d="M8.89833 12.25V20.5H11.0067V9.5H9.41166L6.185 11.8283L7.24833 13.46L8.89833 12.25Z" fill="black"/>
  <path d="M18.0283 11.4249C18.945 11.4249 19.5133 12.0116 19.5133 12.7449C19.5133 13.4233 19.2567 13.9183 18.5233 14.6883C17.8633 15.3849 16.58 16.6683 14.6183 18.6299V20.4999H21.75V18.6849H17.405L17.35 18.5933C18.5967 17.3466 19.4583 16.5033 19.9167 16.0449C21.035 14.9449 21.6033 13.8083 21.6033 12.6349C21.6033 12.1949 21.5117 10.7283 19.935 9.9216C19.0733 9.49993 17.625 9.2616 16.36 9.8666C14.8567 10.5816 14.545 11.9383 14.5267 11.9749L16.3783 12.7449C16.5617 12.1399 17.075 11.4249 18.0283 11.4249Z" fill="black"/>
  <path d="M28.1483 18.5567C26.6267 18.5567 26.3333 17.1633 26.2783 16.98L24.39 17.7317C25.215 20.6467 28.075 20.5 28.1483 20.5C30.3483 20.5 31.2283 19.18 31.375 18.9417C31.9617 18.0433 32.035 16.6683 31.3567 15.715C31.045 15.275 30.6233 14.9633 30.11 14.7617V14.6333C30.4767 14.45 30.7883 14.1567 31.0633 13.7533C31.54 13.0017 31.6317 11.7917 31.0267 10.875C30.88 10.6733 30.055 9.5 28.0567 9.5C25.7467 9.5 24.8667 11.15 24.665 11.7733L26.48 12.525C26.6817 11.9383 27.1217 11.3517 28.0383 11.3517C28.845 11.3517 29.4133 11.8283 29.4133 12.5433C29.4133 13.6067 28.405 13.8633 27.8 13.8633H26.9567V15.6967H27.8733C28.9 15.6967 29.78 16.1367 29.78 17.145C29.78 18.0433 28.9 18.5567 28.1483 18.5567Z" fill="black"/>
</svg>
