<svg width="44" height="44" viewBox="0 0 44 44" fill="none" xmlns="http://www.w3.org/2000/svg">
  <path d="M20.1667 10.0834H14.6667V7.33341H15.5833C16.5917 7.33341 17.4167 6.50841 17.4167 5.50008C17.4167 4.49175 16.5917 3.66675 15.5833 3.66675H10.0833C9.07499 3.66675 8.24999 4.49175 8.24999 5.50008C8.24999 6.50841 9.07499 7.33341 10.0833 7.33341H11V10.0834H5.49999C4.49166 10.0834 3.66666 10.9084 3.66666 11.9167C3.66666 12.9251 4.49166 13.7501 5.49999 13.7501V27.5001C5.49999 29.5167 7.14999 31.1667 9.16666 31.1667H11V38.5001L14.6667 41.2501V31.1667H16.5C18.5167 31.1667 20.1667 29.5167 20.1667 27.5001V13.7501C21.175 13.7501 22 12.9251 22 11.9167C22 10.9084 21.175 10.0834 20.1667 10.0834ZM16.5 16.5001H13.2917C12.54 16.5001 11.9167 17.1234 11.9167 17.8751C11.9167 18.6267 12.54 19.2501 13.2917 19.2501H16.5V22.0001H13.2917C12.54 22.0001 11.9167 22.6234 11.9167 23.3751C11.9167 24.1267 12.54 24.7501 13.2917 24.7501H16.5V27.5001H9.16666V13.7501H16.5V16.5001ZM35.75 19.2501V18.3334C36.7583 18.3334 37.5833 17.5084 37.5833 16.5001C37.5833 15.4917 36.7583 14.6667 35.75 14.6667H26.5833C25.575 14.6667 24.75 15.4917 24.75 16.5001C24.75 17.5084 25.575 18.3334 26.5833 18.3334V19.2501C26.5833 20.1667 23.8333 21.3767 23.8333 24.7501V36.6667C23.8333 38.6834 25.4833 40.3334 27.5 40.3334H34.8333C36.85 40.3334 38.5 38.6834 38.5 36.6667V24.7501C38.5 21.3767 35.75 20.1667 35.75 19.2501ZM30.25 19.2501V18.3334H32.0833V19.2501C32.0833 22.1834 34.8333 22.9167 34.8333 24.7501V25.6667H27.5C27.5 25.2817 27.5 24.9517 27.5 24.7501C27.5 22.9167 30.25 22.1834 30.25 19.2501ZM34.8333 28.4167V31.1667H27.5C27.5 30.2317 27.5 29.2967 27.5 28.4167H34.8333ZM27.5 36.6667C27.5 36.6667 27.5 35.5117 27.5 33.9167H34.8333V36.6667H27.5Z" fill="black"/>
</svg>
