<svg width="192" height="188" viewBox="0 0 192 188" fill="none" xmlns="http://www.w3.org/2000/svg">
<g clip-path="url(#clip0_3664_19088)">
<g clip-path="url(#clip1_3664_19088)">
<path d="M83.1562 113.125C83.1562 118.386 78.8862 122.656 73.625 122.656C68.3638 122.656 64.0938 118.386 64.0938 113.125C64.0938 107.864 68.3638 103.594 73.625 103.594C78.8862 103.594 83.1562 107.864 83.1562 113.125ZM119.375 103.594C114.114 103.594 109.844 107.864 109.844 113.125C109.844 118.386 114.114 122.656 119.375 122.656C124.636 122.656 128.906 118.386 128.906 113.125C128.906 107.864 124.636 103.594 119.375 103.594ZM172.75 105.5C172.75 147.59 138.59 181.75 96.5 181.75C54.41 181.75 20.25 147.59 20.25 105.5C20.25 63.41 54.41 29.25 96.5 29.25C138.59 29.25 172.75 63.41 172.75 105.5ZM86.2825 45.415C96.9575 63.105 116.325 75 138.438 75C141.945 75 145.376 74.6188 148.655 74.085C137.98 56.395 118.613 44.5 96.5 44.5C92.9925 44.5 89.5612 44.8812 86.2825 45.415ZM38.7025 86.2088C51.7413 78.8125 61.8062 66.765 66.61 52.3538C53.5713 59.75 43.5063 71.7975 38.7025 86.2088ZM157.5 105.5C157.5 99.5525 156.585 93.8337 154.984 88.42C149.646 89.5638 144.156 90.25 138.438 90.25C114.571 90.25 93.2975 79.27 79.2675 62.1138C71.2612 81.6338 55.325 96.96 35.5 104.432C35.5763 104.737 35.5 105.119 35.5 105.5C35.5 139.126 62.8738 166.5 96.5 166.5C130.126 166.5 157.5 139.126 157.5 105.5Z" fill="black"/>
</g>
</g>
<defs>
<clipPath id="clip0_3664_19088">
<rect width="192" height="188" fill="white"/>
</clipPath>
<clipPath id="clip1_3664_19088">
<rect width="183" height="183" fill="white" transform="translate(5 14)"/>
</clipPath>
</defs>
</svg>