<svg width="193" height="193" viewBox="0 0 193 193" fill="none" xmlns="http://www.w3.org/2000/svg">
<g clip-path="url(#clip0_3664_19097)">
<path d="M152.148 48.3311C150.54 43.5865 146.037 40.209 140.729 40.209H52.2708C46.9633 40.209 42.5404 43.5865 40.8517 48.3311L24.125 96.5007V160.834C24.125 165.257 27.7438 168.876 32.1667 168.876H40.2083C44.6313 168.876 48.25 165.257 48.25 160.834V152.792H144.75V160.834C144.75 165.257 148.369 168.876 152.792 168.876H160.833C165.256 168.876 168.875 165.257 168.875 160.834V96.5007L152.148 48.3311ZM55.0854 56.2923H137.834L146.519 81.3019H46.4004L55.0854 56.2923ZM152.792 136.709H40.2083V96.5007H152.792V136.709Z" fill="black"/>
<path d="M60.3125 128.666C66.9744 128.666 72.375 123.265 72.375 116.604C72.375 109.942 66.9744 104.541 60.3125 104.541C53.6506 104.541 48.25 109.942 48.25 116.604C48.25 123.265 53.6506 128.666 60.3125 128.666Z" fill="black"/>
<path d="M132.688 128.666C139.349 128.666 144.75 123.265 144.75 116.604C144.75 109.942 139.349 104.541 132.688 104.541C126.026 104.541 120.625 109.942 120.625 116.604C120.625 123.265 126.026 128.666 132.688 128.666Z" fill="black"/>
</g>
<defs>
<clipPath id="clip0_3664_19097">
<rect width="193" height="193" fill="white"/>
</clipPath>
</defs>
</svg>