<svg width="150" height="150" viewBox="0 0 150 150" fill="none" xmlns="http://www.w3.org/2000/svg">
<path d="M118.75 118.75H50C46.5625 118.75 43.6198 117.526 41.1719 115.078C38.724 112.63 37.5 109.688 37.5 106.25V18.75C37.5 15.3125 38.724 12.3698 41.1719 9.92188C43.6198 7.47396 46.5625 6.25 50 6.25H93.75L131.25 43.75V106.25C131.25 109.688 130.026 112.63 127.578 115.078C125.13 117.526 122.188 118.75 118.75 118.75ZM87.5 50V18.75H50V106.25H118.75V50H87.5ZM25 143.75C21.5625 143.75 18.6198 142.526 16.1719 140.078C13.724 137.63 12.5 134.688 12.5 131.25V43.75H25V131.25H93.75V143.75H25Z" fill="black"/>
</svg>
