<svg width="160" height="160" viewBox="0 0 160 160" fill="none" xmlns="http://www.w3.org/2000/svg">
<path d="M73.3332 120.001H86.6665V100.001H106.666V86.6673H86.6665V66.6673H73.3332V86.6673H53.3332V100.001H73.3332V120.001ZM39.9998 146.667C36.3332 146.667 33.1943 145.362 30.5832 142.751C27.9721 140.14 26.6665 137.001 26.6665 133.334V26.6673C26.6665 23.0007 27.9721 19.8618 30.5832 17.2507C33.1943 14.6395 36.3332 13.334 39.9998 13.334H93.3332L133.333 53.334V133.334C133.333 137.001 132.028 140.14 129.416 142.751C126.805 145.362 123.666 146.667 120 146.667H39.9998ZM86.6665 60.0006V26.6673H39.9998V133.334H120V60.0006H86.6665Z" fill="black"/>
</svg>