<svg width="154" height="154" viewBox="0 0 154 154" fill="none" xmlns="http://www.w3.org/2000/svg">
<path d="M41.7083 38.5007C38.1792 38.5007 35.158 37.2441 32.6448 34.7309C30.1316 32.2177 28.875 29.1965 28.875 25.6673C28.875 22.1382 30.1316 19.117 32.6448 16.6038C35.158 14.0906 38.1792 12.834 41.7083 12.834C45.2375 12.834 48.2587 14.0906 50.7719 16.6038C53.2851 19.117 54.5417 22.1382 54.5417 25.6673C54.5417 29.1965 53.2851 32.2177 50.7719 34.7309C48.2587 37.2441 45.2375 38.5007 41.7083 38.5007ZM109.083 70.584C106.41 70.584 104.137 69.6482 102.266 67.7767C100.394 65.9052 99.4583 63.6326 99.4583 60.959C99.4583 58.2854 100.394 56.0128 102.266 54.1413C104.137 52.2697 106.41 51.334 109.083 51.334C111.757 51.334 114.03 52.2697 115.901 54.1413C117.773 56.0128 118.708 58.2854 118.708 60.959C118.708 63.6326 117.773 65.9052 115.901 67.7767C114.03 69.6482 111.757 70.584 109.083 70.584ZM28.875 141.167V96.2506H19.25V57.7506C19.25 54.2215 20.5066 51.2003 23.0198 48.6871C25.533 46.1739 28.5542 44.9173 32.0833 44.9173H51.3333C53.6861 44.9173 55.825 45.4788 57.75 46.6017C59.675 47.7246 61.2257 49.302 62.4021 51.334L85.3417 90.9569L91.9188 81.1715C92.7743 79.8882 93.924 78.8722 95.3677 78.1236C96.8115 77.375 98.3354 77.0006 99.9396 77.0006H118.708C121.382 77.0006 123.655 77.9364 125.526 79.8079C127.398 81.6795 128.333 83.952 128.333 86.6256V109.084H121.917V141.167H96.25V95.609L91.2771 102.667H77.1604L60.9583 74.434V141.167H28.875Z" fill="black"/>
</svg>
