<svg width="200" height="200" viewBox="0 0 200 200" fill="none" xmlns="http://www.w3.org/2000/svg">
<path d="M99.9999 16.666C106.944 16.666 112.847 19.0966 117.708 23.9577C122.569 28.8188 125 34.7216 125 41.666C125 48.6105 122.569 54.5132 117.708 59.3744C112.847 64.2355 106.944 66.666 99.9999 66.666C93.0555 66.666 87.1527 64.2355 82.2916 59.3744C77.4305 54.5132 74.9999 48.6105 74.9999 41.666C74.9999 34.7216 77.4305 28.8188 82.2916 23.9577C87.1527 19.0966 93.0555 16.666 99.9999 16.666ZM99.9999 74.9994C106.528 74.9994 112.986 75.7632 119.375 77.291C125.764 78.8188 131.528 80.9716 136.667 83.7494C141.944 86.3882 146.18 89.5132 149.375 93.1244C152.569 96.7355 154.167 100.694 154.167 104.999V153.333C154.167 155.694 153.611 158.02 152.5 160.312C151.389 162.604 149.861 164.722 147.917 166.666C145.972 168.61 143.715 170.416 141.146 172.083C138.576 173.749 135.694 175.277 132.5 176.666V157.916C132.5 152.638 128.854 148.333 121.562 144.999C114.271 141.666 107.083 139.999 99.9999 139.999C93.0555 139.999 86.3541 141.423 79.8958 144.27C73.4374 147.117 69.4444 150.833 67.9166 155.416C73.1944 157.499 78.611 158.958 84.1666 159.791C89.7221 160.624 95.4166 161.11 101.25 161.249H108.333V182.916C107.361 183.194 106.354 183.333 105.312 183.333H102.083C97.0833 183.333 91.3541 182.777 84.8958 181.666C78.4374 180.555 72.2916 178.819 66.4583 176.458C60.6249 174.097 55.7291 171.006 51.7708 167.187C47.8124 163.367 45.8333 158.749 45.8333 153.333V104.999C45.8333 100.694 47.4305 96.7355 50.6249 93.1244C53.8194 89.5132 57.986 86.3882 63.1249 83.7494C68.4027 80.9716 74.236 78.8188 80.6249 77.291C87.0138 75.7632 93.4721 74.9994 99.9999 74.9994ZM99.9999 124.999C104.583 124.999 108.507 123.367 111.771 120.104C115.035 116.84 116.667 112.916 116.667 108.333C116.667 103.749 115.035 99.8257 111.771 96.5619C108.507 93.298 104.583 91.666 99.9999 91.666C95.4166 91.666 91.493 93.298 88.2291 96.5619C84.9652 99.8257 83.3333 103.749 83.3333 108.333C83.3333 112.916 84.9652 116.84 88.2291 120.104C91.493 123.367 95.4166 124.999 99.9999 124.999Z" fill="black"/>
</svg>
