<svg width="171" height="171" viewBox="0 0 171 171" fill="none" xmlns="http://www.w3.org/2000/svg">
<path d="M41.6812 121.837C47.7375 117.206 54.5062 113.555 61.9875 110.883C69.4688 108.211 77.3062 106.875 85.5 106.875C93.6937 106.875 101.531 108.211 109.012 110.883C116.494 113.555 123.262 117.206 129.319 121.837C133.475 116.969 136.711 111.447 139.027 105.272C141.342 99.0969 142.5 92.5062 142.5 85.5C142.5 69.7062 136.948 56.2578 125.845 45.1547C114.742 34.0516 101.294 28.5 85.5 28.5C69.7062 28.5 56.2578 34.0516 45.1547 45.1547C34.0516 56.2578 28.5 69.7062 28.5 85.5C28.5 92.5062 29.6578 99.0969 31.9734 105.272C34.2891 111.447 37.525 116.969 41.6812 121.837ZM85.5 92.625C78.4938 92.625 72.5859 90.2203 67.7766 85.4109C62.9672 80.6016 60.5625 74.6937 60.5625 67.6875C60.5625 60.6812 62.9672 54.7734 67.7766 49.9641C72.5859 45.1547 78.4938 42.75 85.5 42.75C92.5062 42.75 98.4141 45.1547 103.223 49.9641C108.033 54.7734 110.438 60.6812 110.438 67.6875C110.438 74.6937 108.033 80.6016 103.223 85.4109C98.4141 90.2203 92.5062 92.625 85.5 92.625ZM85.5 156.75C75.6437 156.75 66.3812 154.88 57.7125 151.139C49.0437 147.398 41.5031 142.322 35.0906 135.909C28.6781 129.497 23.6016 121.956 19.8609 113.287C16.1203 104.619 14.25 95.3562 14.25 85.5C14.25 75.6437 16.1203 66.3812 19.8609 57.7125C23.6016 49.0437 28.6781 41.5031 35.0906 35.0906C41.5031 28.6781 49.0437 23.6016 57.7125 19.8609C66.3812 16.1203 75.6437 14.25 85.5 14.25C95.3562 14.25 104.619 16.1203 113.287 19.8609C121.956 23.6016 129.497 28.6781 135.909 35.0906C142.322 41.5031 147.398 49.0437 151.139 57.7125C154.88 66.3812 156.75 75.6437 156.75 85.5C156.75 95.3562 154.88 104.619 151.139 113.287C147.398 121.956 142.322 129.497 135.909 135.909C129.497 142.322 121.956 147.398 113.287 151.139C104.619 154.88 95.3562 156.75 85.5 156.75ZM85.5 142.5C91.7937 142.5 97.7312 141.58 103.312 139.739C108.894 137.898 114 135.256 118.631 131.812C114 128.369 108.894 125.727 103.312 123.886C97.7312 122.045 91.7937 121.125 85.5 121.125C79.2062 121.125 73.2687 122.045 67.6875 123.886C62.1062 125.727 57 128.369 52.3687 131.812C57 135.256 62.1062 137.898 67.6875 139.739C73.2687 141.58 79.2062 142.5 85.5 142.5ZM85.5 78.375C88.5875 78.375 91.1406 77.3656 93.1594 75.3469C95.1781 73.3281 96.1875 70.775 96.1875 67.6875C96.1875 64.6 95.1781 62.0469 93.1594 60.0281C91.1406 58.0094 88.5875 57 85.5 57C82.4125 57 79.8594 58.0094 77.8406 60.0281C75.8219 62.0469 74.8125 64.6 74.8125 67.6875C74.8125 70.775 75.8219 73.3281 77.8406 75.3469C79.8594 77.3656 82.4125 78.375 85.5 78.375Z" fill="black"/>
</svg>
