<svg width="170" height="170" viewBox="0 0 170 170" fill="none" xmlns="http://www.w3.org/2000/svg">
<path d="M36.1252 113.688C33.5279 109.202 31.58 104.598 30.2814 99.8757C28.9828 95.1534 28.3335 90.3132 28.3335 85.3548C28.3335 69.5354 33.8231 56.077 44.8022 44.9798C55.7814 33.8826 69.1807 28.334 85.0002 28.334H86.2397L74.9064 17.0007L84.8231 7.08398L113.156 35.4173L84.8231 63.7507L74.9064 53.834L86.2397 42.5007H85.0002C73.1946 42.5007 63.1599 46.6621 54.896 54.985C46.6321 63.3079 42.5002 73.4312 42.5002 85.3548C42.5002 88.4243 42.8543 91.4347 43.5627 94.3861C44.271 97.3375 45.3335 100.23 46.7502 103.063L36.1252 113.688ZM85.1772 162.917L56.8439 134.584L85.1772 106.251L95.0939 116.167L83.7606 127.501H85.0002C96.8057 127.501 106.84 123.339 115.104 115.016C123.368 106.693 127.5 96.5701 127.5 84.6465C127.5 81.577 127.146 78.5666 126.438 75.6152C125.729 72.6638 124.667 69.7715 123.25 66.9382L133.875 56.3132C136.472 60.7993 138.42 65.4034 139.719 70.1257C141.018 74.8479 141.667 79.6882 141.667 84.6465C141.667 100.466 136.177 113.924 125.198 125.021C114.219 136.119 100.82 141.667 85.0002 141.667H83.7606L95.0939 153.001L85.1772 162.917Z" fill="black"/>
</svg>