<svg width="192" height="188" viewBox="0 0 192 188" fill="none" xmlns="http://www.w3.org/2000/svg">
<g clip-path="url(#clip0_3664_19073)">
<path d="M160 31.334H32C23.2 31.334 16 38.384 16 47.0006V141.001C16 149.617 23.2 156.667 32 156.667H160C168.8 156.667 176 149.617 176 141.001V47.0006C176 38.384 168.8 31.334 160 31.334ZM160 141.001H32V47.0006H160V141.001Z" fill="black"/>
<path d="M51.9201 82.25V117.5H61.1201V70.5H54.1601L40.0801 80.4483L44.7201 87.42L51.9201 82.25Z" fill="black"/>
<path d="M91.7605 78.7263C95.7605 78.7263 98.2405 81.2329 98.2405 84.3663C98.2405 87.2646 97.1205 89.3796 93.9205 92.6696C91.0405 95.6463 85.4405 101.13 76.8805 109.511V117.501H108V109.746H89.0405L88.8005 109.355C94.2405 104.028 98.0005 100.425 100 98.4663C104.88 93.7663 107.36 88.9096 107.36 83.8963C107.36 82.0163 106.96 75.7496 100.08 72.3029C96.3205 70.5013 90.0005 69.4829 84.4805 72.0679C77.9205 75.1229 76.5605 80.9196 76.4805 81.0763L84.5605 84.3663C85.3605 81.7813 87.6005 78.7263 91.7605 78.7263Z" fill="black"/>
<path d="M135.92 109.197C129.28 109.197 128 103.243 127.76 102.46L119.52 105.672C123.12 118.127 135.6 117.5 135.92 117.5C145.52 117.5 149.36 111.86 150 110.842C152.56 107.003 152.88 101.128 149.92 97.055C148.56 95.175 146.72 93.8433 144.48 92.9817V92.4333C146.08 91.65 147.44 90.3967 148.64 88.6733C150.72 85.4617 151.12 80.2917 148.48 76.375C147.84 75.5133 144.24 70.5 135.52 70.5C125.44 70.5 121.6 77.55 120.72 80.2133L128.64 83.425C129.52 80.9183 131.44 78.4117 135.44 78.4117C138.96 78.4117 141.44 80.4483 141.44 83.5033C141.44 88.0467 137.04 89.1433 134.4 89.1433H130.72V96.9767H134.72C139.2 96.9767 143.04 98.8567 143.04 103.165C143.04 107.003 139.2 109.197 135.92 109.197Z" fill="black"/>
</g>
<defs>
<clipPath id="clip0_3664_19073">
<rect width="192" height="188" fill="white"/>
</clipPath>
</defs>
</svg>