<svg width="147" height="147" viewBox="0 0 147 147" fill="none" xmlns="http://www.w3.org/2000/svg">
<path d="M49 137.812L36.75 128.625V104.125H30.625C27.2563 104.125 24.3724 102.926 21.9734 100.527C19.5745 98.1276 18.375 95.2438 18.375 91.875V45.9375C16.6396 45.9375 15.1849 45.3505 14.0109 44.1766C12.837 43.0026 12.25 41.5479 12.25 39.8125C12.25 38.0771 12.837 36.6224 14.0109 35.4484C15.1849 34.2745 16.6396 33.6875 18.375 33.6875H36.75V24.5H33.6875C31.9521 24.5 30.4974 23.913 29.3234 22.7391C28.1495 21.5651 27.5625 20.1104 27.5625 18.375C27.5625 16.6396 28.1495 15.1849 29.3234 14.0109C30.4974 12.837 31.9521 12.25 33.6875 12.25H52.0625C53.7979 12.25 55.2526 12.837 56.4266 14.0109C57.6005 15.1849 58.1875 16.6396 58.1875 18.375C58.1875 20.1104 57.6005 21.5651 56.4266 22.7391C55.2526 23.913 53.7979 24.5 52.0625 24.5H49V33.6875H67.375C69.1104 33.6875 70.5651 34.2745 71.7391 35.4484C72.913 36.6224 73.5 38.0771 73.5 39.8125C73.5 41.5479 72.913 43.0026 71.7391 44.1766C70.5651 45.3505 69.1104 45.9375 67.375 45.9375V91.875C67.375 95.2438 66.1755 98.1276 63.7766 100.527C61.3776 102.926 58.4938 104.125 55.125 104.125H49V137.812ZM30.625 91.875H55.125V82.6875H44.4062C43.1813 82.6875 42.1094 82.2281 41.1906 81.3094C40.2719 80.3906 39.8125 79.3187 39.8125 78.0938C39.8125 76.8688 40.2719 75.7969 41.1906 74.8781C42.1094 73.9594 43.1813 73.5 44.4062 73.5H55.125V64.3125H44.4062C43.1813 64.3125 42.1094 63.8531 41.1906 62.9344C40.2719 62.0156 39.8125 60.9438 39.8125 59.7188C39.8125 58.4938 40.2719 57.4219 41.1906 56.5031C42.1094 55.5844 43.1813 55.125 44.4062 55.125H55.125V45.9375H30.625V91.875ZM91.875 134.75C88.5062 134.75 85.6224 133.551 83.2234 131.152C80.8245 128.753 79.625 125.869 79.625 122.5V82.6875C79.625 79.7271 80.1354 77.2771 81.1562 75.3375C82.1771 73.3979 83.249 71.7135 84.3719 70.2844C85.4948 68.8552 86.5156 67.7068 87.4344 66.8391C88.3531 65.9714 88.8125 65.1292 88.8125 64.3125V61.25C87.0771 61.25 85.6224 60.663 84.4484 59.4891C83.2745 58.3151 82.6875 56.8604 82.6875 55.125C82.6875 53.3896 83.2745 51.9349 84.4484 50.7609C85.6224 49.587 87.0771 49 88.8125 49H119.438C121.173 49 122.628 49.587 123.802 50.7609C124.976 51.9349 125.562 53.3896 125.562 55.125C125.562 56.8604 124.976 58.3151 123.802 59.4891C122.628 60.663 121.173 61.25 119.438 61.25V64.3125C119.438 65.1292 119.948 66.0479 120.969 67.0688C121.99 68.0896 123.113 69.3146 124.338 70.7438C125.46 72.1729 126.456 73.8573 127.323 75.7969C128.191 77.7365 128.625 80.0333 128.625 82.6875V122.5C128.625 125.869 127.426 128.753 125.027 131.152C122.628 133.551 119.744 134.75 116.375 134.75H91.875ZM91.875 85.75H116.375V82.6875C116.375 81.1562 115.916 79.8292 114.997 78.7063C114.078 77.5833 113.057 76.3583 111.934 75.0312C110.811 73.7042 109.74 72.224 108.719 70.5906C107.698 68.9573 107.188 66.8646 107.188 64.3125V61.25H101.062V64.3125C101.062 66.7625 100.578 68.8042 99.6078 70.4375C98.638 72.0708 97.5917 73.551 96.4688 74.8781C95.3458 76.2052 94.2995 77.4557 93.3297 78.6297C92.3599 79.8036 91.875 81.1562 91.875 82.6875V85.75ZM91.875 104.125H116.375V94.9375H91.875V104.125ZM91.875 122.5H116.375V113.312H91.875V122.5Z" fill="black"/>
</svg>
