<svg width="189" height="189" viewBox="0 0 189 189" fill="none" xmlns="http://www.w3.org/2000/svg">
<path d="M39.375 173.251C35.0438 173.251 31.3359 171.709 28.2516 168.624C25.1672 165.54 23.625 161.832 23.625 157.501V121.67L45.2812 97.0602L56.5031 108.282L40.7531 126.001H148.247L132.891 108.676L144.113 97.4539L165.375 121.67V157.501C165.375 161.832 163.833 165.54 160.748 168.624C157.664 171.709 153.956 173.251 149.625 173.251H39.375ZM39.375 157.501H149.625V141.751H39.375V157.501ZM83.6719 113.204L55.9125 85.4445C52.8938 82.4258 51.4172 78.718 51.4828 74.3211C51.5484 69.9242 53.0906 66.2164 56.1094 63.1977L94.6969 24.6102C97.7156 21.5914 101.456 20.0164 105.919 19.8852C110.381 19.7539 114.122 21.1977 117.141 24.2164L144.9 51.9758C147.919 54.9945 149.494 58.6695 149.625 63.0008C149.756 67.332 148.312 71.007 145.294 74.0258L105.919 113.401C102.9 116.42 99.1922 117.896 94.7953 117.83C90.3984 117.765 86.6906 116.223 83.6719 113.204ZM133.875 63.1977L106.116 35.4383L67.1344 74.4195L94.8938 102.179L133.875 63.1977Z" fill="black"/>
</svg>