<svg width="682" height="465" viewBox="0 0 682 465" fill="none" xmlns="http://www.w3.org/2000/svg">
<path d="M681.769 408.644H6.10352e-05V408.956H681.769V408.644Z" fill="#EBEBEB"/>
<path d="M613.456 428.722H568.296V429.034H613.456V428.722Z" fill="#EBEBEB"/>
<path d="M372.546 424.817H354.97V425.129H372.546V424.817Z" fill="#EBEBEB"/>
<path d="M476.789 426.139H439.782V426.451H476.789V426.139Z" fill="#EBEBEB"/>
<path d="M566.932 417.142H490.424V417.454H566.932V417.142Z" fill="#EBEBEB"/>
<path d="M107.706 431.58H71.5314V431.892H107.706V431.58Z" fill="#EBEBEB"/>
<path d="M151.203 431.58H119.842V431.892H151.203V431.58Z" fill="#EBEBEB"/>
<path d="M261.54 424.667H178.624V424.979H261.54V424.667Z" fill="#EBEBEB"/>
<path d="M323.159 352.989H59.8731C57.8105 352.986 55.8337 352.234 54.3765 350.898C52.9193 349.562 52.1009 347.752 52.1009 345.864V7.15559C52.1188 5.27883 52.9452 3.48434 54.4004 2.1619C55.8557 0.839463 57.8223 0.0958816 59.8731 0.0926666H323.159C325.224 0.0926666 327.204 0.843368 328.664 2.17962C330.124 3.51588 330.945 5.32823 330.945 7.21798V345.864C330.945 347.754 330.124 349.566 328.664 350.902C327.204 352.239 325.224 352.989 323.159 352.989ZM59.8731 0.342241C57.9009 0.345546 56.0108 1.06484 54.6175 2.34223C53.2243 3.61962 52.4418 5.35074 52.4418 7.15559V345.864C52.4418 347.669 53.2243 349.4 54.6175 350.677C56.0108 351.955 57.9009 352.674 59.8731 352.677H323.159C325.132 352.674 327.024 351.955 328.419 350.678C329.815 349.401 330.6 347.67 330.604 345.864V7.15559C330.6 5.34959 329.815 3.6185 328.419 2.34147C327.024 1.06443 325.132 0.34554 323.159 0.342241H59.8731Z" fill="#EBEBEB"/>
<path d="M618.106 352.989H354.806C352.743 352.986 350.764 352.234 349.305 350.899C347.846 349.563 347.024 347.753 347.021 345.864V7.15559C347.042 5.27769 347.872 3.48322 349.329 2.16112C350.786 0.839026 352.754 0.0958466 354.806 0.0926666H618.106C620.154 0.0991611 622.117 0.844193 623.57 2.16628C625.022 3.48837 625.846 5.28099 625.864 7.15559V345.864C625.864 347.749 625.048 349.558 623.594 350.894C622.139 352.229 620.166 352.983 618.106 352.989ZM354.806 0.342241C352.833 0.34554 350.942 1.06443 349.546 2.34147C348.151 3.6185 347.365 5.34959 347.362 7.15559V345.864C347.365 347.67 348.151 349.401 349.546 350.678C350.942 351.955 352.833 352.674 354.806 352.677H618.106C620.079 352.674 621.971 351.955 623.366 350.678C624.762 349.401 625.547 347.67 625.551 345.864V7.15559C625.547 5.34959 624.762 3.6185 623.366 2.34147C621.971 1.06443 620.079 0.34554 618.106 0.342241H354.806Z" fill="#EBEBEB"/>
<path d="M361.202 301.315C358.474 294.14 336.944 303.898 328.204 315.79C322.382 323.702 318.823 332.162 317.173 343.518C317.364 330.565 317.596 316.639 317.814 303.499C319.586 300.23 323.622 292.68 326.513 286.69C336.208 266.724 359.238 259.237 367.187 246.684C377.619 230.162 377.55 205.392 368.687 196.444C360.97 188.683 335.431 241.218 332.554 247.083C324.704 262.791 319.76 279.582 317.923 296.773C318.141 284.432 318.346 273.063 318.509 264.328C319.055 235.815 319.723 226.643 320.036 223.823C321.1 222.45 322.354 220.84 323.091 219.979C329.267 212.704 342.985 204.031 349.83 193.45C359.838 177.989 358.229 159.495 351.193 152.607C343.857 145.407 330.876 162.428 323.991 179.286C317.105 196.145 320.05 212.292 318.114 226.306C317.718 229.051 317.296 239.483 316.914 253.959C314.814 238.385 310.655 227.953 302.938 218.232C293.393 206.278 285.212 191.715 277.453 193.599C269.694 195.484 273.84 214.738 280.03 228.265C285.484 240.319 312.755 252.324 316.709 262.02C316.232 281.636 315.809 306.494 315.509 329.629C313.369 317.675 314.841 316.676 306.06 298.37C300.851 287.489 279.457 274.074 276.908 281.549C274.358 289.024 278.271 303.15 286.302 313.045C292.82 321.031 307.274 321.019 310.614 325.973C311.405 327.134 313.982 331.563 315.455 334.109C315.1 362.361 314.95 387.306 315.128 395.804L316.491 395.891C316.491 393.695 316.6 379.319 316.873 360.302C320.391 350.182 344.021 344.279 351.316 333.747C358.993 322.778 364.488 309.925 361.202 301.315Z" fill="#E6E6E6"/>
<path d="M338.99 408.644H293.638C292.435 408.646 291.269 408.267 290.336 407.571C289.404 406.875 288.764 405.905 288.525 404.826L285.307 390.301H347.321L344.089 404.826C343.853 405.904 343.215 406.873 342.285 407.57C341.356 408.266 340.191 408.646 338.99 408.644Z" fill="#F0F0F0"/>
<path d="M348.616 395.928H284.012C283.259 395.929 282.533 395.674 281.974 395.213C281.415 394.752 281.062 394.118 280.985 393.433L279.621 382.689C279.575 382.299 279.619 381.905 279.75 381.533C279.881 381.16 280.097 380.817 280.382 380.525C280.667 380.233 281.017 379.999 281.407 379.839C281.797 379.679 282.22 379.595 282.648 379.594H349.898C350.325 379.595 350.748 379.678 351.137 379.839C351.527 379.999 351.875 380.233 352.16 380.525C352.444 380.817 352.658 381.161 352.788 381.534C352.917 381.906 352.959 382.3 352.911 382.689L351.548 393.433C351.475 394.104 351.137 394.728 350.597 395.188C350.057 395.647 349.353 395.91 348.616 395.928Z" fill="#F0F0F0"/>
<path d="M546.465 403.441H589.894V233.843H546.465V403.441Z" fill="#F0F0F0"/>
<path d="M361.951 408.644H586.963V403.441H361.951V408.644Z" fill="#F0F0F0"/>
<path d="M546.452 233.843H359.033V403.441H546.452V233.843Z" fill="#F5F5F5"/>
<path d="M529.38 300.691H376.105V336.605H529.38V300.691Z" fill="#F0F0F0"/>
<path d="M529.38 346.912H376.105V382.826H529.38V346.912Z" fill="#F0F0F0"/>
<path d="M435.542 306.881H469.944C472.286 306.881 474.184 305.146 474.184 303.006C474.184 300.866 472.286 299.131 469.944 299.131H435.542C433.2 299.131 431.301 300.866 431.301 303.006C431.301 305.146 433.2 306.881 435.542 306.881Z" fill="#F5F5F5"/>
<path d="M529.38 254.47H376.105V290.384H529.38V254.47Z" fill="#F0F0F0"/>
<path d="M435.542 260.66H469.944C471.065 260.656 472.139 260.248 472.934 259.524C473.728 258.799 474.177 257.817 474.184 256.791C474.181 255.763 473.733 254.778 472.938 254.051C472.144 253.324 471.067 252.914 469.944 252.91H435.542C434.418 252.914 433.342 253.324 432.547 254.051C431.753 254.778 431.305 255.763 431.301 256.791C431.308 257.817 431.758 258.799 432.552 259.524C433.346 260.248 434.42 260.656 435.542 260.66Z" fill="#F5F5F5"/>
<path d="M435.542 353.102H469.944C471.066 353.102 472.143 352.695 472.937 351.969C473.732 351.244 474.181 350.26 474.184 349.233C474.181 348.205 473.733 347.22 472.938 346.493C472.144 345.766 471.067 345.356 469.944 345.352H435.542C434.418 345.356 433.342 345.766 432.547 346.493C431.753 347.22 431.305 348.205 431.301 349.233C431.305 350.26 431.753 351.244 432.548 351.969C433.343 352.695 434.419 353.102 435.542 353.102Z" fill="#F5F5F5"/>
<path d="M355.174 233.843L546.452 233.843V229.001L355.174 229.001V233.843Z" fill="#F0F0F0"/>
<path d="M594.012 229.014H546.452V233.856H594.012V229.014Z" fill="#E6E6E6"/>
<path d="M200.999 408.644H243.91L243.91 154.666H200.999L200.999 408.644Z" fill="#E0E0E0"/>
<path d="M91.6435 408.644H235.32L250.414 96.0286H106.738L91.6435 408.644Z" fill="#E6E6E6"/>
<path d="M70.686 408.644H229.62L244.701 96.0286H85.7803L70.686 408.644Z" fill="#F0F0F0"/>
<path d="M214.062 393.32L226.77 111.365H101.338L88.6165 393.32H214.062Z" fill="white"/>
<path d="M160.161 393.32L202.799 111.365H189.423L146.785 393.32H160.161Z" fill="#FAFAFA"/>
<path d="M141.113 393.32L183.751 111.365H160.939L118.301 393.32H141.113Z" fill="#FAFAFA"/>
<path d="M400.158 181.183L574.05 181.183V32.3125L400.158 32.3125V181.183Z" fill="#E6E6E6"/>
<path d="M394.745 181.183L571.514 181.183V32.3125L394.745 32.3125V181.183Z" fill="#F5F5F5"/>
<path d="M400.158 187.273L574.05 187.273V181.183L400.158 181.183V187.273Z" fill="#E6E6E6"/>
<path d="M389.918 187.273L554.879 187.273V181.183L389.918 181.183V187.273Z" fill="#F5F5F5"/>
<path d="M563.96 171.949V41.5343L402.299 41.5343V171.949H563.96Z" fill="#FAFAFA"/>
<path d="M403.389 171.961V41.5468H402.312V171.961H403.389Z" fill="#E6E6E6"/>
<path d="M537.152 171.949L509.2 41.5343H472.562L500.514 171.949H537.152Z" fill="white"/>
<path d="M494.583 171.949L466.63 41.5343H450.091L478.043 171.949H494.583Z" fill="white"/>
<path d="M558.56 164.886V27.1963C558.56 26.7759 558.188 26.4352 557.728 26.4352H557.66C557.201 26.4352 556.828 26.7759 556.828 27.1963V164.886C556.828 165.306 557.201 165.647 557.66 165.647H557.728C558.188 165.647 558.56 165.306 558.56 164.886Z" fill="#EBEBEB"/>
<path opacity="0.5" d="M390.79 49.2087L576.981 49.2087V26.4226L390.79 26.4226V49.2087Z" fill="#E6E6E6"/>
<path d="M390.79 29.2553L576.981 29.2553V26.4219L390.79 26.4219V29.2553Z" fill="#E0E0E0"/>
<path d="M391.104 27.6705L576.681 27.6705C577.337 27.6705 577.868 27.1843 577.868 26.5845V26.2724C577.868 25.6727 577.337 25.1865 576.681 25.1865L391.104 25.1865C390.449 25.1865 389.918 25.6727 389.918 26.2724V26.5845C389.918 27.1843 390.449 27.6705 391.104 27.6705Z" fill="#EBEBEB"/>
<path d="M390.558 49.808H577.213C577.299 49.808 577.383 49.7924 577.462 49.7622C577.54 49.7319 577.612 49.6876 577.671 49.6318C577.731 49.576 577.778 49.5098 577.809 49.4372C577.841 49.3646 577.856 49.2869 577.854 49.2089C577.854 49.0533 577.787 48.904 577.666 48.794C577.546 48.684 577.383 48.6222 577.213 48.6222H390.558C390.387 48.6222 390.223 48.6836 390.1 48.7932C389.978 48.9029 389.907 49.0521 389.904 49.2089C389.904 49.3678 389.973 49.5202 390.096 49.6325C390.218 49.7449 390.385 49.808 390.558 49.808Z" fill="white"/>
<path d="M340.885 464.998C486.896 464.998 605.261 458.673 605.261 450.872C605.261 443.07 486.896 436.746 340.885 436.746C194.874 436.746 76.5082 443.07 76.5082 450.872C76.5082 458.673 194.874 464.998 340.885 464.998Z" fill="#F5F5F5"/>
<path d="M88.4096 270.981L87.0283 271.129L89.4831 290.34L90.8644 290.192L88.4096 270.981Z" fill="#445FEB"/>
<path d="M91.7799 297.338L90.3985 297.485L91.637 307.178L93.0184 307.03L91.7799 297.338Z" fill="#445FEB"/>
<path d="M183.519 231.809L181.882 227.604C180.757 224.713 178.593 222.258 175.744 220.639C172.896 219.021 169.531 218.335 166.202 218.694L101.038 225.669C97.1345 226.088 93.5725 227.909 91.1356 230.731C88.6988 233.554 87.5866 237.146 88.0436 240.719L106.588 385.846C106.742 387.059 107.156 388.233 107.806 389.301C108.456 390.368 109.33 391.308 110.377 392.066C111.425 392.823 112.625 393.385 113.91 393.718C115.194 394.051 116.538 394.149 117.864 394.007L351.029 369.049C352.358 368.911 353.644 368.535 354.813 367.941C355.983 367.347 357.012 366.548 357.843 365.589C358.674 364.63 359.29 363.531 359.656 362.354C360.022 361.177 360.13 359.945 359.974 358.729L343.884 233.269C343.573 230.82 342.212 228.584 340.1 227.054C337.988 225.523 335.298 224.823 332.622 225.108L197.222 239.608C194.311 239.916 191.372 239.313 188.883 237.897C186.395 236.481 184.504 234.335 183.519 231.809Z" fill="#445FEB"/>
<path d="M190.025 168.698L116.356 182.133L136.582 275.02L210.251 261.585L190.025 168.698Z" fill="#445FEB"/>
<path opacity="0.7" d="M190.025 168.698L116.356 182.133L136.582 275.02L210.251 261.585L190.025 168.698Z" fill="white"/>
<g opacity="0.4">
<path opacity="0.4" d="M180.192 191.016L134.813 199.302C133.756 199.49 132.66 199.288 131.764 198.742C130.868 198.195 130.244 197.347 130.027 196.382C129.822 195.415 130.042 194.412 130.639 193.592C131.236 192.772 132.163 192.201 133.218 192.002L178.623 183.754C179.681 183.566 180.776 183.767 181.672 184.314C182.568 184.86 183.192 185.708 183.409 186.674C183.602 187.639 183.373 188.635 182.771 189.447C182.169 190.259 181.243 190.823 180.192 191.016Z" fill="#445FEB"/>
<path opacity="0.4" d="M183.532 206.402L138.154 214.726C137.099 214.91 136.007 214.707 135.114 214.16C134.221 213.614 133.599 212.768 133.381 211.806C133.18 210.84 133.402 209.841 133.999 209.024C134.596 208.206 135.52 207.637 136.572 207.438L181.951 199.165C183.006 198.981 184.098 199.184 184.991 199.73C185.883 200.276 186.506 201.122 186.723 202.085C186.909 203.043 186.679 204.029 186.084 204.835C185.488 205.641 184.573 206.203 183.532 206.402Z" fill="#445FEB"/>
<path opacity="0.4" d="M186.873 221.764L141.494 230.037C140.439 230.221 139.347 230.018 138.454 229.472C137.562 228.925 136.939 228.079 136.722 227.117C136.521 226.151 136.743 225.152 137.34 224.335C137.937 223.518 138.861 222.948 139.913 222.749L185.291 214.464C186.346 214.279 187.438 214.482 188.331 215.029C189.224 215.575 189.846 216.421 190.064 217.384C190.269 218.351 190.049 219.353 189.452 220.173C188.854 220.993 187.928 221.565 186.873 221.764Z" fill="#445FEB"/>
<path opacity="0.4" d="M190.227 237.187L144.849 245.461C143.792 245.648 142.696 245.447 141.8 244.9C140.904 244.354 140.28 243.506 140.063 242.54C139.858 241.573 140.077 240.571 140.675 239.751C141.272 238.931 142.199 238.359 143.253 238.16L188.632 229.887C189.689 229.699 190.784 229.901 191.68 230.447C192.576 230.994 193.201 231.842 193.418 232.807C193.623 233.775 193.403 234.777 192.806 235.597C192.209 236.417 191.282 236.988 190.227 237.187Z" fill="#445FEB"/>
<path opacity="0.4" d="M181.16 254.745L148.189 260.759C147.134 260.944 146.042 260.741 145.149 260.194C144.257 259.648 143.634 258.802 143.417 257.839C143.212 256.872 143.432 255.869 144.029 255.049C144.626 254.229 145.553 253.658 146.608 253.459L179.578 247.445C180.633 247.26 181.725 247.463 182.618 248.01C183.511 248.556 184.133 249.402 184.35 250.365C184.556 251.332 184.336 252.335 183.738 253.155C183.141 253.975 182.215 254.546 181.16 254.745Z" fill="#445FEB"/>
</g>
<path d="M294.994 150.798L220.57 160.116L234.598 253.955L309.022 244.637L294.994 150.798Z" fill="#445FEB"/>
<path opacity="0.7" d="M294.994 150.798L220.57 160.116L234.598 253.955L309.022 244.637L294.994 150.798Z" fill="white"/>
<g opacity="0.4">
<path opacity="0.4" d="M283.698 172.548L237.856 178.288C236.788 178.416 235.708 178.154 234.851 177.558C233.993 176.962 233.427 176.081 233.274 175.106C233.134 174.129 233.421 173.141 234.072 172.356C234.722 171.571 235.685 171.052 236.751 170.913L282.593 165.173C283.661 165.045 284.741 165.307 285.598 165.903C286.456 166.498 287.022 167.379 287.175 168.355C287.315 169.332 287.028 170.32 286.377 171.105C285.727 171.89 284.764 172.408 283.698 172.548Z" fill="#445FEB"/>
<path opacity="0.4" d="M286.016 188.059L240.174 193.799C239.106 193.927 238.026 193.665 237.169 193.069C236.311 192.473 235.744 191.592 235.592 190.617C235.456 189.642 235.744 188.657 236.395 187.875C237.045 187.093 238.006 186.576 239.069 186.437L284.911 180.696C285.977 180.568 287.055 180.828 287.912 181.422C288.769 182.015 289.337 182.893 289.493 183.866C289.633 184.843 289.346 185.831 288.695 186.616C288.044 187.401 287.082 187.919 286.016 188.059Z" fill="#445FEB"/>
<path opacity="0.4" d="M255.118 207.738L242.492 209.322C241.424 209.451 240.344 209.188 239.487 208.593C238.629 207.997 238.062 207.116 237.91 206.14C237.77 205.163 238.057 204.175 238.708 203.39C239.358 202.605 240.321 202.087 241.387 201.948L254.027 200.363C255.093 200.238 256.169 200.502 257.023 201.097C257.878 201.693 258.443 202.572 258.595 203.545C258.735 204.522 258.449 205.51 257.798 206.295C257.147 207.08 256.184 207.598 255.118 207.738Z" fill="#445FEB"/>
<path opacity="0.4" d="M279.621 204.668L266.981 206.253C265.915 206.377 264.839 206.113 263.985 205.518C263.13 204.923 262.565 204.044 262.413 203.071C262.273 202.094 262.559 201.105 263.21 200.321C263.861 199.536 264.824 199.017 265.89 198.878L278.516 197.305C279.582 197.177 280.66 197.438 281.517 198.031C282.374 198.624 282.942 199.502 283.098 200.475C283.238 201.452 282.951 202.44 282.3 203.225C281.649 204.01 280.687 204.528 279.621 204.668Z" fill="#445FEB"/>
<path opacity="0.4" d="M290.652 219.093L244.81 224.833C243.742 224.962 242.662 224.699 241.805 224.104C240.947 223.508 240.381 222.627 240.228 221.651C240.092 220.676 240.38 219.691 241.031 218.909C241.681 218.127 242.642 217.61 243.705 217.471L289.547 211.718C290.615 211.59 291.695 211.852 292.552 212.448C293.41 213.044 293.976 213.925 294.129 214.9C294.269 215.877 293.982 216.866 293.331 217.65C292.68 218.435 291.718 218.954 290.652 219.093Z" fill="#445FEB"/>
<path opacity="0.4" d="M280.453 236.176L247.128 240.344C246.064 240.469 244.99 240.207 244.136 239.614C243.281 239.022 242.716 238.146 242.56 237.175C242.42 236.2 242.704 235.213 243.352 234.429C244 233.644 244.96 233.124 246.023 232.982L279.348 228.814C280.411 228.689 281.486 228.951 282.34 229.544C283.194 230.137 283.76 231.013 283.916 231.984C284.056 232.959 283.772 233.945 283.123 234.73C282.475 235.514 281.516 236.034 280.453 236.176Z" fill="#445FEB"/>
</g>
<path d="M224.767 164.489L149.933 170.457L158.917 264.812L233.751 258.845L224.767 164.489Z" fill="#445FEB"/>
<path opacity="0.8" d="M224.767 164.489L149.933 170.457L158.917 264.812L233.751 258.845L224.767 164.489Z" fill="white"/>
<g opacity="0.4">
<path opacity="0.4" d="M212.316 185.725L166.215 189.394C165.143 189.474 164.079 189.163 163.254 188.53C162.43 187.897 161.911 186.993 161.811 186.012C161.728 185.033 162.068 184.062 162.76 183.311C163.451 182.559 164.437 182.086 165.506 181.994L211.607 178.25C212.68 178.171 213.744 178.481 214.568 179.114C215.392 179.747 215.911 180.652 216.012 181.632C216.064 182.123 216.01 182.619 215.853 183.091C215.695 183.563 215.437 184.001 215.094 184.382C214.751 184.762 214.328 185.077 213.852 185.307C213.375 185.538 212.853 185.68 212.316 185.725Z" fill="#445FEB"/>
<path opacity="0.4" d="M213.803 201.324L167.702 205.067C166.629 205.147 165.565 204.837 164.741 204.204C163.916 203.571 163.398 202.666 163.297 201.685C163.21 200.704 163.549 199.73 164.241 198.976C164.932 198.221 165.921 197.747 166.992 197.655L213.094 193.911C214.166 193.831 215.23 194.142 216.054 194.775C216.879 195.408 217.397 196.312 217.498 197.293C217.585 198.275 217.246 199.248 216.555 200.002C215.863 200.757 214.874 201.232 213.803 201.324Z" fill="#445FEB"/>
<path opacity="0.4" d="M215.289 216.922L169.188 220.665C168.115 220.745 167.051 220.435 166.227 219.802C165.403 219.169 164.884 218.264 164.784 217.284C164.696 216.302 165.035 215.329 165.727 214.574C166.419 213.82 167.407 213.345 168.479 213.253L214.58 209.51C215.653 209.43 216.716 209.74 217.541 210.373C218.365 211.006 218.884 211.911 218.984 212.891C219.071 213.873 218.732 214.846 218.041 215.601C217.349 216.355 216.36 216.83 215.289 216.922Z" fill="#445FEB"/>
<path opacity="0.4" d="M216.803 232.52L170.701 236.264C169.629 236.344 168.565 236.033 167.741 235.4C166.916 234.767 166.398 233.863 166.297 232.882C166.21 231.901 166.549 230.927 167.24 230.173C167.932 229.418 168.921 228.943 169.992 228.851L216.093 225.183C217.166 225.103 218.23 225.413 219.054 226.046C219.879 226.679 220.397 227.584 220.498 228.564C220.563 229.534 220.213 230.488 219.524 231.226C218.835 231.964 217.859 232.428 216.803 232.52Z" fill="#445FEB"/>
<path opacity="0.4" d="M205.662 249.129L172.16 251.8C171.081 251.89 170.007 251.584 169.173 250.95C168.34 250.316 167.815 249.406 167.715 248.418C167.628 247.436 167.967 246.463 168.659 245.708C169.35 244.954 170.339 244.479 171.41 244.387L204.912 241.717C205.985 241.637 207.049 241.947 207.873 242.58C208.698 243.213 209.216 244.118 209.317 245.099C209.404 246.074 209.071 247.043 208.388 247.796C207.705 248.55 206.726 249.028 205.662 249.129Z" fill="#445FEB"/>
</g>
<path d="M315.953 159.905L240.923 163.215L245.906 257.818L320.936 254.508L315.953 159.905Z" fill="#445FEB"/>
<path opacity="0.8" d="M315.953 159.905L240.923 163.215L245.906 257.818L320.936 254.508L315.953 159.905Z" fill="white"/>
<g opacity="0.4">
<path opacity="0.4" d="M302.624 180.659L256.413 182.705C255.34 182.746 254.291 182.399 253.495 181.738C252.699 181.077 252.219 180.156 252.159 179.174C252.114 178.191 252.494 177.232 253.216 176.503C253.938 175.775 254.945 175.335 256.018 175.281L302.242 173.234C303.316 173.193 304.364 173.541 305.16 174.202C305.956 174.862 306.436 175.783 306.496 176.765C306.541 177.75 306.159 178.711 305.434 179.44C304.709 180.169 303.699 180.607 302.624 180.659Z" fill="#445FEB"/>
<path opacity="0.4" d="M303.455 196.307L257.231 198.341C256.158 198.382 255.109 198.034 254.313 197.374C253.517 196.713 253.037 195.792 252.977 194.81C252.933 193.825 253.314 192.864 254.039 192.135C254.764 191.406 255.774 190.968 256.85 190.916L303.06 188.87C304.136 188.829 305.186 189.178 305.983 189.842C306.779 190.505 307.258 191.429 307.314 192.414C307.359 193.396 306.979 194.356 306.257 195.084C305.535 195.813 304.529 196.252 303.455 196.307Z" fill="#445FEB"/>
<path opacity="0.4" d="M270.799 213.478L258.063 214.039C256.989 214.08 255.941 213.733 255.145 213.072C254.349 212.411 253.869 211.49 253.809 210.508C253.764 209.525 254.144 208.566 254.866 207.837C255.588 207.109 256.595 206.669 257.668 206.614L270.403 206.04C271.479 206 272.53 206.349 273.326 207.012C274.123 207.676 274.601 208.6 274.658 209.584C274.702 210.567 274.322 211.526 273.6 212.255C272.878 212.984 271.872 213.423 270.799 213.478Z" fill="#445FEB"/>
<path opacity="0.4" d="M295.492 212.33L282.757 212.891C281.683 212.932 280.635 212.585 279.839 211.924C279.043 211.263 278.563 210.342 278.503 209.36C278.458 208.377 278.838 207.418 279.56 206.689C280.282 205.961 281.288 205.521 282.361 205.466L295.097 204.905C296.171 204.864 297.219 205.212 298.015 205.872C298.811 206.533 299.291 207.454 299.351 208.436C299.396 209.419 299.016 210.378 298.294 211.107C297.572 211.836 296.565 212.275 295.492 212.33Z" fill="#445FEB"/>
<path opacity="0.4" d="M305.105 227.591L258.881 229.625C257.807 229.666 256.759 229.318 255.963 228.658C255.167 227.997 254.687 227.076 254.627 226.094C254.583 225.109 254.964 224.148 255.689 223.419C256.414 222.69 257.424 222.252 258.5 222.2L304.71 220.154C305.786 220.113 306.836 220.462 307.633 221.126C308.429 221.789 308.908 222.713 308.964 223.698C309.009 224.68 308.629 225.64 307.907 226.368C307.185 227.097 306.178 227.536 305.105 227.591Z" fill="#445FEB"/>
<path opacity="0.4" d="M293.297 243.788L259.713 245.273C258.639 245.314 257.591 244.967 256.795 244.306C255.999 243.645 255.519 242.724 255.459 241.742C255.414 240.759 255.794 239.8 256.516 239.071C257.238 238.343 258.245 237.903 259.318 237.849L292.902 236.364C293.976 236.323 295.024 236.67 295.82 237.331C296.616 237.992 297.096 238.913 297.156 239.895C297.201 240.878 296.821 241.837 296.099 242.566C295.377 243.294 294.37 243.733 293.297 243.788Z" fill="#445FEB"/>
</g>
<path d="M204.326 234.492L203.126 230.386C202.286 227.545 200.334 225.085 197.641 223.475C194.949 221.864 191.704 221.215 188.523 221.651L123.359 228.627C119.406 229.07 115.765 230.818 113.119 233.543C110.473 236.267 109.004 239.782 108.988 243.427L112.683 385.496C112.705 386.666 113 387.819 113.55 388.876C114.099 389.932 114.889 390.87 115.867 391.624C116.844 392.378 117.987 392.932 119.219 393.248C120.45 393.564 121.741 393.636 123.005 393.458L356.17 368.5C358.877 368.2 361.372 367.006 363.187 365.143C365.001 363.28 366.012 360.876 366.028 358.38L362.838 235.565C362.814 234.394 362.516 233.242 361.966 232.185C361.415 231.128 360.623 230.191 359.645 229.437C358.666 228.683 357.522 228.129 356.29 227.813C355.058 227.497 353.766 227.425 352.502 227.604L217.116 242.091C214.337 242.48 211.499 241.92 209.141 240.519C206.783 239.118 205.07 236.973 204.326 234.492Z" fill="#445FEB"/>
<path opacity="0.3" d="M204.326 234.492L203.126 230.386C202.286 227.545 200.334 225.085 197.641 223.475C194.949 221.864 191.704 221.215 188.523 221.651L123.359 228.627C119.406 229.07 115.765 230.818 113.119 233.543C110.473 236.267 109.004 239.782 108.988 243.427L112.683 385.496C112.705 386.666 113 387.819 113.55 388.876C114.099 389.932 114.889 390.87 115.867 391.624C116.844 392.378 117.987 392.932 119.219 393.248C120.45 393.564 121.741 393.636 123.005 393.458L356.17 368.5C358.877 368.2 361.372 367.006 363.187 365.143C365.001 363.28 366.012 360.876 366.028 358.38L362.838 235.565C362.814 234.394 362.516 233.242 361.966 232.185C361.415 231.128 360.623 230.191 359.645 229.437C358.666 228.683 357.522 228.129 356.29 227.813C355.058 227.497 353.766 227.425 352.502 227.604L217.116 242.091C214.337 242.48 211.499 241.92 209.141 240.519C206.783 239.118 205.07 236.973 204.326 234.492Z" fill="black"/>
<path d="M432.242 166.196C431.233 170.826 430.155 175.393 428.942 179.923C427.728 184.452 426.542 189.032 425.219 193.562L423.201 200.338L422.942 201.211C422.82 201.586 422.683 201.96 422.52 202.347C422.171 203.196 421.713 204.005 421.156 204.755C420.48 205.688 419.614 206.493 418.606 207.126C417.496 207.815 416.218 208.244 414.884 208.374C412.865 208.508 410.845 208.115 409.061 207.238C407.706 206.563 406.435 205.756 405.271 204.83C403.163 203.144 401.298 201.219 399.721 199.102L403.607 196.008C405.463 197.328 407.422 198.521 409.47 199.577C410.36 200.038 411.302 200.411 412.279 200.687C413.111 200.937 413.847 200.899 413.847 200.775C413.847 200.65 413.711 200.775 413.643 200.775C413.575 200.775 413.643 200.775 413.643 200.562C413.643 200.35 413.806 200.126 413.902 199.801L414.216 198.416L415.797 191.603L419.002 177.976C420.038 173.434 421.156 168.879 422.233 164.387L432.242 166.196Z" fill="#FFC3BD"/>
<path d="M427.714 151.933C416.083 160.082 416.561 175.443 416.561 175.443L437.355 179.997C437.355 179.997 443.75 164.549 441.159 158.896C438.459 153.006 434.273 147.341 427.714 151.933Z" fill="#263238"/>
<path d="M404.644 196.195L396.994 189.194L392.904 200.151C392.904 200.151 399.367 203.333 405.544 200.325L404.644 196.195Z" fill="#FFC3BD"/>
<path d="M386.399 188.109L384.995 196.769L392.863 200.151L396.994 189.194L386.399 188.109Z" fill="#FFC3BD"/>
<path d="M495.128 441.663L483.429 442.711L471.252 417.217L482.951 416.169L495.128 441.663Z" fill="#FFC3BD"/>
<path d="M570.504 403.977L561.71 411.527L542.743 392.447L551.538 384.897L570.504 403.977Z" fill="#FFC3BD"/>
<path d="M557.687 407.908L564.287 397.027C564.397 396.836 564.581 396.689 564.802 396.613C565.023 396.537 565.266 396.538 565.487 396.615L575.645 400.159C575.896 400.255 576.122 400.399 576.308 400.581C576.494 400.763 576.636 400.979 576.725 401.214C576.813 401.45 576.847 401.7 576.823 401.948C576.799 402.196 576.718 402.437 576.586 402.654C574.213 406.398 572.863 408.12 569.959 412.912C568.173 415.857 564.696 422.608 562.228 426.638C559.76 430.669 555.233 428.697 555.86 426.801C558.683 418.29 558.151 413.561 557.36 409.817C557.225 409.165 557.34 408.491 557.687 407.908Z" fill="#263238"/>
<path d="M481.874 439.404H496.246C496.504 439.405 496.756 439.483 496.96 439.627C497.165 439.772 497.312 439.974 497.378 440.203L500.5 450.597C500.577 450.843 500.59 451.101 500.538 451.352C500.486 451.603 500.37 451.839 500.201 452.041C500.031 452.244 499.812 452.407 499.561 452.518C499.31 452.63 499.034 452.685 498.755 452.681C493.683 452.681 491.283 452.681 484.97 452.681H465.662C460.399 452.681 459.308 447.827 461.476 447.378C471.225 445.406 476.829 442.686 479.843 440.09C480.401 439.636 481.127 439.391 481.874 439.404Z" fill="#263238"/>
<path opacity="0.2" d="M471.266 417.23L477.538 430.37H489.742L482.965 416.181L471.266 417.23Z" fill="black"/>
<path opacity="0.2" d="M551.538 384.91L542.743 392.459L552.533 402.293L561.328 394.73L551.538 384.91Z" fill="black"/>
<path d="M431.232 150.361C431.232 150.361 425.969 152.47 443.613 216.36L492.619 212.479C490.083 194.298 488.992 183.042 494.978 144.82C487.997 144.064 480.965 143.777 473.938 143.959C466.485 144.061 459.048 144.649 451.686 145.719C444.786 146.948 437.96 148.497 431.232 150.361Z" fill="#263238"/>
<path d="M473.938 143.597C473.938 143.597 476.666 143.597 479.993 143.597C481.97 146.38 475.561 158.572 464.994 166.546C463.384 162.113 460.428 158.191 456.472 155.24L473.938 143.597Z" fill="white"/>
<path d="M451.686 145.556C451.686 145.556 450.445 145.719 447.486 146.343C445.509 149.125 442.168 161.017 447.99 167.082C449.456 162.483 452.397 158.393 456.431 155.34L451.686 145.556Z" fill="white"/>
<path d="M469.562 121.198C468.784 127.862 468.512 139.916 473.939 143.959C473.939 143.959 468.144 149.375 456.431 155.34C447.909 149.949 451.686 145.719 451.686 145.719C459.499 143.348 458.776 137.944 456.908 132.953L469.562 121.198Z" fill="#FFC3BD"/>
<path d="M456.226 155.377C456.226 155.377 463.412 148.214 467.134 149.587C470.857 150.96 467.98 153.418 467.653 155.727C467.325 158.035 469.098 164.175 464.121 162.577C459.144 160.98 456.226 155.377 456.226 155.377Z" fill="#445FEB"/>
<path d="M455.94 155.227C455.94 155.227 452.545 149.737 448.877 150.473C445.209 151.209 447.39 153.131 447.718 155.202C448.14 157.848 445.086 162.939 449.504 161.442C453.922 159.944 455.94 155.227 455.94 155.227Z" fill="#445FEB"/>
<g opacity="0.2">
<path opacity="0.2" d="M454.058 154.042C454.009 155.149 454.242 156.251 454.74 157.261C455.191 156.616 455.588 155.94 455.926 155.24C455.423 154.458 454.843 153.718 454.194 153.031C454.082 153.358 454.036 153.7 454.058 154.042Z" fill="black"/>
<path opacity="0.2" d="M458.844 153.056C457.304 154.304 456.24 155.377 456.24 155.377C456.636 156.127 457.092 156.848 457.604 157.536C458.427 156.78 458.913 155.77 458.967 154.703C459.098 154.155 459.055 153.584 458.844 153.056Z" fill="black"/>
</g>
<path d="M456.144 157.623C455.122 157.623 454.494 156.613 454.426 154.204C454.358 151.796 456.376 153.131 456.376 153.131C456.376 153.131 459.103 151.883 458.612 154.766C458.258 157.049 457.194 157.623 456.144 157.623Z" fill="#445FEB"/>
<path opacity="0.2" d="M464.407 126.002L456.922 132.953C457.37 134.11 457.712 135.3 457.944 136.509C460.958 135.873 465.321 133.003 465.362 130.058C465.313 128.665 464.99 127.291 464.407 126.002Z" fill="black"/>
<path d="M457.985 98.6741C457.985 98.6741 449.804 109.044 448.44 113.648C442.877 116.618 441.759 102.006 444.704 92.9963C453.895 98.2747 457.985 98.6741 457.985 98.6741Z" fill="#263238"/>
<path d="M475.97 110.791C472.929 121.435 471.879 126.002 464.762 130.457C454.031 137.171 440.409 131.431 439.905 120.162C439.455 110.03 444.5 94.319 456.949 92.1103C459.692 91.6006 462.533 91.7436 465.198 92.5256C467.864 93.3076 470.266 94.7024 472.175 96.5767C474.083 98.4509 475.434 100.742 476.099 103.231C476.763 105.719 476.719 108.322 475.97 110.791Z" fill="#FFC3BD"/>
<path d="M482.297 106.536C482.297 106.536 476.447 115.208 475.657 119.014C471.416 121.647 469.63 110.092 471.416 102.792C473.366 96.2907 482.297 106.536 482.297 106.536Z" fill="#263238"/>
<path d="M479.965 100.508C478.275 101.681 476.488 97.3513 478.165 94.032C474.934 94.2192 471.048 92.4597 471.88 89.6021C465.512 91.5612 463.153 85.6339 463.889 81.5284C464.776 76.5369 469.521 75.4762 472.316 76.7865C472.316 74.5528 478.479 69.8983 480.824 73.542C485.174 72.1319 492.183 72.5687 492.033 77.4603C494.91 77.5352 503.405 80.5176 500.214 87.4433C503.964 87.6429 505.995 91.998 503.909 95.2923C504.731 95.6907 505.436 96.2642 505.964 96.9645C506.493 97.6647 506.83 98.4711 506.946 99.3155C507.062 100.16 506.955 101.018 506.633 101.816C506.311 102.614 505.783 103.33 505.095 103.903C506.827 107.197 501.577 112.101 498.782 111.515C496.655 114.497 493.396 116.743 491.269 114.198C487.178 116.955 482.474 113.449 483.524 110.753C478.888 110.105 474.157 103.029 479.965 100.508Z" fill="#263238"/>
<path d="M486.892 90.0264C489.946 94.6934 489.687 100.009 486.333 101.819C482.979 103.628 477.756 101.382 474.702 96.7149C471.648 92.0479 471.893 86.732 475.261 84.9226C478.629 83.1132 483.838 85.3718 486.892 90.0264Z" fill="#445FEB"/>
<path d="M458.531 97.4262C458.353 98.7614 454.331 98.412 453.172 96.0535C451.508 97.6508 447.595 98.4744 446.259 96.7399C443.995 100.633 439.441 99.61 438.268 97.7506C437.096 95.8913 436.319 92.4347 438.677 91.7484C437.314 90.6752 437.723 85.6214 441.295 86.2578C442.795 83.5624 446.9 80.5051 449.899 82.8886C451.536 81.6407 458.081 79.0451 460.726 83.7995C461.306 83.4367 461.968 83.1989 462.664 83.104C463.359 83.0092 464.068 83.0598 464.739 83.2519C465.409 83.4441 466.023 83.7728 466.535 84.2135C467.047 84.6542 467.443 85.1952 467.694 85.7961C471.934 84.7853 473.775 87.7303 473.761 89.3276C476.775 90.0763 476.979 94.8431 475.125 95.8664C475.847 98.2748 475.466 100.858 472.698 100.633C472.166 103.878 467.421 104.377 466.303 102.617C463.221 104.427 456.935 101.282 458.531 97.4262Z" fill="#263238"/>
<path d="M451.331 88.217C454.781 83.8494 467.366 81.9776 478.261 88.5789C488.079 94.4813 487.438 108.195 479.625 107.459C471.812 106.723 464.094 98.3497 464.094 98.3497L451.331 88.217Z" fill="#263238"/>
<path d="M476.925 120.399C475.838 122.276 473.985 123.684 471.771 124.318C468.812 125.129 467.285 122.733 468.048 120.15C468.744 117.829 471.102 114.609 474.089 114.934C474.74 115.013 475.359 115.24 475.89 115.594C476.421 115.948 476.847 116.419 477.129 116.962C477.411 117.505 477.54 118.104 477.504 118.704C477.468 119.305 477.269 119.887 476.925 120.399Z" fill="#FFC3BD"/>
<path d="M443.613 216.36C443.613 216.36 427.033 283.496 438.159 330.827C445.577 362.523 472.248 426.551 472.248 426.551L493.164 426.064C493.164 426.064 472.916 358.867 468.73 332.474C461.571 287.277 479.502 213.565 479.502 213.565L443.613 216.36Z" fill="#445FEB"/>
<path opacity="0.2" d="M462.73 229.925L473.148 245.011C469.998 262.9 468 280.941 467.162 299.044C452.504 274.96 459.512 242.665 462.73 229.925Z" fill="black"/>
<path d="M469.302 427.549L495.128 426.938L493.642 419.688L467.284 420.823L469.302 427.549Z" fill="#263238"/>
<path d="M454.331 215.649C454.331 215.649 464.053 286.84 485.147 325.711C502.177 357.107 547.624 401.831 547.624 401.831L559.242 390.875C559.242 390.875 528.548 342.308 515.895 321.456C484.847 270.293 510.222 231.297 492.619 212.517L454.331 215.649Z" fill="#445FEB"/>
<path d="M546.452 403.266L561.451 389.889L556.474 383.687L540.561 398.212L546.452 403.266Z" fill="#263238"/>
<path d="M493.11 209.797L495.701 213.64C495.905 213.927 495.523 214.276 494.964 214.326L443.559 218.394C443.123 218.394 442.741 218.257 442.686 218.008L441.868 214.027C441.8 213.752 442.168 213.49 442.645 213.453L492.278 209.522C492.431 209.496 492.589 209.508 492.735 209.556C492.881 209.604 493.011 209.687 493.11 209.797Z" fill="#445FEB"/>
<path opacity="0.5" d="M493.11 209.797L495.701 213.64C495.905 213.927 495.523 214.276 494.964 214.326L443.559 218.394C443.123 218.394 442.741 218.257 442.686 218.008L441.868 214.027C441.8 213.752 442.168 213.49 442.645 213.453L492.278 209.522C492.431 209.496 492.589 209.508 492.735 209.556C492.881 209.604 493.011 209.687 493.11 209.797Z" fill="white"/>
<path d="M486.919 215.4L488.283 215.3C488.542 215.3 488.733 215.137 488.706 214.988L487.588 209.822C487.588 209.659 487.315 209.559 487.042 209.584L485.679 209.684C485.406 209.684 485.215 209.846 485.256 209.996L486.374 215.162C486.415 215.312 486.66 215.424 486.919 215.4Z" fill="#445FEB"/>
<path d="M447.336 218.532L448.699 218.432C448.959 218.432 449.149 218.27 449.122 218.12L448.004 212.954C447.955 212.864 447.875 212.792 447.776 212.749C447.677 212.706 447.565 212.695 447.459 212.717L446.095 212.816C445.822 212.816 445.631 212.979 445.672 213.128L446.791 218.295C446.831 218.469 447.077 218.557 447.336 218.532Z" fill="#445FEB"/>
<path d="M467.135 216.972L468.498 216.86C468.771 216.86 468.962 216.697 468.921 216.548L467.803 211.381C467.803 211.232 467.53 211.119 467.271 211.144L465.907 211.257C465.648 211.257 465.457 211.419 465.485 211.569L466.603 216.735C466.63 216.884 466.862 216.984 467.135 216.972Z" fill="#445FEB"/>
<path d="M456.281 110.43C456.09 111.303 455.435 111.927 454.808 111.815C454.181 111.703 453.826 110.891 454.004 110.018C454.181 109.144 454.863 108.52 455.49 108.632C456.117 108.744 456.472 109.543 456.281 110.43Z" fill="#263238"/>
<path d="M445.425 108.468C445.614 107.588 445.258 106.784 444.63 106.671C444.002 106.558 443.34 107.179 443.151 108.059C442.962 108.938 443.318 109.742 443.946 109.855C444.574 109.968 445.236 109.347 445.425 108.468Z" fill="#263238"/>
<path d="M444.922 106.785L442.741 105.762C442.741 105.762 443.573 107.622 444.922 106.785Z" fill="#263238"/>
<path d="M449.163 110.666C447.886 112.517 446.335 114.196 444.554 115.658C444.968 116.074 445.477 116.402 446.045 116.618C446.613 116.834 447.226 116.932 447.84 116.905L449.163 110.666Z" fill="#ED847E"/>
<path d="M452.272 121.024C454.286 121.044 456.234 120.366 457.726 119.127C457.755 119.107 457.779 119.082 457.796 119.053C457.813 119.024 457.823 118.991 457.825 118.958C457.826 118.925 457.82 118.892 457.807 118.862C457.793 118.831 457.772 118.804 457.746 118.781C457.719 118.759 457.688 118.742 457.653 118.732C457.619 118.722 457.583 118.719 457.547 118.724C457.511 118.728 457.477 118.74 457.447 118.758C457.416 118.775 457.391 118.799 457.372 118.827C456.454 119.568 455.358 120.1 454.173 120.38C452.989 120.659 451.748 120.679 450.554 120.437C450.523 120.432 450.492 120.432 450.462 120.438C450.431 120.444 450.403 120.456 450.377 120.472C450.352 120.488 450.33 120.509 450.314 120.533C450.297 120.557 450.286 120.584 450.281 120.612C450.273 120.64 450.272 120.669 450.277 120.698C450.283 120.727 450.295 120.754 450.313 120.777C450.332 120.801 450.355 120.821 450.383 120.836C450.41 120.85 450.44 120.859 450.472 120.862C451.064 120.975 451.667 121.03 452.272 121.024Z" fill="#263238"/>
<path d="M462.785 107.023C462.871 107.022 462.955 107 463.03 106.961C463.139 106.901 463.217 106.805 463.247 106.692C463.278 106.58 463.259 106.461 463.194 106.362C462.743 105.66 462.115 105.068 461.363 104.633C460.611 104.199 459.757 103.936 458.871 103.865C458.809 103.864 458.746 103.873 458.688 103.894C458.629 103.914 458.575 103.945 458.53 103.984C458.484 104.024 458.448 104.071 458.422 104.123C458.396 104.176 458.382 104.232 458.381 104.29C458.379 104.347 458.389 104.404 458.412 104.458C458.434 104.511 458.468 104.56 458.511 104.602C458.554 104.644 458.605 104.678 458.662 104.701C458.72 104.724 458.781 104.737 458.844 104.739C459.576 104.813 460.277 105.045 460.891 105.416C461.506 105.787 462.014 106.287 462.376 106.873C462.426 106.927 462.489 106.968 462.56 106.994C462.631 107.02 462.708 107.03 462.785 107.023Z" fill="#263238"/>
<path d="M442.441 103.504C442.517 103.52 442.596 103.52 442.673 103.504C443.306 103.161 444.019 102.959 444.753 102.916C445.488 102.872 446.223 102.988 446.9 103.254C447.01 103.296 447.134 103.299 447.247 103.261C447.36 103.224 447.453 103.149 447.508 103.051C447.563 102.954 447.575 102.841 447.544 102.735C447.512 102.629 447.438 102.538 447.336 102.48C446.519 102.142 445.626 101.989 444.731 102.034C443.836 102.08 442.966 102.323 442.195 102.742C442.088 102.8 442.01 102.893 441.977 103.003C441.944 103.112 441.959 103.229 442.018 103.329C442.065 103.391 442.129 103.439 442.203 103.47C442.277 103.501 442.36 103.513 442.441 103.504Z" fill="#263238"/>
<path d="M497.064 155.028C497.991 155.851 498.632 156.5 499.355 157.236C500.078 157.973 500.719 158.696 501.373 159.433C502.668 160.918 503.909 162.44 505.068 164C507.373 167.145 509.415 170.444 511.177 173.871C512.935 177.313 514.354 180.892 515.417 184.565C515.949 186.399 516.426 188.308 516.781 190.143C517.457 192.793 517.126 195.575 515.84 198.029C515.092 199.318 514.056 200.449 512.799 201.349C511.71 202.115 510.513 202.745 509.241 203.22C507.052 203.993 504.758 204.488 502.423 204.693C498.28 205.057 494.105 205.007 489.974 204.543C482.064 203.701 474.258 202.185 466.657 200.013L467.912 195.484C471.621 196.045 475.438 196.569 479.202 196.931C482.965 197.293 486.756 197.617 490.478 197.692C494.084 197.811 497.695 197.627 501.264 197.143C502.801 196.914 504.296 196.495 505.709 195.895C506.575 195.596 507.289 195.013 507.713 194.261C507.828 193.973 507.883 193.668 507.877 193.362C507.896 193.138 507.896 192.913 507.877 192.688C507.877 192.439 507.782 192.214 507.659 191.752C507.277 190.143 506.773 188.558 506.227 186.986C505.117 183.851 503.75 180.797 502.137 177.851C500.516 174.888 498.656 172.039 496.573 169.328C495.551 167.956 494.473 166.62 493.355 165.335C492.796 164.686 492.21 164.087 491.637 163.451C491.065 162.814 490.41 162.203 489.96 161.754L497.064 155.028Z" fill="#FFC3BD"/>
<path d="M471.034 196.17L461.489 191.54L461.053 203.108C461.053 203.108 467.871 203.507 471.771 200.612L471.034 196.17Z" fill="#FFC3BD"/>
<path d="M454.29 258.401L462.171 180.023L445.331 168.218L393.926 163.888L384.995 252.561L454.29 258.401Z" fill="#445FEB"/>
<path opacity="0.8" d="M454.29 258.401L462.171 180.023L445.331 168.218L393.926 163.888L384.995 252.561L454.29 258.401Z" fill="white"/>
<path d="M462.171 180.023L445.331 168.218L449.749 182.344L462.171 180.023Z" fill="#445FEB"/>
<path d="M391.022 266.263C402.619 266.263 412.02 257.659 412.02 247.045C412.02 236.432 402.619 227.828 391.022 227.828C379.425 227.828 370.023 236.432 370.023 247.045C370.023 257.659 379.425 266.263 391.022 266.263Z" fill="#445FEB"/>
<path d="M401.396 259.056C408.653 253.81 409.888 244.173 404.155 237.533C398.422 230.892 387.893 229.762 380.636 235.008C373.38 240.254 372.145 249.891 377.878 256.532C383.61 263.172 394.14 264.303 401.396 259.056Z" fill="white"/>
<path d="M401.371 245.698L393.981 244.912L394.84 238.148L389.549 237.574L388.69 244.338L381.3 243.539L380.672 248.393L388.063 249.192L387.19 255.943L392.494 256.517L393.353 249.753L400.744 250.552L401.371 245.698Z" fill="#445FEB"/>
<path opacity="0.4" d="M449.599 196.27C449.531 196.956 449.315 197.623 448.965 198.232C448.615 198.842 448.137 199.382 447.558 199.823C446.979 200.263 446.311 200.595 445.592 200.799C444.873 201.003 444.117 201.075 443.368 201.012L405.871 197.855C404.358 197.725 402.964 197.052 401.993 195.983C401.021 194.914 400.553 193.536 400.689 192.152C400.758 191.466 400.973 190.799 401.324 190.189C401.674 189.58 402.152 189.039 402.731 188.599C403.31 188.158 403.978 187.827 404.696 187.623C405.415 187.419 406.171 187.346 406.921 187.41L444.418 190.567C445.167 190.63 445.896 190.827 446.562 191.148C447.229 191.468 447.819 191.906 448.3 192.435C448.782 192.965 449.144 193.576 449.367 194.234C449.59 194.892 449.669 195.584 449.599 196.27Z" fill="#445FEB"/>
<path opacity="0.4" d="M436.823 210.433C436.755 211.119 436.539 211.786 436.189 212.396C435.838 213.005 435.36 213.546 434.781 213.986C434.203 214.427 433.535 214.758 432.816 214.962C432.097 215.166 431.341 215.238 430.592 215.175L404.384 212.966C403.635 212.904 402.906 212.706 402.24 212.386C401.574 212.065 400.983 211.627 400.502 211.098C400.021 210.568 399.658 209.957 399.435 209.299C399.213 208.641 399.134 207.949 399.203 207.263C399.271 206.578 399.487 205.911 399.837 205.301C400.188 204.691 400.666 204.151 401.245 203.71C401.823 203.27 402.491 202.938 403.21 202.734C403.929 202.53 404.685 202.458 405.434 202.522L431.642 204.743C433.151 204.873 434.544 205.544 435.515 206.61C436.485 207.676 436.956 209.051 436.823 210.433Z" fill="#445FEB"/>
<path d="M455.654 192.227L457.085 200.874L461.039 203.108L461.476 191.54L455.654 192.227Z" fill="#FFC3BD"/>
<path d="M494.964 144.845C500.978 145.818 509.404 161.592 509.404 161.592L494.255 174.07C494.255 174.07 482.202 162.041 482.842 154.878C483.401 148.826 487.328 143.597 494.964 144.845Z" fill="#263238"/>
<path d="M555.342 413.76C555.499 413.758 555.654 413.737 555.805 413.698C557.251 413.249 558.192 410.815 558.628 409.405C558.637 409.365 558.634 409.322 558.62 409.283C558.606 409.244 558.58 409.208 558.546 409.181C558.51 409.153 558.464 409.138 558.417 409.138C558.369 409.138 558.324 409.153 558.287 409.181C557.851 409.38 554.006 411.265 553.883 412.65C553.865 412.801 553.894 412.954 553.966 413.09C554.038 413.227 554.151 413.343 554.292 413.423C554.589 413.643 554.96 413.762 555.342 413.76ZM558.069 409.792C557.401 411.739 556.542 413.024 555.724 413.274C555.538 413.326 555.341 413.333 555.152 413.294C554.963 413.254 554.789 413.17 554.646 413.049C554.573 413.011 554.513 412.954 554.475 412.885C554.436 412.817 554.42 412.739 554.428 412.662C554.428 411.814 556.678 410.479 558.001 409.792H558.069Z" fill="#445FEB"/>
<path d="M554.742 410.342C556.052 410.337 557.343 410.059 558.519 409.531C558.553 409.51 558.58 409.482 558.599 409.45C558.618 409.417 558.628 409.38 558.628 409.343C558.63 409.305 558.619 409.266 558.597 409.233C558.575 409.2 558.543 409.173 558.505 409.156C558.383 409.094 555.342 407.558 553.706 408.095C553.5 408.15 553.311 408.249 553.154 408.383C552.998 408.518 552.879 408.684 552.806 408.869C552.703 409.044 552.669 409.246 552.709 409.441C552.749 409.636 552.86 409.813 553.024 409.943C553.532 410.247 554.137 410.388 554.742 410.342ZM557.864 409.343C556.569 409.855 554.046 410.167 553.337 409.618C553.215 409.518 553.092 409.368 553.256 409.031C553.304 408.907 553.384 408.795 553.488 408.704C553.592 408.613 553.718 408.546 553.856 408.507C554.96 408.145 557.005 408.956 557.864 409.393V409.343Z" fill="#445FEB"/>
<path d="M475.507 441.526C476.825 441.497 478.137 441.342 479.42 441.064C479.465 441.05 479.504 441.022 479.531 440.987C479.559 440.951 479.573 440.908 479.573 440.865C479.573 440.821 479.559 440.778 479.531 440.743C479.504 440.707 479.465 440.68 479.42 440.665C478.834 440.403 473.611 438.169 472.302 439.017C472.182 439.089 472.086 439.19 472.026 439.309C471.966 439.429 471.943 439.561 471.961 439.691C471.965 439.936 472.03 440.176 472.154 440.393C472.277 440.61 472.454 440.797 472.67 440.94C473.523 441.407 474.517 441.612 475.507 441.526ZM478.602 440.777C477.061 441.039 474.198 441.389 473.011 440.578C472.859 440.468 472.734 440.33 472.645 440.173C472.556 440.016 472.504 439.843 472.493 439.666C472.481 439.612 472.488 439.555 472.512 439.503C472.537 439.452 472.578 439.409 472.63 439.379C473.352 438.917 476.434 439.904 478.602 440.777Z" fill="#445FEB"/>
<path d="M479.365 441.076C479.419 441.091 479.476 441.091 479.529 441.076C479.563 441.049 479.588 441.013 479.6 440.973C479.612 440.933 479.611 440.891 479.597 440.852C479.597 440.652 478.37 435.948 475.507 436.247C474.798 436.334 474.593 436.646 474.566 436.908C474.388 438.156 477.675 440.515 479.243 441.114L479.365 441.076ZM475.793 436.621C477.606 436.621 478.656 439.367 479.011 440.465C477.306 439.641 474.92 437.682 475.07 436.921C475.07 436.859 475.07 436.684 475.602 436.634L475.793 436.621Z" fill="#445FEB"/>
<path d="M455.749 108.732L453.581 107.709C453.581 107.709 454.413 109.568 455.749 108.732Z" fill="#263238"/>
</svg>
