<svg width="682" height="508" viewBox="0 0 682 508" fill="none" xmlns="http://www.w3.org/2000/svg">
<path d="M681.769 446.423H7.62939e-05V446.763H681.769V446.423Z" fill="#EBEBEB"/>
<path d="M613.456 468.362H568.296V468.703H613.456V468.362Z" fill="#EBEBEB"/>
<path d="M372.546 464.094H354.97V464.435H372.546V464.094Z" fill="#EBEBEB"/>
<path d="M476.789 465.539H439.782V465.88H476.789V465.539Z" fill="#EBEBEB"/>
<path d="M566.932 455.708H490.424V456.049H566.932V455.708Z" fill="#EBEBEB"/>
<path d="M107.706 471.484H71.5314V471.825H107.706V471.484Z" fill="#EBEBEB"/>
<path d="M151.203 471.484H119.842V471.825H151.203V471.484Z" fill="#EBEBEB"/>
<path d="M261.54 463.93H178.624V464.271H261.54V463.93Z" fill="#EBEBEB"/>
<path d="M323.159 385.609H59.8731C57.8105 385.605 55.8337 384.783 54.3765 383.324C52.9193 381.864 52.1009 379.886 52.1009 377.823V7.71767C52.1188 5.66695 52.9452 3.70612 54.4004 2.26109C55.8557 0.816067 57.8223 0.00355878 59.8731 4.57764e-05H323.159C325.224 4.57764e-05 327.204 0.820334 328.664 2.28046C330.124 3.74058 330.945 5.72093 330.945 7.78585V377.823C330.945 379.888 330.124 381.868 328.664 383.328C327.204 384.789 325.224 385.609 323.159 385.609ZM59.8731 0.272755C57.9009 0.276367 56.0108 1.06233 54.6175 2.45813C53.2243 3.85394 52.4418 5.74552 52.4418 7.71767V377.823C52.4418 379.795 53.2243 381.687 54.6175 383.083C56.0108 384.478 57.9009 385.264 59.8731 385.268H323.159C325.132 385.264 327.024 384.479 328.419 383.083C329.815 381.688 330.6 379.796 330.604 377.823V7.71767C330.6 5.74427 329.815 3.85271 328.419 2.4573C327.024 1.06189 325.132 0.276359 323.159 0.272755H59.8731Z" fill="#EBEBEB"/>
<path d="M618.106 385.609H354.806C352.743 385.605 350.764 384.784 349.305 383.324C347.846 381.865 347.024 379.887 347.021 377.823V7.71767C347.042 5.6657 347.872 3.70489 349.329 2.26024C350.786 0.81559 352.754 0.00352047 354.806 4.57764e-05H618.106C620.154 0.00714231 622.117 0.821236 623.57 2.26588C625.022 3.71052 625.846 5.6693 625.864 7.71767V377.823C625.864 379.883 625.048 381.859 623.594 383.319C622.139 384.778 620.166 385.602 618.106 385.609ZM354.806 0.272755C352.833 0.276359 350.942 1.06189 349.546 2.4573C348.151 3.85271 347.365 5.74427 347.362 7.71767V377.823C347.365 379.796 348.151 381.688 349.546 383.083C350.942 384.479 352.833 385.264 354.806 385.268H618.106C620.079 385.264 621.971 384.479 623.366 383.083C624.762 381.688 625.547 379.796 625.551 377.823V7.71767C625.547 5.74427 624.762 3.85271 623.366 2.4573C621.971 1.06189 620.079 0.276359 618.106 0.272755H354.806Z" fill="#EBEBEB"/>
<path d="M361.202 329.145C358.474 321.304 336.944 331.967 328.204 344.962C322.382 353.606 318.823 362.851 317.173 375.259C317.364 361.106 317.596 345.889 317.814 331.531C319.586 327.958 323.622 319.709 326.513 313.164C336.208 291.347 359.238 283.166 367.187 269.449C377.619 251.396 377.55 224.329 368.687 214.553C360.97 206.072 335.431 263.477 332.554 269.885C324.704 287.049 319.76 305.397 317.923 324.181C318.141 310.696 318.345 298.274 318.509 288.729C319.055 257.572 319.723 247.55 320.036 244.469C321.1 242.969 322.354 241.21 323.091 240.269C329.267 232.32 342.985 222.843 349.83 211.28C359.838 194.386 358.229 174.178 351.193 166.652C343.857 158.784 330.876 177.383 323.991 195.804C317.105 214.226 320.05 231.87 318.114 247.182C317.718 250.182 317.296 261.581 316.914 277.398C314.814 260.381 310.655 248.982 302.938 238.36C293.393 225.298 285.212 209.385 277.453 211.444C269.694 213.503 273.84 234.542 280.03 249.323C285.484 262.495 312.755 275.612 316.709 286.207C316.232 307.642 315.809 334.803 315.509 360.083C313.369 347.021 314.841 345.93 306.06 325.927C300.851 314.037 279.457 299.379 276.908 307.546C274.358 315.714 278.271 331.149 286.302 341.962C292.82 350.689 307.274 350.675 310.614 356.088C311.405 357.356 313.982 362.197 315.455 364.978C315.1 395.849 314.95 423.106 315.128 432.392L316.491 432.487C316.491 430.087 316.6 414.379 316.873 393.599C320.391 382.541 344.021 376.091 351.316 364.583C358.993 352.598 364.488 338.553 361.202 329.145Z" fill="#E6E6E6"/>
<path d="M338.989 446.423H293.638C292.435 446.425 291.269 446.01 290.336 445.249C289.404 444.489 288.764 443.429 288.525 442.25L285.307 426.379H347.321L344.089 442.25C343.853 443.428 343.215 444.488 342.285 445.248C341.356 446.009 340.191 446.424 338.989 446.423Z" fill="#F0F0F0"/>
<path d="M348.616 432.528H284.012C283.259 432.529 282.533 432.25 281.974 431.747C281.415 431.243 281.062 430.55 280.985 429.801L279.621 418.061C279.575 417.636 279.619 417.205 279.75 416.798C279.881 416.391 280.097 416.015 280.382 415.697C280.667 415.378 281.017 415.123 281.407 414.947C281.797 414.772 282.22 414.681 282.648 414.679H349.898C350.325 414.681 350.748 414.772 351.137 414.947C351.527 415.123 351.876 415.378 352.16 415.697C352.444 416.016 352.658 416.392 352.788 416.799C352.917 417.206 352.959 417.636 352.911 418.061L351.548 429.801C351.475 430.535 351.137 431.216 350.597 431.719C350.057 432.221 349.353 432.509 348.616 432.528Z" fill="#F0F0F0"/>
<path d="M546.465 440.737H589.894V255.418H546.465V440.737Z" fill="#F0F0F0"/>
<path d="M361.951 446.423H586.963V440.737H361.951V446.423Z" fill="#F0F0F0"/>
<path d="M546.452 255.418H359.033V440.737H546.452V255.418Z" fill="#F5F5F5"/>
<path d="M529.38 328.463H376.105V367.706H529.38V328.463Z" fill="#F0F0F0"/>
<path d="M529.38 378.968H376.105V418.211H529.38V378.968Z" fill="#F0F0F0"/>
<path d="M435.542 335.226H469.944C472.286 335.226 474.184 333.33 474.184 330.992C474.184 328.654 472.286 326.758 469.944 326.758H435.542C433.2 326.758 431.301 328.654 431.301 330.992C431.301 333.33 433.2 335.226 435.542 335.226Z" fill="#F5F5F5"/>
<path d="M529.38 277.957H376.105V317.2H529.38V277.957Z" fill="#F0F0F0"/>
<path d="M435.542 284.721H469.944C471.065 284.717 472.139 284.271 472.934 283.479C473.728 282.688 474.177 281.615 474.184 280.494C474.181 279.37 473.733 278.294 472.938 277.499C472.144 276.705 471.067 276.257 469.944 276.253H435.542C434.418 276.257 433.342 276.705 432.547 277.499C431.753 278.294 431.305 279.37 431.301 280.494C431.308 281.615 431.758 282.688 432.552 283.479C433.346 284.271 434.42 284.717 435.542 284.721Z" fill="#F5F5F5"/>
<path d="M435.542 385.732H469.944C471.066 385.732 472.143 385.287 472.937 384.494C473.732 383.702 474.181 382.627 474.184 381.505C474.181 380.381 473.733 379.304 472.938 378.51C472.144 377.715 471.067 377.268 469.944 377.264H435.542C434.418 377.268 433.342 377.715 432.547 378.51C431.753 379.304 431.305 380.381 431.301 381.505C431.305 382.627 431.753 383.702 432.548 384.494C433.343 385.287 434.419 385.732 435.542 385.732Z" fill="#F5F5F5"/>
<path d="M355.175 255.418L546.452 255.418V250.128L355.175 250.128V255.418Z" fill="#F0F0F0"/>
<path d="M594.012 250.141H546.452V255.432H594.012V250.141Z" fill="#E6E6E6"/>
<path d="M200.999 446.423H243.91L243.91 168.902H200.999L200.999 446.423Z" fill="#E0E0E0"/>
<path d="M91.6435 446.423H235.32L250.414 104.829H106.738L91.6435 446.423Z" fill="#E6E6E6"/>
<path d="M70.686 446.423H229.62L244.701 104.829H85.7803L70.686 446.423Z" fill="#F0F0F0"/>
<path d="M214.062 429.678L226.77 121.587H101.338L88.6164 429.678H214.062Z" fill="white"/>
<path d="M160.161 429.678L202.799 121.587H189.423L146.785 429.678H160.161Z" fill="#FAFAFA"/>
<path d="M141.113 429.678L183.751 121.587H160.939L118.301 429.678H141.113Z" fill="#FAFAFA"/>
<path d="M400.158 197.877L574.05 197.877V35.2066L400.158 35.2066V197.877Z" fill="#E6E6E6"/>
<path d="M394.744 197.877L571.514 197.877V35.2066L394.744 35.2066V197.877Z" fill="#F5F5F5"/>
<path d="M400.158 204.531L574.05 204.531V197.877L400.158 197.877V204.531Z" fill="#E6E6E6"/>
<path d="M389.918 204.531L554.879 204.531V197.877L389.918 197.877V204.531Z" fill="#F5F5F5"/>
<path d="M563.96 187.787V45.2832L402.299 45.2832V187.787H563.96Z" fill="#FAFAFA"/>
<path d="M403.389 187.8V45.2968H402.312V187.8H403.389Z" fill="#E6E6E6"/>
<path d="M537.152 187.787L509.2 45.2832H472.562L500.514 187.787H537.152Z" fill="white"/>
<path d="M494.583 187.787L466.63 45.2832H450.091L478.043 187.787H494.583Z" fill="white"/>
<path d="M558.56 180.069V29.6161C558.56 29.1567 558.188 28.7844 557.728 28.7844H557.66C557.201 28.7844 556.828 29.1567 556.828 29.6161V180.069C556.828 180.528 557.201 180.901 557.66 180.901H557.728C558.188 180.901 558.56 180.528 558.56 180.069Z" fill="#EBEBEB"/>
<path opacity="0.5" d="M390.79 53.6689L576.982 53.6689V28.7707L390.79 28.7707V53.6689Z" fill="#E6E6E6"/>
<path d="M390.79 31.866L576.982 31.866V28.7708L390.79 28.7708V31.866Z" fill="#E0E0E0"/>
<path d="M391.104 30.1342L576.681 30.1342C577.337 30.1342 577.868 29.6031 577.868 28.9479V28.6071C577.868 27.9519 577.337 27.4208 576.681 27.4208L391.104 27.4208C390.449 27.4208 389.918 27.9519 389.918 28.6071V28.9479C389.918 29.6031 390.449 30.1342 391.104 30.1342Z" fill="#EBEBEB"/>
<path d="M390.558 54.3234H577.213C577.299 54.3234 577.383 54.3064 577.462 54.2734C577.54 54.2403 577.612 54.1919 577.671 54.1309C577.731 54.0699 577.778 53.9977 577.809 53.9183C577.841 53.839 577.856 53.7542 577.854 53.6689C577.854 53.4989 577.787 53.3359 577.666 53.2157C577.546 53.0956 577.383 53.028 577.213 53.028H390.558C390.387 53.028 390.223 53.0951 390.1 53.2149C389.978 53.3347 389.907 53.4977 389.904 53.6689C389.904 53.8425 389.973 54.009 390.096 54.1317C390.218 54.2545 390.385 54.3234 390.558 54.3234Z" fill="white"/>
<path d="M340.885 508C486.896 508 605.261 501.089 605.261 492.565C605.261 484.04 486.896 477.129 340.885 477.129C194.874 477.129 76.5082 484.04 76.5082 492.565C76.5082 501.089 194.874 508 340.885 508Z" fill="#F5F5F5"/>
<path d="M88.4096 295.999L87.0282 296.16L89.4831 317.152L90.8644 316.991L88.4096 295.999Z" fill="#445FEB"/>
<path d="M91.7799 324.798L90.3985 324.96L91.637 335.551L93.0184 335.389L91.7799 324.798Z" fill="#445FEB"/>
<path d="M183.519 253.195L181.882 248.6C180.757 245.442 178.593 242.759 175.744 240.991C172.896 239.222 169.532 238.472 166.202 238.865L101.038 246.487C97.1345 246.945 93.5725 248.934 91.1357 252.018C88.6988 255.102 87.5866 259.027 88.0436 262.931L106.588 421.511C106.742 422.837 107.156 424.12 107.806 425.286C108.456 426.452 109.33 427.479 110.377 428.307C111.425 429.135 112.625 429.749 113.91 430.113C115.194 430.477 116.538 430.584 117.864 430.428L351.029 403.157C352.358 403.007 353.644 402.595 354.813 401.946C355.983 401.298 357.012 400.424 357.843 399.377C358.674 398.329 359.29 397.128 359.656 395.841C360.022 394.555 360.13 393.209 359.974 391.881L343.884 254.791C343.573 252.115 342.212 249.672 340.1 247.999C337.988 246.327 335.298 245.562 332.622 245.873L197.222 261.717C194.311 262.054 191.372 261.395 188.883 259.848C186.395 258.3 184.504 255.955 183.519 253.195Z" fill="#445FEB"/>
<path d="M190.025 184.235L116.356 198.915L136.582 300.412L210.251 285.732L190.025 184.235Z" fill="#445FEB"/>
<path opacity="0.7" d="M190.025 184.235L116.356 198.915L136.582 300.412L210.251 285.732L190.025 184.235Z" fill="white"/>
<g opacity="0.4">
<path opacity="0.4" d="M180.192 208.621L134.813 217.675C133.756 217.88 132.66 217.66 131.764 217.063C130.868 216.466 130.244 215.539 130.027 214.485C129.822 213.427 130.042 212.332 130.639 211.436C131.236 210.54 132.163 209.916 133.218 209.699L178.623 200.686C179.681 200.48 180.776 200.7 181.672 201.298C182.568 201.895 183.192 202.821 183.409 203.876C183.602 204.931 183.373 206.019 182.771 206.907C182.169 207.794 181.243 208.41 180.192 208.621Z" fill="#445FEB"/>
<path opacity="0.4" d="M183.532 225.434L138.154 234.529C137.099 234.73 136.007 234.508 135.114 233.911C134.221 233.314 133.599 232.39 133.381 231.338C133.18 230.283 133.402 229.191 133.999 228.298C134.596 227.405 135.52 226.783 136.572 226.565L181.951 217.525C183.006 217.324 184.098 217.546 184.991 218.143C185.883 218.74 186.506 219.664 186.723 220.716C186.909 221.763 186.679 222.841 186.084 223.721C185.488 224.602 184.573 225.216 183.532 225.434Z" fill="#445FEB"/>
<path opacity="0.4" d="M186.873 242.219L141.494 251.259C140.439 251.46 139.347 251.239 138.454 250.642C137.562 250.045 136.939 249.12 136.722 248.068C136.521 247.013 136.743 245.921 137.34 245.029C137.937 244.136 138.861 243.513 139.913 243.296L185.291 234.242C186.346 234.041 187.438 234.263 188.331 234.86C189.224 235.457 189.846 236.381 190.064 237.433C190.269 238.49 190.049 239.585 189.452 240.481C188.854 241.377 187.928 242.002 186.873 242.219Z" fill="#445FEB"/>
<path opacity="0.4" d="M190.227 259.072L144.849 268.112C143.792 268.318 142.696 268.098 141.8 267.5C140.904 266.903 140.28 265.977 140.063 264.922C139.858 263.865 140.077 262.769 140.675 261.873C141.272 260.977 142.199 260.353 143.253 260.136L188.632 251.095C189.689 250.89 190.784 251.11 191.68 251.708C192.576 252.305 193.201 253.231 193.418 254.286C193.623 255.343 193.403 256.439 192.806 257.335C192.209 258.231 191.282 258.855 190.227 259.072Z" fill="#445FEB"/>
<path opacity="0.4" d="M181.16 278.257L148.189 284.829C147.134 285.031 146.042 284.809 145.15 284.212C144.257 283.615 143.634 282.691 143.417 281.639C143.212 280.582 143.432 279.486 144.029 278.59C144.626 277.694 145.553 277.07 146.608 276.853L179.578 270.281C180.633 270.079 181.725 270.301 182.618 270.898C183.511 271.495 184.133 272.419 184.35 273.471C184.556 274.528 184.336 275.624 183.738 276.52C183.141 277.416 182.215 278.04 181.16 278.257Z" fill="#445FEB"/>
</g>
<path d="M294.994 164.675L220.57 174.856L234.598 277.394L309.022 267.212L294.994 164.675Z" fill="#445FEB"/>
<path opacity="0.7" d="M294.994 164.675L220.57 174.856L234.598 277.394L309.022 267.212L294.994 164.675Z" fill="white"/>
<g opacity="0.4">
<path opacity="0.4" d="M283.698 188.441L237.856 194.713C236.788 194.853 235.708 194.567 234.851 193.916C233.993 193.265 233.427 192.302 233.274 191.236C233.134 190.169 233.421 189.089 234.072 188.231C234.722 187.374 235.685 186.807 236.751 186.655L282.593 180.382C283.661 180.242 284.741 180.529 285.598 181.18C286.456 181.831 287.022 182.794 287.175 183.859C287.315 184.927 287.028 186.007 286.377 186.864C285.727 187.722 284.764 188.289 283.698 188.441Z" fill="#445FEB"/>
<path opacity="0.4" d="M286.016 205.39L240.174 211.662C239.106 211.802 238.026 211.516 237.169 210.865C236.311 210.214 235.744 209.251 235.592 208.185C235.456 207.12 235.744 206.043 236.395 205.189C237.045 204.334 238.006 203.77 239.069 203.617L284.911 197.345C285.977 197.205 287.055 197.489 287.912 198.137C288.769 198.785 289.337 199.745 289.493 200.808C289.633 201.876 289.346 202.956 288.695 203.813C288.044 204.671 287.082 205.237 286.016 205.39Z" fill="#445FEB"/>
<path opacity="0.4" d="M255.118 226.893L242.492 228.625C241.424 228.765 240.344 228.478 239.487 227.827C238.629 227.176 238.062 226.213 237.91 225.147C237.77 224.08 238.057 223 238.708 222.143C239.358 221.285 240.321 220.718 241.387 220.566L254.027 218.834C255.093 218.698 256.169 218.986 257.023 219.637C257.878 220.288 258.443 221.248 258.595 222.311C258.735 223.379 258.449 224.459 257.798 225.316C257.147 226.174 256.184 226.74 255.118 226.893Z" fill="#445FEB"/>
<path opacity="0.4" d="M279.621 223.538L266.981 225.27C265.915 225.406 264.839 225.118 263.985 224.467C263.13 223.817 262.565 222.856 262.413 221.793C262.273 220.726 262.559 219.646 263.21 218.788C263.861 217.93 264.824 217.364 265.89 217.212L278.516 215.494C279.582 215.353 280.66 215.638 281.517 216.286C282.374 216.934 282.942 217.894 283.098 218.957C283.238 220.025 282.951 221.104 282.3 221.962C281.65 222.82 280.687 223.386 279.621 223.538Z" fill="#445FEB"/>
<path opacity="0.4" d="M290.652 239.301L244.81 245.573C243.742 245.713 242.662 245.427 241.805 244.776C240.947 244.125 240.38 243.162 240.228 242.096C240.092 241.031 240.38 239.955 241.031 239.1C241.681 238.245 242.642 237.681 243.705 237.528L289.547 231.243C290.615 231.102 291.695 231.389 292.552 232.04C293.41 232.691 293.976 233.654 294.129 234.72C294.269 235.787 293.982 236.867 293.331 237.725C292.681 238.582 291.718 239.149 290.652 239.301Z" fill="#445FEB"/>
<path opacity="0.4" d="M280.453 257.968L247.128 262.522C246.064 262.659 244.99 262.372 244.136 261.724C243.281 261.077 242.715 260.119 242.56 259.059C242.42 257.993 242.704 256.915 243.352 256.058C244 255.201 244.96 254.633 246.023 254.477L279.348 249.923C280.411 249.787 281.486 250.073 282.34 250.721C283.194 251.368 283.76 252.326 283.916 253.386C284.056 254.452 283.772 255.53 283.123 256.387C282.475 257.244 281.516 257.812 280.453 257.968Z" fill="#445FEB"/>
</g>
<path d="M224.767 179.635L149.933 186.156L158.917 289.258L233.751 282.737L224.767 179.635Z" fill="#445FEB"/>
<path opacity="0.8" d="M224.767 179.635L149.933 186.156L158.917 289.258L233.751 282.737L224.767 179.635Z" fill="white"/>
<g opacity="0.4">
<path opacity="0.4" d="M212.316 202.84L166.215 206.849C165.143 206.936 164.079 206.597 163.254 205.905C162.43 205.214 161.911 204.225 161.811 203.154C161.728 202.083 162.068 201.023 162.76 200.202C163.451 199.38 164.437 198.863 165.506 198.763L211.607 194.672C212.68 194.585 213.744 194.924 214.568 195.616C215.393 196.307 215.911 197.296 216.012 198.367C216.064 198.904 216.01 199.446 215.853 199.961C215.695 200.477 215.437 200.956 215.094 201.372C214.751 201.788 214.328 202.131 213.852 202.383C213.375 202.635 212.853 202.79 212.316 202.84Z" fill="#445FEB"/>
<path opacity="0.4" d="M213.803 219.884L167.701 223.975C166.629 224.062 165.565 223.723 164.741 223.031C163.916 222.34 163.398 221.351 163.297 220.28C163.21 219.207 163.549 218.143 164.241 217.319C164.932 216.494 165.921 215.976 166.992 215.875L213.094 211.785C214.166 211.698 215.23 212.037 216.054 212.728C216.879 213.42 217.397 214.409 217.498 215.48C217.585 216.553 217.246 217.616 216.554 218.441C215.863 219.265 214.874 219.784 213.803 219.884Z" fill="#445FEB"/>
<path opacity="0.4" d="M215.289 236.928L169.188 241.019C168.115 241.106 167.051 240.767 166.227 240.076C165.403 239.384 164.884 238.395 164.784 237.324C164.696 236.251 165.035 235.187 165.727 234.363C166.419 233.539 167.407 233.02 168.479 232.92L214.58 228.829C215.653 228.742 216.716 229.081 217.541 229.772C218.365 230.464 218.884 231.453 218.984 232.524C219.071 233.597 218.732 234.66 218.041 235.485C217.349 236.309 216.36 236.828 215.289 236.928Z" fill="#445FEB"/>
<path opacity="0.4" d="M216.802 253.973L170.701 258.063C169.629 258.15 168.565 257.811 167.741 257.12C166.916 256.428 166.397 255.439 166.297 254.368C166.21 253.295 166.549 252.232 167.24 251.407C167.932 250.583 168.921 250.064 169.992 249.964L216.093 245.955C217.166 245.868 218.23 246.207 219.054 246.898C219.879 247.59 220.397 248.579 220.498 249.65C220.563 250.709 220.213 251.752 219.524 252.559C218.835 253.365 217.859 253.872 216.802 253.973Z" fill="#445FEB"/>
<path opacity="0.4" d="M205.662 272.121L172.16 275.039C171.081 275.138 170.007 274.804 169.173 274.111C168.34 273.418 167.815 272.423 167.715 271.344C167.628 270.272 167.967 269.208 168.659 268.383C169.35 267.559 170.339 267.04 171.41 266.94L204.912 264.022C205.985 263.935 207.049 264.274 207.873 264.965C208.698 265.657 209.216 266.646 209.317 267.717C209.404 268.783 209.071 269.841 208.388 270.665C207.705 271.488 206.726 272.011 205.662 272.121Z" fill="#445FEB"/>
</g>
<path d="M315.953 174.626L240.923 178.243L245.906 281.616L320.936 277.998L315.953 174.626Z" fill="#445FEB"/>
<path opacity="0.8" d="M315.953 174.626L240.923 178.243L245.906 281.616L320.936 277.998L315.953 174.626Z" fill="white"/>
<g opacity="0.4">
<path opacity="0.4" d="M302.624 197.304L256.413 199.54C255.34 199.585 254.291 199.205 253.495 198.483C252.699 197.761 252.219 196.754 252.159 195.681C252.114 194.607 252.494 193.559 253.216 192.763C253.938 191.967 254.945 191.487 256.018 191.427L302.242 189.191C303.316 189.146 304.364 189.526 305.16 190.248C305.956 190.97 306.436 191.977 306.496 193.05C306.541 194.126 306.159 195.176 305.434 195.973C304.709 196.769 303.699 197.247 302.624 197.304Z" fill="#445FEB"/>
<path opacity="0.4" d="M303.455 214.403L257.231 216.625C256.158 216.67 255.109 216.29 254.313 215.568C253.517 214.846 253.037 213.84 252.977 212.766C252.933 211.69 253.314 210.64 254.039 209.844C254.764 209.047 255.774 208.569 256.85 208.512L303.06 206.276C304.136 206.231 305.186 206.613 305.983 207.338C306.779 208.063 307.258 209.073 307.314 210.148C307.359 211.222 306.979 212.271 306.257 213.067C305.535 213.863 304.529 214.343 303.455 214.403Z" fill="#445FEB"/>
<path opacity="0.4" d="M270.799 233.165L258.063 233.779C256.989 233.823 255.941 233.443 255.145 232.721C254.349 231.999 253.869 230.993 253.809 229.92C253.764 228.846 254.144 227.798 254.866 227.002C255.588 226.205 256.595 225.725 257.668 225.666L270.403 225.038C271.479 224.994 272.53 225.375 273.326 226.1C274.123 226.825 274.601 227.835 274.658 228.911C274.702 229.985 274.322 231.033 273.6 231.829C272.878 232.625 271.872 233.105 270.799 233.165Z" fill="#445FEB"/>
<path opacity="0.4" d="M295.492 231.911L282.757 232.524C281.683 232.569 280.635 232.189 279.839 231.467C279.043 230.745 278.563 229.738 278.503 228.665C278.458 227.591 278.838 226.543 279.56 225.747C280.282 224.951 281.288 224.471 282.362 224.411L295.097 223.798C296.171 223.753 297.219 224.133 298.015 224.855C298.811 225.577 299.291 226.583 299.351 227.656C299.396 228.73 299.016 229.778 298.294 230.575C297.572 231.371 296.566 231.851 295.492 231.911Z" fill="#445FEB"/>
<path opacity="0.4" d="M305.105 248.587L258.881 250.809C257.807 250.854 256.759 250.474 255.963 249.752C255.167 249.03 254.687 248.023 254.627 246.95C254.583 245.874 254.964 244.824 255.689 244.027C256.414 243.231 257.424 242.753 258.5 242.696L304.71 240.46C305.786 240.415 306.836 240.797 307.633 241.522C308.429 242.247 308.908 243.257 308.964 244.332C309.009 245.406 308.629 246.455 307.907 247.251C307.185 248.047 306.178 248.527 305.105 248.587Z" fill="#445FEB"/>
<path opacity="0.4" d="M293.297 266.285L259.713 267.908C258.639 267.953 257.591 267.573 256.795 266.851C255.999 266.129 255.519 265.122 255.459 264.049C255.414 262.975 255.794 261.927 256.516 261.131C257.238 260.335 258.245 259.855 259.318 259.795L292.902 258.172C293.976 258.128 295.024 258.507 295.82 259.229C296.616 259.952 297.096 260.958 297.156 262.031C297.201 263.105 296.821 264.153 296.099 264.949C295.377 265.745 294.37 266.225 293.297 266.285Z" fill="#445FEB"/>
</g>
<path d="M204.326 256.127L203.126 251.641C202.286 248.536 200.334 245.849 197.641 244.089C194.949 242.329 191.704 241.62 188.523 242.096L123.359 249.718C119.406 250.203 115.765 252.113 113.119 255.09C110.474 258.067 109.004 261.907 108.988 265.89L112.683 421.129C112.705 422.407 113 423.667 113.55 424.821C114.099 425.976 114.889 427 115.867 427.824C116.844 428.649 117.987 429.254 119.219 429.599C120.45 429.945 121.741 430.023 123.005 429.828L356.17 402.557C358.877 402.229 361.372 400.925 363.187 398.889C365.001 396.854 366.012 394.226 366.028 391.499L362.838 257.3C362.814 256.02 362.516 254.761 361.966 253.606C361.415 252.451 360.624 251.428 359.645 250.604C358.666 249.78 357.522 249.175 356.29 248.829C355.058 248.484 353.767 248.406 352.502 248.6L217.116 264.431C214.337 264.855 211.499 264.244 209.141 262.713C206.783 261.182 205.07 258.838 204.326 256.127Z" fill="#445FEB"/>
<path opacity="0.3" d="M204.326 256.127L203.126 251.641C202.286 248.536 200.334 245.849 197.641 244.089C194.949 242.329 191.704 241.62 188.523 242.096L123.359 249.718C119.406 250.203 115.765 252.113 113.119 255.09C110.474 258.067 109.004 261.907 108.988 265.89L112.683 421.129C112.705 422.407 113 423.667 113.55 424.821C114.099 425.976 114.889 427 115.867 427.824C116.844 428.649 117.987 429.254 119.219 429.599C120.45 429.945 121.741 430.023 123.005 429.828L356.17 402.557C358.877 402.229 361.372 400.925 363.187 398.889C365.001 396.854 366.012 394.226 366.028 391.499L362.838 257.3C362.814 256.02 362.516 254.761 361.966 253.606C361.415 252.451 360.624 251.428 359.645 250.604C358.666 249.78 357.522 249.175 356.29 248.829C355.058 248.484 353.767 248.406 352.502 248.6L217.116 264.431C214.337 264.855 211.499 264.244 209.141 262.713C206.783 261.182 205.07 258.838 204.326 256.127Z" fill="black"/>
<path d="M432.242 181.501C431.233 186.559 430.155 191.55 428.942 196.5C427.728 201.449 426.542 206.453 425.219 211.403L423.201 218.807L422.942 219.762C422.819 220.171 422.683 220.58 422.52 221.002C422.171 221.93 421.713 222.814 421.156 223.634C420.48 224.653 419.614 225.532 418.606 226.225C417.496 226.978 416.218 227.446 414.884 227.588C412.865 227.735 410.845 227.305 409.061 226.347C407.706 225.61 406.435 224.727 405.271 223.716C403.163 221.873 401.298 219.77 399.721 217.457L403.607 214.076C405.463 215.519 407.422 216.822 409.47 217.975C410.36 218.48 411.302 218.887 412.279 219.189C413.111 219.462 413.847 219.421 413.847 219.284C413.847 219.148 413.711 219.284 413.643 219.284C413.575 219.284 413.643 219.284 413.643 219.052C413.643 218.821 413.806 218.575 413.902 218.221L414.216 216.707L415.797 209.262L419.002 194.372C420.038 189.409 421.156 184.432 422.233 179.523L432.242 181.501Z" fill="#FFC3BD"/>
<path d="M427.714 165.915C416.083 174.819 416.561 191.604 416.561 191.604L437.355 196.581C437.355 196.581 443.75 179.701 441.159 173.524C438.459 167.088 434.273 160.898 427.714 165.915Z" fill="#263238"/>
<path d="M404.644 214.28L396.994 206.631L392.904 218.602C392.904 218.602 399.367 222.08 405.544 218.793L404.644 214.28Z" fill="#FFC3BD"/>
<path d="M386.399 205.444L384.995 214.907L392.863 218.602L396.994 206.631L386.399 205.444Z" fill="#FFC3BD"/>
<path d="M495.128 482.502L483.429 483.647L471.252 455.79L482.951 454.645L495.128 482.502Z" fill="#FFC3BD"/>
<path d="M570.504 441.323L561.71 449.572L542.743 428.724L551.538 420.474L570.504 441.323Z" fill="#FFC3BD"/>
<path d="M557.687 445.618L564.287 433.728C564.397 433.52 564.581 433.359 564.802 433.276C565.022 433.193 565.266 433.194 565.487 433.278L575.645 437.151C575.896 437.256 576.122 437.413 576.308 437.612C576.494 437.811 576.636 438.046 576.725 438.304C576.813 438.561 576.847 438.834 576.823 439.106C576.799 439.377 576.718 439.64 576.586 439.878C574.213 443.968 572.863 445.85 569.959 451.086C568.173 454.304 564.696 461.681 562.228 466.085C559.76 470.489 555.233 468.335 555.86 466.262C558.683 456.963 558.151 451.795 557.36 447.704C557.225 446.992 557.34 446.255 557.687 445.618Z" fill="#263238"/>
<path d="M481.874 480.034H496.246C496.504 480.034 496.755 480.12 496.96 480.278C497.165 480.436 497.312 480.657 497.378 480.906L500.5 492.265C500.577 492.533 500.59 492.815 500.538 493.089C500.486 493.363 500.37 493.621 500.201 493.842C500.031 494.064 499.812 494.242 499.561 494.364C499.31 494.485 499.034 494.546 498.755 494.542C493.683 494.542 491.283 494.542 484.97 494.542H465.662C460.399 494.542 459.308 489.238 461.476 488.747C471.225 486.592 476.829 483.62 479.843 480.784C480.401 480.287 481.127 480.019 481.874 480.034Z" fill="#263238"/>
<path opacity="0.2" d="M471.266 455.804L477.538 470.162H489.742L482.965 454.658L471.266 455.804Z" fill="black"/>
<path opacity="0.2" d="M551.538 420.488L542.743 428.737L552.533 439.482L561.328 431.219L551.538 420.488Z" fill="black"/>
<path d="M431.232 164.197C431.232 164.197 425.969 166.502 443.613 236.315L492.619 232.074C490.083 212.207 488.992 199.908 494.978 158.143C487.997 157.317 480.965 157.003 473.938 157.202C466.485 157.314 459.048 157.956 451.686 159.125C444.786 160.468 437.96 162.161 431.232 164.197Z" fill="#263238"/>
<path d="M473.938 156.807C473.938 156.807 476.666 156.807 479.993 156.807C481.97 159.848 475.561 173.169 464.994 181.882C463.384 177.038 460.428 172.753 456.472 169.529L473.938 156.807Z" fill="white"/>
<path d="M451.686 158.948C451.686 158.948 450.445 159.125 447.486 159.807C445.509 162.847 442.168 175.842 447.99 182.469C449.456 177.443 452.397 172.974 456.431 169.638L451.686 158.948Z" fill="white"/>
<path d="M469.562 132.331C468.784 139.613 468.512 152.784 473.939 157.202C473.939 157.202 468.144 163.12 456.431 169.638C447.909 163.747 451.686 159.125 451.686 159.125C459.499 156.534 458.776 150.63 456.908 145.176L469.562 132.331Z" fill="#FFC3BD"/>
<path d="M456.226 169.679C456.226 169.679 463.412 161.852 467.134 163.352C470.857 164.852 467.98 167.538 467.653 170.061C467.325 172.583 469.098 179.292 464.121 177.546C459.144 175.801 456.226 169.679 456.226 169.679Z" fill="#445FEB"/>
<path d="M455.94 169.515C455.94 169.515 452.545 163.516 448.877 164.32C445.209 165.125 447.39 167.224 447.718 169.488C448.14 172.379 445.086 177.942 449.504 176.306C453.922 174.669 455.94 169.515 455.94 169.515Z" fill="#445FEB"/>
<g opacity="0.2">
<path opacity="0.2" d="M454.058 168.22C454.009 169.429 454.242 170.634 454.74 171.738C455.191 171.033 455.588 170.294 455.926 169.529C455.423 168.674 454.843 167.866 454.194 167.115C454.082 167.472 454.036 167.846 454.058 168.22Z" fill="black"/>
<path opacity="0.2" d="M458.844 167.143C457.303 168.506 456.24 169.679 456.24 169.679C456.636 170.497 457.092 171.286 457.603 172.038C458.427 171.211 458.913 170.108 458.967 168.943C459.098 168.343 459.055 167.719 458.844 167.143Z" fill="black"/>
</g>
<path d="M456.144 172.133C455.122 172.133 454.494 171.029 454.426 168.397C454.358 165.765 456.376 167.224 456.376 167.224C456.376 167.224 459.103 165.861 458.612 169.011C458.258 171.506 457.194 172.133 456.144 172.133Z" fill="#445FEB"/>
<path opacity="0.2" d="M464.407 137.581L456.922 145.176C457.37 146.441 457.712 147.74 457.944 149.062C460.958 148.367 465.321 145.23 465.362 142.013C465.313 140.49 464.99 138.989 464.407 137.581Z" fill="black"/>
<path d="M457.985 107.72C457.985 107.72 449.804 119.051 448.44 124.082C442.877 127.327 441.759 111.36 444.704 101.515C453.895 107.283 457.985 107.72 457.985 107.72Z" fill="#263238"/>
<path d="M475.97 120.959C472.929 132.59 471.88 137.581 464.762 142.449C454.031 149.785 440.409 143.512 439.905 131.2C439.455 120.128 444.5 102.961 456.949 100.547C459.692 99.9904 462.533 100.147 465.198 101.001C467.864 101.856 470.266 103.38 472.175 105.428C474.083 107.476 475.434 109.979 476.099 112.698C476.763 115.418 476.719 118.262 475.97 120.959Z" fill="#FFC3BD"/>
<path d="M482.297 116.31C482.297 116.31 476.447 125.786 475.657 129.945C471.416 132.822 469.63 120.196 471.416 112.219C473.366 105.115 482.297 116.31 482.297 116.31Z" fill="#263238"/>
<path d="M479.965 109.724C478.275 111.006 476.488 106.274 478.165 102.647C474.934 102.852 471.048 100.929 471.88 97.8066C465.512 99.9474 463.153 93.4706 463.889 88.9845C464.776 83.5304 469.521 82.3714 472.316 83.8031C472.316 81.3623 478.479 76.2763 480.824 80.2579C485.174 78.7171 492.183 79.1943 492.033 84.5394C494.91 84.6212 503.405 87.88 500.214 95.4477C503.964 95.6659 505.995 100.425 503.909 104.024C504.731 104.46 505.436 105.086 505.964 105.851C506.493 106.617 506.83 107.498 506.946 108.42C507.062 109.343 506.955 110.28 506.633 111.153C506.311 112.025 505.783 112.807 505.095 113.433C506.827 117.033 501.577 122.391 498.782 121.75C496.655 125.009 493.396 127.464 491.269 124.682C487.178 127.695 482.474 123.864 483.524 120.919C478.888 120.21 474.157 112.478 479.965 109.724Z" fill="#263238"/>
<path d="M486.892 98.2702C489.946 103.37 489.687 109.179 486.333 111.156C482.979 113.133 477.756 110.678 474.702 105.579C471.648 100.479 471.893 94.6705 475.261 92.6933C478.629 90.7162 483.838 93.1842 486.892 98.2702Z" fill="#445FEB"/>
<path d="M458.531 106.356C458.353 107.815 454.331 107.433 453.172 104.856C451.508 106.601 447.595 107.501 446.259 105.606C443.995 109.86 439.441 108.742 438.268 106.711C437.096 104.679 436.319 100.902 438.677 100.152C437.314 98.9792 437.723 93.4569 441.295 94.1523C442.795 91.2071 446.9 87.8664 449.899 90.4708C451.536 89.1072 458.081 86.2711 460.726 91.4662C461.306 91.0697 461.969 90.8099 462.664 90.7062C463.359 90.6026 464.068 90.6579 464.739 90.8678C465.409 91.0778 466.023 91.437 466.535 91.9185C467.047 92.4 467.443 92.9913 467.694 93.6478C471.934 92.5433 473.775 95.7613 473.761 97.5066C476.775 98.3248 476.979 103.533 475.125 104.652C475.848 107.283 475.466 110.106 472.698 109.86C472.166 113.406 467.421 113.951 466.303 112.028C463.221 114.005 456.935 110.569 458.531 106.356Z" fill="#263238"/>
<path d="M451.331 96.2931C454.781 91.5207 467.366 89.4754 478.261 96.6885C488.079 103.138 487.438 118.123 479.625 117.319C471.812 116.514 464.094 107.365 464.094 107.365L451.331 96.2931Z" fill="#263238"/>
<path d="M476.925 131.459C475.838 133.509 473.986 135.048 471.771 135.74C468.812 136.627 467.285 134.009 468.048 131.186C468.744 128.65 471.102 125.132 474.089 125.486C474.74 125.573 475.359 125.821 475.89 126.208C476.421 126.595 476.847 127.109 477.129 127.702C477.411 128.296 477.54 128.95 477.504 129.606C477.468 130.263 477.269 130.899 476.925 131.459Z" fill="#FFC3BD"/>
<path d="M443.613 236.315C443.613 236.315 427.033 309.673 438.159 361.392C445.577 396.026 472.248 465.989 472.248 465.989L493.164 465.458C493.164 465.458 472.916 392.031 468.73 363.192C461.571 313.805 479.502 233.261 479.502 233.261L443.613 236.315Z" fill="#445FEB"/>
<path opacity="0.2" d="M462.73 251.137L473.148 267.622C469.998 287.168 468 306.882 467.162 326.663C452.504 300.347 459.512 265.058 462.73 251.137Z" fill="black"/>
<path d="M469.302 467.08L495.128 466.412L493.642 458.49L467.284 459.731L469.302 467.08Z" fill="#263238"/>
<path d="M454.331 235.538C454.331 235.538 464.053 313.328 485.147 355.802C502.177 390.108 547.624 438.978 547.624 438.978L559.242 427.006C559.242 427.006 528.548 373.937 515.895 351.152C484.847 295.247 510.222 252.636 492.619 232.115L454.331 235.538Z" fill="#445FEB"/>
<path d="M546.452 440.546L561.451 425.929L556.474 419.152L540.561 435.023L546.452 440.546Z" fill="#263238"/>
<path d="M493.11 229.143L495.701 233.342C495.905 233.656 495.523 234.038 494.964 234.092L443.559 238.537C443.123 238.537 442.741 238.387 442.686 238.115L441.868 233.765C441.8 233.465 442.168 233.179 442.645 233.138L492.278 228.843C492.431 228.814 492.589 228.827 492.735 228.88C492.881 228.932 493.011 229.023 493.11 229.143Z" fill="#445FEB"/>
<path opacity="0.5" d="M493.11 229.143L495.701 233.342C495.905 233.656 495.523 234.038 494.964 234.092L443.559 238.537C443.123 238.537 442.741 238.387 442.686 238.115L441.868 233.765C441.8 233.465 442.168 233.179 442.645 233.138L492.278 228.843C492.431 228.814 492.589 228.827 492.735 228.88C492.881 228.932 493.011 229.023 493.11 229.143Z" fill="white"/>
<path d="M486.919 235.265L488.283 235.156C488.542 235.156 488.733 234.979 488.706 234.815L487.588 229.17C487.588 228.993 487.315 228.884 487.042 228.911L485.679 229.02C485.406 229.02 485.215 229.197 485.256 229.361L486.374 235.006C486.415 235.169 486.66 235.292 486.919 235.265Z" fill="#445FEB"/>
<path d="M447.336 238.687L448.699 238.578C448.959 238.578 449.149 238.401 449.122 238.238L448.004 232.592C447.955 232.495 447.875 232.416 447.776 232.369C447.677 232.322 447.565 232.31 447.459 232.333L446.095 232.442C445.822 232.442 445.631 232.62 445.672 232.783L446.791 238.428C446.831 238.619 447.077 238.715 447.336 238.687Z" fill="#445FEB"/>
<path d="M467.135 236.983L468.498 236.86C468.771 236.86 468.962 236.683 468.921 236.519L467.803 230.874C467.803 230.711 467.53 230.588 467.271 230.615L465.907 230.738C465.648 230.738 465.457 230.915 465.485 231.079L466.603 236.724C466.63 236.888 466.862 236.997 467.135 236.983Z" fill="#445FEB"/>
<path d="M456.281 120.564C456.09 121.519 455.435 122.2 454.808 122.078C454.181 121.955 453.826 121.069 454.004 120.114C454.181 119.16 454.863 118.478 455.49 118.601C456.117 118.723 456.472 119.596 456.281 120.564Z" fill="#263238"/>
<path d="M445.425 118.421C445.614 117.461 445.258 116.582 444.63 116.459C444.002 116.335 443.34 117.014 443.151 117.974C442.962 118.935 443.318 119.814 443.946 119.937C444.574 120.061 445.236 119.382 445.425 118.421Z" fill="#263238"/>
<path d="M444.922 116.583L442.741 115.464C442.741 115.464 443.573 117.496 444.922 116.583Z" fill="#263238"/>
<path d="M449.163 120.823C447.886 122.845 446.335 124.681 444.554 126.277C444.968 126.733 445.477 127.091 446.045 127.327C446.613 127.563 447.226 127.67 447.84 127.641L449.163 120.823Z" fill="#ED847E"/>
<path d="M452.272 132.141C454.286 132.162 456.234 131.422 457.726 130.068C457.755 130.046 457.779 130.019 457.796 129.987C457.813 129.955 457.823 129.92 457.825 129.884C457.826 129.848 457.82 129.812 457.807 129.779C457.793 129.745 457.772 129.715 457.746 129.691C457.719 129.666 457.688 129.648 457.654 129.637C457.619 129.626 457.583 129.623 457.547 129.628C457.511 129.633 457.477 129.645 457.447 129.665C457.416 129.684 457.391 129.71 457.372 129.741C456.454 130.55 455.358 131.131 454.173 131.436C452.989 131.742 451.748 131.764 450.554 131.5C450.523 131.494 450.492 131.494 450.462 131.501C450.431 131.507 450.403 131.52 450.377 131.537C450.352 131.555 450.33 131.578 450.314 131.604C450.297 131.631 450.286 131.66 450.281 131.691C450.273 131.721 450.272 131.753 450.277 131.784C450.283 131.816 450.295 131.845 450.313 131.871C450.332 131.897 450.355 131.919 450.383 131.935C450.41 131.951 450.44 131.96 450.472 131.963C451.064 132.087 451.667 132.147 452.272 132.141Z" fill="#263238"/>
<path d="M462.785 116.842C462.871 116.84 462.956 116.817 463.03 116.773C463.139 116.708 463.217 116.603 463.247 116.48C463.278 116.357 463.259 116.227 463.194 116.119C462.743 115.353 462.115 114.705 461.363 114.231C460.611 113.757 459.757 113.469 458.871 113.392C458.809 113.39 458.746 113.401 458.688 113.423C458.629 113.445 458.575 113.479 458.53 113.522C458.484 113.565 458.448 113.617 458.422 113.674C458.396 113.731 458.382 113.793 458.381 113.855C458.379 113.918 458.389 113.981 458.412 114.039C458.434 114.098 458.468 114.151 458.511 114.197C458.554 114.243 458.605 114.279 458.662 114.305C458.72 114.33 458.781 114.345 458.844 114.346C459.576 114.427 460.277 114.68 460.891 115.086C461.506 115.491 462.014 116.037 462.376 116.678C462.426 116.736 462.489 116.781 462.56 116.81C462.631 116.838 462.708 116.849 462.785 116.842Z" fill="#263238"/>
<path d="M442.441 112.996C442.517 113.014 442.596 113.014 442.673 112.996C443.306 112.622 444.019 112.402 444.753 112.354C445.488 112.307 446.223 112.433 446.9 112.724C447.01 112.77 447.134 112.773 447.247 112.732C447.36 112.691 447.453 112.609 447.508 112.502C447.563 112.396 447.575 112.272 447.544 112.157C447.512 112.041 447.438 111.942 447.336 111.878C446.519 111.508 445.626 111.341 444.731 111.391C443.836 111.441 442.966 111.706 442.195 112.165C442.088 112.227 442.01 112.33 441.977 112.449C441.944 112.569 441.959 112.697 442.018 112.806C442.065 112.873 442.129 112.926 442.203 112.96C442.277 112.993 442.36 113.006 442.441 112.996Z" fill="#263238"/>
<path d="M497.064 169.297C497.991 170.197 498.632 170.906 499.355 171.71C500.078 172.515 500.719 173.306 501.373 174.11C502.668 175.733 503.909 177.396 505.068 179.101C507.373 182.537 509.415 186.143 511.177 189.886C512.935 193.648 514.354 197.559 515.417 201.572C515.949 203.576 516.426 205.663 516.781 207.667C517.457 210.563 517.126 213.603 515.84 216.285C515.092 217.693 514.056 218.929 512.799 219.912C511.71 220.749 510.513 221.437 509.241 221.957C507.052 222.801 504.758 223.342 502.423 223.566C498.28 223.964 494.105 223.909 489.974 223.402C482.064 222.482 474.258 220.825 466.657 218.453L467.912 213.503C471.621 214.116 475.438 214.689 479.202 215.085C482.965 215.48 486.756 215.835 490.478 215.916C494.084 216.046 497.695 215.845 501.264 215.316C502.801 215.066 504.296 214.608 505.709 213.953C506.575 213.625 507.289 212.989 507.713 212.167C507.828 211.852 507.883 211.519 507.877 211.185C507.896 210.94 507.896 210.694 507.877 210.449C507.877 210.176 507.782 209.93 507.659 209.426C507.277 207.667 506.773 205.935 506.227 204.217C505.118 200.792 503.75 197.455 502.137 194.236C500.516 190.998 498.656 187.885 496.573 184.923C495.551 183.423 494.474 181.964 493.355 180.56C492.796 179.851 492.21 179.196 491.637 178.501C491.065 177.805 490.41 177.137 489.96 176.646L497.064 169.297Z" fill="#FFC3BD"/>
<path d="M471.034 214.253L461.489 209.194L461.053 221.834C461.053 221.834 467.871 222.27 471.77 219.107L471.034 214.253Z" fill="#FFC3BD"/>
<path d="M454.29 282.252L462.171 196.609L445.332 183.71L393.926 178.978L384.995 275.871L454.29 282.252Z" fill="#445FEB"/>
<path opacity="0.8" d="M454.29 282.252L462.171 196.609L445.332 183.71L393.926 178.978L384.995 275.871L454.29 282.252Z" fill="white"/>
<path d="M462.171 196.609L445.331 183.71L449.749 199.145L462.171 196.609Z" fill="#445FEB"/>
<path d="M391.022 290.843C402.619 290.843 412.02 281.441 412.02 269.844C412.02 258.247 402.619 248.846 391.022 248.846C379.425 248.846 370.023 258.247 370.023 269.844C370.023 281.441 379.425 290.843 391.022 290.843Z" fill="#445FEB"/>
<path d="M401.396 282.968C408.653 277.236 409.888 266.706 404.155 259.45C398.422 252.193 387.893 250.958 380.636 256.691C373.38 262.424 372.145 272.953 377.878 280.21C383.61 287.466 394.14 288.701 401.396 282.968Z" fill="white"/>
<path d="M401.371 268.372L393.981 267.513L394.84 260.122L389.549 259.495L388.69 266.885L381.3 266.013L380.672 271.317L388.063 272.19L387.19 279.566L392.494 280.194L393.353 272.803L400.744 273.676L401.371 268.372Z" fill="#445FEB"/>
<path opacity="0.4" d="M449.599 214.362C449.531 215.112 449.315 215.84 448.965 216.506C448.615 217.173 448.137 217.763 447.558 218.244C446.979 218.726 446.311 219.088 445.592 219.311C444.873 219.534 444.117 219.613 443.368 219.543L405.871 216.094C404.358 215.952 402.964 215.216 401.993 214.048C401.021 212.88 400.553 211.375 400.689 209.862C400.758 209.113 400.973 208.384 401.324 207.718C401.674 207.052 402.152 206.461 402.731 205.98C403.31 205.499 403.978 205.136 404.696 204.913C405.415 204.69 406.171 204.611 406.921 204.681L444.418 208.131C445.167 208.199 445.896 208.415 446.562 208.765C447.229 209.115 447.819 209.593 448.3 210.172C448.782 210.751 449.144 211.419 449.367 212.138C449.59 212.857 449.669 213.612 449.599 214.362Z" fill="#445FEB"/>
<path opacity="0.4" d="M436.823 229.838C436.755 230.588 436.539 231.316 436.189 231.983C435.838 232.649 435.36 233.239 434.781 233.721C434.203 234.202 433.535 234.564 432.816 234.787C432.097 235.01 431.341 235.089 430.592 235.02L404.384 232.606C403.635 232.538 402.906 232.322 402.24 231.972C401.574 231.621 400.983 231.143 400.502 230.564C400.021 229.986 399.658 229.318 399.435 228.599C399.213 227.88 399.134 227.124 399.203 226.375C399.271 225.625 399.487 224.896 399.837 224.23C400.188 223.564 400.666 222.974 401.245 222.492C401.823 222.011 402.491 221.649 403.21 221.426C403.929 221.203 404.685 221.124 405.434 221.193L431.642 223.62C433.151 223.762 434.544 224.496 435.515 225.661C436.485 226.826 436.956 228.327 436.823 229.838Z" fill="#445FEB"/>
<path d="M455.654 209.944L457.085 219.393L461.039 221.834L461.476 209.194L455.654 209.944Z" fill="#FFC3BD"/>
<path d="M494.964 158.17C500.978 159.234 509.404 176.469 509.404 176.469L494.255 190.105C494.255 190.105 482.202 176.96 482.842 169.133C483.401 162.52 487.328 156.807 494.964 158.17Z" fill="#263238"/>
<path d="M555.342 452.013C555.499 452.01 555.654 451.988 555.805 451.945C557.251 451.454 558.192 448.795 558.628 447.254C558.637 447.21 558.634 447.164 558.62 447.121C558.606 447.078 558.58 447.039 558.546 447.009C558.51 446.979 558.464 446.963 558.417 446.963C558.369 446.963 558.324 446.979 558.287 447.009C557.851 447.227 554.006 449.286 553.883 450.799C553.865 450.965 553.894 451.131 553.966 451.281C554.038 451.43 554.151 451.556 554.292 451.645C554.589 451.884 554.96 452.014 555.342 452.013ZM558.069 447.677C557.401 449.804 556.542 451.209 555.724 451.481C555.538 451.539 555.341 451.546 555.152 451.503C554.963 451.46 554.789 451.368 554.646 451.236C554.573 451.194 554.513 451.132 554.475 451.057C554.436 450.982 554.42 450.897 554.428 450.813C554.428 449.886 556.678 448.427 558.001 447.677H558.069Z" fill="#445FEB"/>
<path d="M554.742 448.277C556.052 448.271 557.343 447.968 558.519 447.391C558.553 447.368 558.58 447.338 558.599 447.302C558.618 447.266 558.628 447.227 558.628 447.186C558.63 447.144 558.619 447.102 558.597 447.066C558.575 447.029 558.543 447 558.505 446.982C558.383 446.913 555.342 445.236 553.706 445.823C553.5 445.883 553.311 445.991 553.154 446.138C552.998 446.284 552.879 446.466 552.806 446.668C552.703 446.859 552.669 447.079 552.709 447.293C552.749 447.506 552.86 447.699 553.024 447.841C553.532 448.173 554.137 448.327 554.742 448.277ZM557.864 447.186C556.569 447.745 554.046 448.086 553.337 447.486C553.215 447.377 553.092 447.213 553.256 446.845C553.304 446.71 553.384 446.587 553.488 446.488C553.592 446.389 553.718 446.315 553.856 446.273C554.96 445.877 557.005 446.763 557.864 447.241V447.186Z" fill="#445FEB"/>
<path d="M475.507 482.352C476.825 482.32 478.137 482.151 479.42 481.847C479.465 481.831 479.504 481.802 479.531 481.763C479.559 481.723 479.573 481.677 479.573 481.629C479.573 481.581 479.559 481.535 479.531 481.496C479.504 481.457 479.465 481.427 479.42 481.411C478.834 481.125 473.611 478.684 472.302 479.611C472.182 479.689 472.086 479.8 472.026 479.93C471.966 480.06 471.943 480.205 471.961 480.347C471.965 480.614 472.03 480.877 472.154 481.114C472.277 481.35 472.454 481.555 472.67 481.711C473.523 482.221 474.517 482.446 475.507 482.352ZM478.602 481.534C477.061 481.82 474.198 482.202 473.011 481.316C472.859 481.196 472.734 481.045 472.645 480.874C472.556 480.702 472.504 480.513 472.493 480.32C472.481 480.26 472.488 480.198 472.512 480.142C472.537 480.086 472.578 480.039 472.63 480.007C473.352 479.502 476.434 480.579 478.602 481.534Z" fill="#445FEB"/>
<path d="M479.365 481.861C479.419 481.877 479.476 481.877 479.529 481.861C479.563 481.831 479.588 481.792 479.6 481.748C479.612 481.705 479.611 481.659 479.597 481.616C479.597 481.397 478.37 476.257 475.507 476.584C474.798 476.679 474.593 477.02 474.566 477.307C474.388 478.67 477.675 481.247 479.243 481.902L479.365 481.861ZM475.793 476.993C477.606 476.993 478.656 479.993 479.011 481.193C477.306 480.293 474.92 478.152 475.07 477.32C475.07 477.252 475.07 477.061 475.602 477.007L475.793 476.993Z" fill="#445FEB"/>
<path d="M455.749 118.71L453.581 117.592C453.581 117.592 454.413 119.623 455.749 118.71Z" fill="#263238"/>
</svg>
